%TF.GenerationSoftware,KiCad,Pcbnew,8.0.7*%
%TF.CreationDate,2025-07-11T10:43:35+03:00*%
%TF.ProjectId,switch board,73776974-6368-4206-926f-6172642e6b69,rev?*%
%TF.SameCoordinates,Original*%
%TF.FileFunction,Copper,L2,Bot*%
%TF.FilePolarity,Positive*%
%FSLAX46Y46*%
G04 Gerber Fmt 4.6, Leading zero omitted, Abs format (unit mm)*
G04 Created by KiCad (PCBNEW 8.0.7) date 2025-07-11 10:43:35*
%MOMM*%
%LPD*%
G01*
G04 APERTURE LIST*
G04 Aperture macros list*
%AMRoundRect*
0 Rectangle with rounded corners*
0 $1 Rounding radius*
0 $2 $3 $4 $5 $6 $7 $8 $9 X,Y pos of 4 corners*
0 Add a 4 corners polygon primitive as box body*
4,1,4,$2,$3,$4,$5,$6,$7,$8,$9,$2,$3,0*
0 Add four circle primitives for the rounded corners*
1,1,$1+$1,$2,$3*
1,1,$1+$1,$4,$5*
1,1,$1+$1,$6,$7*
1,1,$1+$1,$8,$9*
0 Add four rect primitives between the rounded corners*
20,1,$1+$1,$2,$3,$4,$5,0*
20,1,$1+$1,$4,$5,$6,$7,0*
20,1,$1+$1,$6,$7,$8,$9,0*
20,1,$1+$1,$8,$9,$2,$3,0*%
G04 Aperture macros list end*
%TA.AperFunction,ComponentPad*%
%ADD10R,1.070000X1.800000*%
%TD*%
%TA.AperFunction,ComponentPad*%
%ADD11O,1.070000X1.800000*%
%TD*%
%TA.AperFunction,ComponentPad*%
%ADD12O,1.810000X3.620000*%
%TD*%
%TA.AperFunction,ComponentPad*%
%ADD13RoundRect,0.250000X0.600000X0.600000X-0.600000X0.600000X-0.600000X-0.600000X0.600000X-0.600000X0*%
%TD*%
%TA.AperFunction,ComponentPad*%
%ADD14C,1.700000*%
%TD*%
%TA.AperFunction,ViaPad*%
%ADD15C,0.600000*%
%TD*%
%TA.AperFunction,Conductor*%
%ADD16C,0.200000*%
%TD*%
G04 APERTURE END LIST*
D10*
%TO.P,D8,1,A*%
%TO.N,N/C*%
X163515534Y-74595816D03*
D11*
%TO.P,D8,2,RK*%
X162245534Y-74595816D03*
%TO.P,D8,3,GK*%
X160975534Y-74595816D03*
%TO.P,D8,4,BK*%
X159705534Y-74595816D03*
%TD*%
D10*
%TO.P,D11,1,A*%
%TO.N,N/C*%
X163515534Y-121396344D03*
D11*
%TO.P,D11,2,RK*%
X162245534Y-121396344D03*
%TO.P,D11,3,GK*%
X160975534Y-121396344D03*
%TO.P,D11,4,BK*%
X159705534Y-121396344D03*
%TD*%
D12*
%TO.P,S4,1*%
%TO.N,N/C*%
X144635534Y-121379023D03*
%TO.P,S4,2*%
X149335534Y-121379023D03*
%TO.P,S4,3*%
X154035534Y-121379023D03*
%TD*%
D10*
%TO.P,D9,1,A*%
%TO.N,N/C*%
X163515534Y-90195992D03*
D11*
%TO.P,D9,2,RK*%
X162245534Y-90195992D03*
%TO.P,D9,3,GK*%
X160975534Y-90195992D03*
%TO.P,D9,4,BK*%
X159705534Y-90195992D03*
%TD*%
D12*
%TO.P,S2,1*%
%TO.N,N/C*%
X144635534Y-90244023D03*
%TO.P,S2,2*%
X149335534Y-90244023D03*
%TO.P,S2,3*%
X154035534Y-90244023D03*
%TD*%
%TO.P,S5,1*%
%TO.N,N/C*%
X144765534Y-136946523D03*
%TO.P,S5,2*%
X149465534Y-136946523D03*
%TO.P,S5,3*%
X154165534Y-136946523D03*
%TD*%
%TO.P,S3,1*%
%TO.N,N/C*%
X144635534Y-105811523D03*
%TO.P,S3,2*%
X149335534Y-105811523D03*
%TO.P,S3,3*%
X154035534Y-105811523D03*
%TD*%
D10*
%TO.P,D10,1,A*%
%TO.N,N/C*%
X163515534Y-105796168D03*
D11*
%TO.P,D10,2,RK*%
X162245534Y-105796168D03*
%TO.P,D10,3,GK*%
X160975534Y-105796168D03*
%TO.P,D10,4,BK*%
X159705534Y-105796168D03*
%TD*%
D10*
%TO.P,D12,1,A*%
%TO.N,N/C*%
X163515534Y-136996523D03*
D11*
%TO.P,D12,2,RK*%
X162245534Y-136996523D03*
%TO.P,D12,3,GK*%
X160975534Y-136996523D03*
%TO.P,D12,4,BK*%
X159705534Y-136996523D03*
%TD*%
D12*
%TO.P,S1,1*%
%TO.N,N/C*%
X144765534Y-74676523D03*
%TO.P,S1,2*%
X149465534Y-74676523D03*
%TO.P,S1,3*%
X154165534Y-74676523D03*
%TD*%
D13*
%TO.P,J7,1,Pin_1*%
%TO.N,N/C*%
X136825534Y-90036523D03*
D14*
%TO.P,J7,2,Pin_2*%
X134285534Y-90036523D03*
%TO.P,J7,3,Pin_3*%
X136825534Y-92576523D03*
%TO.P,J7,4,Pin_4*%
X134285534Y-92576523D03*
%TO.P,J7,5,Pin_5*%
X136825534Y-95116523D03*
%TO.P,J7,6,Pin_6*%
X134285534Y-95116523D03*
%TO.P,J7,7,Pin_7*%
X136825534Y-97656523D03*
%TO.P,J7,8,Pin_8*%
X134285534Y-97656523D03*
%TO.P,J7,9,Pin_9*%
X136825534Y-100196523D03*
%TO.P,J7,10,Pin_10*%
X134285534Y-100196523D03*
%TD*%
D13*
%TO.P,J8,1,Pin_1*%
%TO.N,N/C*%
X136795534Y-111776523D03*
D14*
%TO.P,J8,2,Pin_2*%
X134255534Y-111776523D03*
%TO.P,J8,3,Pin_3*%
X136795534Y-114316523D03*
%TO.P,J8,4,Pin_4*%
X134255534Y-114316523D03*
%TO.P,J8,5,Pin_5*%
X136795534Y-116856523D03*
%TO.P,J8,6,Pin_6*%
X134255534Y-116856523D03*
%TO.P,J8,7,Pin_7*%
X136795534Y-119396523D03*
%TO.P,J8,8,Pin_8*%
X134255534Y-119396523D03*
%TO.P,J8,9,Pin_9*%
X136795534Y-121936523D03*
%TO.P,J8,10,Pin_10*%
X134255534Y-121936523D03*
%TD*%
D15*
%TO.N,*%
X140920534Y-105076523D03*
X156620534Y-104901523D03*
X156520534Y-120551523D03*
X140620534Y-107826523D03*
X141107299Y-92289758D03*
X160320534Y-96751523D03*
%TD*%
D16*
%TO.N,*%
X160975534Y-82271523D02*
X160975534Y-74595816D01*
X160975534Y-108496523D02*
X160975534Y-105796168D01*
X142820534Y-94851523D02*
X158945534Y-94851523D01*
X160975534Y-113331523D02*
X160975534Y-121396344D01*
X158270534Y-128851523D02*
X160975534Y-131556523D01*
X150395534Y-86716523D02*
X149335534Y-87776523D01*
X134285534Y-90036523D02*
X134285534Y-87236523D01*
X132735534Y-88220837D02*
X132735534Y-110256523D01*
X152395534Y-128851523D02*
X158270534Y-128851523D01*
X134285534Y-92576523D02*
X133135534Y-93726523D01*
X160975534Y-131556523D02*
X160975534Y-136996523D01*
X134255534Y-124336523D02*
X136320534Y-126401523D01*
X156845534Y-124629023D02*
X161293034Y-124629023D01*
X149335534Y-103176523D02*
X150135534Y-102376523D01*
X140620534Y-107826523D02*
X147595534Y-114801523D01*
X149335534Y-121396344D02*
X149335534Y-122856523D01*
X134285534Y-87236523D02*
X136595534Y-84926523D01*
X150075534Y-123596523D02*
X155813034Y-123596523D01*
X134255534Y-121936523D02*
X134255534Y-124336523D01*
X162245534Y-103156523D02*
X162245534Y-105811523D01*
X161265534Y-86716523D02*
X150395534Y-86716523D01*
X136320534Y-126401523D02*
X148745534Y-126401523D01*
X162245534Y-87696523D02*
X161265534Y-86716523D01*
X158945534Y-94851523D02*
X160975534Y-92821523D01*
X158195534Y-94451523D02*
X143269064Y-94451523D01*
X146845534Y-108726523D02*
X147670534Y-109551523D01*
X157515179Y-105796168D02*
X159705534Y-105796168D01*
X158270534Y-110626523D02*
X160975534Y-113331523D01*
X157320534Y-84501523D02*
X136454848Y-84501523D01*
X136595534Y-84926523D02*
X158320534Y-84926523D01*
X156620534Y-104901523D02*
X157515179Y-105796168D01*
X139795534Y-102626523D02*
X135195534Y-102626523D01*
X152295534Y-129951523D02*
X158195534Y-129951523D01*
X147595534Y-114801523D02*
X147595534Y-124051523D01*
X134285534Y-101716523D02*
X134285534Y-100196523D01*
X140545534Y-92576523D02*
X142820534Y-94851523D01*
X149335534Y-105796168D02*
X149335534Y-103176523D01*
X146470534Y-110626523D02*
X158270534Y-110626523D01*
X161465534Y-102376523D02*
X162245534Y-103156523D01*
X140920534Y-105076523D02*
X146470534Y-110626523D01*
X149335534Y-122856523D02*
X150075534Y-123596523D01*
X147670534Y-109551523D02*
X159920534Y-109551523D01*
X149335534Y-87776523D02*
X149335534Y-90195992D01*
X155813034Y-123596523D02*
X156845534Y-124629023D01*
X136454848Y-84501523D02*
X132735534Y-88220837D01*
X159920534Y-109551523D02*
X160975534Y-108496523D01*
X133135534Y-101132209D02*
X135154848Y-103151523D01*
X132735534Y-110256523D02*
X134255534Y-111776523D01*
X159705534Y-92941523D02*
X158195534Y-94451523D01*
X160320534Y-96751523D02*
X145670534Y-96751523D01*
X156520534Y-120551523D02*
X157365355Y-121396344D01*
X150135534Y-102376523D02*
X161465534Y-102376523D01*
X159705534Y-131461523D02*
X159705534Y-136996523D01*
X147595534Y-124051523D02*
X152395534Y-128851523D01*
X136825534Y-92576523D02*
X140545534Y-92576523D01*
X133135534Y-93726523D02*
X133135534Y-101132209D01*
X161293034Y-124629023D02*
X162245534Y-123676523D01*
X158195534Y-129951523D02*
X159705534Y-131461523D01*
X146845534Y-104651523D02*
X146845534Y-108726523D01*
X162245534Y-123676523D02*
X162245534Y-121379023D01*
X160975534Y-92821523D02*
X160975534Y-90195992D01*
X159705534Y-82116523D02*
X157320534Y-84501523D01*
X162245534Y-90244023D02*
X162245534Y-87696523D01*
X143269064Y-94451523D02*
X141107299Y-92289758D01*
X135154848Y-103151523D02*
X145345534Y-103151523D01*
X145670534Y-96751523D02*
X139795534Y-102626523D01*
X148745534Y-126401523D02*
X152295534Y-129951523D01*
X157365355Y-121396344D02*
X159705534Y-121396344D01*
X159705534Y-90195992D02*
X159705534Y-92941523D01*
X135195534Y-102626523D02*
X134285534Y-101716523D01*
X159705534Y-74595816D02*
X159705534Y-82116523D01*
X145345534Y-103151523D02*
X146845534Y-104651523D01*
X158320534Y-84926523D02*
X160975534Y-82271523D01*
%TD*%
%TA.AperFunction,NonConductor*%
G36*
X147718074Y-56325451D02*
G01*
X147780916Y-56325450D01*
X147786999Y-56325598D01*
X148120898Y-56341999D01*
X148133002Y-56343191D01*
X148460662Y-56391792D01*
X148472593Y-56394166D01*
X148564979Y-56417306D01*
X148793910Y-56474649D01*
X148805538Y-56478175D01*
X149117436Y-56589773D01*
X149128677Y-56594429D01*
X149428120Y-56736054D01*
X149438841Y-56741785D01*
X149505184Y-56781549D01*
X149722956Y-56912076D01*
X149733074Y-56918836D01*
X149999139Y-57116163D01*
X150008545Y-57123883D01*
X150253981Y-57346334D01*
X150262572Y-57354925D01*
X150485026Y-57600365D01*
X150485027Y-57600366D01*
X150492747Y-57609773D01*
X150690062Y-57875826D01*
X150696822Y-57885943D01*
X150867117Y-58170064D01*
X150872854Y-58180797D01*
X151014474Y-58480233D01*
X151019131Y-58491475D01*
X151043487Y-58559547D01*
X151123491Y-58783150D01*
X151130721Y-58803355D01*
X151134253Y-58815001D01*
X151214735Y-59136317D01*
X151217109Y-59148252D01*
X151265708Y-59475903D01*
X151266901Y-59488013D01*
X151283311Y-59822126D01*
X151283460Y-59828209D01*
X151283460Y-59900823D01*
X151283461Y-59900836D01*
X151283461Y-65890841D01*
X151317569Y-66018137D01*
X151321900Y-66025638D01*
X151383461Y-66132264D01*
X151476647Y-66225450D01*
X151590775Y-66291342D01*
X151718069Y-66325450D01*
X151718071Y-66325450D01*
X152038070Y-66325450D01*
X152038074Y-66325451D01*
X152100916Y-66325450D01*
X152106999Y-66325598D01*
X152440898Y-66341999D01*
X152453002Y-66343191D01*
X152780662Y-66391792D01*
X152792593Y-66394166D01*
X152884979Y-66417306D01*
X153113910Y-66474649D01*
X153125538Y-66478175D01*
X153437436Y-66589773D01*
X153448677Y-66594429D01*
X153748120Y-66736054D01*
X153758841Y-66741785D01*
X153825186Y-66781550D01*
X154042956Y-66912076D01*
X154053074Y-66918836D01*
X154319139Y-67116163D01*
X154328545Y-67123883D01*
X154573981Y-67346334D01*
X154582572Y-67354925D01*
X154805027Y-67600366D01*
X154812747Y-67609773D01*
X155010062Y-67875826D01*
X155016822Y-67885943D01*
X155187117Y-68170064D01*
X155192854Y-68180797D01*
X155334474Y-68480233D01*
X155339131Y-68491475D01*
X155450721Y-68803355D01*
X155454253Y-68815001D01*
X155534735Y-69136317D01*
X155537109Y-69148252D01*
X155585708Y-69475903D01*
X155586901Y-69488013D01*
X155603309Y-69822066D01*
X155603458Y-69828149D01*
X155603458Y-70973087D01*
X155637566Y-71100383D01*
X155670512Y-71157446D01*
X155703458Y-71214510D01*
X155796644Y-71307696D01*
X155910772Y-71373588D01*
X156038066Y-71407696D01*
X164721800Y-71407696D01*
X164788839Y-71427381D01*
X164834594Y-71480185D01*
X164845800Y-71531696D01*
X164845800Y-140118204D01*
X164826115Y-140185243D01*
X164773311Y-140230998D01*
X164721800Y-140242204D01*
X156038066Y-140242204D01*
X155910770Y-140276312D01*
X155796644Y-140342204D01*
X155796641Y-140342206D01*
X155703460Y-140435387D01*
X155703458Y-140435390D01*
X155637566Y-140549516D01*
X155603458Y-140676812D01*
X155603458Y-141821890D01*
X155603309Y-141827976D01*
X155586901Y-142161871D01*
X155585708Y-142173981D01*
X155537102Y-142501636D01*
X155534728Y-142513570D01*
X155454240Y-142834887D01*
X155450707Y-142846532D01*
X155339115Y-143158404D01*
X155334458Y-143169646D01*
X155192832Y-143469085D01*
X155187096Y-143479817D01*
X155016806Y-143763926D01*
X155010046Y-143774044D01*
X154812719Y-144040108D01*
X154804999Y-144049514D01*
X154582555Y-144294944D01*
X154573951Y-144303549D01*
X154328511Y-144526003D01*
X154319117Y-144533712D01*
X154053053Y-144731040D01*
X154042942Y-144737796D01*
X153758820Y-144908095D01*
X153748094Y-144913828D01*
X153448655Y-145055454D01*
X153437413Y-145060111D01*
X153125543Y-145171703D01*
X153113899Y-145175236D01*
X152792577Y-145255727D01*
X152780642Y-145258101D01*
X152452990Y-145306707D01*
X152440881Y-145307900D01*
X152122800Y-145323531D01*
X152107147Y-145324301D01*
X152101062Y-145324450D01*
X151718069Y-145324450D01*
X151590773Y-145358558D01*
X151476647Y-145424450D01*
X151476644Y-145424452D01*
X151383463Y-145517633D01*
X151383461Y-145517636D01*
X151317569Y-145631762D01*
X151283461Y-145759058D01*
X151283461Y-151821890D01*
X151283312Y-151827976D01*
X151266904Y-152161871D01*
X151265711Y-152173981D01*
X151217105Y-152501636D01*
X151214731Y-152513570D01*
X151134243Y-152834887D01*
X151130710Y-152846532D01*
X151019116Y-153158409D01*
X151014459Y-153169651D01*
X150872837Y-153469082D01*
X150867101Y-153479814D01*
X150696805Y-153763935D01*
X150690050Y-153774046D01*
X150492720Y-154040111D01*
X150485007Y-154049510D01*
X150262558Y-154294946D01*
X150253953Y-154303551D01*
X150008517Y-154526001D01*
X149999118Y-154533714D01*
X149953859Y-154567282D01*
X149733060Y-154731039D01*
X149722943Y-154737799D01*
X149551178Y-154840752D01*
X149438822Y-154908097D01*
X149428096Y-154913830D01*
X149128657Y-155055457D01*
X149117414Y-155060114D01*
X148805544Y-155171706D01*
X148793900Y-155175239D01*
X148472578Y-155255730D01*
X148460643Y-155258104D01*
X148132990Y-155306710D01*
X148120881Y-155307903D01*
X147802852Y-155323532D01*
X147787208Y-155324301D01*
X147781123Y-155324450D01*
X140787019Y-155324450D01*
X140780934Y-155324301D01*
X140770822Y-155323804D01*
X140447038Y-155307894D01*
X140434928Y-155306701D01*
X140107272Y-155258095D01*
X140095338Y-155255721D01*
X139774020Y-155175234D01*
X139762378Y-155171702D01*
X139450504Y-155060109D01*
X139439265Y-155055454D01*
X139139817Y-154913824D01*
X139129085Y-154908088D01*
X138844979Y-154737801D01*
X138834861Y-154731041D01*
X138568797Y-154533714D01*
X138559391Y-154525994D01*
X138313966Y-154303554D01*
X138305361Y-154294949D01*
X138082907Y-154049509D01*
X138075188Y-154040103D01*
X137877865Y-153774046D01*
X137871104Y-153763928D01*
X137841432Y-153714424D01*
X137700807Y-153479809D01*
X137695083Y-153469099D01*
X137553444Y-153169633D01*
X137548799Y-153158420D01*
X137437198Y-152846523D01*
X137433671Y-152834898D01*
X137353179Y-152513567D01*
X137350806Y-152501637D01*
X137302199Y-152173981D01*
X137301006Y-152161871D01*
X137284610Y-151828199D01*
X137284532Y-151825000D01*
X138778776Y-151825000D01*
X138797452Y-152098028D01*
X138797455Y-152098049D01*
X138853134Y-152365988D01*
X138853136Y-152365994D01*
X138869824Y-152412947D01*
X138944786Y-152623863D01*
X138944787Y-152623864D01*
X138944788Y-152623867D01*
X139060167Y-152846532D01*
X139070698Y-152866854D01*
X139228525Y-153090437D01*
X139228529Y-153090441D01*
X139228532Y-153090445D01*
X139415325Y-153290445D01*
X139548445Y-153398740D01*
X139627625Y-153463155D01*
X139627628Y-153463157D01*
X139627631Y-153463159D01*
X139861459Y-153605344D01*
X139861461Y-153605345D01*
X139861463Y-153605346D01*
X140112485Y-153714371D01*
X140376015Y-153788199D01*
X140647143Y-153825455D01*
X140783976Y-153825450D01*
X140783982Y-153825450D01*
X147709805Y-153825450D01*
X147709849Y-153825452D01*
X147718085Y-153825452D01*
X147718089Y-153825453D01*
X147732518Y-153825452D01*
X147732857Y-153825551D01*
X147783981Y-153825549D01*
X147783981Y-153825550D01*
X147920819Y-153825545D01*
X148191945Y-153788269D01*
X148455469Y-153714424D01*
X148706484Y-153605384D01*
X148940314Y-153463180D01*
X149152604Y-153290462D01*
X149339398Y-153090446D01*
X149497218Y-152866858D01*
X149507750Y-152846533D01*
X149623121Y-152623869D01*
X149623122Y-152623867D01*
X149623124Y-152623864D01*
X149714770Y-152365990D01*
X149770449Y-152098038D01*
X149789125Y-151825000D01*
X149770449Y-151551962D01*
X149714770Y-151284010D01*
X149623124Y-151026136D01*
X149596721Y-150975179D01*
X149497223Y-150783150D01*
X149497219Y-150783145D01*
X149497218Y-150783142D01*
X149339398Y-150559554D01*
X149339393Y-150559549D01*
X149339392Y-150559547D01*
X149152611Y-150359545D01*
X149152608Y-150359542D01*
X149152604Y-150359538D01*
X148940314Y-150186820D01*
X148940311Y-150186818D01*
X148940308Y-150186816D01*
X148706486Y-150044617D01*
X148706484Y-150044616D01*
X148455469Y-149935576D01*
X148455467Y-149935575D01*
X148455466Y-149935575D01*
X148191944Y-149861730D01*
X147920821Y-149824455D01*
X147920815Y-149824454D01*
X147857469Y-149824452D01*
X147857433Y-149824450D01*
X147849853Y-149824450D01*
X147783982Y-149824450D01*
X147783973Y-149824449D01*
X147718089Y-149824447D01*
X147718087Y-149824447D01*
X147709849Y-149824447D01*
X147709805Y-149824450D01*
X140710750Y-149824450D01*
X140709262Y-149824546D01*
X140647146Y-149824545D01*
X140647145Y-149824545D01*
X140647143Y-149824545D01*
X140484466Y-149846898D01*
X140376013Y-149861801D01*
X140376009Y-149861802D01*
X140112485Y-149935629D01*
X139861459Y-150044655D01*
X139627631Y-150186840D01*
X139627623Y-150186846D01*
X139415325Y-150359554D01*
X139228532Y-150559554D01*
X139228520Y-150559569D01*
X139070696Y-150783148D01*
X138944788Y-151026132D01*
X138853136Y-151284005D01*
X138853134Y-151284011D01*
X138797455Y-151551950D01*
X138797452Y-151551971D01*
X138778776Y-151825000D01*
X137284532Y-151825000D01*
X137284461Y-151822113D01*
X137284461Y-135954512D01*
X143660034Y-135954512D01*
X143660034Y-137938533D01*
X143687254Y-138110395D01*
X143741028Y-138275892D01*
X143820028Y-138430934D01*
X143922300Y-138571701D01*
X143922304Y-138571706D01*
X144045350Y-138694752D01*
X144045355Y-138694756D01*
X144168139Y-138783963D01*
X144186126Y-138797031D01*
X144284915Y-138847367D01*
X144341164Y-138876028D01*
X144341166Y-138876028D01*
X144341169Y-138876030D01*
X144429877Y-138904853D01*
X144506661Y-138929802D01*
X144678524Y-138957023D01*
X144678529Y-138957023D01*
X144852544Y-138957023D01*
X145024406Y-138929802D01*
X145189899Y-138876030D01*
X145344942Y-138797031D01*
X145485719Y-138694751D01*
X145608762Y-138571708D01*
X145711042Y-138430931D01*
X145790041Y-138275888D01*
X145843813Y-138110395D01*
X145847773Y-138085391D01*
X145871034Y-137938533D01*
X145871034Y-135954512D01*
X148360034Y-135954512D01*
X148360034Y-137938533D01*
X148387254Y-138110395D01*
X148441028Y-138275892D01*
X148520028Y-138430934D01*
X148622300Y-138571701D01*
X148622304Y-138571706D01*
X148745350Y-138694752D01*
X148745355Y-138694756D01*
X148868139Y-138783963D01*
X148886126Y-138797031D01*
X148984915Y-138847367D01*
X149041164Y-138876028D01*
X149041166Y-138876028D01*
X149041169Y-138876030D01*
X149129877Y-138904853D01*
X149206661Y-138929802D01*
X149378524Y-138957023D01*
X149378529Y-138957023D01*
X149552544Y-138957023D01*
X149724406Y-138929802D01*
X149889899Y-138876030D01*
X150044942Y-138797031D01*
X150185719Y-138694751D01*
X150308762Y-138571708D01*
X150411042Y-138430931D01*
X150490041Y-138275888D01*
X150543813Y-138110395D01*
X150547773Y-138085391D01*
X150571034Y-137938533D01*
X150571034Y-135954512D01*
X153060034Y-135954512D01*
X153060034Y-137938533D01*
X153087254Y-138110395D01*
X153141028Y-138275892D01*
X153220028Y-138430934D01*
X153322300Y-138571701D01*
X153322304Y-138571706D01*
X153445350Y-138694752D01*
X153445355Y-138694756D01*
X153568139Y-138783963D01*
X153586126Y-138797031D01*
X153684915Y-138847367D01*
X153741164Y-138876028D01*
X153741166Y-138876028D01*
X153741169Y-138876030D01*
X153829877Y-138904853D01*
X153906661Y-138929802D01*
X154078524Y-138957023D01*
X154078529Y-138957023D01*
X154252544Y-138957023D01*
X154424406Y-138929802D01*
X154589899Y-138876030D01*
X154744942Y-138797031D01*
X154885719Y-138694751D01*
X155008762Y-138571708D01*
X155111042Y-138430931D01*
X155190041Y-138275888D01*
X155243813Y-138110395D01*
X155247773Y-138085391D01*
X155271034Y-137938533D01*
X155271034Y-135954512D01*
X155243813Y-135782650D01*
X155190039Y-135617153D01*
X155161378Y-135560904D01*
X155111042Y-135462115D01*
X155097974Y-135444128D01*
X155008767Y-135321344D01*
X155008763Y-135321339D01*
X154885717Y-135198293D01*
X154885712Y-135198289D01*
X154744945Y-135096017D01*
X154744944Y-135096016D01*
X154744942Y-135096015D01*
X154696526Y-135071346D01*
X154589903Y-135017017D01*
X154424406Y-134963243D01*
X154252544Y-134936023D01*
X154252539Y-134936023D01*
X154078529Y-134936023D01*
X154078524Y-134936023D01*
X153906661Y-134963243D01*
X153741164Y-135017017D01*
X153586122Y-135096017D01*
X153445355Y-135198289D01*
X153445350Y-135198293D01*
X153322304Y-135321339D01*
X153322300Y-135321344D01*
X153220028Y-135462111D01*
X153141028Y-135617153D01*
X153087254Y-135782650D01*
X153060034Y-135954512D01*
X150571034Y-135954512D01*
X150543813Y-135782650D01*
X150490039Y-135617153D01*
X150461378Y-135560904D01*
X150411042Y-135462115D01*
X150397974Y-135444128D01*
X150308767Y-135321344D01*
X150308763Y-135321339D01*
X150185717Y-135198293D01*
X150185712Y-135198289D01*
X150044945Y-135096017D01*
X150044944Y-135096016D01*
X150044942Y-135096015D01*
X149996526Y-135071346D01*
X149889903Y-135017017D01*
X149724406Y-134963243D01*
X149552544Y-134936023D01*
X149552539Y-134936023D01*
X149378529Y-134936023D01*
X149378524Y-134936023D01*
X149206661Y-134963243D01*
X149041164Y-135017017D01*
X148886122Y-135096017D01*
X148745355Y-135198289D01*
X148745350Y-135198293D01*
X148622304Y-135321339D01*
X148622300Y-135321344D01*
X148520028Y-135462111D01*
X148441028Y-135617153D01*
X148387254Y-135782650D01*
X148360034Y-135954512D01*
X145871034Y-135954512D01*
X145843813Y-135782650D01*
X145790039Y-135617153D01*
X145761378Y-135560904D01*
X145711042Y-135462115D01*
X145697974Y-135444128D01*
X145608767Y-135321344D01*
X145608763Y-135321339D01*
X145485717Y-135198293D01*
X145485712Y-135198289D01*
X145344945Y-135096017D01*
X145344944Y-135096016D01*
X145344942Y-135096015D01*
X145296526Y-135071346D01*
X145189903Y-135017017D01*
X145024406Y-134963243D01*
X144852544Y-134936023D01*
X144852539Y-134936023D01*
X144678529Y-134936023D01*
X144678524Y-134936023D01*
X144506661Y-134963243D01*
X144341164Y-135017017D01*
X144186122Y-135096017D01*
X144045355Y-135198289D01*
X144045350Y-135198293D01*
X143922304Y-135321339D01*
X143922300Y-135321344D01*
X143820028Y-135462111D01*
X143741028Y-135617153D01*
X143687254Y-135782650D01*
X143660034Y-135954512D01*
X137284461Y-135954512D01*
X137284461Y-130759060D01*
X137284461Y-130759058D01*
X137250353Y-130631764D01*
X137184461Y-130517636D01*
X137091275Y-130424450D01*
X137034211Y-130391504D01*
X136977148Y-130358558D01*
X136913500Y-130341504D01*
X136849853Y-130324450D01*
X136849852Y-130324450D01*
X133287019Y-130324450D01*
X133280934Y-130324301D01*
X133270822Y-130323804D01*
X132947038Y-130307894D01*
X132934928Y-130306701D01*
X132607272Y-130258095D01*
X132595338Y-130255721D01*
X132274020Y-130175234D01*
X132262378Y-130171702D01*
X131950504Y-130060109D01*
X131939265Y-130055454D01*
X131639817Y-129913824D01*
X131629085Y-129908088D01*
X131344979Y-129737801D01*
X131334861Y-129731041D01*
X131068797Y-129533714D01*
X131059391Y-129525994D01*
X130813966Y-129303554D01*
X130805361Y-129294949D01*
X130582907Y-129049509D01*
X130575188Y-129040103D01*
X130377865Y-128774046D01*
X130371104Y-128763928D01*
X130200811Y-128479815D01*
X130195083Y-128469099D01*
X130053444Y-128169633D01*
X130048799Y-128158420D01*
X129937198Y-127846523D01*
X129933671Y-127834898D01*
X129853179Y-127513567D01*
X129850806Y-127501637D01*
X129802199Y-127173981D01*
X129801006Y-127161871D01*
X129784610Y-126828199D01*
X129784461Y-126822113D01*
X129784461Y-121936523D01*
X133199951Y-121936523D01*
X133220233Y-122142455D01*
X133250268Y-122241467D01*
X133280302Y-122340477D01*
X133377849Y-122522973D01*
X133412503Y-122565200D01*
X133509123Y-122682933D01*
X133605743Y-122762225D01*
X133669084Y-122814208D01*
X133851580Y-122911755D01*
X133867030Y-122916441D01*
X133925466Y-122954735D01*
X133953924Y-123018547D01*
X133955034Y-123035101D01*
X133955034Y-124376085D01*
X133975513Y-124452512D01*
X134010451Y-124513028D01*
X134015075Y-124521035D01*
X134015075Y-124521036D01*
X135471794Y-125977754D01*
X136080074Y-126586034D01*
X136136023Y-126641983D01*
X136136025Y-126641984D01*
X136136029Y-126641987D01*
X136204538Y-126681540D01*
X136204545Y-126681544D01*
X136280972Y-126702023D01*
X148569701Y-126702023D01*
X148636740Y-126721708D01*
X148657382Y-126738342D01*
X152055074Y-130136034D01*
X152111023Y-130191983D01*
X152111025Y-130191984D01*
X152111029Y-130191987D01*
X152179538Y-130231540D01*
X152179545Y-130231544D01*
X152255972Y-130252023D01*
X152335096Y-130252023D01*
X158019701Y-130252023D01*
X158086740Y-130271708D01*
X158107382Y-130288342D01*
X159368715Y-131549675D01*
X159402200Y-131610998D01*
X159405034Y-131637356D01*
X159405034Y-135881452D01*
X159385349Y-135948491D01*
X159349925Y-135984554D01*
X159236680Y-136060222D01*
X159236676Y-136060225D01*
X159134236Y-136162665D01*
X159134233Y-136162669D01*
X159053745Y-136283126D01*
X159053738Y-136283139D01*
X158998300Y-136416980D01*
X158998297Y-136416992D01*
X158970034Y-136559078D01*
X158970034Y-137433967D01*
X158998297Y-137576053D01*
X158998300Y-137576065D01*
X159053738Y-137709906D01*
X159053745Y-137709919D01*
X159134233Y-137830376D01*
X159134236Y-137830380D01*
X159236676Y-137932820D01*
X159236680Y-137932823D01*
X159357137Y-138013311D01*
X159357150Y-138013318D01*
X159424165Y-138041076D01*
X159490996Y-138068758D01*
X159633089Y-138097022D01*
X159633093Y-138097023D01*
X159633094Y-138097023D01*
X159777975Y-138097023D01*
X159777976Y-138097022D01*
X159920072Y-138068758D01*
X160053924Y-138013315D01*
X160174388Y-137932823D01*
X160190940Y-137916271D01*
X160252853Y-137854359D01*
X160314176Y-137820874D01*
X160383868Y-137825858D01*
X160428215Y-137854359D01*
X160506676Y-137932820D01*
X160506680Y-137932823D01*
X160627137Y-138013311D01*
X160627150Y-138013318D01*
X160694165Y-138041076D01*
X160760996Y-138068758D01*
X160903089Y-138097022D01*
X160903093Y-138097023D01*
X160903094Y-138097023D01*
X161047975Y-138097023D01*
X161047976Y-138097022D01*
X161190072Y-138068758D01*
X161323924Y-138013315D01*
X161444388Y-137932823D01*
X161460940Y-137916271D01*
X161522853Y-137854359D01*
X161584176Y-137820874D01*
X161653868Y-137825858D01*
X161698215Y-137854359D01*
X161776676Y-137932820D01*
X161776680Y-137932823D01*
X161897137Y-138013311D01*
X161897150Y-138013318D01*
X161964165Y-138041076D01*
X162030996Y-138068758D01*
X162173089Y-138097022D01*
X162173093Y-138097023D01*
X162173094Y-138097023D01*
X162317975Y-138097023D01*
X162317976Y-138097022D01*
X162460072Y-138068758D01*
X162593924Y-138013315D01*
X162645341Y-137978958D01*
X162712018Y-137958080D01*
X162779398Y-137976564D01*
X162817334Y-138013167D01*
X162817433Y-138013315D01*
X162835982Y-138041076D01*
X162902303Y-138085390D01*
X162902304Y-138085391D01*
X162960781Y-138097022D01*
X162960784Y-138097023D01*
X162960786Y-138097023D01*
X164070284Y-138097023D01*
X164070285Y-138097022D01*
X164085102Y-138094075D01*
X164128763Y-138085391D01*
X164128763Y-138085390D01*
X164128765Y-138085390D01*
X164195086Y-138041075D01*
X164239401Y-137974754D01*
X164239401Y-137974752D01*
X164239402Y-137974752D01*
X164251033Y-137916275D01*
X164251034Y-137916273D01*
X164251034Y-136076772D01*
X164251033Y-136076770D01*
X164239402Y-136018293D01*
X164239401Y-136018292D01*
X164195086Y-135951970D01*
X164128764Y-135907655D01*
X164128763Y-135907654D01*
X164070286Y-135896023D01*
X164070282Y-135896023D01*
X162960786Y-135896023D01*
X162960781Y-135896023D01*
X162902304Y-135907654D01*
X162902303Y-135907655D01*
X162835981Y-135951970D01*
X162817334Y-135979878D01*
X162763721Y-136024682D01*
X162694396Y-136033388D01*
X162645342Y-136014087D01*
X162593930Y-135979734D01*
X162593917Y-135979727D01*
X162460076Y-135924289D01*
X162460064Y-135924286D01*
X162317978Y-135896023D01*
X162317974Y-135896023D01*
X162173094Y-135896023D01*
X162173089Y-135896023D01*
X162031003Y-135924286D01*
X162030991Y-135924289D01*
X161897150Y-135979727D01*
X161897137Y-135979734D01*
X161776680Y-136060222D01*
X161776676Y-136060225D01*
X161698215Y-136138687D01*
X161636892Y-136172172D01*
X161567200Y-136167188D01*
X161522853Y-136138687D01*
X161444391Y-136060225D01*
X161444387Y-136060222D01*
X161331143Y-135984554D01*
X161286338Y-135930941D01*
X161276034Y-135881452D01*
X161276034Y-131516963D01*
X161276034Y-131516961D01*
X161271780Y-131501085D01*
X161255556Y-131440535D01*
X161215994Y-131372012D01*
X158455045Y-128611063D01*
X158455043Y-128611062D01*
X158455038Y-128611058D01*
X158386529Y-128571505D01*
X158386524Y-128571502D01*
X158361047Y-128564675D01*
X158310096Y-128551023D01*
X158310094Y-128551023D01*
X152571367Y-128551023D01*
X152504328Y-128531338D01*
X152483686Y-128514704D01*
X147932353Y-123963371D01*
X147898868Y-123902048D01*
X147896034Y-123875690D01*
X147896034Y-114761963D01*
X147896034Y-114761961D01*
X147875556Y-114685535D01*
X147835994Y-114617012D01*
X141159929Y-107940947D01*
X141126444Y-107879624D01*
X141124873Y-107835617D01*
X141126181Y-107826523D01*
X141105699Y-107684066D01*
X141045911Y-107553150D01*
X140951662Y-107444380D01*
X140830587Y-107366570D01*
X140830585Y-107366569D01*
X140830583Y-107366568D01*
X140830584Y-107366568D01*
X140692497Y-107326023D01*
X140692495Y-107326023D01*
X140548573Y-107326023D01*
X140548570Y-107326023D01*
X140410483Y-107366568D01*
X140289407Y-107444379D01*
X140195157Y-107553149D01*
X140195156Y-107553151D01*
X140135368Y-107684066D01*
X140114887Y-107826523D01*
X140135368Y-107968979D01*
X140195156Y-108099894D01*
X140195157Y-108099896D01*
X140289406Y-108208666D01*
X140410481Y-108286476D01*
X140410484Y-108286477D01*
X140410483Y-108286477D01*
X140517641Y-108317940D01*
X140545814Y-108326213D01*
X140548570Y-108327022D01*
X140548572Y-108327023D01*
X140644701Y-108327023D01*
X140711740Y-108346708D01*
X140732382Y-108363342D01*
X147258715Y-114889675D01*
X147292200Y-114950998D01*
X147295034Y-114977356D01*
X147295034Y-124091085D01*
X147315513Y-124167512D01*
X147346126Y-124220535D01*
X147346126Y-124220536D01*
X147355072Y-124236031D01*
X147355077Y-124236038D01*
X149096794Y-125977754D01*
X149130279Y-126039077D01*
X149125295Y-126108769D01*
X149083423Y-126164702D01*
X149017959Y-126189119D01*
X148949686Y-126174267D01*
X148933628Y-126163812D01*
X148930041Y-126161059D01*
X148861529Y-126121505D01*
X148861524Y-126121502D01*
X148836047Y-126114675D01*
X148785096Y-126101023D01*
X148785094Y-126101023D01*
X136496367Y-126101023D01*
X136429328Y-126081338D01*
X136408686Y-126064704D01*
X134592353Y-124248371D01*
X134558868Y-124187048D01*
X134556034Y-124160690D01*
X134556034Y-123035101D01*
X134575719Y-122968062D01*
X134628523Y-122922307D01*
X134644022Y-122916446D01*
X134659488Y-122911755D01*
X134841984Y-122814208D01*
X135001944Y-122682933D01*
X135133219Y-122522973D01*
X135230766Y-122340477D01*
X135290834Y-122142457D01*
X135311117Y-121936523D01*
X135739951Y-121936523D01*
X135760233Y-122142455D01*
X135790268Y-122241467D01*
X135820302Y-122340477D01*
X135917849Y-122522973D01*
X135952503Y-122565200D01*
X136049123Y-122682933D01*
X136145743Y-122762225D01*
X136209084Y-122814208D01*
X136391580Y-122911755D01*
X136589600Y-122971823D01*
X136589599Y-122971823D01*
X136608063Y-122973641D01*
X136795534Y-122992106D01*
X137001468Y-122971823D01*
X137199488Y-122911755D01*
X137381984Y-122814208D01*
X137541944Y-122682933D01*
X137673219Y-122522973D01*
X137770766Y-122340477D01*
X137830834Y-122142457D01*
X137851117Y-121936523D01*
X137830834Y-121730589D01*
X137770766Y-121532569D01*
X137673219Y-121350073D01*
X137621236Y-121286732D01*
X137541944Y-121190112D01*
X137417935Y-121088342D01*
X137381984Y-121058838D01*
X137199488Y-120961291D01*
X137001468Y-120901223D01*
X137001466Y-120901222D01*
X137001468Y-120901222D01*
X136795534Y-120880940D01*
X136589601Y-120901222D01*
X136482648Y-120933666D01*
X136399466Y-120958899D01*
X136391577Y-120961292D01*
X136297691Y-121011476D01*
X136209084Y-121058838D01*
X136209082Y-121058839D01*
X136209081Y-121058840D01*
X136049123Y-121190112D01*
X135917851Y-121350070D01*
X135820303Y-121532566D01*
X135760233Y-121730590D01*
X135739951Y-121936523D01*
X135311117Y-121936523D01*
X135290834Y-121730589D01*
X135230766Y-121532569D01*
X135133219Y-121350073D01*
X135081236Y-121286732D01*
X135001944Y-121190112D01*
X134877935Y-121088342D01*
X134841984Y-121058838D01*
X134659488Y-120961291D01*
X134461468Y-120901223D01*
X134461466Y-120901222D01*
X134461468Y-120901222D01*
X134255534Y-120880940D01*
X134049601Y-120901222D01*
X133942648Y-120933666D01*
X133859466Y-120958899D01*
X133851577Y-120961292D01*
X133757691Y-121011476D01*
X133669084Y-121058838D01*
X133669082Y-121058839D01*
X133669081Y-121058840D01*
X133509123Y-121190112D01*
X133377851Y-121350070D01*
X133280303Y-121532566D01*
X133220233Y-121730590D01*
X133199951Y-121936523D01*
X129784461Y-121936523D01*
X129784461Y-119396523D01*
X133199951Y-119396523D01*
X133220233Y-119602455D01*
X133228830Y-119630795D01*
X133280302Y-119800477D01*
X133377849Y-119982973D01*
X133377851Y-119982975D01*
X133509123Y-120142933D01*
X133597121Y-120215150D01*
X133669084Y-120274208D01*
X133851580Y-120371755D01*
X134049600Y-120431823D01*
X134049599Y-120431823D01*
X134063672Y-120433209D01*
X134255534Y-120452106D01*
X134461468Y-120431823D01*
X134659488Y-120371755D01*
X134841984Y-120274208D01*
X135001944Y-120142933D01*
X135133219Y-119982973D01*
X135230766Y-119800477D01*
X135290834Y-119602457D01*
X135311117Y-119396523D01*
X135739951Y-119396523D01*
X135760233Y-119602455D01*
X135768830Y-119630795D01*
X135820302Y-119800477D01*
X135917849Y-119982973D01*
X135917851Y-119982975D01*
X136049123Y-120142933D01*
X136137121Y-120215150D01*
X136209084Y-120274208D01*
X136391580Y-120371755D01*
X136589600Y-120431823D01*
X136589599Y-120431823D01*
X136603672Y-120433209D01*
X136795534Y-120452106D01*
X137001468Y-120431823D01*
X137149192Y-120387012D01*
X143530034Y-120387012D01*
X143530034Y-122371033D01*
X143557254Y-122542895D01*
X143611028Y-122708392D01*
X143690028Y-122863434D01*
X143792300Y-123004201D01*
X143792304Y-123004206D01*
X143915350Y-123127252D01*
X143915355Y-123127256D01*
X144036617Y-123215357D01*
X144056126Y-123229531D01*
X144138082Y-123271290D01*
X144211164Y-123308528D01*
X144211166Y-123308528D01*
X144211169Y-123308530D01*
X144299877Y-123337353D01*
X144376661Y-123362302D01*
X144548524Y-123389523D01*
X144548529Y-123389523D01*
X144722544Y-123389523D01*
X144894406Y-123362302D01*
X145059899Y-123308530D01*
X145214942Y-123229531D01*
X145355719Y-123127251D01*
X145478762Y-123004208D01*
X145581042Y-122863431D01*
X145660041Y-122708388D01*
X145713813Y-122542895D01*
X145722949Y-122485211D01*
X145741034Y-122371033D01*
X145741034Y-120387012D01*
X145713813Y-120215150D01*
X145673658Y-120091568D01*
X145660041Y-120049658D01*
X145660039Y-120049655D01*
X145660039Y-120049653D01*
X145626063Y-119982973D01*
X145581042Y-119894615D01*
X145512647Y-119800477D01*
X145478767Y-119753844D01*
X145478763Y-119753839D01*
X145355717Y-119630793D01*
X145355712Y-119630789D01*
X145214945Y-119528517D01*
X145214944Y-119528516D01*
X145214942Y-119528515D01*
X145166526Y-119503846D01*
X145059903Y-119449517D01*
X144894406Y-119395743D01*
X144722544Y-119368523D01*
X144722539Y-119368523D01*
X144548529Y-119368523D01*
X144548524Y-119368523D01*
X144376661Y-119395743D01*
X144211164Y-119449517D01*
X144056122Y-119528517D01*
X143915355Y-119630789D01*
X143915350Y-119630793D01*
X143792304Y-119753839D01*
X143792300Y-119753844D01*
X143690028Y-119894611D01*
X143611028Y-120049653D01*
X143557254Y-120215150D01*
X143530034Y-120387012D01*
X137149192Y-120387012D01*
X137199488Y-120371755D01*
X137381984Y-120274208D01*
X137541944Y-120142933D01*
X137673219Y-119982973D01*
X137770766Y-119800477D01*
X137830834Y-119602457D01*
X137851117Y-119396523D01*
X137830834Y-119190589D01*
X137770766Y-118992569D01*
X137673219Y-118810073D01*
X137621236Y-118746732D01*
X137541944Y-118650112D01*
X137381986Y-118518840D01*
X137381987Y-118518840D01*
X137381984Y-118518838D01*
X137199488Y-118421291D01*
X137001468Y-118361223D01*
X137001466Y-118361222D01*
X137001468Y-118361222D01*
X136795534Y-118340940D01*
X136589601Y-118361222D01*
X136391577Y-118421292D01*
X136281432Y-118480166D01*
X136209084Y-118518838D01*
X136209082Y-118518839D01*
X136209081Y-118518840D01*
X136049123Y-118650112D01*
X135917851Y-118810070D01*
X135820303Y-118992566D01*
X135760233Y-119190590D01*
X135739951Y-119396523D01*
X135311117Y-119396523D01*
X135290834Y-119190589D01*
X135230766Y-118992569D01*
X135133219Y-118810073D01*
X135081236Y-118746732D01*
X135001944Y-118650112D01*
X134841986Y-118518840D01*
X134841987Y-118518840D01*
X134841984Y-118518838D01*
X134659488Y-118421291D01*
X134461468Y-118361223D01*
X134461466Y-118361222D01*
X134461468Y-118361222D01*
X134255534Y-118340940D01*
X134049601Y-118361222D01*
X133851577Y-118421292D01*
X133741432Y-118480166D01*
X133669084Y-118518838D01*
X133669082Y-118518839D01*
X133669081Y-118518840D01*
X133509123Y-118650112D01*
X133377851Y-118810070D01*
X133280303Y-118992566D01*
X133220233Y-119190590D01*
X133199951Y-119396523D01*
X129784461Y-119396523D01*
X129784461Y-116856523D01*
X133199951Y-116856523D01*
X133220233Y-117062455D01*
X133220234Y-117062457D01*
X133280302Y-117260477D01*
X133377849Y-117442973D01*
X133377851Y-117442975D01*
X133509123Y-117602933D01*
X133605743Y-117682225D01*
X133669084Y-117734208D01*
X133851580Y-117831755D01*
X134049600Y-117891823D01*
X134049599Y-117891823D01*
X134068063Y-117893641D01*
X134255534Y-117912106D01*
X134461468Y-117891823D01*
X134659488Y-117831755D01*
X134841984Y-117734208D01*
X135001944Y-117602933D01*
X135133219Y-117442973D01*
X135230766Y-117260477D01*
X135290834Y-117062457D01*
X135311117Y-116856523D01*
X135739951Y-116856523D01*
X135760233Y-117062455D01*
X135760234Y-117062457D01*
X135820302Y-117260477D01*
X135917849Y-117442973D01*
X135917851Y-117442975D01*
X136049123Y-117602933D01*
X136145743Y-117682225D01*
X136209084Y-117734208D01*
X136391580Y-117831755D01*
X136589600Y-117891823D01*
X136589599Y-117891823D01*
X136608063Y-117893641D01*
X136795534Y-117912106D01*
X137001468Y-117891823D01*
X137199488Y-117831755D01*
X137381984Y-117734208D01*
X137541944Y-117602933D01*
X137673219Y-117442973D01*
X137770766Y-117260477D01*
X137830834Y-117062457D01*
X137851117Y-116856523D01*
X137830834Y-116650589D01*
X137770766Y-116452569D01*
X137673219Y-116270073D01*
X137621236Y-116206732D01*
X137541944Y-116110112D01*
X137381986Y-115978840D01*
X137381987Y-115978840D01*
X137381984Y-115978838D01*
X137199488Y-115881291D01*
X137001468Y-115821223D01*
X137001466Y-115821222D01*
X137001468Y-115821222D01*
X136795534Y-115800940D01*
X136589601Y-115821222D01*
X136391577Y-115881292D01*
X136281432Y-115940166D01*
X136209084Y-115978838D01*
X136209082Y-115978839D01*
X136209081Y-115978840D01*
X136049123Y-116110112D01*
X135917851Y-116270070D01*
X135820303Y-116452566D01*
X135760233Y-116650590D01*
X135739951Y-116856523D01*
X135311117Y-116856523D01*
X135290834Y-116650589D01*
X135230766Y-116452569D01*
X135133219Y-116270073D01*
X135081236Y-116206732D01*
X135001944Y-116110112D01*
X134841986Y-115978840D01*
X134841987Y-115978840D01*
X134841984Y-115978838D01*
X134659488Y-115881291D01*
X134461468Y-115821223D01*
X134461466Y-115821222D01*
X134461468Y-115821222D01*
X134255534Y-115800940D01*
X134049601Y-115821222D01*
X133851577Y-115881292D01*
X133741432Y-115940166D01*
X133669084Y-115978838D01*
X133669082Y-115978839D01*
X133669081Y-115978840D01*
X133509123Y-116110112D01*
X133377851Y-116270070D01*
X133280303Y-116452566D01*
X133220233Y-116650590D01*
X133199951Y-116856523D01*
X129784461Y-116856523D01*
X129784461Y-114316523D01*
X133199951Y-114316523D01*
X133220233Y-114522455D01*
X133220234Y-114522457D01*
X133280302Y-114720477D01*
X133377849Y-114902973D01*
X133377851Y-114902975D01*
X133509123Y-115062933D01*
X133605743Y-115142225D01*
X133669084Y-115194208D01*
X133851580Y-115291755D01*
X134049600Y-115351823D01*
X134049599Y-115351823D01*
X134068063Y-115353641D01*
X134255534Y-115372106D01*
X134461468Y-115351823D01*
X134659488Y-115291755D01*
X134841984Y-115194208D01*
X135001944Y-115062933D01*
X135133219Y-114902973D01*
X135230766Y-114720477D01*
X135290834Y-114522457D01*
X135311117Y-114316523D01*
X135739951Y-114316523D01*
X135760233Y-114522455D01*
X135760234Y-114522457D01*
X135820302Y-114720477D01*
X135917849Y-114902973D01*
X135917851Y-114902975D01*
X136049123Y-115062933D01*
X136145743Y-115142225D01*
X136209084Y-115194208D01*
X136391580Y-115291755D01*
X136589600Y-115351823D01*
X136589599Y-115351823D01*
X136608063Y-115353641D01*
X136795534Y-115372106D01*
X137001468Y-115351823D01*
X137199488Y-115291755D01*
X137381984Y-115194208D01*
X137541944Y-115062933D01*
X137673219Y-114902973D01*
X137770766Y-114720477D01*
X137830834Y-114522457D01*
X137851117Y-114316523D01*
X137830834Y-114110589D01*
X137770766Y-113912569D01*
X137673219Y-113730073D01*
X137621236Y-113666732D01*
X137541944Y-113570112D01*
X137381986Y-113438840D01*
X137381987Y-113438840D01*
X137381984Y-113438838D01*
X137199488Y-113341291D01*
X137001468Y-113281223D01*
X137001466Y-113281222D01*
X137001468Y-113281222D01*
X136795534Y-113260940D01*
X136589601Y-113281222D01*
X136391577Y-113341292D01*
X136281432Y-113400166D01*
X136209084Y-113438838D01*
X136209082Y-113438839D01*
X136209081Y-113438840D01*
X136049123Y-113570112D01*
X135917851Y-113730070D01*
X135820303Y-113912566D01*
X135760233Y-114110590D01*
X135739951Y-114316523D01*
X135311117Y-114316523D01*
X135290834Y-114110589D01*
X135230766Y-113912569D01*
X135133219Y-113730073D01*
X135081236Y-113666732D01*
X135001944Y-113570112D01*
X134841986Y-113438840D01*
X134841987Y-113438840D01*
X134841984Y-113438838D01*
X134659488Y-113341291D01*
X134461468Y-113281223D01*
X134461466Y-113281222D01*
X134461468Y-113281222D01*
X134255534Y-113260940D01*
X134049601Y-113281222D01*
X133851577Y-113341292D01*
X133741432Y-113400166D01*
X133669084Y-113438838D01*
X133669082Y-113438839D01*
X133669081Y-113438840D01*
X133509123Y-113570112D01*
X133377851Y-113730070D01*
X133280303Y-113912566D01*
X133220233Y-114110590D01*
X133199951Y-114316523D01*
X129784461Y-114316523D01*
X129784461Y-88181275D01*
X132435034Y-88181275D01*
X132435034Y-110296085D01*
X132455513Y-110372512D01*
X132463335Y-110386060D01*
X132463336Y-110386063D01*
X132463337Y-110386063D01*
X132495073Y-110441032D01*
X132495075Y-110441035D01*
X133266235Y-111212195D01*
X133299720Y-111273518D01*
X133294736Y-111343210D01*
X133287915Y-111358323D01*
X133280304Y-111372562D01*
X133220233Y-111570590D01*
X133199951Y-111776523D01*
X133220233Y-111982455D01*
X133220234Y-111982457D01*
X133280302Y-112180477D01*
X133377849Y-112362973D01*
X133377851Y-112362975D01*
X133509123Y-112522933D01*
X133590118Y-112589403D01*
X133669084Y-112654208D01*
X133851580Y-112751755D01*
X134049600Y-112811823D01*
X134049599Y-112811823D01*
X134068063Y-112813641D01*
X134255534Y-112832106D01*
X134461468Y-112811823D01*
X134659488Y-112751755D01*
X134841984Y-112654208D01*
X135001944Y-112522933D01*
X135133219Y-112362973D01*
X135230766Y-112180477D01*
X135290834Y-111982457D01*
X135311117Y-111776523D01*
X135290834Y-111570589D01*
X135230766Y-111372569D01*
X135133219Y-111190073D01*
X135077561Y-111122253D01*
X135745034Y-111122253D01*
X135745034Y-112430792D01*
X135747887Y-112461222D01*
X135747887Y-112461224D01*
X135792740Y-112589403D01*
X135792741Y-112589405D01*
X135873384Y-112698673D01*
X135982652Y-112779316D01*
X136025379Y-112794267D01*
X136110833Y-112824169D01*
X136141264Y-112827023D01*
X136141268Y-112827023D01*
X137449804Y-112827023D01*
X137480233Y-112824169D01*
X137480235Y-112824169D01*
X137544324Y-112801742D01*
X137608416Y-112779316D01*
X137717684Y-112698673D01*
X137798327Y-112589405D01*
X137821586Y-112522933D01*
X137843180Y-112461224D01*
X137843180Y-112461222D01*
X137846034Y-112430792D01*
X137846034Y-111122253D01*
X137843180Y-111091823D01*
X137843180Y-111091821D01*
X137798327Y-110963642D01*
X137798326Y-110963640D01*
X137785830Y-110946708D01*
X137717684Y-110854373D01*
X137608416Y-110773730D01*
X137608414Y-110773729D01*
X137480234Y-110728876D01*
X137449804Y-110726023D01*
X137449800Y-110726023D01*
X136141268Y-110726023D01*
X136141264Y-110726023D01*
X136110834Y-110728876D01*
X136110832Y-110728876D01*
X135982653Y-110773729D01*
X135982651Y-110773730D01*
X135873384Y-110854373D01*
X135792741Y-110963640D01*
X135792740Y-110963642D01*
X135747887Y-111091821D01*
X135747887Y-111091823D01*
X135745034Y-111122253D01*
X135077561Y-111122253D01*
X135052586Y-111091821D01*
X135001944Y-111030112D01*
X134851374Y-110906544D01*
X134841984Y-110898838D01*
X134659488Y-110801291D01*
X134461468Y-110741223D01*
X134461466Y-110741222D01*
X134461468Y-110741222D01*
X134255534Y-110720940D01*
X134049601Y-110741222D01*
X133851573Y-110801293D01*
X133837334Y-110808904D01*
X133768931Y-110823143D01*
X133703688Y-110798139D01*
X133691206Y-110787224D01*
X133072353Y-110168371D01*
X133038868Y-110107048D01*
X133036034Y-110080690D01*
X133036034Y-105076523D01*
X140414887Y-105076523D01*
X140435368Y-105218979D01*
X140464910Y-105283666D01*
X140495157Y-105349896D01*
X140589406Y-105458666D01*
X140710481Y-105536476D01*
X140710484Y-105536477D01*
X140710483Y-105536477D01*
X140817641Y-105567940D01*
X140845814Y-105576213D01*
X140848570Y-105577022D01*
X140848572Y-105577023D01*
X140944701Y-105577023D01*
X141011740Y-105596708D01*
X141032382Y-105613342D01*
X146230074Y-110811034D01*
X146286023Y-110866983D01*
X146286025Y-110866984D01*
X146286029Y-110866987D01*
X146341198Y-110898838D01*
X146354545Y-110906544D01*
X146430972Y-110927023D01*
X146510096Y-110927023D01*
X158094701Y-110927023D01*
X158161740Y-110946708D01*
X158182382Y-110963342D01*
X160638715Y-113419675D01*
X160672200Y-113480998D01*
X160675034Y-113507356D01*
X160675034Y-120281273D01*
X160655349Y-120348312D01*
X160619925Y-120384375D01*
X160506680Y-120460043D01*
X160506676Y-120460046D01*
X160428215Y-120538508D01*
X160366892Y-120571993D01*
X160297200Y-120567009D01*
X160252853Y-120538508D01*
X160174391Y-120460046D01*
X160174387Y-120460043D01*
X160053930Y-120379555D01*
X160053917Y-120379548D01*
X159920076Y-120324110D01*
X159920064Y-120324107D01*
X159777978Y-120295844D01*
X159777974Y-120295844D01*
X159633094Y-120295844D01*
X159633089Y-120295844D01*
X159491003Y-120324107D01*
X159490991Y-120324110D01*
X159357150Y-120379548D01*
X159357137Y-120379555D01*
X159236680Y-120460043D01*
X159236676Y-120460046D01*
X159134236Y-120562486D01*
X159134233Y-120562490D01*
X159053745Y-120682947D01*
X159053738Y-120682960D01*
X158998300Y-120816801D01*
X158998297Y-120816813D01*
X158970034Y-120958899D01*
X158970034Y-120971844D01*
X158950349Y-121038883D01*
X158897545Y-121084638D01*
X158846034Y-121095844D01*
X157541188Y-121095844D01*
X157474149Y-121076159D01*
X157453507Y-121059525D01*
X157059929Y-120665947D01*
X157026444Y-120604624D01*
X157024873Y-120560617D01*
X157026181Y-120551523D01*
X157005699Y-120409066D01*
X156945911Y-120278150D01*
X156851662Y-120169380D01*
X156730587Y-120091570D01*
X156730585Y-120091569D01*
X156730583Y-120091568D01*
X156730584Y-120091568D01*
X156592497Y-120051023D01*
X156592495Y-120051023D01*
X156448573Y-120051023D01*
X156448570Y-120051023D01*
X156310483Y-120091568D01*
X156189407Y-120169379D01*
X156095157Y-120278149D01*
X156095156Y-120278151D01*
X156035368Y-120409066D01*
X156014887Y-120551523D01*
X156035368Y-120693979D01*
X156095156Y-120824894D01*
X156095157Y-120824896D01*
X156189406Y-120933666D01*
X156310481Y-121011476D01*
X156310484Y-121011477D01*
X156310483Y-121011477D01*
X156403822Y-121038883D01*
X156445814Y-121051213D01*
X156448570Y-121052022D01*
X156448572Y-121052023D01*
X156544701Y-121052023D01*
X156611740Y-121071708D01*
X156632382Y-121088342D01*
X157124895Y-121580855D01*
X157180844Y-121636804D01*
X157180846Y-121636805D01*
X157180850Y-121636808D01*
X157249359Y-121676361D01*
X157249366Y-121676365D01*
X157325793Y-121696844D01*
X158846034Y-121696844D01*
X158913073Y-121716529D01*
X158958828Y-121769333D01*
X158970034Y-121820844D01*
X158970034Y-121833788D01*
X158998297Y-121975874D01*
X158998300Y-121975886D01*
X159053738Y-122109727D01*
X159053745Y-122109740D01*
X159134233Y-122230197D01*
X159134236Y-122230201D01*
X159236676Y-122332641D01*
X159236680Y-122332644D01*
X159357137Y-122413132D01*
X159357150Y-122413139D01*
X159424165Y-122440897D01*
X159490996Y-122468579D01*
X159633089Y-122496843D01*
X159633093Y-122496844D01*
X159633094Y-122496844D01*
X159777975Y-122496844D01*
X159777976Y-122496843D01*
X159920072Y-122468579D01*
X160053924Y-122413136D01*
X160174388Y-122332644D01*
X160190940Y-122316092D01*
X160252853Y-122254180D01*
X160314176Y-122220695D01*
X160383868Y-122225679D01*
X160428215Y-122254180D01*
X160506676Y-122332641D01*
X160506680Y-122332644D01*
X160627137Y-122413132D01*
X160627150Y-122413139D01*
X160694165Y-122440897D01*
X160760996Y-122468579D01*
X160903089Y-122496843D01*
X160903093Y-122496844D01*
X160903094Y-122496844D01*
X161047975Y-122496844D01*
X161047976Y-122496843D01*
X161190072Y-122468579D01*
X161323924Y-122413136D01*
X161444388Y-122332644D01*
X161460940Y-122316092D01*
X161522853Y-122254180D01*
X161584176Y-122220695D01*
X161653868Y-122225679D01*
X161698215Y-122254180D01*
X161776676Y-122332641D01*
X161776680Y-122332644D01*
X161889925Y-122408313D01*
X161934730Y-122461926D01*
X161945034Y-122511415D01*
X161945034Y-123500690D01*
X161925349Y-123567729D01*
X161908715Y-123588371D01*
X161204882Y-124292204D01*
X161143559Y-124325689D01*
X161117201Y-124328523D01*
X157021367Y-124328523D01*
X156954328Y-124308838D01*
X156933686Y-124292204D01*
X155997546Y-123356064D01*
X155997538Y-123356058D01*
X155929029Y-123316505D01*
X155929024Y-123316502D01*
X155899264Y-123308528D01*
X155852596Y-123296023D01*
X155852594Y-123296023D01*
X154886309Y-123296023D01*
X154819270Y-123276338D01*
X154773515Y-123223534D01*
X154763571Y-123154376D01*
X154792596Y-123090820D01*
X154798628Y-123084342D01*
X154831157Y-123051813D01*
X154878762Y-123004208D01*
X154981042Y-122863431D01*
X155060041Y-122708388D01*
X155113813Y-122542895D01*
X155122949Y-122485211D01*
X155141034Y-122371033D01*
X155141034Y-120387012D01*
X155113813Y-120215150D01*
X155073658Y-120091568D01*
X155060041Y-120049658D01*
X155060039Y-120049655D01*
X155060039Y-120049653D01*
X155026063Y-119982973D01*
X154981042Y-119894615D01*
X154912647Y-119800477D01*
X154878767Y-119753844D01*
X154878763Y-119753839D01*
X154755717Y-119630793D01*
X154755712Y-119630789D01*
X154614945Y-119528517D01*
X154614944Y-119528516D01*
X154614942Y-119528515D01*
X154566526Y-119503846D01*
X154459903Y-119449517D01*
X154294406Y-119395743D01*
X154122544Y-119368523D01*
X154122539Y-119368523D01*
X153948529Y-119368523D01*
X153948524Y-119368523D01*
X153776661Y-119395743D01*
X153611164Y-119449517D01*
X153456122Y-119528517D01*
X153315355Y-119630789D01*
X153315350Y-119630793D01*
X153192304Y-119753839D01*
X153192300Y-119753844D01*
X153090028Y-119894611D01*
X153011028Y-120049653D01*
X152957254Y-120215150D01*
X152930034Y-120387012D01*
X152930034Y-122371033D01*
X152957254Y-122542895D01*
X153011028Y-122708392D01*
X153090028Y-122863434D01*
X153192300Y-123004201D01*
X153192304Y-123004206D01*
X153272440Y-123084342D01*
X153305925Y-123145665D01*
X153300941Y-123215357D01*
X153259069Y-123271290D01*
X153193605Y-123295707D01*
X153184759Y-123296023D01*
X150251367Y-123296023D01*
X150184328Y-123276338D01*
X150163686Y-123259704D01*
X150131157Y-123227175D01*
X150097672Y-123165852D01*
X150102656Y-123096160D01*
X150131157Y-123051813D01*
X150147869Y-123035101D01*
X150178762Y-123004208D01*
X150281042Y-122863431D01*
X150360041Y-122708388D01*
X150413813Y-122542895D01*
X150422949Y-122485211D01*
X150441034Y-122371033D01*
X150441034Y-120387012D01*
X150413813Y-120215150D01*
X150373658Y-120091568D01*
X150360041Y-120049658D01*
X150360039Y-120049655D01*
X150360039Y-120049653D01*
X150326063Y-119982973D01*
X150281042Y-119894615D01*
X150212647Y-119800477D01*
X150178767Y-119753844D01*
X150178763Y-119753839D01*
X150055717Y-119630793D01*
X150055712Y-119630789D01*
X149914945Y-119528517D01*
X149914944Y-119528516D01*
X149914942Y-119528515D01*
X149866526Y-119503846D01*
X149759903Y-119449517D01*
X149594406Y-119395743D01*
X149422544Y-119368523D01*
X149422539Y-119368523D01*
X149248529Y-119368523D01*
X149248524Y-119368523D01*
X149076661Y-119395743D01*
X148911164Y-119449517D01*
X148756122Y-119528517D01*
X148615355Y-119630789D01*
X148615350Y-119630793D01*
X148492304Y-119753839D01*
X148492300Y-119753844D01*
X148390028Y-119894611D01*
X148311028Y-120049653D01*
X148257254Y-120215150D01*
X148230034Y-120387012D01*
X148230034Y-122371033D01*
X148257254Y-122542895D01*
X148311028Y-122708392D01*
X148390028Y-122863434D01*
X148492300Y-123004201D01*
X148492304Y-123004206D01*
X148615350Y-123127252D01*
X148615355Y-123127256D01*
X148736617Y-123215357D01*
X148756126Y-123229531D01*
X148838082Y-123271290D01*
X148911164Y-123308528D01*
X148911166Y-123308528D01*
X148911169Y-123308530D01*
X148999877Y-123337353D01*
X149076661Y-123362302D01*
X149248524Y-123389523D01*
X149392201Y-123389523D01*
X149459240Y-123409208D01*
X149479882Y-123425842D01*
X149835074Y-123781034D01*
X149891023Y-123836983D01*
X149891025Y-123836984D01*
X149891029Y-123836987D01*
X149932684Y-123861036D01*
X149959545Y-123876544D01*
X150035972Y-123897023D01*
X150115096Y-123897023D01*
X155637201Y-123897023D01*
X155704240Y-123916708D01*
X155724882Y-123933342D01*
X156661023Y-124869483D01*
X156720363Y-124903743D01*
X156729542Y-124909043D01*
X156729546Y-124909045D01*
X156805972Y-124929523D01*
X156805974Y-124929523D01*
X161332594Y-124929523D01*
X161332596Y-124929523D01*
X161409023Y-124909044D01*
X161477545Y-124869483D01*
X161533494Y-124813534D01*
X162485994Y-123861034D01*
X162499880Y-123836983D01*
X162525555Y-123792512D01*
X162546034Y-123716085D01*
X162546034Y-122511415D01*
X162565719Y-122444376D01*
X162601141Y-122408314D01*
X162613649Y-122399956D01*
X162645341Y-122378779D01*
X162712017Y-122357901D01*
X162779398Y-122376384D01*
X162817334Y-122412988D01*
X162817433Y-122413136D01*
X162835982Y-122440897D01*
X162902303Y-122485211D01*
X162902304Y-122485212D01*
X162960781Y-122496843D01*
X162960784Y-122496844D01*
X162960786Y-122496844D01*
X164070284Y-122496844D01*
X164070285Y-122496843D01*
X164085102Y-122493896D01*
X164128763Y-122485212D01*
X164128763Y-122485211D01*
X164128765Y-122485211D01*
X164195086Y-122440896D01*
X164239401Y-122374575D01*
X164239401Y-122374573D01*
X164239402Y-122374573D01*
X164251033Y-122316096D01*
X164251034Y-122316094D01*
X164251034Y-120476593D01*
X164251033Y-120476591D01*
X164239402Y-120418114D01*
X164239401Y-120418113D01*
X164195086Y-120351791D01*
X164128764Y-120307476D01*
X164128763Y-120307475D01*
X164070286Y-120295844D01*
X164070282Y-120295844D01*
X162960786Y-120295844D01*
X162960781Y-120295844D01*
X162902304Y-120307475D01*
X162902303Y-120307476D01*
X162835981Y-120351791D01*
X162817334Y-120379699D01*
X162763721Y-120424503D01*
X162694396Y-120433209D01*
X162645342Y-120413908D01*
X162593930Y-120379555D01*
X162593917Y-120379548D01*
X162460076Y-120324110D01*
X162460064Y-120324107D01*
X162317978Y-120295844D01*
X162317974Y-120295844D01*
X162173094Y-120295844D01*
X162173089Y-120295844D01*
X162031003Y-120324107D01*
X162030991Y-120324110D01*
X161897150Y-120379548D01*
X161897137Y-120379555D01*
X161776680Y-120460043D01*
X161776676Y-120460046D01*
X161698215Y-120538508D01*
X161636892Y-120571993D01*
X161567200Y-120567009D01*
X161522853Y-120538508D01*
X161444391Y-120460046D01*
X161444387Y-120460043D01*
X161331143Y-120384375D01*
X161286338Y-120330762D01*
X161276034Y-120281273D01*
X161276034Y-113291963D01*
X161276033Y-113291959D01*
X161273156Y-113281223D01*
X161267722Y-113260940D01*
X161255556Y-113215535D01*
X161215994Y-113147012D01*
X158455045Y-110386063D01*
X158455044Y-110386062D01*
X158443308Y-110379287D01*
X158431572Y-110372511D01*
X158409047Y-110359506D01*
X158386524Y-110346502D01*
X158361047Y-110339675D01*
X158310096Y-110326023D01*
X158310094Y-110326023D01*
X146646367Y-110326023D01*
X146579328Y-110306338D01*
X146558686Y-110289704D01*
X144274757Y-108005775D01*
X144241272Y-107944452D01*
X144246256Y-107874760D01*
X144288128Y-107818827D01*
X144353592Y-107794410D01*
X144381831Y-107795620D01*
X144465454Y-107808865D01*
X144548525Y-107822023D01*
X144548529Y-107822023D01*
X144722544Y-107822023D01*
X144894406Y-107794802D01*
X144895612Y-107794410D01*
X145059899Y-107741030D01*
X145214942Y-107662031D01*
X145355719Y-107559751D01*
X145478762Y-107436708D01*
X145581042Y-107295931D01*
X145660041Y-107140888D01*
X145713813Y-106975395D01*
X145714633Y-106970220D01*
X145741034Y-106803533D01*
X145741034Y-104819512D01*
X145713813Y-104647650D01*
X145660039Y-104482153D01*
X145618700Y-104401023D01*
X145581042Y-104327115D01*
X145567974Y-104309128D01*
X145478767Y-104186344D01*
X145478763Y-104186339D01*
X145355717Y-104063293D01*
X145355712Y-104063289D01*
X145214945Y-103961017D01*
X145214944Y-103961016D01*
X145214942Y-103961015D01*
X145166526Y-103936346D01*
X145059903Y-103882017D01*
X144894406Y-103828243D01*
X144722544Y-103801023D01*
X144722539Y-103801023D01*
X144548529Y-103801023D01*
X144548524Y-103801023D01*
X144376661Y-103828243D01*
X144211164Y-103882017D01*
X144056122Y-103961017D01*
X143915355Y-104063289D01*
X143915350Y-104063293D01*
X143792304Y-104186339D01*
X143792300Y-104186344D01*
X143690028Y-104327111D01*
X143611028Y-104482153D01*
X143557254Y-104647650D01*
X143530034Y-104819512D01*
X143530034Y-106803533D01*
X143556435Y-106970220D01*
X143547481Y-107039513D01*
X143502484Y-107092965D01*
X143435733Y-107113605D01*
X143368419Y-107094880D01*
X143346281Y-107077299D01*
X141459929Y-105190947D01*
X141426444Y-105129624D01*
X141424873Y-105085617D01*
X141426181Y-105076523D01*
X141405699Y-104934066D01*
X141345911Y-104803150D01*
X141251662Y-104694380D01*
X141130587Y-104616570D01*
X141130585Y-104616569D01*
X141130583Y-104616568D01*
X141130584Y-104616568D01*
X140992497Y-104576023D01*
X140992495Y-104576023D01*
X140848573Y-104576023D01*
X140848570Y-104576023D01*
X140710483Y-104616568D01*
X140589407Y-104694379D01*
X140495157Y-104803149D01*
X140495156Y-104803151D01*
X140435368Y-104934066D01*
X140414887Y-105076523D01*
X133036034Y-105076523D01*
X133036034Y-101757042D01*
X133055719Y-101690003D01*
X133108523Y-101644248D01*
X133177681Y-101634304D01*
X133241237Y-101663329D01*
X133247715Y-101669361D01*
X134914388Y-103336034D01*
X134970337Y-103391983D01*
X134970339Y-103391984D01*
X134970343Y-103391987D01*
X135038852Y-103431540D01*
X135038859Y-103431544D01*
X135115286Y-103452023D01*
X145169701Y-103452023D01*
X145236740Y-103471708D01*
X145257382Y-103488342D01*
X146508715Y-104739675D01*
X146542200Y-104800998D01*
X146545034Y-104827356D01*
X146545034Y-108766085D01*
X146558686Y-108817036D01*
X146565513Y-108842513D01*
X146565516Y-108842518D01*
X146605069Y-108911027D01*
X146605073Y-108911032D01*
X146605074Y-108911034D01*
X147430074Y-109736034D01*
X147486023Y-109791983D01*
X147486025Y-109791984D01*
X147486029Y-109791987D01*
X147554538Y-109831540D01*
X147554545Y-109831544D01*
X147630972Y-109852023D01*
X147630974Y-109852023D01*
X159960094Y-109852023D01*
X159960096Y-109852023D01*
X160036523Y-109831544D01*
X160105045Y-109791983D01*
X160160994Y-109736034D01*
X161215994Y-108681034D01*
X161255555Y-108612512D01*
X161276034Y-108536085D01*
X161276034Y-106911239D01*
X161295719Y-106844200D01*
X161331143Y-106808137D01*
X161406588Y-106757725D01*
X161444388Y-106732468D01*
X161460940Y-106715916D01*
X161522853Y-106654004D01*
X161584176Y-106620519D01*
X161653868Y-106625503D01*
X161698215Y-106654004D01*
X161776676Y-106732465D01*
X161776680Y-106732468D01*
X161897137Y-106812956D01*
X161897150Y-106812963D01*
X161964165Y-106840721D01*
X162030996Y-106868403D01*
X162173089Y-106896667D01*
X162173093Y-106896668D01*
X162173094Y-106896668D01*
X162317975Y-106896668D01*
X162317976Y-106896667D01*
X162460072Y-106868403D01*
X162593924Y-106812960D01*
X162645341Y-106778603D01*
X162712018Y-106757725D01*
X162779398Y-106776209D01*
X162817334Y-106812812D01*
X162817433Y-106812960D01*
X162835982Y-106840721D01*
X162902303Y-106885035D01*
X162902304Y-106885036D01*
X162960781Y-106896667D01*
X162960784Y-106896668D01*
X162960786Y-106896668D01*
X164070284Y-106896668D01*
X164070285Y-106896667D01*
X164085102Y-106893720D01*
X164128763Y-106885036D01*
X164128763Y-106885035D01*
X164128765Y-106885035D01*
X164195086Y-106840720D01*
X164239401Y-106774399D01*
X164239401Y-106774397D01*
X164239402Y-106774397D01*
X164251033Y-106715920D01*
X164251034Y-106715918D01*
X164251034Y-104876417D01*
X164251033Y-104876415D01*
X164239402Y-104817938D01*
X164239401Y-104817937D01*
X164195086Y-104751615D01*
X164128764Y-104707300D01*
X164128763Y-104707299D01*
X164070286Y-104695668D01*
X164070282Y-104695668D01*
X162960786Y-104695668D01*
X162960781Y-104695668D01*
X162902304Y-104707299D01*
X162902303Y-104707300D01*
X162835981Y-104751615D01*
X162817334Y-104779523D01*
X162763721Y-104824327D01*
X162694396Y-104833033D01*
X162645342Y-104813732D01*
X162601143Y-104784199D01*
X162556338Y-104730587D01*
X162546034Y-104681097D01*
X162546034Y-103116962D01*
X162546034Y-103116961D01*
X162544694Y-103111961D01*
X162525556Y-103040535D01*
X162485994Y-102972012D01*
X161650045Y-102136063D01*
X161650043Y-102136062D01*
X161650038Y-102136058D01*
X161581529Y-102096505D01*
X161581524Y-102096502D01*
X161556047Y-102089675D01*
X161505096Y-102076023D01*
X150095972Y-102076023D01*
X150057758Y-102086262D01*
X150019543Y-102096502D01*
X150019538Y-102096505D01*
X149951029Y-102136058D01*
X149951021Y-102136064D01*
X149095075Y-102992010D01*
X149095069Y-102992018D01*
X149055516Y-103060527D01*
X149055513Y-103060532D01*
X149035034Y-103136962D01*
X149035034Y-103751678D01*
X149015349Y-103818717D01*
X148962545Y-103864472D01*
X148949354Y-103869608D01*
X148911174Y-103882014D01*
X148911171Y-103882015D01*
X148911169Y-103882016D01*
X148833647Y-103921515D01*
X148756121Y-103961017D01*
X148615355Y-104063289D01*
X148615350Y-104063293D01*
X148492304Y-104186339D01*
X148492300Y-104186344D01*
X148390028Y-104327111D01*
X148311028Y-104482153D01*
X148257254Y-104647650D01*
X148230034Y-104819512D01*
X148230034Y-106803533D01*
X148257254Y-106975395D01*
X148311028Y-107140892D01*
X148390028Y-107295934D01*
X148492300Y-107436701D01*
X148492304Y-107436706D01*
X148615350Y-107559752D01*
X148615355Y-107559756D01*
X148738139Y-107648963D01*
X148756126Y-107662031D01*
X148854915Y-107712367D01*
X148911164Y-107741028D01*
X148911166Y-107741028D01*
X148911169Y-107741030D01*
X148999877Y-107769853D01*
X149076661Y-107794802D01*
X149248524Y-107822023D01*
X149248529Y-107822023D01*
X149422544Y-107822023D01*
X149594406Y-107794802D01*
X149595612Y-107794410D01*
X149759899Y-107741030D01*
X149914942Y-107662031D01*
X150055719Y-107559751D01*
X150178762Y-107436708D01*
X150281042Y-107295931D01*
X150360041Y-107140888D01*
X150413813Y-106975395D01*
X150414633Y-106970220D01*
X150441034Y-106803533D01*
X150441034Y-104819512D01*
X152930034Y-104819512D01*
X152930034Y-106803533D01*
X152957254Y-106975395D01*
X153011028Y-107140892D01*
X153090028Y-107295934D01*
X153192300Y-107436701D01*
X153192304Y-107436706D01*
X153315350Y-107559752D01*
X153315355Y-107559756D01*
X153438139Y-107648963D01*
X153456126Y-107662031D01*
X153554915Y-107712367D01*
X153611164Y-107741028D01*
X153611166Y-107741028D01*
X153611169Y-107741030D01*
X153699877Y-107769853D01*
X153776661Y-107794802D01*
X153948524Y-107822023D01*
X153948529Y-107822023D01*
X154122544Y-107822023D01*
X154294406Y-107794802D01*
X154295612Y-107794410D01*
X154459899Y-107741030D01*
X154614942Y-107662031D01*
X154755719Y-107559751D01*
X154878762Y-107436708D01*
X154981042Y-107295931D01*
X155060041Y-107140888D01*
X155113813Y-106975395D01*
X155114633Y-106970220D01*
X155141034Y-106803533D01*
X155141034Y-104819512D01*
X155113813Y-104647650D01*
X155060039Y-104482153D01*
X155018700Y-104401023D01*
X154981042Y-104327115D01*
X154967974Y-104309128D01*
X154878767Y-104186344D01*
X154878763Y-104186339D01*
X154755717Y-104063293D01*
X154755712Y-104063289D01*
X154614945Y-103961017D01*
X154614944Y-103961016D01*
X154614942Y-103961015D01*
X154566526Y-103936346D01*
X154459903Y-103882017D01*
X154294406Y-103828243D01*
X154122544Y-103801023D01*
X154122539Y-103801023D01*
X153948529Y-103801023D01*
X153948524Y-103801023D01*
X153776661Y-103828243D01*
X153611164Y-103882017D01*
X153456122Y-103961017D01*
X153315355Y-104063289D01*
X153315350Y-104063293D01*
X153192304Y-104186339D01*
X153192300Y-104186344D01*
X153090028Y-104327111D01*
X153011028Y-104482153D01*
X152957254Y-104647650D01*
X152930034Y-104819512D01*
X150441034Y-104819512D01*
X150413813Y-104647650D01*
X150360039Y-104482153D01*
X150318700Y-104401023D01*
X150281042Y-104327115D01*
X150267974Y-104309128D01*
X150178767Y-104186344D01*
X150178763Y-104186339D01*
X150055717Y-104063293D01*
X150055712Y-104063289D01*
X149914946Y-103961017D01*
X149909549Y-103958267D01*
X149759899Y-103882016D01*
X149759893Y-103882014D01*
X149721714Y-103869608D01*
X149664039Y-103830170D01*
X149636842Y-103765811D01*
X149636034Y-103751678D01*
X149636034Y-103352356D01*
X149655719Y-103285317D01*
X149672353Y-103264675D01*
X150223686Y-102713342D01*
X150285009Y-102679857D01*
X150311367Y-102677023D01*
X161289701Y-102677023D01*
X161356740Y-102696708D01*
X161377382Y-102713342D01*
X161908715Y-103244675D01*
X161942200Y-103305998D01*
X161945034Y-103332356D01*
X161945034Y-104681097D01*
X161925349Y-104748136D01*
X161889925Y-104784199D01*
X161776680Y-104859867D01*
X161776676Y-104859870D01*
X161698215Y-104938332D01*
X161636892Y-104971817D01*
X161567200Y-104966833D01*
X161522853Y-104938332D01*
X161444391Y-104859870D01*
X161444387Y-104859867D01*
X161323930Y-104779379D01*
X161323917Y-104779372D01*
X161190076Y-104723934D01*
X161190064Y-104723931D01*
X161047978Y-104695668D01*
X161047974Y-104695668D01*
X160903094Y-104695668D01*
X160903089Y-104695668D01*
X160761003Y-104723931D01*
X160760991Y-104723934D01*
X160627150Y-104779372D01*
X160627137Y-104779379D01*
X160506680Y-104859867D01*
X160506676Y-104859870D01*
X160428215Y-104938332D01*
X160366892Y-104971817D01*
X160297200Y-104966833D01*
X160252853Y-104938332D01*
X160174391Y-104859870D01*
X160174387Y-104859867D01*
X160053930Y-104779379D01*
X160053917Y-104779372D01*
X159920076Y-104723934D01*
X159920064Y-104723931D01*
X159777978Y-104695668D01*
X159777974Y-104695668D01*
X159633094Y-104695668D01*
X159633089Y-104695668D01*
X159491003Y-104723931D01*
X159490991Y-104723934D01*
X159357150Y-104779372D01*
X159357137Y-104779379D01*
X159236680Y-104859867D01*
X159236676Y-104859870D01*
X159134236Y-104962310D01*
X159134233Y-104962314D01*
X159053745Y-105082771D01*
X159053738Y-105082784D01*
X158998300Y-105216625D01*
X158998297Y-105216637D01*
X158970034Y-105358723D01*
X158970034Y-105371668D01*
X158950349Y-105438707D01*
X158897545Y-105484462D01*
X158846034Y-105495668D01*
X157691012Y-105495668D01*
X157623973Y-105475983D01*
X157603331Y-105459349D01*
X157159929Y-105015947D01*
X157126444Y-104954624D01*
X157124873Y-104910617D01*
X157126181Y-104901523D01*
X157105699Y-104759066D01*
X157045911Y-104628150D01*
X156951662Y-104519380D01*
X156830587Y-104441570D01*
X156830585Y-104441569D01*
X156830583Y-104441568D01*
X156830584Y-104441568D01*
X156692497Y-104401023D01*
X156692495Y-104401023D01*
X156548573Y-104401023D01*
X156548570Y-104401023D01*
X156410483Y-104441568D01*
X156289407Y-104519379D01*
X156195157Y-104628149D01*
X156195156Y-104628151D01*
X156135368Y-104759066D01*
X156114887Y-104901523D01*
X156135368Y-105043979D01*
X156182443Y-105147057D01*
X156195157Y-105174896D01*
X156289406Y-105283666D01*
X156410481Y-105361476D01*
X156410484Y-105361477D01*
X156410483Y-105361477D01*
X156517641Y-105392940D01*
X156545814Y-105401213D01*
X156548570Y-105402022D01*
X156548572Y-105402023D01*
X156644701Y-105402023D01*
X156711740Y-105421708D01*
X156732382Y-105438342D01*
X157274719Y-105980679D01*
X157330668Y-106036628D01*
X157330670Y-106036629D01*
X157330674Y-106036632D01*
X157399183Y-106076185D01*
X157399190Y-106076189D01*
X157475617Y-106096668D01*
X157554741Y-106096668D01*
X158846034Y-106096668D01*
X158913073Y-106116353D01*
X158958828Y-106169157D01*
X158970034Y-106220668D01*
X158970034Y-106233612D01*
X158998297Y-106375698D01*
X158998300Y-106375710D01*
X159053738Y-106509551D01*
X159053745Y-106509564D01*
X159134233Y-106630021D01*
X159134236Y-106630025D01*
X159236676Y-106732465D01*
X159236680Y-106732468D01*
X159357137Y-106812956D01*
X159357150Y-106812963D01*
X159424165Y-106840721D01*
X159490996Y-106868403D01*
X159633089Y-106896667D01*
X159633093Y-106896668D01*
X159633094Y-106896668D01*
X159777975Y-106896668D01*
X159777976Y-106896667D01*
X159920072Y-106868403D01*
X160053924Y-106812960D01*
X160174388Y-106732468D01*
X160190940Y-106715916D01*
X160252853Y-106654004D01*
X160314176Y-106620519D01*
X160383868Y-106625503D01*
X160428215Y-106654004D01*
X160506676Y-106732465D01*
X160506680Y-106732468D01*
X160619925Y-106808137D01*
X160664730Y-106861750D01*
X160675034Y-106911239D01*
X160675034Y-108320690D01*
X160655349Y-108387729D01*
X160638715Y-108408371D01*
X159832382Y-109214704D01*
X159771059Y-109248189D01*
X159744701Y-109251023D01*
X147846367Y-109251023D01*
X147779328Y-109231338D01*
X147758686Y-109214704D01*
X147182353Y-108638371D01*
X147148868Y-108577048D01*
X147146034Y-108550690D01*
X147146034Y-104611962D01*
X147125554Y-104535532D01*
X147125551Y-104535527D01*
X147085998Y-104467018D01*
X147085992Y-104467010D01*
X145530046Y-102911064D01*
X145530045Y-102911063D01*
X145504824Y-102896502D01*
X145504824Y-102896500D01*
X145504821Y-102896500D01*
X145461528Y-102871504D01*
X145461525Y-102871502D01*
X145423309Y-102861262D01*
X145385096Y-102851023D01*
X145385094Y-102851023D01*
X140295367Y-102851023D01*
X140228328Y-102831338D01*
X140182573Y-102778534D01*
X140172629Y-102709376D01*
X140201654Y-102645820D01*
X140207686Y-102639342D01*
X145758686Y-97088342D01*
X145820009Y-97054857D01*
X145846367Y-97052023D01*
X159862033Y-97052023D01*
X159929072Y-97071708D01*
X159955745Y-97094819D01*
X159989406Y-97133666D01*
X160110481Y-97211476D01*
X160110484Y-97211477D01*
X160110483Y-97211477D01*
X160248570Y-97252022D01*
X160248572Y-97252023D01*
X160248573Y-97252023D01*
X160392496Y-97252023D01*
X160392496Y-97252022D01*
X160530587Y-97211476D01*
X160651662Y-97133666D01*
X160745911Y-97024896D01*
X160805699Y-96893980D01*
X160826181Y-96751523D01*
X160805699Y-96609066D01*
X160745911Y-96478150D01*
X160651662Y-96369380D01*
X160530587Y-96291570D01*
X160530585Y-96291569D01*
X160530583Y-96291568D01*
X160530584Y-96291568D01*
X160392497Y-96251023D01*
X160392495Y-96251023D01*
X160248573Y-96251023D01*
X160248570Y-96251023D01*
X160110483Y-96291568D01*
X159989407Y-96369379D01*
X159955746Y-96408226D01*
X159896967Y-96446000D01*
X159862033Y-96451023D01*
X145630972Y-96451023D01*
X145554544Y-96471501D01*
X145486023Y-96511063D01*
X145486020Y-96511065D01*
X139707382Y-102289704D01*
X139646059Y-102323189D01*
X139619701Y-102326023D01*
X135371367Y-102326023D01*
X135304328Y-102306338D01*
X135283686Y-102289704D01*
X134622353Y-101628371D01*
X134588868Y-101567048D01*
X134586034Y-101540690D01*
X134586034Y-101295101D01*
X134605719Y-101228062D01*
X134658523Y-101182307D01*
X134674022Y-101176446D01*
X134689488Y-101171755D01*
X134871984Y-101074208D01*
X135031944Y-100942933D01*
X135163219Y-100782973D01*
X135260766Y-100600477D01*
X135320834Y-100402457D01*
X135341117Y-100196523D01*
X135769951Y-100196523D01*
X135790233Y-100402455D01*
X135790234Y-100402457D01*
X135850302Y-100600477D01*
X135947849Y-100782973D01*
X135947851Y-100782975D01*
X136079123Y-100942933D01*
X136175743Y-101022225D01*
X136239084Y-101074208D01*
X136421580Y-101171755D01*
X136619600Y-101231823D01*
X136619599Y-101231823D01*
X136638063Y-101233641D01*
X136825534Y-101252106D01*
X137031468Y-101231823D01*
X137229488Y-101171755D01*
X137411984Y-101074208D01*
X137571944Y-100942933D01*
X137703219Y-100782973D01*
X137800766Y-100600477D01*
X137860834Y-100402457D01*
X137881117Y-100196523D01*
X137860834Y-99990589D01*
X137800766Y-99792569D01*
X137703219Y-99610073D01*
X137651236Y-99546732D01*
X137571944Y-99450112D01*
X137411986Y-99318840D01*
X137411987Y-99318840D01*
X137411984Y-99318838D01*
X137229488Y-99221291D01*
X137031468Y-99161223D01*
X137031466Y-99161222D01*
X137031468Y-99161222D01*
X136825534Y-99140940D01*
X136619601Y-99161222D01*
X136421577Y-99221292D01*
X136325701Y-99272540D01*
X136239084Y-99318838D01*
X136239082Y-99318839D01*
X136239081Y-99318840D01*
X136079123Y-99450112D01*
X135947851Y-99610070D01*
X135850303Y-99792566D01*
X135790233Y-99990590D01*
X135769951Y-100196523D01*
X135341117Y-100196523D01*
X135320834Y-99990589D01*
X135260766Y-99792569D01*
X135163219Y-99610073D01*
X135111236Y-99546732D01*
X135031944Y-99450112D01*
X134871986Y-99318840D01*
X134871987Y-99318840D01*
X134871984Y-99318838D01*
X134689488Y-99221291D01*
X134491468Y-99161223D01*
X134491466Y-99161222D01*
X134491468Y-99161222D01*
X134285534Y-99140940D01*
X134079601Y-99161222D01*
X133881577Y-99221292D01*
X133699080Y-99318840D01*
X133638698Y-99368394D01*
X133574387Y-99395706D01*
X133505520Y-99383914D01*
X133453960Y-99336761D01*
X133436034Y-99272540D01*
X133436034Y-98580505D01*
X133455719Y-98513466D01*
X133508523Y-98467711D01*
X133577681Y-98457767D01*
X133638699Y-98484652D01*
X133699080Y-98534205D01*
X133699084Y-98534208D01*
X133881580Y-98631755D01*
X134079600Y-98691823D01*
X134079599Y-98691823D01*
X134098063Y-98693641D01*
X134285534Y-98712106D01*
X134491468Y-98691823D01*
X134689488Y-98631755D01*
X134871984Y-98534208D01*
X135031944Y-98402933D01*
X135163219Y-98242973D01*
X135260766Y-98060477D01*
X135320834Y-97862457D01*
X135341117Y-97656523D01*
X135769951Y-97656523D01*
X135790233Y-97862455D01*
X135790234Y-97862457D01*
X135850302Y-98060477D01*
X135947849Y-98242973D01*
X135947851Y-98242975D01*
X136079123Y-98402933D01*
X136145940Y-98457767D01*
X136239084Y-98534208D01*
X136421580Y-98631755D01*
X136619600Y-98691823D01*
X136619599Y-98691823D01*
X136638063Y-98693641D01*
X136825534Y-98712106D01*
X137031468Y-98691823D01*
X137229488Y-98631755D01*
X137411984Y-98534208D01*
X137571944Y-98402933D01*
X137703219Y-98242973D01*
X137800766Y-98060477D01*
X137860834Y-97862457D01*
X137881117Y-97656523D01*
X137860834Y-97450589D01*
X137800766Y-97252569D01*
X137703219Y-97070073D01*
X137651236Y-97006732D01*
X137571944Y-96910112D01*
X137411986Y-96778840D01*
X137411987Y-96778840D01*
X137411984Y-96778838D01*
X137229488Y-96681291D01*
X137031468Y-96621223D01*
X137031466Y-96621222D01*
X137031468Y-96621222D01*
X136825534Y-96600940D01*
X136619601Y-96621222D01*
X136421577Y-96681292D01*
X136325701Y-96732540D01*
X136239084Y-96778838D01*
X136239082Y-96778839D01*
X136239081Y-96778840D01*
X136079123Y-96910112D01*
X135962662Y-97052023D01*
X135947849Y-97070073D01*
X135913858Y-97133666D01*
X135850303Y-97252566D01*
X135790233Y-97450590D01*
X135769951Y-97656523D01*
X135341117Y-97656523D01*
X135320834Y-97450589D01*
X135260766Y-97252569D01*
X135163219Y-97070073D01*
X135111236Y-97006732D01*
X135031944Y-96910112D01*
X134871986Y-96778840D01*
X134871987Y-96778840D01*
X134871984Y-96778838D01*
X134689488Y-96681291D01*
X134491468Y-96621223D01*
X134491466Y-96621222D01*
X134491468Y-96621222D01*
X134285534Y-96600940D01*
X134079601Y-96621222D01*
X133881577Y-96681292D01*
X133699080Y-96778840D01*
X133638698Y-96828394D01*
X133574387Y-96855706D01*
X133505520Y-96843914D01*
X133453960Y-96796761D01*
X133436034Y-96732540D01*
X133436034Y-96040505D01*
X133455719Y-95973466D01*
X133508523Y-95927711D01*
X133577681Y-95917767D01*
X133638699Y-95944652D01*
X133699080Y-95994205D01*
X133699084Y-95994208D01*
X133881580Y-96091755D01*
X134079600Y-96151823D01*
X134079599Y-96151823D01*
X134098063Y-96153641D01*
X134285534Y-96172106D01*
X134491468Y-96151823D01*
X134689488Y-96091755D01*
X134871984Y-95994208D01*
X135031944Y-95862933D01*
X135163219Y-95702973D01*
X135260766Y-95520477D01*
X135320834Y-95322457D01*
X135341117Y-95116523D01*
X135769951Y-95116523D01*
X135790233Y-95322455D01*
X135790234Y-95322457D01*
X135850302Y-95520477D01*
X135947849Y-95702973D01*
X135947851Y-95702975D01*
X136079123Y-95862933D01*
X136145940Y-95917767D01*
X136239084Y-95994208D01*
X136421580Y-96091755D01*
X136619600Y-96151823D01*
X136619599Y-96151823D01*
X136638063Y-96153641D01*
X136825534Y-96172106D01*
X137031468Y-96151823D01*
X137229488Y-96091755D01*
X137411984Y-95994208D01*
X137571944Y-95862933D01*
X137703219Y-95702973D01*
X137800766Y-95520477D01*
X137860834Y-95322457D01*
X137881117Y-95116523D01*
X137860834Y-94910589D01*
X137800766Y-94712569D01*
X137703219Y-94530073D01*
X137651236Y-94466732D01*
X137571944Y-94370112D01*
X137411986Y-94238840D01*
X137411987Y-94238840D01*
X137411984Y-94238838D01*
X137229488Y-94141291D01*
X137031468Y-94081223D01*
X137031466Y-94081222D01*
X137031468Y-94081222D01*
X136825534Y-94060940D01*
X136619601Y-94081222D01*
X136421577Y-94141292D01*
X136325701Y-94192540D01*
X136239084Y-94238838D01*
X136239082Y-94238839D01*
X136239081Y-94238840D01*
X136079123Y-94370112D01*
X135947851Y-94530070D01*
X135850303Y-94712566D01*
X135790233Y-94910590D01*
X135769951Y-95116523D01*
X135341117Y-95116523D01*
X135320834Y-94910589D01*
X135260766Y-94712569D01*
X135163219Y-94530073D01*
X135111236Y-94466732D01*
X135031944Y-94370112D01*
X134871986Y-94238840D01*
X134871987Y-94238840D01*
X134871984Y-94238838D01*
X134689488Y-94141291D01*
X134491468Y-94081223D01*
X134491466Y-94081222D01*
X134491468Y-94081222D01*
X134285534Y-94060940D01*
X134079601Y-94081222D01*
X133881577Y-94141292D01*
X133699080Y-94238840D01*
X133638698Y-94288394D01*
X133574387Y-94315706D01*
X133505520Y-94303914D01*
X133453960Y-94256761D01*
X133436034Y-94192540D01*
X133436034Y-93902355D01*
X133455719Y-93835316D01*
X133472349Y-93814678D01*
X133721206Y-93565820D01*
X133782529Y-93532336D01*
X133852221Y-93537320D01*
X133867339Y-93544143D01*
X133881580Y-93551755D01*
X134079600Y-93611823D01*
X134079599Y-93611823D01*
X134098063Y-93613641D01*
X134285534Y-93632106D01*
X134491468Y-93611823D01*
X134689488Y-93551755D01*
X134871984Y-93454208D01*
X135031944Y-93322933D01*
X135163219Y-93162973D01*
X135260766Y-92980477D01*
X135320834Y-92782457D01*
X135341117Y-92576523D01*
X135769951Y-92576523D01*
X135790233Y-92782455D01*
X135811745Y-92853371D01*
X135850302Y-92980477D01*
X135947849Y-93162973D01*
X135947851Y-93162975D01*
X136079123Y-93322933D01*
X136174313Y-93401052D01*
X136239084Y-93454208D01*
X136421580Y-93551755D01*
X136619600Y-93611823D01*
X136619599Y-93611823D01*
X136638063Y-93613641D01*
X136825534Y-93632106D01*
X137031468Y-93611823D01*
X137229488Y-93551755D01*
X137411984Y-93454208D01*
X137571944Y-93322933D01*
X137703219Y-93162973D01*
X137800766Y-92980477D01*
X137805453Y-92965026D01*
X137843751Y-92906588D01*
X137907564Y-92878132D01*
X137924113Y-92877023D01*
X140369701Y-92877023D01*
X140436740Y-92896708D01*
X140457382Y-92913342D01*
X142580074Y-95036034D01*
X142636023Y-95091983D01*
X142636025Y-95091984D01*
X142636029Y-95091987D01*
X142704538Y-95131540D01*
X142704545Y-95131544D01*
X142780972Y-95152023D01*
X142780974Y-95152023D01*
X158985094Y-95152023D01*
X158985096Y-95152023D01*
X159061523Y-95131544D01*
X159130045Y-95091983D01*
X159185994Y-95036034D01*
X161215994Y-93006034D01*
X161255556Y-92937511D01*
X161276034Y-92861085D01*
X161276034Y-92781961D01*
X161276034Y-91311063D01*
X161295719Y-91244024D01*
X161331143Y-91207961D01*
X161406588Y-91157549D01*
X161444388Y-91132292D01*
X161460940Y-91115740D01*
X161522853Y-91053828D01*
X161584176Y-91020343D01*
X161653868Y-91025327D01*
X161698215Y-91053828D01*
X161776676Y-91132289D01*
X161776680Y-91132292D01*
X161897137Y-91212780D01*
X161897150Y-91212787D01*
X161964165Y-91240545D01*
X162030996Y-91268227D01*
X162173089Y-91296491D01*
X162173093Y-91296492D01*
X162173094Y-91296492D01*
X162317975Y-91296492D01*
X162317976Y-91296491D01*
X162460072Y-91268227D01*
X162593924Y-91212784D01*
X162645341Y-91178427D01*
X162712018Y-91157549D01*
X162779398Y-91176033D01*
X162817334Y-91212636D01*
X162817433Y-91212784D01*
X162835982Y-91240545D01*
X162902303Y-91284859D01*
X162902304Y-91284860D01*
X162960781Y-91296491D01*
X162960784Y-91296492D01*
X162960786Y-91296492D01*
X164070284Y-91296492D01*
X164070285Y-91296491D01*
X164085102Y-91293544D01*
X164128763Y-91284860D01*
X164128763Y-91284859D01*
X164128765Y-91284859D01*
X164195086Y-91240544D01*
X164239401Y-91174223D01*
X164239401Y-91174221D01*
X164239402Y-91174221D01*
X164251033Y-91115744D01*
X164251034Y-91115742D01*
X164251034Y-89276241D01*
X164251033Y-89276239D01*
X164239402Y-89217762D01*
X164239401Y-89217761D01*
X164195086Y-89151439D01*
X164128764Y-89107124D01*
X164128763Y-89107123D01*
X164070286Y-89095492D01*
X164070282Y-89095492D01*
X162960786Y-89095492D01*
X162960781Y-89095492D01*
X162902304Y-89107123D01*
X162902303Y-89107124D01*
X162835981Y-89151439D01*
X162817334Y-89179347D01*
X162763721Y-89224151D01*
X162694396Y-89232857D01*
X162645342Y-89213556D01*
X162601143Y-89184023D01*
X162556338Y-89130411D01*
X162546034Y-89080921D01*
X162546034Y-87656962D01*
X162546034Y-87656961D01*
X162525555Y-87580534D01*
X162499880Y-87536063D01*
X162485998Y-87512018D01*
X162485992Y-87512010D01*
X161450046Y-86476064D01*
X161450038Y-86476058D01*
X161381529Y-86436505D01*
X161381524Y-86436502D01*
X161356047Y-86429675D01*
X161305096Y-86416023D01*
X150355972Y-86416023D01*
X150317758Y-86426262D01*
X150279543Y-86436502D01*
X150279538Y-86436505D01*
X150211029Y-86476058D01*
X150211021Y-86476064D01*
X149095075Y-87592010D01*
X149095069Y-87592018D01*
X149055516Y-87660527D01*
X149055513Y-87660532D01*
X149035034Y-87736962D01*
X149035034Y-88184178D01*
X149015349Y-88251217D01*
X148962545Y-88296972D01*
X148949354Y-88302108D01*
X148911174Y-88314514D01*
X148911171Y-88314515D01*
X148911169Y-88314516D01*
X148850737Y-88345308D01*
X148756121Y-88393517D01*
X148615355Y-88495789D01*
X148615350Y-88495793D01*
X148492304Y-88618839D01*
X148492300Y-88618844D01*
X148390028Y-88759611D01*
X148311028Y-88914653D01*
X148257254Y-89080150D01*
X148230034Y-89252012D01*
X148230034Y-91236033D01*
X148257254Y-91407895D01*
X148311028Y-91573392D01*
X148365357Y-91680015D01*
X148374947Y-91698838D01*
X148390028Y-91728434D01*
X148492300Y-91869201D01*
X148492304Y-91869206D01*
X148615350Y-91992252D01*
X148615355Y-91992256D01*
X148738139Y-92081463D01*
X148756126Y-92094531D01*
X148854915Y-92144867D01*
X148911164Y-92173528D01*
X148911166Y-92173528D01*
X148911169Y-92173530D01*
X148955765Y-92188020D01*
X149076661Y-92227302D01*
X149248524Y-92254523D01*
X149248529Y-92254523D01*
X149422544Y-92254523D01*
X149594406Y-92227302D01*
X149759899Y-92173530D01*
X149914942Y-92094531D01*
X150055719Y-91992251D01*
X150178762Y-91869208D01*
X150281042Y-91728431D01*
X150360041Y-91573388D01*
X150413813Y-91407895D01*
X150429150Y-91311063D01*
X150441034Y-91236033D01*
X150441034Y-89252012D01*
X152930034Y-89252012D01*
X152930034Y-91236033D01*
X152957254Y-91407895D01*
X153011028Y-91573392D01*
X153065357Y-91680015D01*
X153074947Y-91698838D01*
X153090028Y-91728434D01*
X153192300Y-91869201D01*
X153192304Y-91869206D01*
X153315350Y-91992252D01*
X153315355Y-91992256D01*
X153438139Y-92081463D01*
X153456126Y-92094531D01*
X153554915Y-92144867D01*
X153611164Y-92173528D01*
X153611166Y-92173528D01*
X153611169Y-92173530D01*
X153655765Y-92188020D01*
X153776661Y-92227302D01*
X153948524Y-92254523D01*
X153948529Y-92254523D01*
X154122544Y-92254523D01*
X154294406Y-92227302D01*
X154459899Y-92173530D01*
X154614942Y-92094531D01*
X154755719Y-91992251D01*
X154878762Y-91869208D01*
X154981042Y-91728431D01*
X155060041Y-91573388D01*
X155113813Y-91407895D01*
X155129150Y-91311063D01*
X155141034Y-91236033D01*
X155141034Y-89252012D01*
X155113813Y-89080150D01*
X155083229Y-88986023D01*
X155060041Y-88914658D01*
X155060039Y-88914655D01*
X155060039Y-88914653D01*
X155031378Y-88858404D01*
X154981042Y-88759615D01*
X154967974Y-88741628D01*
X154878767Y-88618844D01*
X154878763Y-88618839D01*
X154755717Y-88495793D01*
X154755712Y-88495789D01*
X154614945Y-88393517D01*
X154614944Y-88393516D01*
X154614942Y-88393515D01*
X154566526Y-88368846D01*
X154459903Y-88314517D01*
X154294406Y-88260743D01*
X154122544Y-88233523D01*
X154122539Y-88233523D01*
X153948529Y-88233523D01*
X153948524Y-88233523D01*
X153776661Y-88260743D01*
X153611164Y-88314517D01*
X153456122Y-88393517D01*
X153315355Y-88495789D01*
X153315350Y-88495793D01*
X153192304Y-88618839D01*
X153192300Y-88618844D01*
X153090028Y-88759611D01*
X153011028Y-88914653D01*
X152957254Y-89080150D01*
X152930034Y-89252012D01*
X150441034Y-89252012D01*
X150413813Y-89080150D01*
X150383229Y-88986023D01*
X150360041Y-88914658D01*
X150360039Y-88914655D01*
X150360039Y-88914653D01*
X150331378Y-88858404D01*
X150281042Y-88759615D01*
X150267974Y-88741628D01*
X150178767Y-88618844D01*
X150178763Y-88618839D01*
X150055717Y-88495793D01*
X150055712Y-88495789D01*
X149914946Y-88393517D01*
X149909549Y-88390767D01*
X149759899Y-88314516D01*
X149759893Y-88314514D01*
X149721714Y-88302108D01*
X149664039Y-88262670D01*
X149636842Y-88198311D01*
X149636034Y-88184178D01*
X149636034Y-87952356D01*
X149655719Y-87885317D01*
X149672353Y-87864675D01*
X150483686Y-87053342D01*
X150545009Y-87019857D01*
X150571367Y-87017023D01*
X161089701Y-87017023D01*
X161156740Y-87036708D01*
X161177382Y-87053342D01*
X161908715Y-87784675D01*
X161942200Y-87845998D01*
X161945034Y-87872356D01*
X161945034Y-89080921D01*
X161925349Y-89147960D01*
X161889925Y-89184023D01*
X161776680Y-89259691D01*
X161776676Y-89259694D01*
X161698215Y-89338156D01*
X161636892Y-89371641D01*
X161567200Y-89366657D01*
X161522853Y-89338156D01*
X161444391Y-89259694D01*
X161444387Y-89259691D01*
X161323930Y-89179203D01*
X161323917Y-89179196D01*
X161190076Y-89123758D01*
X161190064Y-89123755D01*
X161047978Y-89095492D01*
X161047974Y-89095492D01*
X160903094Y-89095492D01*
X160903089Y-89095492D01*
X160761003Y-89123755D01*
X160760991Y-89123758D01*
X160627150Y-89179196D01*
X160627137Y-89179203D01*
X160506680Y-89259691D01*
X160506676Y-89259694D01*
X160428215Y-89338156D01*
X160366892Y-89371641D01*
X160297200Y-89366657D01*
X160252853Y-89338156D01*
X160174391Y-89259694D01*
X160174387Y-89259691D01*
X160053930Y-89179203D01*
X160053917Y-89179196D01*
X159920076Y-89123758D01*
X159920064Y-89123755D01*
X159777978Y-89095492D01*
X159777974Y-89095492D01*
X159633094Y-89095492D01*
X159633089Y-89095492D01*
X159491003Y-89123755D01*
X159490991Y-89123758D01*
X159357150Y-89179196D01*
X159357137Y-89179203D01*
X159236680Y-89259691D01*
X159236676Y-89259694D01*
X159134236Y-89362134D01*
X159134233Y-89362138D01*
X159053745Y-89482595D01*
X159053738Y-89482608D01*
X158998300Y-89616449D01*
X158998297Y-89616461D01*
X158970034Y-89758547D01*
X158970034Y-90633436D01*
X158998297Y-90775522D01*
X158998300Y-90775534D01*
X159053738Y-90909375D01*
X159053745Y-90909388D01*
X159134233Y-91029845D01*
X159134236Y-91029849D01*
X159236676Y-91132289D01*
X159236680Y-91132292D01*
X159349925Y-91207961D01*
X159394730Y-91261574D01*
X159405034Y-91311063D01*
X159405034Y-92765690D01*
X159385349Y-92832729D01*
X159368715Y-92853371D01*
X158107382Y-94114704D01*
X158046059Y-94148189D01*
X158019701Y-94151023D01*
X143444897Y-94151023D01*
X143377858Y-94131338D01*
X143357216Y-94114704D01*
X141646694Y-92404182D01*
X141613209Y-92342859D01*
X141611638Y-92298852D01*
X141612946Y-92289758D01*
X141592464Y-92147301D01*
X141532676Y-92016385D01*
X141438427Y-91907615D01*
X141317352Y-91829805D01*
X141317350Y-91829804D01*
X141317348Y-91829803D01*
X141317349Y-91829803D01*
X141179262Y-91789258D01*
X141179260Y-91789258D01*
X141035338Y-91789258D01*
X141035335Y-91789258D01*
X140897248Y-91829803D01*
X140776172Y-91907614D01*
X140681922Y-92016384D01*
X140681921Y-92016386D01*
X140622134Y-92147299D01*
X140622132Y-92147305D01*
X140618918Y-92169668D01*
X140589894Y-92233225D01*
X140531116Y-92271000D01*
X140496180Y-92276023D01*
X137924113Y-92276023D01*
X137857074Y-92256338D01*
X137811319Y-92203534D01*
X137805453Y-92188020D01*
X137805211Y-92187224D01*
X137800766Y-92172569D01*
X137703219Y-91990073D01*
X137635547Y-91907614D01*
X137571944Y-91830112D01*
X137411986Y-91698840D01*
X137411987Y-91698840D01*
X137411984Y-91698838D01*
X137229488Y-91601291D01*
X137031468Y-91541223D01*
X137031466Y-91541222D01*
X137031468Y-91541222D01*
X136825534Y-91520940D01*
X136619601Y-91541222D01*
X136421577Y-91601292D01*
X136311432Y-91660166D01*
X136239084Y-91698838D01*
X136239082Y-91698839D01*
X136239081Y-91698840D01*
X136079123Y-91830112D01*
X135947851Y-91990070D01*
X135947849Y-91990073D01*
X135909177Y-92062421D01*
X135850303Y-92172566D01*
X135850302Y-92172568D01*
X135850302Y-92172569D01*
X135845615Y-92188020D01*
X135790233Y-92370590D01*
X135769951Y-92576523D01*
X135341117Y-92576523D01*
X135320834Y-92370589D01*
X135260766Y-92172569D01*
X135163219Y-91990073D01*
X135095547Y-91907614D01*
X135031944Y-91830112D01*
X134871986Y-91698840D01*
X134871987Y-91698840D01*
X134871984Y-91698838D01*
X134689488Y-91601291D01*
X134491468Y-91541223D01*
X134491466Y-91541222D01*
X134491468Y-91541222D01*
X134285534Y-91520940D01*
X134079601Y-91541222D01*
X133881577Y-91601292D01*
X133771432Y-91660166D01*
X133699084Y-91698838D01*
X133699082Y-91698839D01*
X133699081Y-91698840D01*
X133539123Y-91830112D01*
X133407851Y-91990070D01*
X133407849Y-91990073D01*
X133369177Y-92062421D01*
X133310303Y-92172566D01*
X133310302Y-92172568D01*
X133310302Y-92172569D01*
X133291903Y-92233225D01*
X133278695Y-92276765D01*
X133240397Y-92335204D01*
X133176585Y-92363660D01*
X133107518Y-92353100D01*
X133055124Y-92306876D01*
X133036034Y-92240770D01*
X133036034Y-90372275D01*
X133055719Y-90305236D01*
X133108523Y-90259481D01*
X133177681Y-90249537D01*
X133241237Y-90278562D01*
X133278694Y-90336278D01*
X133310302Y-90440477D01*
X133407849Y-90622973D01*
X133416436Y-90633436D01*
X133539123Y-90782933D01*
X133620118Y-90849403D01*
X133699084Y-90914208D01*
X133881580Y-91011755D01*
X134079600Y-91071823D01*
X134079599Y-91071823D01*
X134098063Y-91073641D01*
X134285534Y-91092106D01*
X134491468Y-91071823D01*
X134689488Y-91011755D01*
X134871984Y-90914208D01*
X135031944Y-90782933D01*
X135163219Y-90622973D01*
X135260766Y-90440477D01*
X135320834Y-90242457D01*
X135341117Y-90036523D01*
X135320834Y-89830589D01*
X135260766Y-89632569D01*
X135163219Y-89450073D01*
X135107561Y-89382253D01*
X135775034Y-89382253D01*
X135775034Y-90690792D01*
X135777887Y-90721222D01*
X135777887Y-90721224D01*
X135822740Y-90849403D01*
X135822741Y-90849405D01*
X135903384Y-90958673D01*
X136012652Y-91039316D01*
X136054125Y-91053828D01*
X136140833Y-91084169D01*
X136171264Y-91087023D01*
X136171268Y-91087023D01*
X137479804Y-91087023D01*
X137510233Y-91084169D01*
X137510235Y-91084169D01*
X137574324Y-91061742D01*
X137638416Y-91039316D01*
X137747684Y-90958673D01*
X137828327Y-90849405D01*
X137851586Y-90782933D01*
X137873180Y-90721224D01*
X137873180Y-90721222D01*
X137876034Y-90690792D01*
X137876034Y-89382253D01*
X137873180Y-89351823D01*
X137873180Y-89351821D01*
X137839540Y-89255686D01*
X137838254Y-89252012D01*
X143530034Y-89252012D01*
X143530034Y-91236033D01*
X143557254Y-91407895D01*
X143611028Y-91573392D01*
X143665357Y-91680015D01*
X143674947Y-91698838D01*
X143690028Y-91728434D01*
X143792300Y-91869201D01*
X143792304Y-91869206D01*
X143915350Y-91992252D01*
X143915355Y-91992256D01*
X144038139Y-92081463D01*
X144056126Y-92094531D01*
X144154915Y-92144867D01*
X144211164Y-92173528D01*
X144211166Y-92173528D01*
X144211169Y-92173530D01*
X144255765Y-92188020D01*
X144376661Y-92227302D01*
X144548524Y-92254523D01*
X144548529Y-92254523D01*
X144722544Y-92254523D01*
X144894406Y-92227302D01*
X145059899Y-92173530D01*
X145214942Y-92094531D01*
X145355719Y-91992251D01*
X145478762Y-91869208D01*
X145581042Y-91728431D01*
X145660041Y-91573388D01*
X145713813Y-91407895D01*
X145729150Y-91311063D01*
X145741034Y-91236033D01*
X145741034Y-89252012D01*
X145713813Y-89080150D01*
X145683229Y-88986023D01*
X145660041Y-88914658D01*
X145660039Y-88914655D01*
X145660039Y-88914653D01*
X145631378Y-88858404D01*
X145581042Y-88759615D01*
X145567974Y-88741628D01*
X145478767Y-88618844D01*
X145478763Y-88618839D01*
X145355717Y-88495793D01*
X145355712Y-88495789D01*
X145214945Y-88393517D01*
X145214944Y-88393516D01*
X145214942Y-88393515D01*
X145166526Y-88368846D01*
X145059903Y-88314517D01*
X144894406Y-88260743D01*
X144722544Y-88233523D01*
X144722539Y-88233523D01*
X144548529Y-88233523D01*
X144548524Y-88233523D01*
X144376661Y-88260743D01*
X144211164Y-88314517D01*
X144056122Y-88393517D01*
X143915355Y-88495789D01*
X143915350Y-88495793D01*
X143792304Y-88618839D01*
X143792300Y-88618844D01*
X143690028Y-88759611D01*
X143611028Y-88914653D01*
X143557254Y-89080150D01*
X143530034Y-89252012D01*
X137838254Y-89252012D01*
X137828327Y-89223641D01*
X137747684Y-89114373D01*
X137638416Y-89033730D01*
X137638414Y-89033729D01*
X137510234Y-88988876D01*
X137479804Y-88986023D01*
X137479800Y-88986023D01*
X136171268Y-88986023D01*
X136171264Y-88986023D01*
X136140834Y-88988876D01*
X136140832Y-88988876D01*
X136012653Y-89033729D01*
X136012651Y-89033730D01*
X135903384Y-89114373D01*
X135822741Y-89223640D01*
X135822740Y-89223642D01*
X135777887Y-89351821D01*
X135777887Y-89351823D01*
X135775034Y-89382253D01*
X135107561Y-89382253D01*
X135071372Y-89338156D01*
X135031944Y-89290112D01*
X134896790Y-89179196D01*
X134871984Y-89158838D01*
X134726213Y-89080921D01*
X134689487Y-89061290D01*
X134674038Y-89056604D01*
X134615600Y-89018307D01*
X134587143Y-88954494D01*
X134586034Y-88937944D01*
X134586034Y-87412356D01*
X134605719Y-87345317D01*
X134622353Y-87324675D01*
X136683686Y-85263342D01*
X136745009Y-85229857D01*
X136771367Y-85227023D01*
X158360094Y-85227023D01*
X158360096Y-85227023D01*
X158436523Y-85206544D01*
X158505045Y-85166983D01*
X158560994Y-85111034D01*
X161215994Y-82456034D01*
X161238517Y-82417023D01*
X161255555Y-82387512D01*
X161276034Y-82311085D01*
X161276034Y-75710887D01*
X161295719Y-75643848D01*
X161331143Y-75607785D01*
X161406588Y-75557373D01*
X161444388Y-75532116D01*
X161460940Y-75515564D01*
X161522853Y-75453652D01*
X161584176Y-75420167D01*
X161653868Y-75425151D01*
X161698215Y-75453652D01*
X161776676Y-75532113D01*
X161776680Y-75532116D01*
X161897137Y-75612604D01*
X161897150Y-75612611D01*
X161964165Y-75640369D01*
X162030996Y-75668051D01*
X162173089Y-75696315D01*
X162173093Y-75696316D01*
X162173094Y-75696316D01*
X162317975Y-75696316D01*
X162317976Y-75696315D01*
X162460072Y-75668051D01*
X162593924Y-75612608D01*
X162645341Y-75578251D01*
X162712018Y-75557373D01*
X162779398Y-75575857D01*
X162817334Y-75612460D01*
X162817433Y-75612608D01*
X162835982Y-75640369D01*
X162902303Y-75684683D01*
X162902304Y-75684684D01*
X162960781Y-75696315D01*
X162960784Y-75696316D01*
X162960786Y-75696316D01*
X164070284Y-75696316D01*
X164070285Y-75696315D01*
X164085102Y-75693368D01*
X164128763Y-75684684D01*
X164128763Y-75684683D01*
X164128765Y-75684683D01*
X164195086Y-75640368D01*
X164239401Y-75574047D01*
X164239401Y-75574045D01*
X164239402Y-75574045D01*
X164251033Y-75515568D01*
X164251034Y-75515566D01*
X164251034Y-73676065D01*
X164251033Y-73676063D01*
X164239402Y-73617586D01*
X164239401Y-73617585D01*
X164195086Y-73551263D01*
X164128764Y-73506948D01*
X164128763Y-73506947D01*
X164070286Y-73495316D01*
X164070282Y-73495316D01*
X162960786Y-73495316D01*
X162960781Y-73495316D01*
X162902304Y-73506947D01*
X162902303Y-73506948D01*
X162835981Y-73551263D01*
X162817334Y-73579171D01*
X162763721Y-73623975D01*
X162694396Y-73632681D01*
X162645342Y-73613380D01*
X162593930Y-73579027D01*
X162593917Y-73579020D01*
X162460076Y-73523582D01*
X162460064Y-73523579D01*
X162317978Y-73495316D01*
X162317974Y-73495316D01*
X162173094Y-73495316D01*
X162173089Y-73495316D01*
X162031003Y-73523579D01*
X162030991Y-73523582D01*
X161897150Y-73579020D01*
X161897137Y-73579027D01*
X161776680Y-73659515D01*
X161776676Y-73659518D01*
X161698215Y-73737980D01*
X161636892Y-73771465D01*
X161567200Y-73766481D01*
X161522853Y-73737980D01*
X161444391Y-73659518D01*
X161444387Y-73659515D01*
X161323930Y-73579027D01*
X161323917Y-73579020D01*
X161190076Y-73523582D01*
X161190064Y-73523579D01*
X161047978Y-73495316D01*
X161047974Y-73495316D01*
X160903094Y-73495316D01*
X160903089Y-73495316D01*
X160761003Y-73523579D01*
X160760991Y-73523582D01*
X160627150Y-73579020D01*
X160627137Y-73579027D01*
X160506680Y-73659515D01*
X160506676Y-73659518D01*
X160428215Y-73737980D01*
X160366892Y-73771465D01*
X160297200Y-73766481D01*
X160252853Y-73737980D01*
X160174391Y-73659518D01*
X160174387Y-73659515D01*
X160053930Y-73579027D01*
X160053917Y-73579020D01*
X159920076Y-73523582D01*
X159920064Y-73523579D01*
X159777978Y-73495316D01*
X159777974Y-73495316D01*
X159633094Y-73495316D01*
X159633089Y-73495316D01*
X159491003Y-73523579D01*
X159490991Y-73523582D01*
X159357150Y-73579020D01*
X159357137Y-73579027D01*
X159236680Y-73659515D01*
X159236676Y-73659518D01*
X159134236Y-73761958D01*
X159134233Y-73761962D01*
X159053745Y-73882419D01*
X159053738Y-73882432D01*
X158998300Y-74016273D01*
X158998297Y-74016285D01*
X158970034Y-74158371D01*
X158970034Y-75033260D01*
X158998297Y-75175346D01*
X158998300Y-75175358D01*
X159053738Y-75309199D01*
X159053745Y-75309212D01*
X159134233Y-75429669D01*
X159134236Y-75429673D01*
X159236676Y-75532113D01*
X159236680Y-75532116D01*
X159349925Y-75607785D01*
X159394730Y-75661398D01*
X159405034Y-75710887D01*
X159405034Y-81940690D01*
X159385349Y-82007729D01*
X159368715Y-82028371D01*
X157232382Y-84164704D01*
X157171059Y-84198189D01*
X157144701Y-84201023D01*
X136415286Y-84201023D01*
X136377072Y-84211262D01*
X136338857Y-84221502D01*
X136338852Y-84221505D01*
X136270343Y-84261058D01*
X136270335Y-84261064D01*
X132495075Y-88036324D01*
X132495069Y-88036332D01*
X132455516Y-88104841D01*
X132455513Y-88104846D01*
X132441860Y-88155799D01*
X132435034Y-88181275D01*
X129784461Y-88181275D01*
X129784461Y-84890839D01*
X129784462Y-84890836D01*
X129784461Y-84827992D01*
X129784610Y-84821909D01*
X129801009Y-84488013D01*
X129802202Y-84475903D01*
X129850804Y-84148234D01*
X129853171Y-84136331D01*
X129933658Y-83814997D01*
X129937188Y-83803362D01*
X130048781Y-83491473D01*
X130053438Y-83480230D01*
X130195058Y-83180797D01*
X130200789Y-83170073D01*
X130371098Y-82885928D01*
X130377839Y-82875840D01*
X130575177Y-82609758D01*
X130582865Y-82600390D01*
X130805351Y-82354915D01*
X130813931Y-82346336D01*
X131059388Y-82123868D01*
X131068766Y-82116171D01*
X131334835Y-81918843D01*
X131344952Y-81912083D01*
X131629080Y-81741784D01*
X131639796Y-81736057D01*
X131939253Y-81594428D01*
X131950472Y-81589781D01*
X132262373Y-81478183D01*
X132274006Y-81474655D01*
X132595333Y-81394171D01*
X132607248Y-81391801D01*
X132934919Y-81343200D01*
X132947013Y-81342008D01*
X133281154Y-81325598D01*
X133287214Y-81325450D01*
X133349845Y-81325451D01*
X133349849Y-81325450D01*
X136718069Y-81325450D01*
X136849853Y-81325450D01*
X136977147Y-81291342D01*
X137091275Y-81225450D01*
X137184461Y-81132264D01*
X137250353Y-81018136D01*
X137284461Y-80890842D01*
X137284461Y-73684512D01*
X143660034Y-73684512D01*
X143660034Y-75668533D01*
X143687254Y-75840395D01*
X143741028Y-76005892D01*
X143820028Y-76160934D01*
X143922300Y-76301701D01*
X143922304Y-76301706D01*
X144045350Y-76424752D01*
X144045355Y-76424756D01*
X144168139Y-76513963D01*
X144186126Y-76527031D01*
X144284915Y-76577367D01*
X144341164Y-76606028D01*
X144341166Y-76606028D01*
X144341169Y-76606030D01*
X144429877Y-76634853D01*
X144506661Y-76659802D01*
X144678524Y-76687023D01*
X144678529Y-76687023D01*
X144852544Y-76687023D01*
X145024406Y-76659802D01*
X145189899Y-76606030D01*
X145344942Y-76527031D01*
X145485719Y-76424751D01*
X145608762Y-76301708D01*
X145711042Y-76160931D01*
X145790041Y-76005888D01*
X145843813Y-75840395D01*
X145871034Y-75668533D01*
X145871034Y-73684512D01*
X148360034Y-73684512D01*
X148360034Y-75668533D01*
X148387254Y-75840395D01*
X148441028Y-76005892D01*
X148520028Y-76160934D01*
X148622300Y-76301701D01*
X148622304Y-76301706D01*
X148745350Y-76424752D01*
X148745355Y-76424756D01*
X148868139Y-76513963D01*
X148886126Y-76527031D01*
X148984915Y-76577367D01*
X149041164Y-76606028D01*
X149041166Y-76606028D01*
X149041169Y-76606030D01*
X149129877Y-76634853D01*
X149206661Y-76659802D01*
X149378524Y-76687023D01*
X149378529Y-76687023D01*
X149552544Y-76687023D01*
X149724406Y-76659802D01*
X149889899Y-76606030D01*
X150044942Y-76527031D01*
X150185719Y-76424751D01*
X150308762Y-76301708D01*
X150411042Y-76160931D01*
X150490041Y-76005888D01*
X150543813Y-75840395D01*
X150571034Y-75668533D01*
X150571034Y-73684512D01*
X153060034Y-73684512D01*
X153060034Y-75668533D01*
X153087254Y-75840395D01*
X153141028Y-76005892D01*
X153220028Y-76160934D01*
X153322300Y-76301701D01*
X153322304Y-76301706D01*
X153445350Y-76424752D01*
X153445355Y-76424756D01*
X153568139Y-76513963D01*
X153586126Y-76527031D01*
X153684915Y-76577367D01*
X153741164Y-76606028D01*
X153741166Y-76606028D01*
X153741169Y-76606030D01*
X153829877Y-76634853D01*
X153906661Y-76659802D01*
X154078524Y-76687023D01*
X154078529Y-76687023D01*
X154252544Y-76687023D01*
X154424406Y-76659802D01*
X154589899Y-76606030D01*
X154744942Y-76527031D01*
X154885719Y-76424751D01*
X155008762Y-76301708D01*
X155111042Y-76160931D01*
X155190041Y-76005888D01*
X155243813Y-75840395D01*
X155271034Y-75668533D01*
X155271034Y-73684512D01*
X155243813Y-73512650D01*
X155190039Y-73347153D01*
X155161378Y-73290904D01*
X155111042Y-73192115D01*
X155097974Y-73174128D01*
X155008767Y-73051344D01*
X155008763Y-73051339D01*
X154885717Y-72928293D01*
X154885712Y-72928289D01*
X154744945Y-72826017D01*
X154744944Y-72826016D01*
X154744942Y-72826015D01*
X154696526Y-72801346D01*
X154589903Y-72747017D01*
X154424406Y-72693243D01*
X154252544Y-72666023D01*
X154252539Y-72666023D01*
X154078529Y-72666023D01*
X154078524Y-72666023D01*
X153906661Y-72693243D01*
X153741164Y-72747017D01*
X153586122Y-72826017D01*
X153445355Y-72928289D01*
X153445350Y-72928293D01*
X153322304Y-73051339D01*
X153322300Y-73051344D01*
X153220028Y-73192111D01*
X153141028Y-73347153D01*
X153087254Y-73512650D01*
X153060034Y-73684512D01*
X150571034Y-73684512D01*
X150543813Y-73512650D01*
X150490039Y-73347153D01*
X150461378Y-73290904D01*
X150411042Y-73192115D01*
X150397974Y-73174128D01*
X150308767Y-73051344D01*
X150308763Y-73051339D01*
X150185717Y-72928293D01*
X150185712Y-72928289D01*
X150044945Y-72826017D01*
X150044944Y-72826016D01*
X150044942Y-72826015D01*
X149996526Y-72801346D01*
X149889903Y-72747017D01*
X149724406Y-72693243D01*
X149552544Y-72666023D01*
X149552539Y-72666023D01*
X149378529Y-72666023D01*
X149378524Y-72666023D01*
X149206661Y-72693243D01*
X149041164Y-72747017D01*
X148886122Y-72826017D01*
X148745355Y-72928289D01*
X148745350Y-72928293D01*
X148622304Y-73051339D01*
X148622300Y-73051344D01*
X148520028Y-73192111D01*
X148441028Y-73347153D01*
X148387254Y-73512650D01*
X148360034Y-73684512D01*
X145871034Y-73684512D01*
X145843813Y-73512650D01*
X145790039Y-73347153D01*
X145761378Y-73290904D01*
X145711042Y-73192115D01*
X145697974Y-73174128D01*
X145608767Y-73051344D01*
X145608763Y-73051339D01*
X145485717Y-72928293D01*
X145485712Y-72928289D01*
X145344945Y-72826017D01*
X145344944Y-72826016D01*
X145344942Y-72826015D01*
X145296526Y-72801346D01*
X145189903Y-72747017D01*
X145024406Y-72693243D01*
X144852544Y-72666023D01*
X144852539Y-72666023D01*
X144678529Y-72666023D01*
X144678524Y-72666023D01*
X144506661Y-72693243D01*
X144341164Y-72747017D01*
X144186122Y-72826017D01*
X144045355Y-72928289D01*
X144045350Y-72928293D01*
X143922304Y-73051339D01*
X143922300Y-73051344D01*
X143820028Y-73192111D01*
X143741028Y-73347153D01*
X143687254Y-73512650D01*
X143660034Y-73684512D01*
X137284461Y-73684512D01*
X137284461Y-59890839D01*
X137284462Y-59890836D01*
X137284461Y-59827992D01*
X137284534Y-59825000D01*
X138778776Y-59825000D01*
X138797452Y-60098028D01*
X138797455Y-60098049D01*
X138853134Y-60365988D01*
X138853135Y-60365990D01*
X138944786Y-60623863D01*
X138944787Y-60623864D01*
X138944788Y-60623867D01*
X139048723Y-60824447D01*
X139070698Y-60866854D01*
X139228525Y-61090437D01*
X139228529Y-61090441D01*
X139228532Y-61090445D01*
X139415325Y-61290445D01*
X139548445Y-61398740D01*
X139627625Y-61463155D01*
X139627628Y-61463157D01*
X139627631Y-61463159D01*
X139861459Y-61605344D01*
X139861461Y-61605345D01*
X139861463Y-61605346D01*
X140112485Y-61714371D01*
X140376015Y-61788199D01*
X140647143Y-61825455D01*
X140783976Y-61825450D01*
X140783982Y-61825450D01*
X147709805Y-61825450D01*
X147709849Y-61825452D01*
X147718085Y-61825452D01*
X147718089Y-61825453D01*
X147732518Y-61825452D01*
X147732857Y-61825551D01*
X147783981Y-61825549D01*
X147783981Y-61825550D01*
X147920819Y-61825545D01*
X148191945Y-61788269D01*
X148455469Y-61714424D01*
X148706484Y-61605384D01*
X148940314Y-61463180D01*
X149152604Y-61290462D01*
X149339398Y-61090446D01*
X149497218Y-60866858D01*
X149519192Y-60824450D01*
X149623121Y-60623869D01*
X149623122Y-60623867D01*
X149623124Y-60623864D01*
X149714770Y-60365990D01*
X149770449Y-60098038D01*
X149789125Y-59825000D01*
X149770449Y-59551962D01*
X149714770Y-59284010D01*
X149623124Y-59026136D01*
X149596721Y-58975179D01*
X149497223Y-58783150D01*
X149497219Y-58783145D01*
X149497218Y-58783142D01*
X149339398Y-58559554D01*
X149339393Y-58559549D01*
X149339392Y-58559547D01*
X149152611Y-58359545D01*
X149152608Y-58359542D01*
X149152604Y-58359538D01*
X148940314Y-58186820D01*
X148940311Y-58186818D01*
X148940308Y-58186816D01*
X148706486Y-58044617D01*
X148706484Y-58044616D01*
X148455469Y-57935576D01*
X148455467Y-57935575D01*
X148455466Y-57935575D01*
X148191944Y-57861730D01*
X147920821Y-57824455D01*
X147920815Y-57824454D01*
X147857469Y-57824452D01*
X147857433Y-57824450D01*
X147849853Y-57824450D01*
X147783982Y-57824450D01*
X147783973Y-57824449D01*
X147718089Y-57824447D01*
X147718087Y-57824447D01*
X147709849Y-57824447D01*
X147709805Y-57824450D01*
X140710750Y-57824450D01*
X140709262Y-57824546D01*
X140647146Y-57824545D01*
X140647145Y-57824545D01*
X140647143Y-57824545D01*
X140484466Y-57846898D01*
X140376013Y-57861801D01*
X140376009Y-57861802D01*
X140112485Y-57935629D01*
X139861459Y-58044655D01*
X139627631Y-58186840D01*
X139627623Y-58186846D01*
X139415325Y-58359554D01*
X139228532Y-58559554D01*
X139228520Y-58559569D01*
X139070696Y-58783148D01*
X138944788Y-59026132D01*
X138853136Y-59284005D01*
X138853134Y-59284011D01*
X138797455Y-59551950D01*
X138797452Y-59551971D01*
X138778776Y-59825000D01*
X137284534Y-59825000D01*
X137284610Y-59821909D01*
X137287699Y-59759020D01*
X137301009Y-59488006D01*
X137302202Y-59475903D01*
X137330666Y-59284005D01*
X137350804Y-59148234D01*
X137353171Y-59136331D01*
X137433658Y-58814997D01*
X137437188Y-58803362D01*
X137548781Y-58491473D01*
X137553438Y-58480230D01*
X137558119Y-58470334D01*
X137695062Y-58180789D01*
X137700789Y-58170073D01*
X137871098Y-57885928D01*
X137877839Y-57875840D01*
X138075177Y-57609758D01*
X138082865Y-57600390D01*
X138305351Y-57354915D01*
X138313931Y-57346336D01*
X138559388Y-57123868D01*
X138568766Y-57116171D01*
X138834835Y-56918843D01*
X138844952Y-56912083D01*
X138844964Y-56912076D01*
X139129080Y-56741784D01*
X139139796Y-56736057D01*
X139439253Y-56594428D01*
X139450472Y-56589781D01*
X139762373Y-56478183D01*
X139774006Y-56474655D01*
X140095333Y-56394171D01*
X140107248Y-56391801D01*
X140434919Y-56343200D01*
X140447013Y-56342008D01*
X140781154Y-56325598D01*
X140787214Y-56325450D01*
X140849845Y-56325451D01*
X140849849Y-56325450D01*
X147718070Y-56325450D01*
X147718074Y-56325451D01*
G37*
%TD.AperFunction*%
%TA.AperFunction,NonConductor*%
G36*
X160383868Y-91025327D02*
G01*
X160428215Y-91053828D01*
X160506676Y-91132289D01*
X160506680Y-91132292D01*
X160619925Y-91207961D01*
X160664730Y-91261574D01*
X160675034Y-91311063D01*
X160675034Y-92645690D01*
X160655349Y-92712729D01*
X160638715Y-92733371D01*
X160192356Y-93179729D01*
X160131033Y-93213214D01*
X160061341Y-93208230D01*
X160005408Y-93166358D01*
X159980991Y-93100894D01*
X159984900Y-93059954D01*
X159985553Y-93057514D01*
X159985555Y-93057512D01*
X160006034Y-92981085D01*
X160006034Y-91311063D01*
X160025719Y-91244024D01*
X160061143Y-91207961D01*
X160136588Y-91157549D01*
X160174388Y-91132292D01*
X160190940Y-91115740D01*
X160252853Y-91053828D01*
X160314176Y-91020343D01*
X160383868Y-91025327D01*
G37*
%TD.AperFunction*%
%TA.AperFunction,NonConductor*%
G36*
X160383868Y-75425151D02*
G01*
X160428215Y-75453652D01*
X160506676Y-75532113D01*
X160506680Y-75532116D01*
X160619925Y-75607785D01*
X160664730Y-75661398D01*
X160675034Y-75710887D01*
X160675034Y-82095690D01*
X160655349Y-82162729D01*
X160638715Y-82183371D01*
X158232382Y-84589704D01*
X158171059Y-84623189D01*
X158144701Y-84626023D01*
X157920367Y-84626023D01*
X157853328Y-84606338D01*
X157807573Y-84553534D01*
X157797629Y-84484376D01*
X157826654Y-84420820D01*
X157832686Y-84414342D01*
X158776695Y-83470333D01*
X159945994Y-82301034D01*
X159985555Y-82232512D01*
X160006034Y-82156085D01*
X160006034Y-75710887D01*
X160025719Y-75643848D01*
X160061143Y-75607785D01*
X160136588Y-75557373D01*
X160174388Y-75532116D01*
X160190940Y-75515564D01*
X160252853Y-75453652D01*
X160314176Y-75420167D01*
X160383868Y-75425151D01*
G37*
%TD.AperFunction*%
%TA.AperFunction,NonConductor*%
G36*
X133904368Y-87579488D02*
G01*
X133960301Y-87621360D01*
X133984718Y-87686824D01*
X133985034Y-87695670D01*
X133985034Y-88937944D01*
X133965349Y-89004983D01*
X133912545Y-89050738D01*
X133897030Y-89056604D01*
X133881580Y-89061290D01*
X133795833Y-89107124D01*
X133699084Y-89158838D01*
X133699082Y-89158839D01*
X133699081Y-89158840D01*
X133539123Y-89290112D01*
X133407851Y-89450070D01*
X133407849Y-89450073D01*
X133390462Y-89482602D01*
X133310303Y-89632566D01*
X133278695Y-89736765D01*
X133240397Y-89795204D01*
X133176585Y-89823660D01*
X133107518Y-89813100D01*
X133055124Y-89766876D01*
X133036034Y-89700770D01*
X133036034Y-88396670D01*
X133055719Y-88329631D01*
X133072353Y-88308989D01*
X133773353Y-87607989D01*
X133834676Y-87574504D01*
X133904368Y-87579488D01*
G37*
%TD.AperFunction*%
%TA.AperFunction,NonConductor*%
G36*
X152191378Y-129078775D02*
G01*
X152207441Y-129089234D01*
X152211028Y-129091987D01*
X152279538Y-129131540D01*
X152279545Y-129131544D01*
X152355972Y-129152023D01*
X152435096Y-129152023D01*
X158094701Y-129152023D01*
X158161740Y-129171708D01*
X158182382Y-129188342D01*
X158483136Y-129489096D01*
X158516621Y-129550419D01*
X158511637Y-129620111D01*
X158469765Y-129676044D01*
X158404301Y-129700461D01*
X158336028Y-129685609D01*
X158333456Y-129684165D01*
X158311523Y-129671502D01*
X158311524Y-129671502D01*
X158286047Y-129664675D01*
X158235096Y-129651023D01*
X158235094Y-129651023D01*
X152471367Y-129651023D01*
X152404328Y-129631338D01*
X152383686Y-129614704D01*
X152044270Y-129275288D01*
X152010785Y-129213965D01*
X152015769Y-129144273D01*
X152057641Y-129088340D01*
X152123105Y-129063923D01*
X152191378Y-129078775D01*
G37*
%TD.AperFunction*%
%TA.AperFunction,NonConductor*%
G36*
X160165849Y-131171858D02*
G01*
X160167960Y-131173920D01*
X160638715Y-131644675D01*
X160672200Y-131705998D01*
X160675034Y-131732356D01*
X160675034Y-135881452D01*
X160655349Y-135948491D01*
X160619925Y-135984554D01*
X160506680Y-136060222D01*
X160506676Y-136060225D01*
X160428215Y-136138687D01*
X160366892Y-136172172D01*
X160297200Y-136167188D01*
X160252853Y-136138687D01*
X160174391Y-136060225D01*
X160174387Y-136060222D01*
X160061143Y-135984554D01*
X160016338Y-135930941D01*
X160006034Y-135881452D01*
X160006034Y-131421962D01*
X159985554Y-131345532D01*
X159985553Y-131345531D01*
X159973959Y-131325450D01*
X159972891Y-131323600D01*
X159956419Y-131255701D01*
X159979272Y-131189674D01*
X160034193Y-131146483D01*
X160103746Y-131139842D01*
X160165849Y-131171858D01*
G37*
%TD.AperFunction*%
%TA.AperFunction,NonConductor*%
G36*
X141115508Y-108180076D02*
G01*
X140974087Y-108321497D01*
X140505729Y-108103687D01*
X140619827Y-107825816D01*
X140897698Y-107711718D01*
X141115508Y-108180076D01*
G37*
%TD.AperFunction*%
%TA.AperFunction,NonConductor*%
G36*
X157115508Y-105255076D02*
G01*
X156974087Y-105396497D01*
X156505729Y-105178687D01*
X156619827Y-104900816D01*
X156897698Y-104786718D01*
X157115508Y-105255076D01*
G37*
%TD.AperFunction*%
%TA.AperFunction,NonConductor*%
G36*
X141415508Y-105430076D02*
G01*
X141274087Y-105571497D01*
X140805729Y-105353687D01*
X140919827Y-105075816D01*
X141197698Y-104961718D01*
X141415508Y-105430076D01*
G37*
%TD.AperFunction*%
%TA.AperFunction,NonConductor*%
G36*
X160321534Y-96751523D02*
G01*
X160205729Y-97028687D01*
X159720534Y-96851523D01*
X159720534Y-96651523D01*
X160205729Y-96474359D01*
X160321534Y-96751523D01*
G37*
%TD.AperFunction*%
%TA.AperFunction,NonConductor*%
G36*
X157015508Y-120905076D02*
G01*
X156874087Y-121046497D01*
X156405729Y-120828687D01*
X156519827Y-120550816D01*
X156797698Y-120436718D01*
X157015508Y-120905076D01*
G37*
%TD.AperFunction*%
%TA.AperFunction,NonConductor*%
G36*
X141602273Y-92643311D02*
G01*
X141460852Y-92784732D01*
X140992494Y-92566922D01*
X141106592Y-92289051D01*
X141384463Y-92174953D01*
X141602273Y-92643311D01*
G37*
%TD.AperFunction*%
M02*
