%TF.GenerationSoftware,KiCad,Pcbnew,8.0.7*%
%TF.CreationDate,2025-07-11T10:43:35+03:00*%
%TF.ProjectId,switch board,73776974-6368-4206-926f-6172642e6b69,rev?*%
%TF.SameCoordinates,Original*%
%TF.FileFunction,Legend,Top*%
%TF.FilePolarity,Positive*%
%FSLAX46Y46*%
G04 Gerber Fmt 4.6, Leading zero omitted, Abs format (unit mm)*
G04 Created by KiCad (PCBNEW 8.0.7) date 2025-07-11 10:43:35*
%MOMM*%
%LPD*%
G01*
G04 APERTURE LIST*
%ADD10C,0.150000*%
%ADD11C,0.120000*%
%ADD12C,0.127000*%
%ADD13C,0.200000*%
G04 APERTURE END LIST*
D10*
X161000353Y-95761880D02*
X160524162Y-96095213D01*
X161000353Y-96333308D02*
X160000353Y-96333308D01*
X160000353Y-96333308D02*
X160000353Y-95952356D01*
X160000353Y-95952356D02*
X160047972Y-95857118D01*
X160047972Y-95857118D02*
X160095591Y-95809499D01*
X160095591Y-95809499D02*
X160190829Y-95761880D01*
X160190829Y-95761880D02*
X160333686Y-95761880D01*
X160333686Y-95761880D02*
X160428924Y-95809499D01*
X160428924Y-95809499D02*
X160476543Y-95857118D01*
X160476543Y-95857118D02*
X160524162Y-95952356D01*
X160524162Y-95952356D02*
X160524162Y-96333308D01*
X161000353Y-94809499D02*
X161000353Y-95380927D01*
X161000353Y-95095213D02*
X160000353Y-95095213D01*
X160000353Y-95095213D02*
X160143210Y-95190451D01*
X160143210Y-95190451D02*
X160238448Y-95285689D01*
X160238448Y-95285689D02*
X160286067Y-95380927D01*
X160095591Y-94428546D02*
X160047972Y-94380927D01*
X160047972Y-94380927D02*
X160000353Y-94285689D01*
X160000353Y-94285689D02*
X160000353Y-94047594D01*
X160000353Y-94047594D02*
X160047972Y-93952356D01*
X160047972Y-93952356D02*
X160095591Y-93904737D01*
X160095591Y-93904737D02*
X160190829Y-93857118D01*
X160190829Y-93857118D02*
X160286067Y-93857118D01*
X160286067Y-93857118D02*
X160428924Y-93904737D01*
X160428924Y-93904737D02*
X161000353Y-94476165D01*
X161000353Y-94476165D02*
X161000353Y-93857118D01*
X158200353Y-75339617D02*
X157200353Y-75339617D01*
X157200353Y-75339617D02*
X157200353Y-75101522D01*
X157200353Y-75101522D02*
X157247972Y-74958665D01*
X157247972Y-74958665D02*
X157343210Y-74863427D01*
X157343210Y-74863427D02*
X157438448Y-74815808D01*
X157438448Y-74815808D02*
X157628924Y-74768189D01*
X157628924Y-74768189D02*
X157771781Y-74768189D01*
X157771781Y-74768189D02*
X157962257Y-74815808D01*
X157962257Y-74815808D02*
X158057495Y-74863427D01*
X158057495Y-74863427D02*
X158152734Y-74958665D01*
X158152734Y-74958665D02*
X158200353Y-75101522D01*
X158200353Y-75101522D02*
X158200353Y-75339617D01*
X157628924Y-74196760D02*
X157581305Y-74291998D01*
X157581305Y-74291998D02*
X157533686Y-74339617D01*
X157533686Y-74339617D02*
X157438448Y-74387236D01*
X157438448Y-74387236D02*
X157390829Y-74387236D01*
X157390829Y-74387236D02*
X157295591Y-74339617D01*
X157295591Y-74339617D02*
X157247972Y-74291998D01*
X157247972Y-74291998D02*
X157200353Y-74196760D01*
X157200353Y-74196760D02*
X157200353Y-74006284D01*
X157200353Y-74006284D02*
X157247972Y-73911046D01*
X157247972Y-73911046D02*
X157295591Y-73863427D01*
X157295591Y-73863427D02*
X157390829Y-73815808D01*
X157390829Y-73815808D02*
X157438448Y-73815808D01*
X157438448Y-73815808D02*
X157533686Y-73863427D01*
X157533686Y-73863427D02*
X157581305Y-73911046D01*
X157581305Y-73911046D02*
X157628924Y-74006284D01*
X157628924Y-74006284D02*
X157628924Y-74196760D01*
X157628924Y-74196760D02*
X157676543Y-74291998D01*
X157676543Y-74291998D02*
X157724162Y-74339617D01*
X157724162Y-74339617D02*
X157819400Y-74387236D01*
X157819400Y-74387236D02*
X158009876Y-74387236D01*
X158009876Y-74387236D02*
X158105114Y-74339617D01*
X158105114Y-74339617D02*
X158152734Y-74291998D01*
X158152734Y-74291998D02*
X158200353Y-74196760D01*
X158200353Y-74196760D02*
X158200353Y-74006284D01*
X158200353Y-74006284D02*
X158152734Y-73911046D01*
X158152734Y-73911046D02*
X158105114Y-73863427D01*
X158105114Y-73863427D02*
X158009876Y-73815808D01*
X158009876Y-73815808D02*
X157819400Y-73815808D01*
X157819400Y-73815808D02*
X157724162Y-73863427D01*
X157724162Y-73863427D02*
X157676543Y-73911046D01*
X157676543Y-73911046D02*
X157628924Y-74006284D01*
X157250353Y-122590808D02*
X156250353Y-122590808D01*
X156250353Y-122590808D02*
X156250353Y-122352713D01*
X156250353Y-122352713D02*
X156297972Y-122209856D01*
X156297972Y-122209856D02*
X156393210Y-122114618D01*
X156393210Y-122114618D02*
X156488448Y-122066999D01*
X156488448Y-122066999D02*
X156678924Y-122019380D01*
X156678924Y-122019380D02*
X156821781Y-122019380D01*
X156821781Y-122019380D02*
X157012257Y-122066999D01*
X157012257Y-122066999D02*
X157107495Y-122114618D01*
X157107495Y-122114618D02*
X157202734Y-122209856D01*
X157202734Y-122209856D02*
X157250353Y-122352713D01*
X157250353Y-122352713D02*
X157250353Y-122590808D01*
X157250353Y-121066999D02*
X157250353Y-121638427D01*
X157250353Y-121352713D02*
X156250353Y-121352713D01*
X156250353Y-121352713D02*
X156393210Y-121447951D01*
X156393210Y-121447951D02*
X156488448Y-121543189D01*
X156488448Y-121543189D02*
X156536067Y-121638427D01*
X157250353Y-120114618D02*
X157250353Y-120686046D01*
X157250353Y-120400332D02*
X156250353Y-120400332D01*
X156250353Y-120400332D02*
X156393210Y-120495570D01*
X156393210Y-120495570D02*
X156488448Y-120590808D01*
X156488448Y-120590808D02*
X156536067Y-120686046D01*
X161010353Y-111406880D02*
X160534162Y-111740213D01*
X161010353Y-111978308D02*
X160010353Y-111978308D01*
X160010353Y-111978308D02*
X160010353Y-111597356D01*
X160010353Y-111597356D02*
X160057972Y-111502118D01*
X160057972Y-111502118D02*
X160105591Y-111454499D01*
X160105591Y-111454499D02*
X160200829Y-111406880D01*
X160200829Y-111406880D02*
X160343686Y-111406880D01*
X160343686Y-111406880D02*
X160438924Y-111454499D01*
X160438924Y-111454499D02*
X160486543Y-111502118D01*
X160486543Y-111502118D02*
X160534162Y-111597356D01*
X160534162Y-111597356D02*
X160534162Y-111978308D01*
X161010353Y-110454499D02*
X161010353Y-111025927D01*
X161010353Y-110740213D02*
X160010353Y-110740213D01*
X160010353Y-110740213D02*
X160153210Y-110835451D01*
X160153210Y-110835451D02*
X160248448Y-110930689D01*
X160248448Y-110930689D02*
X160296067Y-111025927D01*
X160010353Y-110121165D02*
X160010353Y-109502118D01*
X160010353Y-109502118D02*
X160391305Y-109835451D01*
X160391305Y-109835451D02*
X160391305Y-109692594D01*
X160391305Y-109692594D02*
X160438924Y-109597356D01*
X160438924Y-109597356D02*
X160486543Y-109549737D01*
X160486543Y-109549737D02*
X160581781Y-109502118D01*
X160581781Y-109502118D02*
X160819876Y-109502118D01*
X160819876Y-109502118D02*
X160915114Y-109549737D01*
X160915114Y-109549737D02*
X160962734Y-109597356D01*
X160962734Y-109597356D02*
X161010353Y-109692594D01*
X161010353Y-109692594D02*
X161010353Y-109978308D01*
X161010353Y-109978308D02*
X160962734Y-110073546D01*
X160962734Y-110073546D02*
X160915114Y-110121165D01*
X145148629Y-116871223D02*
X145291486Y-116918842D01*
X145291486Y-116918842D02*
X145529581Y-116918842D01*
X145529581Y-116918842D02*
X145624819Y-116871223D01*
X145624819Y-116871223D02*
X145672438Y-116823603D01*
X145672438Y-116823603D02*
X145720057Y-116728365D01*
X145720057Y-116728365D02*
X145720057Y-116633127D01*
X145720057Y-116633127D02*
X145672438Y-116537889D01*
X145672438Y-116537889D02*
X145624819Y-116490270D01*
X145624819Y-116490270D02*
X145529581Y-116442651D01*
X145529581Y-116442651D02*
X145339105Y-116395032D01*
X145339105Y-116395032D02*
X145243867Y-116347413D01*
X145243867Y-116347413D02*
X145196248Y-116299794D01*
X145196248Y-116299794D02*
X145148629Y-116204556D01*
X145148629Y-116204556D02*
X145148629Y-116109318D01*
X145148629Y-116109318D02*
X145196248Y-116014080D01*
X145196248Y-116014080D02*
X145243867Y-115966461D01*
X145243867Y-115966461D02*
X145339105Y-115918842D01*
X145339105Y-115918842D02*
X145577200Y-115918842D01*
X145577200Y-115918842D02*
X145720057Y-115966461D01*
X146577200Y-116252175D02*
X146577200Y-116918842D01*
X146339105Y-115871223D02*
X146101010Y-116585508D01*
X146101010Y-116585508D02*
X146720057Y-116585508D01*
X161010353Y-126971880D02*
X160534162Y-127305213D01*
X161010353Y-127543308D02*
X160010353Y-127543308D01*
X160010353Y-127543308D02*
X160010353Y-127162356D01*
X160010353Y-127162356D02*
X160057972Y-127067118D01*
X160057972Y-127067118D02*
X160105591Y-127019499D01*
X160105591Y-127019499D02*
X160200829Y-126971880D01*
X160200829Y-126971880D02*
X160343686Y-126971880D01*
X160343686Y-126971880D02*
X160438924Y-127019499D01*
X160438924Y-127019499D02*
X160486543Y-127067118D01*
X160486543Y-127067118D02*
X160534162Y-127162356D01*
X160534162Y-127162356D02*
X160534162Y-127543308D01*
X161010353Y-126019499D02*
X161010353Y-126590927D01*
X161010353Y-126305213D02*
X160010353Y-126305213D01*
X160010353Y-126305213D02*
X160153210Y-126400451D01*
X160153210Y-126400451D02*
X160248448Y-126495689D01*
X160248448Y-126495689D02*
X160296067Y-126590927D01*
X160343686Y-125162356D02*
X161010353Y-125162356D01*
X159962734Y-125400451D02*
X160677019Y-125638546D01*
X160677019Y-125638546D02*
X160677019Y-125019499D01*
X158250353Y-90889617D02*
X157250353Y-90889617D01*
X157250353Y-90889617D02*
X157250353Y-90651522D01*
X157250353Y-90651522D02*
X157297972Y-90508665D01*
X157297972Y-90508665D02*
X157393210Y-90413427D01*
X157393210Y-90413427D02*
X157488448Y-90365808D01*
X157488448Y-90365808D02*
X157678924Y-90318189D01*
X157678924Y-90318189D02*
X157821781Y-90318189D01*
X157821781Y-90318189D02*
X158012257Y-90365808D01*
X158012257Y-90365808D02*
X158107495Y-90413427D01*
X158107495Y-90413427D02*
X158202734Y-90508665D01*
X158202734Y-90508665D02*
X158250353Y-90651522D01*
X158250353Y-90651522D02*
X158250353Y-90889617D01*
X158250353Y-89841998D02*
X158250353Y-89651522D01*
X158250353Y-89651522D02*
X158202734Y-89556284D01*
X158202734Y-89556284D02*
X158155114Y-89508665D01*
X158155114Y-89508665D02*
X158012257Y-89413427D01*
X158012257Y-89413427D02*
X157821781Y-89365808D01*
X157821781Y-89365808D02*
X157440829Y-89365808D01*
X157440829Y-89365808D02*
X157345591Y-89413427D01*
X157345591Y-89413427D02*
X157297972Y-89461046D01*
X157297972Y-89461046D02*
X157250353Y-89556284D01*
X157250353Y-89556284D02*
X157250353Y-89746760D01*
X157250353Y-89746760D02*
X157297972Y-89841998D01*
X157297972Y-89841998D02*
X157345591Y-89889617D01*
X157345591Y-89889617D02*
X157440829Y-89937236D01*
X157440829Y-89937236D02*
X157678924Y-89937236D01*
X157678924Y-89937236D02*
X157774162Y-89889617D01*
X157774162Y-89889617D02*
X157821781Y-89841998D01*
X157821781Y-89841998D02*
X157869400Y-89746760D01*
X157869400Y-89746760D02*
X157869400Y-89556284D01*
X157869400Y-89556284D02*
X157821781Y-89461046D01*
X157821781Y-89461046D02*
X157774162Y-89413427D01*
X157774162Y-89413427D02*
X157678924Y-89365808D01*
X145148629Y-85736223D02*
X145291486Y-85783842D01*
X145291486Y-85783842D02*
X145529581Y-85783842D01*
X145529581Y-85783842D02*
X145624819Y-85736223D01*
X145624819Y-85736223D02*
X145672438Y-85688603D01*
X145672438Y-85688603D02*
X145720057Y-85593365D01*
X145720057Y-85593365D02*
X145720057Y-85498127D01*
X145720057Y-85498127D02*
X145672438Y-85402889D01*
X145672438Y-85402889D02*
X145624819Y-85355270D01*
X145624819Y-85355270D02*
X145529581Y-85307651D01*
X145529581Y-85307651D02*
X145339105Y-85260032D01*
X145339105Y-85260032D02*
X145243867Y-85212413D01*
X145243867Y-85212413D02*
X145196248Y-85164794D01*
X145196248Y-85164794D02*
X145148629Y-85069556D01*
X145148629Y-85069556D02*
X145148629Y-84974318D01*
X145148629Y-84974318D02*
X145196248Y-84879080D01*
X145196248Y-84879080D02*
X145243867Y-84831461D01*
X145243867Y-84831461D02*
X145339105Y-84783842D01*
X145339105Y-84783842D02*
X145577200Y-84783842D01*
X145577200Y-84783842D02*
X145720057Y-84831461D01*
X146101010Y-84879080D02*
X146148629Y-84831461D01*
X146148629Y-84831461D02*
X146243867Y-84783842D01*
X146243867Y-84783842D02*
X146481962Y-84783842D01*
X146481962Y-84783842D02*
X146577200Y-84831461D01*
X146577200Y-84831461D02*
X146624819Y-84879080D01*
X146624819Y-84879080D02*
X146672438Y-84974318D01*
X146672438Y-84974318D02*
X146672438Y-85069556D01*
X146672438Y-85069556D02*
X146624819Y-85212413D01*
X146624819Y-85212413D02*
X146053391Y-85783842D01*
X146053391Y-85783842D02*
X146672438Y-85783842D01*
X145278629Y-132438723D02*
X145421486Y-132486342D01*
X145421486Y-132486342D02*
X145659581Y-132486342D01*
X145659581Y-132486342D02*
X145754819Y-132438723D01*
X145754819Y-132438723D02*
X145802438Y-132391103D01*
X145802438Y-132391103D02*
X145850057Y-132295865D01*
X145850057Y-132295865D02*
X145850057Y-132200627D01*
X145850057Y-132200627D02*
X145802438Y-132105389D01*
X145802438Y-132105389D02*
X145754819Y-132057770D01*
X145754819Y-132057770D02*
X145659581Y-132010151D01*
X145659581Y-132010151D02*
X145469105Y-131962532D01*
X145469105Y-131962532D02*
X145373867Y-131914913D01*
X145373867Y-131914913D02*
X145326248Y-131867294D01*
X145326248Y-131867294D02*
X145278629Y-131772056D01*
X145278629Y-131772056D02*
X145278629Y-131676818D01*
X145278629Y-131676818D02*
X145326248Y-131581580D01*
X145326248Y-131581580D02*
X145373867Y-131533961D01*
X145373867Y-131533961D02*
X145469105Y-131486342D01*
X145469105Y-131486342D02*
X145707200Y-131486342D01*
X145707200Y-131486342D02*
X145850057Y-131533961D01*
X146754819Y-131486342D02*
X146278629Y-131486342D01*
X146278629Y-131486342D02*
X146231010Y-131962532D01*
X146231010Y-131962532D02*
X146278629Y-131914913D01*
X146278629Y-131914913D02*
X146373867Y-131867294D01*
X146373867Y-131867294D02*
X146611962Y-131867294D01*
X146611962Y-131867294D02*
X146707200Y-131914913D01*
X146707200Y-131914913D02*
X146754819Y-131962532D01*
X146754819Y-131962532D02*
X146802438Y-132057770D01*
X146802438Y-132057770D02*
X146802438Y-132295865D01*
X146802438Y-132295865D02*
X146754819Y-132391103D01*
X146754819Y-132391103D02*
X146707200Y-132438723D01*
X146707200Y-132438723D02*
X146611962Y-132486342D01*
X146611962Y-132486342D02*
X146373867Y-132486342D01*
X146373867Y-132486342D02*
X146278629Y-132438723D01*
X146278629Y-132438723D02*
X146231010Y-132391103D01*
X145148629Y-101303723D02*
X145291486Y-101351342D01*
X145291486Y-101351342D02*
X145529581Y-101351342D01*
X145529581Y-101351342D02*
X145624819Y-101303723D01*
X145624819Y-101303723D02*
X145672438Y-101256103D01*
X145672438Y-101256103D02*
X145720057Y-101160865D01*
X145720057Y-101160865D02*
X145720057Y-101065627D01*
X145720057Y-101065627D02*
X145672438Y-100970389D01*
X145672438Y-100970389D02*
X145624819Y-100922770D01*
X145624819Y-100922770D02*
X145529581Y-100875151D01*
X145529581Y-100875151D02*
X145339105Y-100827532D01*
X145339105Y-100827532D02*
X145243867Y-100779913D01*
X145243867Y-100779913D02*
X145196248Y-100732294D01*
X145196248Y-100732294D02*
X145148629Y-100637056D01*
X145148629Y-100637056D02*
X145148629Y-100541818D01*
X145148629Y-100541818D02*
X145196248Y-100446580D01*
X145196248Y-100446580D02*
X145243867Y-100398961D01*
X145243867Y-100398961D02*
X145339105Y-100351342D01*
X145339105Y-100351342D02*
X145577200Y-100351342D01*
X145577200Y-100351342D02*
X145720057Y-100398961D01*
X146053391Y-100351342D02*
X146672438Y-100351342D01*
X146672438Y-100351342D02*
X146339105Y-100732294D01*
X146339105Y-100732294D02*
X146481962Y-100732294D01*
X146481962Y-100732294D02*
X146577200Y-100779913D01*
X146577200Y-100779913D02*
X146624819Y-100827532D01*
X146624819Y-100827532D02*
X146672438Y-100922770D01*
X146672438Y-100922770D02*
X146672438Y-101160865D01*
X146672438Y-101160865D02*
X146624819Y-101256103D01*
X146624819Y-101256103D02*
X146577200Y-101303723D01*
X146577200Y-101303723D02*
X146481962Y-101351342D01*
X146481962Y-101351342D02*
X146196248Y-101351342D01*
X146196248Y-101351342D02*
X146101010Y-101303723D01*
X146101010Y-101303723D02*
X146053391Y-101256103D01*
X158150353Y-132706880D02*
X157674162Y-133040213D01*
X158150353Y-133278308D02*
X157150353Y-133278308D01*
X157150353Y-133278308D02*
X157150353Y-132897356D01*
X157150353Y-132897356D02*
X157197972Y-132802118D01*
X157197972Y-132802118D02*
X157245591Y-132754499D01*
X157245591Y-132754499D02*
X157340829Y-132706880D01*
X157340829Y-132706880D02*
X157483686Y-132706880D01*
X157483686Y-132706880D02*
X157578924Y-132754499D01*
X157578924Y-132754499D02*
X157626543Y-132802118D01*
X157626543Y-132802118D02*
X157674162Y-132897356D01*
X157674162Y-132897356D02*
X157674162Y-133278308D01*
X158150353Y-131754499D02*
X158150353Y-132325927D01*
X158150353Y-132040213D02*
X157150353Y-132040213D01*
X157150353Y-132040213D02*
X157293210Y-132135451D01*
X157293210Y-132135451D02*
X157388448Y-132230689D01*
X157388448Y-132230689D02*
X157436067Y-132325927D01*
X157150353Y-130849737D02*
X157150353Y-131325927D01*
X157150353Y-131325927D02*
X157626543Y-131373546D01*
X157626543Y-131373546D02*
X157578924Y-131325927D01*
X157578924Y-131325927D02*
X157531305Y-131230689D01*
X157531305Y-131230689D02*
X157531305Y-130992594D01*
X157531305Y-130992594D02*
X157578924Y-130897356D01*
X157578924Y-130897356D02*
X157626543Y-130849737D01*
X157626543Y-130849737D02*
X157721781Y-130802118D01*
X157721781Y-130802118D02*
X157959876Y-130802118D01*
X157959876Y-130802118D02*
X158055114Y-130849737D01*
X158055114Y-130849737D02*
X158102734Y-130897356D01*
X158102734Y-130897356D02*
X158150353Y-130992594D01*
X158150353Y-130992594D02*
X158150353Y-131230689D01*
X158150353Y-131230689D02*
X158102734Y-131325927D01*
X158102734Y-131325927D02*
X158055114Y-131373546D01*
X158250353Y-107015808D02*
X157250353Y-107015808D01*
X157250353Y-107015808D02*
X157250353Y-106777713D01*
X157250353Y-106777713D02*
X157297972Y-106634856D01*
X157297972Y-106634856D02*
X157393210Y-106539618D01*
X157393210Y-106539618D02*
X157488448Y-106491999D01*
X157488448Y-106491999D02*
X157678924Y-106444380D01*
X157678924Y-106444380D02*
X157821781Y-106444380D01*
X157821781Y-106444380D02*
X158012257Y-106491999D01*
X158012257Y-106491999D02*
X158107495Y-106539618D01*
X158107495Y-106539618D02*
X158202734Y-106634856D01*
X158202734Y-106634856D02*
X158250353Y-106777713D01*
X158250353Y-106777713D02*
X158250353Y-107015808D01*
X158250353Y-105491999D02*
X158250353Y-106063427D01*
X158250353Y-105777713D02*
X157250353Y-105777713D01*
X157250353Y-105777713D02*
X157393210Y-105872951D01*
X157393210Y-105872951D02*
X157488448Y-105968189D01*
X157488448Y-105968189D02*
X157536067Y-106063427D01*
X157250353Y-104872951D02*
X157250353Y-104777713D01*
X157250353Y-104777713D02*
X157297972Y-104682475D01*
X157297972Y-104682475D02*
X157345591Y-104634856D01*
X157345591Y-104634856D02*
X157440829Y-104587237D01*
X157440829Y-104587237D02*
X157631305Y-104539618D01*
X157631305Y-104539618D02*
X157869400Y-104539618D01*
X157869400Y-104539618D02*
X158059876Y-104587237D01*
X158059876Y-104587237D02*
X158155114Y-104634856D01*
X158155114Y-104634856D02*
X158202734Y-104682475D01*
X158202734Y-104682475D02*
X158250353Y-104777713D01*
X158250353Y-104777713D02*
X158250353Y-104872951D01*
X158250353Y-104872951D02*
X158202734Y-104968189D01*
X158202734Y-104968189D02*
X158155114Y-105015808D01*
X158155114Y-105015808D02*
X158059876Y-105063427D01*
X158059876Y-105063427D02*
X157869400Y-105111046D01*
X157869400Y-105111046D02*
X157631305Y-105111046D01*
X157631305Y-105111046D02*
X157440829Y-105063427D01*
X157440829Y-105063427D02*
X157345591Y-105015808D01*
X157345591Y-105015808D02*
X157297972Y-104968189D01*
X157297972Y-104968189D02*
X157250353Y-104872951D01*
X158125353Y-138165808D02*
X157125353Y-138165808D01*
X157125353Y-138165808D02*
X157125353Y-137927713D01*
X157125353Y-137927713D02*
X157172972Y-137784856D01*
X157172972Y-137784856D02*
X157268210Y-137689618D01*
X157268210Y-137689618D02*
X157363448Y-137641999D01*
X157363448Y-137641999D02*
X157553924Y-137594380D01*
X157553924Y-137594380D02*
X157696781Y-137594380D01*
X157696781Y-137594380D02*
X157887257Y-137641999D01*
X157887257Y-137641999D02*
X157982495Y-137689618D01*
X157982495Y-137689618D02*
X158077734Y-137784856D01*
X158077734Y-137784856D02*
X158125353Y-137927713D01*
X158125353Y-137927713D02*
X158125353Y-138165808D01*
X158125353Y-136641999D02*
X158125353Y-137213427D01*
X158125353Y-136927713D02*
X157125353Y-136927713D01*
X157125353Y-136927713D02*
X157268210Y-137022951D01*
X157268210Y-137022951D02*
X157363448Y-137118189D01*
X157363448Y-137118189D02*
X157411067Y-137213427D01*
X157220591Y-136261046D02*
X157172972Y-136213427D01*
X157172972Y-136213427D02*
X157125353Y-136118189D01*
X157125353Y-136118189D02*
X157125353Y-135880094D01*
X157125353Y-135880094D02*
X157172972Y-135784856D01*
X157172972Y-135784856D02*
X157220591Y-135737237D01*
X157220591Y-135737237D02*
X157315829Y-135689618D01*
X157315829Y-135689618D02*
X157411067Y-135689618D01*
X157411067Y-135689618D02*
X157553924Y-135737237D01*
X157553924Y-135737237D02*
X158125353Y-136308665D01*
X158125353Y-136308665D02*
X158125353Y-135689618D01*
X161020353Y-80159380D02*
X160544162Y-80492713D01*
X161020353Y-80730808D02*
X160020353Y-80730808D01*
X160020353Y-80730808D02*
X160020353Y-80349856D01*
X160020353Y-80349856D02*
X160067972Y-80254618D01*
X160067972Y-80254618D02*
X160115591Y-80206999D01*
X160115591Y-80206999D02*
X160210829Y-80159380D01*
X160210829Y-80159380D02*
X160353686Y-80159380D01*
X160353686Y-80159380D02*
X160448924Y-80206999D01*
X160448924Y-80206999D02*
X160496543Y-80254618D01*
X160496543Y-80254618D02*
X160544162Y-80349856D01*
X160544162Y-80349856D02*
X160544162Y-80730808D01*
X161020353Y-79206999D02*
X161020353Y-79778427D01*
X161020353Y-79492713D02*
X160020353Y-79492713D01*
X160020353Y-79492713D02*
X160163210Y-79587951D01*
X160163210Y-79587951D02*
X160258448Y-79683189D01*
X160258448Y-79683189D02*
X160306067Y-79778427D01*
X161020353Y-78254618D02*
X161020353Y-78826046D01*
X161020353Y-78540332D02*
X160020353Y-78540332D01*
X160020353Y-78540332D02*
X160163210Y-78635570D01*
X160163210Y-78635570D02*
X160258448Y-78730808D01*
X160258448Y-78730808D02*
X160306067Y-78826046D01*
X145278629Y-70168723D02*
X145421486Y-70216342D01*
X145421486Y-70216342D02*
X145659581Y-70216342D01*
X145659581Y-70216342D02*
X145754819Y-70168723D01*
X145754819Y-70168723D02*
X145802438Y-70121103D01*
X145802438Y-70121103D02*
X145850057Y-70025865D01*
X145850057Y-70025865D02*
X145850057Y-69930627D01*
X145850057Y-69930627D02*
X145802438Y-69835389D01*
X145802438Y-69835389D02*
X145754819Y-69787770D01*
X145754819Y-69787770D02*
X145659581Y-69740151D01*
X145659581Y-69740151D02*
X145469105Y-69692532D01*
X145469105Y-69692532D02*
X145373867Y-69644913D01*
X145373867Y-69644913D02*
X145326248Y-69597294D01*
X145326248Y-69597294D02*
X145278629Y-69502056D01*
X145278629Y-69502056D02*
X145278629Y-69406818D01*
X145278629Y-69406818D02*
X145326248Y-69311580D01*
X145326248Y-69311580D02*
X145373867Y-69263961D01*
X145373867Y-69263961D02*
X145469105Y-69216342D01*
X145469105Y-69216342D02*
X145707200Y-69216342D01*
X145707200Y-69216342D02*
X145850057Y-69263961D01*
X146802438Y-70216342D02*
X146231010Y-70216342D01*
X146516724Y-70216342D02*
X146516724Y-69216342D01*
X146516724Y-69216342D02*
X146421486Y-69359199D01*
X146421486Y-69359199D02*
X146326248Y-69454437D01*
X146326248Y-69454437D02*
X146231010Y-69502056D01*
D11*
%TO.C,R12*%
X158593034Y-94864299D02*
X158593034Y-95373747D01*
X159638034Y-94864299D02*
X159638034Y-95373747D01*
%TO.C,D8*%
X164170534Y-73515816D02*
X164170534Y-73050816D01*
X164170534Y-76140816D02*
X164170534Y-75675816D01*
X158822427Y-73515741D02*
G75*
G02*
X164170534Y-73050986I2788107J-1080075D01*
G01*
X159355878Y-73515757D02*
G75*
G02*
X163865218Y-73515816I2254656J-1080059D01*
G01*
X163865218Y-75675816D02*
G75*
G02*
X159355878Y-75675875I-2254684J1080000D01*
G01*
X164170534Y-76140646D02*
G75*
G02*
X158822427Y-75675891I-2560000J1544830D01*
G01*
%TO.C,D11*%
X164170534Y-120316344D02*
X164170534Y-119851344D01*
X164170534Y-122941344D02*
X164170534Y-122476344D01*
X158822427Y-120316269D02*
G75*
G02*
X164170534Y-119851514I2788107J-1080075D01*
G01*
X159355878Y-120316285D02*
G75*
G02*
X163865218Y-120316344I2254656J-1080059D01*
G01*
X163865218Y-122476344D02*
G75*
G02*
X159355878Y-122476403I-2254684J1080000D01*
G01*
X164170534Y-122941174D02*
G75*
G02*
X158822427Y-122476419I-2560000J1544830D01*
G01*
%TO.C,R13*%
X158603034Y-110509299D02*
X158603034Y-111018747D01*
X159648034Y-110509299D02*
X159648034Y-111018747D01*
D12*
%TO.C,S4*%
X142985534Y-117949023D02*
X155685534Y-117949023D01*
X142985534Y-124809023D02*
X142985534Y-117949023D01*
X155685534Y-117949023D02*
X155685534Y-124809023D01*
X155685534Y-124809023D02*
X142985534Y-124809023D01*
D13*
X144735534Y-125479023D02*
G75*
G02*
X144535534Y-125479023I-100000J0D01*
G01*
X144535534Y-125479023D02*
G75*
G02*
X144735534Y-125479023I100000J0D01*
G01*
D11*
%TO.C,R14*%
X158603034Y-126074299D02*
X158603034Y-126583747D01*
X159648034Y-126074299D02*
X159648034Y-126583747D01*
%TO.C,D9*%
X164170534Y-89115992D02*
X164170534Y-88650992D01*
X164170534Y-91740992D02*
X164170534Y-91275992D01*
X158822427Y-89115917D02*
G75*
G02*
X164170534Y-88651162I2788107J-1080075D01*
G01*
X159355878Y-89115933D02*
G75*
G02*
X163865218Y-89115992I2254656J-1080059D01*
G01*
X163865218Y-91275992D02*
G75*
G02*
X159355878Y-91276051I-2254684J1080000D01*
G01*
X164170534Y-91740822D02*
G75*
G02*
X158822427Y-91276067I-2560000J1544830D01*
G01*
D12*
%TO.C,S2*%
X142985534Y-86814023D02*
X155685534Y-86814023D01*
X142985534Y-93674023D02*
X142985534Y-86814023D01*
X155685534Y-86814023D02*
X155685534Y-93674023D01*
X155685534Y-93674023D02*
X142985534Y-93674023D01*
D13*
X144735534Y-94344023D02*
G75*
G02*
X144535534Y-94344023I-100000J0D01*
G01*
X144535534Y-94344023D02*
G75*
G02*
X144735534Y-94344023I100000J0D01*
G01*
D12*
%TO.C,S5*%
X143115534Y-133516523D02*
X155815534Y-133516523D01*
X143115534Y-140376523D02*
X143115534Y-133516523D01*
X155815534Y-133516523D02*
X155815534Y-140376523D01*
X155815534Y-140376523D02*
X143115534Y-140376523D01*
D13*
X144865534Y-141046523D02*
G75*
G02*
X144665534Y-141046523I-100000J0D01*
G01*
X144665534Y-141046523D02*
G75*
G02*
X144865534Y-141046523I100000J0D01*
G01*
D12*
%TO.C,S3*%
X142985534Y-102381523D02*
X155685534Y-102381523D01*
X142985534Y-109241523D02*
X142985534Y-102381523D01*
X155685534Y-102381523D02*
X155685534Y-109241523D01*
X155685534Y-109241523D02*
X142985534Y-109241523D01*
D13*
X144735534Y-109911523D02*
G75*
G02*
X144535534Y-109911523I-100000J0D01*
G01*
X144535534Y-109911523D02*
G75*
G02*
X144735534Y-109911523I100000J0D01*
G01*
D11*
%TO.C,R15*%
X158603034Y-132318747D02*
X158603034Y-131809299D01*
X159648034Y-132318747D02*
X159648034Y-131809299D01*
%TO.C,D10*%
X164170534Y-104716168D02*
X164170534Y-104251168D01*
X164170534Y-107341168D02*
X164170534Y-106876168D01*
X158822427Y-104716093D02*
G75*
G02*
X164170534Y-104251338I2788107J-1080075D01*
G01*
X159355878Y-104716109D02*
G75*
G02*
X163865218Y-104716168I2254656J-1080059D01*
G01*
X163865218Y-106876168D02*
G75*
G02*
X159355878Y-106876227I-2254684J1080000D01*
G01*
X164170534Y-107340998D02*
G75*
G02*
X158822427Y-106876243I-2560000J1544830D01*
G01*
%TO.C,D12*%
X164170534Y-135916523D02*
X164170534Y-135451523D01*
X164170534Y-138541523D02*
X164170534Y-138076523D01*
X158822427Y-135916448D02*
G75*
G02*
X164170534Y-135451693I2788107J-1080075D01*
G01*
X159355878Y-135916464D02*
G75*
G02*
X163865218Y-135916523I2254656J-1080059D01*
G01*
X163865218Y-138076523D02*
G75*
G02*
X159355878Y-138076582I-2254684J1080000D01*
G01*
X164170534Y-138541353D02*
G75*
G02*
X158822427Y-138076598I-2560000J1544830D01*
G01*
%TO.C,R11*%
X158613034Y-79261799D02*
X158613034Y-79771247D01*
X159658034Y-79261799D02*
X159658034Y-79771247D01*
D12*
%TO.C,S1*%
X143115534Y-71246523D02*
X155815534Y-71246523D01*
X143115534Y-78106523D02*
X143115534Y-71246523D01*
X155815534Y-71246523D02*
X155815534Y-78106523D01*
X155815534Y-78106523D02*
X143115534Y-78106523D01*
D13*
X144865534Y-78776523D02*
G75*
G02*
X144665534Y-78776523I-100000J0D01*
G01*
X144665534Y-78776523D02*
G75*
G02*
X144865534Y-78776523I100000J0D01*
G01*
%TD*%
M02*
