%TF.GenerationSoftware,KiCad,Pcbnew,8.0.7*%
%TF.CreationDate,2025-07-11T10:43:35+03:00*%
%TF.ProjectId,switch board,73776974-6368-4206-926f-6172642e6b69,rev?*%
%TF.SameCoordinates,Original*%
%TF.FileFunction,Copper,L1,Top*%
%TF.FilePolarity,Positive*%
%FSLAX46Y46*%
G04 Gerber Fmt 4.6, Leading zero omitted, Abs format (unit mm)*
G04 Created by KiCad (PCBNEW 8.0.7) date 2025-07-11 10:43:35*
%MOMM*%
%LPD*%
G01*
G04 APERTURE LIST*
G04 Aperture macros list*
%AMRoundRect*
0 Rectangle with rounded corners*
0 $1 Rounding radius*
0 $2 $3 $4 $5 $6 $7 $8 $9 X,Y pos of 4 corners*
0 Add a 4 corners polygon primitive as box body*
4,1,4,$2,$3,$4,$5,$6,$7,$8,$9,$2,$3,0*
0 Add four circle primitives for the rounded corners*
1,1,$1+$1,$2,$3*
1,1,$1+$1,$4,$5*
1,1,$1+$1,$6,$7*
1,1,$1+$1,$8,$9*
0 Add four rect primitives between the rounded corners*
20,1,$1+$1,$2,$3,$4,$5,0*
20,1,$1+$1,$4,$5,$6,$7,0*
20,1,$1+$1,$6,$7,$8,$9,0*
20,1,$1+$1,$8,$9,$2,$3,0*%
G04 Aperture macros list end*
%TA.AperFunction,SMDPad,CuDef*%
%ADD10RoundRect,0.237500X-0.237500X0.250000X-0.237500X-0.250000X0.237500X-0.250000X0.237500X0.250000X0*%
%TD*%
%TA.AperFunction,ComponentPad*%
%ADD11R,1.070000X1.800000*%
%TD*%
%TA.AperFunction,ComponentPad*%
%ADD12O,1.070000X1.800000*%
%TD*%
%TA.AperFunction,ComponentPad*%
%ADD13O,1.810000X3.620000*%
%TD*%
%TA.AperFunction,SMDPad,CuDef*%
%ADD14RoundRect,0.237500X0.237500X-0.250000X0.237500X0.250000X-0.237500X0.250000X-0.237500X-0.250000X0*%
%TD*%
%TA.AperFunction,ComponentPad*%
%ADD15RoundRect,0.250000X0.600000X0.600000X-0.600000X0.600000X-0.600000X-0.600000X0.600000X-0.600000X0*%
%TD*%
%TA.AperFunction,ComponentPad*%
%ADD16C,1.700000*%
%TD*%
%TA.AperFunction,ViaPad*%
%ADD17C,0.600000*%
%TD*%
%TA.AperFunction,Conductor*%
%ADD18C,0.200000*%
%TD*%
G04 APERTURE END LIST*
D10*
%TO.P,R12,1*%
%TO.N,N/C*%
X159115534Y-94206523D03*
%TO.P,R12,2*%
X159115534Y-96031523D03*
%TD*%
D11*
%TO.P,D8,1,A*%
%TO.N,N/C*%
X163515534Y-74595816D03*
D12*
%TO.P,D8,2,RK*%
X162245534Y-74595816D03*
%TO.P,D8,3,GK*%
X160975534Y-74595816D03*
%TO.P,D8,4,BK*%
X159705534Y-74595816D03*
%TD*%
D11*
%TO.P,D11,1,A*%
%TO.N,N/C*%
X163515534Y-121396344D03*
D12*
%TO.P,D11,2,RK*%
X162245534Y-121396344D03*
%TO.P,D11,3,GK*%
X160975534Y-121396344D03*
%TO.P,D11,4,BK*%
X159705534Y-121396344D03*
%TD*%
D10*
%TO.P,R13,1*%
%TO.N,N/C*%
X159125534Y-109851523D03*
%TO.P,R13,2*%
X159125534Y-111676523D03*
%TD*%
D13*
%TO.P,S4,1*%
%TO.N,N/C*%
X144635534Y-121379023D03*
%TO.P,S4,2*%
X149335534Y-121379023D03*
%TO.P,S4,3*%
X154035534Y-121379023D03*
%TD*%
D10*
%TO.P,R14,1*%
%TO.N,N/C*%
X159125534Y-125416523D03*
%TO.P,R14,2*%
X159125534Y-127241523D03*
%TD*%
D11*
%TO.P,D9,1,A*%
%TO.N,N/C*%
X163515534Y-90195992D03*
D12*
%TO.P,D9,2,RK*%
X162245534Y-90195992D03*
%TO.P,D9,3,GK*%
X160975534Y-90195992D03*
%TO.P,D9,4,BK*%
X159705534Y-90195992D03*
%TD*%
D13*
%TO.P,S2,1*%
%TO.N,N/C*%
X144635534Y-90244023D03*
%TO.P,S2,2*%
X149335534Y-90244023D03*
%TO.P,S2,3*%
X154035534Y-90244023D03*
%TD*%
%TO.P,S5,1*%
%TO.N,N/C*%
X144765534Y-136946523D03*
%TO.P,S5,2*%
X149465534Y-136946523D03*
%TO.P,S5,3*%
X154165534Y-136946523D03*
%TD*%
%TO.P,S3,1*%
%TO.N,N/C*%
X144635534Y-105811523D03*
%TO.P,S3,2*%
X149335534Y-105811523D03*
%TO.P,S3,3*%
X154035534Y-105811523D03*
%TD*%
D14*
%TO.P,R15,1*%
%TO.N,N/C*%
X159125534Y-132976523D03*
%TO.P,R15,2*%
X159125534Y-131151523D03*
%TD*%
D11*
%TO.P,D10,1,A*%
%TO.N,N/C*%
X163515534Y-105796168D03*
D12*
%TO.P,D10,2,RK*%
X162245534Y-105796168D03*
%TO.P,D10,3,GK*%
X160975534Y-105796168D03*
%TO.P,D10,4,BK*%
X159705534Y-105796168D03*
%TD*%
D11*
%TO.P,D12,1,A*%
%TO.N,N/C*%
X163515534Y-136996523D03*
D12*
%TO.P,D12,2,RK*%
X162245534Y-136996523D03*
%TO.P,D12,3,GK*%
X160975534Y-136996523D03*
%TO.P,D12,4,BK*%
X159705534Y-136996523D03*
%TD*%
D10*
%TO.P,R11,1*%
%TO.N,N/C*%
X159135534Y-78604023D03*
%TO.P,R11,2*%
X159135534Y-80429023D03*
%TD*%
D13*
%TO.P,S1,1*%
%TO.N,N/C*%
X144765534Y-74676523D03*
%TO.P,S1,2*%
X149465534Y-74676523D03*
%TO.P,S1,3*%
X154165534Y-74676523D03*
%TD*%
D15*
%TO.P,J7,1,Pin_1*%
%TO.N,N/C*%
X136825534Y-90036523D03*
D16*
%TO.P,J7,2,Pin_2*%
X134285534Y-90036523D03*
%TO.P,J7,3,Pin_3*%
X136825534Y-92576523D03*
%TO.P,J7,4,Pin_4*%
X134285534Y-92576523D03*
%TO.P,J7,5,Pin_5*%
X136825534Y-95116523D03*
%TO.P,J7,6,Pin_6*%
X134285534Y-95116523D03*
%TO.P,J7,7,Pin_7*%
X136825534Y-97656523D03*
%TO.P,J7,8,Pin_8*%
X134285534Y-97656523D03*
%TO.P,J7,9,Pin_9*%
X136825534Y-100196523D03*
%TO.P,J7,10,Pin_10*%
X134285534Y-100196523D03*
%TD*%
D15*
%TO.P,J8,1,Pin_1*%
%TO.N,N/C*%
X136795534Y-111776523D03*
D16*
%TO.P,J8,2,Pin_2*%
X134255534Y-111776523D03*
%TO.P,J8,3,Pin_3*%
X136795534Y-114316523D03*
%TO.P,J8,4,Pin_4*%
X134255534Y-114316523D03*
%TO.P,J8,5,Pin_5*%
X136795534Y-116856523D03*
%TO.P,J8,6,Pin_6*%
X134255534Y-116856523D03*
%TO.P,J8,7,Pin_7*%
X136795534Y-119396523D03*
%TO.P,J8,8,Pin_8*%
X134255534Y-119396523D03*
%TO.P,J8,9,Pin_9*%
X136795534Y-121936523D03*
%TO.P,J8,10,Pin_10*%
X134255534Y-121936523D03*
%TD*%
D17*
%TO.N,*%
X140920534Y-105076523D03*
X156620534Y-104901523D03*
X156520534Y-120551523D03*
X140620534Y-107826523D03*
X141107299Y-92289758D03*
X160320534Y-96751523D03*
%TD*%
D18*
%TO.N,*%
X136795534Y-111776523D02*
X139135534Y-111776523D01*
X140145534Y-98751523D02*
X140920534Y-99526523D01*
X159125534Y-125416523D02*
X161985534Y-125416523D01*
X149465534Y-136946523D02*
X149465534Y-139696523D01*
X159115534Y-96031523D02*
X159600534Y-96031523D01*
X136795534Y-121936523D02*
X141435534Y-121936523D01*
X147270534Y-103201523D02*
X147270534Y-111177209D01*
X149335534Y-96976523D02*
X149335534Y-90244023D01*
X162245534Y-74225816D02*
X160026241Y-72006523D01*
X146785534Y-84616523D02*
X149485534Y-81916523D01*
X156620534Y-102826523D02*
X155545534Y-101751523D01*
X162405534Y-132976523D02*
X163515534Y-134086523D01*
X149465534Y-133606523D02*
X149465534Y-136946523D01*
X149335534Y-109751523D02*
X149261905Y-109751523D01*
X149485534Y-81916523D02*
X149485534Y-81716523D01*
X163525534Y-108846523D02*
X163515534Y-108836523D01*
X161385534Y-139476523D02*
X162245534Y-138616523D01*
X157645534Y-126826523D02*
X157645534Y-115836523D01*
X159125534Y-114356523D02*
X157645534Y-115836523D01*
X160026241Y-72006523D02*
X149925534Y-72006523D01*
X162245534Y-138616523D02*
X162245534Y-136996523D01*
X159125534Y-109851523D02*
X162650534Y-109851523D01*
X158330534Y-96031523D02*
X157355534Y-95056523D01*
X159125534Y-111676523D02*
X159125534Y-114356523D01*
X132735534Y-112796523D02*
X134255534Y-114316523D01*
X141107299Y-92289758D02*
X140795534Y-91977993D01*
X135405534Y-118246523D02*
X139050534Y-118246523D01*
X140445534Y-116851523D02*
X155395534Y-116851523D01*
X161638034Y-78604023D02*
X163515534Y-76726523D01*
X156520534Y-117976523D02*
X156520534Y-120551523D01*
X161845534Y-94206523D02*
X163515534Y-92536523D01*
X157395534Y-100056523D02*
X159115534Y-98336523D01*
X140920534Y-99526523D02*
X140920534Y-105076523D01*
X138020534Y-115466523D02*
X135645534Y-115466523D01*
X148675534Y-117606523D02*
X140335534Y-117606523D01*
X146785534Y-97436523D02*
X146785534Y-84616523D01*
X141755534Y-102466523D02*
X146785534Y-97436523D01*
X155545534Y-101751523D02*
X148720534Y-101751523D01*
X136795534Y-114316523D02*
X143565534Y-114316523D01*
X157355534Y-95056523D02*
X157355534Y-82209023D01*
X140795534Y-91977993D02*
X140795534Y-88576523D01*
X138845534Y-86626523D02*
X135270534Y-86626523D01*
X157395534Y-109946523D02*
X157395534Y-100056523D01*
X139050534Y-118246523D02*
X140445534Y-116851523D01*
X159115534Y-96031523D02*
X158330534Y-96031523D01*
X149335534Y-118266523D02*
X148675534Y-117606523D01*
X138660534Y-114826523D02*
X138020534Y-115466523D01*
X149335534Y-105811523D02*
X149335534Y-109751523D01*
X148720534Y-101751523D02*
X147270534Y-103201523D01*
X146835534Y-99476523D02*
X149335534Y-96976523D01*
X138545534Y-119396523D02*
X136795534Y-119396523D01*
X133370534Y-102101523D02*
X134820534Y-103551523D01*
X155395534Y-116851523D02*
X156520534Y-117976523D01*
X159125534Y-127241523D02*
X158060534Y-127241523D01*
X162245534Y-74595816D02*
X162245534Y-74225816D01*
X136825534Y-97656523D02*
X139050534Y-97656523D01*
X162650534Y-109851523D02*
X163525534Y-108976523D01*
X163525534Y-108976523D02*
X163525534Y-108846523D01*
X140335534Y-117606523D02*
X138545534Y-119396523D01*
X159115534Y-98336523D02*
X159115534Y-96031523D01*
X141435534Y-121936523D02*
X142555534Y-123056523D01*
X137920534Y-103551523D02*
X140620534Y-106251523D01*
X132735534Y-89161523D02*
X132735534Y-112796523D01*
X143621220Y-114826523D02*
X138660534Y-114826523D01*
X133135534Y-101866523D02*
X133370534Y-102101523D01*
X141755534Y-109156523D02*
X141755534Y-102466523D01*
X149261905Y-109751523D02*
X143786905Y-115226523D01*
X158060534Y-127241523D02*
X157645534Y-126826523D01*
X134820534Y-103551523D02*
X137920534Y-103551523D01*
X161985534Y-125416523D02*
X163525534Y-123876523D01*
X134255534Y-119396523D02*
X135405534Y-118246523D01*
X149775534Y-140006523D02*
X155305534Y-140006523D01*
X149485534Y-81716523D02*
X149465534Y-81696523D01*
X149925534Y-72006523D02*
X149465534Y-72466523D01*
X143786905Y-115226523D02*
X139720534Y-115226523D01*
X159115534Y-94206523D02*
X161845534Y-94206523D01*
X135270534Y-86626523D02*
X132735534Y-89161523D01*
X139720534Y-115226523D02*
X138090534Y-116856523D01*
X159600534Y-96031523D02*
X160320534Y-96751523D01*
X149335534Y-121379023D02*
X149335534Y-118266523D01*
X157355534Y-82209023D02*
X159135534Y-80429023D01*
X140620534Y-106251523D02*
X140620534Y-107826523D01*
X163515534Y-134086523D02*
X163515534Y-136996523D01*
X156620534Y-104901523D02*
X156620534Y-102826523D01*
X163515534Y-76726523D02*
X163515534Y-74595816D01*
X149465534Y-139696523D02*
X149775534Y-140006523D01*
X135645534Y-115466523D02*
X134255534Y-116856523D01*
X139050534Y-97656523D02*
X140145534Y-98751523D01*
X142555534Y-123056523D02*
X142555534Y-126696523D01*
X146835534Y-111046523D02*
X146835534Y-99476523D01*
X155305534Y-140006523D02*
X155835534Y-139476523D01*
X142555534Y-126696523D02*
X149465534Y-133606523D01*
X139135534Y-111776523D02*
X141755534Y-109156523D01*
X134285534Y-97656523D02*
X133135534Y-98806523D01*
X133135534Y-98806523D02*
X133135534Y-101866523D01*
X163515534Y-108836523D02*
X163515534Y-105796168D01*
X159125534Y-111676523D02*
X157395534Y-109946523D01*
X140795534Y-88576523D02*
X138845534Y-86626523D01*
X159125534Y-132976523D02*
X162405534Y-132976523D01*
X163515534Y-123866523D02*
X163515534Y-121396344D01*
X149465534Y-72466523D02*
X149465534Y-74676523D01*
X147270534Y-111177209D02*
X143621220Y-114826523D01*
X163515534Y-92536523D02*
X163515534Y-90195992D01*
X138090534Y-116856523D02*
X136795534Y-116856523D01*
X159135534Y-78604023D02*
X161638034Y-78604023D01*
X149465534Y-81696523D02*
X149465534Y-74676523D01*
X159125534Y-131151523D02*
X159125534Y-127241523D01*
X143565534Y-114316523D02*
X146835534Y-111046523D01*
X155835534Y-139476523D02*
X161385534Y-139476523D01*
X163525534Y-123876523D02*
X163515534Y-123866523D01*
%TD*%
%TA.AperFunction,NonConductor*%
G36*
X147718074Y-56325451D02*
G01*
X147780916Y-56325450D01*
X147786999Y-56325598D01*
X148120898Y-56341999D01*
X148133002Y-56343191D01*
X148460662Y-56391792D01*
X148472593Y-56394166D01*
X148564979Y-56417306D01*
X148793910Y-56474649D01*
X148805538Y-56478175D01*
X149117436Y-56589773D01*
X149128677Y-56594429D01*
X149428120Y-56736054D01*
X149438841Y-56741785D01*
X149505184Y-56781549D01*
X149722956Y-56912076D01*
X149733074Y-56918836D01*
X149999139Y-57116163D01*
X150008545Y-57123883D01*
X150253981Y-57346334D01*
X150262572Y-57354925D01*
X150485026Y-57600365D01*
X150485027Y-57600366D01*
X150492747Y-57609773D01*
X150690062Y-57875826D01*
X150696822Y-57885943D01*
X150867117Y-58170064D01*
X150872854Y-58180797D01*
X151014474Y-58480233D01*
X151019131Y-58491475D01*
X151043487Y-58559547D01*
X151123491Y-58783150D01*
X151130721Y-58803355D01*
X151134253Y-58815001D01*
X151214735Y-59136317D01*
X151217109Y-59148252D01*
X151265708Y-59475903D01*
X151266901Y-59488013D01*
X151283311Y-59822126D01*
X151283460Y-59828209D01*
X151283460Y-59900823D01*
X151283461Y-59900836D01*
X151283461Y-65890841D01*
X151317569Y-66018137D01*
X151321900Y-66025638D01*
X151383461Y-66132264D01*
X151476647Y-66225450D01*
X151590775Y-66291342D01*
X151718069Y-66325450D01*
X151718071Y-66325450D01*
X152038070Y-66325450D01*
X152038074Y-66325451D01*
X152100916Y-66325450D01*
X152106999Y-66325598D01*
X152440898Y-66341999D01*
X152453002Y-66343191D01*
X152780662Y-66391792D01*
X152792593Y-66394166D01*
X152884979Y-66417306D01*
X153113910Y-66474649D01*
X153125538Y-66478175D01*
X153437436Y-66589773D01*
X153448677Y-66594429D01*
X153748120Y-66736054D01*
X153758841Y-66741785D01*
X153825186Y-66781550D01*
X154042956Y-66912076D01*
X154053074Y-66918836D01*
X154319139Y-67116163D01*
X154328545Y-67123883D01*
X154573981Y-67346334D01*
X154582572Y-67354925D01*
X154805027Y-67600366D01*
X154812747Y-67609773D01*
X155010062Y-67875826D01*
X155016822Y-67885943D01*
X155187117Y-68170064D01*
X155192854Y-68180797D01*
X155334474Y-68480233D01*
X155339131Y-68491475D01*
X155450721Y-68803355D01*
X155454253Y-68815001D01*
X155534735Y-69136317D01*
X155537109Y-69148252D01*
X155585708Y-69475903D01*
X155586901Y-69488013D01*
X155603309Y-69822066D01*
X155603458Y-69828149D01*
X155603458Y-70973087D01*
X155637566Y-71100383D01*
X155670512Y-71157446D01*
X155703458Y-71214510D01*
X155796644Y-71307696D01*
X155910772Y-71373588D01*
X156038066Y-71407696D01*
X164721800Y-71407696D01*
X164788839Y-71427381D01*
X164834594Y-71480185D01*
X164845800Y-71531696D01*
X164845800Y-140118204D01*
X164826115Y-140185243D01*
X164773311Y-140230998D01*
X164721800Y-140242204D01*
X156038066Y-140242204D01*
X155910770Y-140276312D01*
X155796644Y-140342204D01*
X155796641Y-140342206D01*
X155703460Y-140435387D01*
X155703458Y-140435390D01*
X155637566Y-140549516D01*
X155603458Y-140676812D01*
X155603458Y-141821890D01*
X155603309Y-141827976D01*
X155586901Y-142161871D01*
X155585708Y-142173981D01*
X155537102Y-142501636D01*
X155534728Y-142513570D01*
X155454240Y-142834887D01*
X155450707Y-142846532D01*
X155339115Y-143158404D01*
X155334458Y-143169646D01*
X155192832Y-143469085D01*
X155187096Y-143479817D01*
X155016806Y-143763926D01*
X155010046Y-143774044D01*
X154812719Y-144040108D01*
X154804999Y-144049514D01*
X154582555Y-144294944D01*
X154573951Y-144303549D01*
X154328511Y-144526003D01*
X154319117Y-144533712D01*
X154053053Y-144731040D01*
X154042942Y-144737796D01*
X153758820Y-144908095D01*
X153748094Y-144913828D01*
X153448655Y-145055454D01*
X153437413Y-145060111D01*
X153125543Y-145171703D01*
X153113899Y-145175236D01*
X152792577Y-145255727D01*
X152780642Y-145258101D01*
X152452990Y-145306707D01*
X152440881Y-145307900D01*
X152122800Y-145323531D01*
X152107147Y-145324301D01*
X152101062Y-145324450D01*
X151718069Y-145324450D01*
X151590773Y-145358558D01*
X151476647Y-145424450D01*
X151476644Y-145424452D01*
X151383463Y-145517633D01*
X151383461Y-145517636D01*
X151317569Y-145631762D01*
X151283461Y-145759058D01*
X151283461Y-151821890D01*
X151283312Y-151827976D01*
X151266904Y-152161871D01*
X151265711Y-152173981D01*
X151217105Y-152501636D01*
X151214731Y-152513570D01*
X151134243Y-152834887D01*
X151130710Y-152846532D01*
X151019116Y-153158409D01*
X151014459Y-153169651D01*
X150872837Y-153469082D01*
X150867101Y-153479814D01*
X150696805Y-153763935D01*
X150690050Y-153774046D01*
X150492720Y-154040111D01*
X150485007Y-154049510D01*
X150262558Y-154294946D01*
X150253953Y-154303551D01*
X150008517Y-154526001D01*
X149999118Y-154533714D01*
X149953859Y-154567282D01*
X149733060Y-154731039D01*
X149722943Y-154737799D01*
X149551178Y-154840752D01*
X149438822Y-154908097D01*
X149428096Y-154913830D01*
X149128657Y-155055457D01*
X149117414Y-155060114D01*
X148805544Y-155171706D01*
X148793900Y-155175239D01*
X148472578Y-155255730D01*
X148460643Y-155258104D01*
X148132990Y-155306710D01*
X148120881Y-155307903D01*
X147802852Y-155323532D01*
X147787208Y-155324301D01*
X147781123Y-155324450D01*
X140787019Y-155324450D01*
X140780934Y-155324301D01*
X140770822Y-155323804D01*
X140447038Y-155307894D01*
X140434928Y-155306701D01*
X140107272Y-155258095D01*
X140095338Y-155255721D01*
X139774020Y-155175234D01*
X139762378Y-155171702D01*
X139450504Y-155060109D01*
X139439265Y-155055454D01*
X139139817Y-154913824D01*
X139129085Y-154908088D01*
X138844979Y-154737801D01*
X138834861Y-154731041D01*
X138568797Y-154533714D01*
X138559391Y-154525994D01*
X138313966Y-154303554D01*
X138305361Y-154294949D01*
X138082907Y-154049509D01*
X138075188Y-154040103D01*
X137877865Y-153774046D01*
X137871104Y-153763928D01*
X137841432Y-153714424D01*
X137700807Y-153479809D01*
X137695083Y-153469099D01*
X137553444Y-153169633D01*
X137548799Y-153158420D01*
X137437198Y-152846523D01*
X137433671Y-152834898D01*
X137353179Y-152513567D01*
X137350806Y-152501637D01*
X137302199Y-152173981D01*
X137301006Y-152161871D01*
X137284610Y-151828199D01*
X137284532Y-151825000D01*
X138778776Y-151825000D01*
X138797452Y-152098028D01*
X138797455Y-152098049D01*
X138853134Y-152365988D01*
X138853136Y-152365994D01*
X138869824Y-152412947D01*
X138944786Y-152623863D01*
X138944787Y-152623864D01*
X138944788Y-152623867D01*
X139060167Y-152846532D01*
X139070698Y-152866854D01*
X139228525Y-153090437D01*
X139228529Y-153090441D01*
X139228532Y-153090445D01*
X139415325Y-153290445D01*
X139548445Y-153398740D01*
X139627625Y-153463155D01*
X139627628Y-153463157D01*
X139627631Y-153463159D01*
X139861459Y-153605344D01*
X139861461Y-153605345D01*
X139861463Y-153605346D01*
X140112485Y-153714371D01*
X140376015Y-153788199D01*
X140647143Y-153825455D01*
X140783976Y-153825450D01*
X140783982Y-153825450D01*
X147709805Y-153825450D01*
X147709849Y-153825452D01*
X147718085Y-153825452D01*
X147718089Y-153825453D01*
X147732518Y-153825452D01*
X147732857Y-153825551D01*
X147783981Y-153825549D01*
X147783981Y-153825550D01*
X147920819Y-153825545D01*
X148191945Y-153788269D01*
X148455469Y-153714424D01*
X148706484Y-153605384D01*
X148940314Y-153463180D01*
X149152604Y-153290462D01*
X149339398Y-153090446D01*
X149497218Y-152866858D01*
X149507750Y-152846533D01*
X149623121Y-152623869D01*
X149623122Y-152623867D01*
X149623124Y-152623864D01*
X149714770Y-152365990D01*
X149770449Y-152098038D01*
X149789125Y-151825000D01*
X149770449Y-151551962D01*
X149714770Y-151284010D01*
X149623124Y-151026136D01*
X149596721Y-150975179D01*
X149497223Y-150783150D01*
X149497219Y-150783145D01*
X149497218Y-150783142D01*
X149339398Y-150559554D01*
X149339393Y-150559549D01*
X149339392Y-150559547D01*
X149152611Y-150359545D01*
X149152608Y-150359542D01*
X149152604Y-150359538D01*
X148940314Y-150186820D01*
X148940311Y-150186818D01*
X148940308Y-150186816D01*
X148706486Y-150044617D01*
X148706484Y-150044616D01*
X148455469Y-149935576D01*
X148455467Y-149935575D01*
X148455466Y-149935575D01*
X148191944Y-149861730D01*
X147920821Y-149824455D01*
X147920815Y-149824454D01*
X147857469Y-149824452D01*
X147857433Y-149824450D01*
X147849853Y-149824450D01*
X147783982Y-149824450D01*
X147783973Y-149824449D01*
X147718089Y-149824447D01*
X147718087Y-149824447D01*
X147709849Y-149824447D01*
X147709805Y-149824450D01*
X140710750Y-149824450D01*
X140709262Y-149824546D01*
X140647146Y-149824545D01*
X140647145Y-149824545D01*
X140647143Y-149824545D01*
X140484466Y-149846898D01*
X140376013Y-149861801D01*
X140376009Y-149861802D01*
X140112485Y-149935629D01*
X139861459Y-150044655D01*
X139627631Y-150186840D01*
X139627623Y-150186846D01*
X139415325Y-150359554D01*
X139228532Y-150559554D01*
X139228520Y-150559569D01*
X139070696Y-150783148D01*
X138944788Y-151026132D01*
X138853136Y-151284005D01*
X138853134Y-151284011D01*
X138797455Y-151551950D01*
X138797452Y-151551971D01*
X138778776Y-151825000D01*
X137284532Y-151825000D01*
X137284461Y-151822113D01*
X137284461Y-135954512D01*
X143660034Y-135954512D01*
X143660034Y-137938533D01*
X143687254Y-138110395D01*
X143741028Y-138275892D01*
X143820028Y-138430934D01*
X143922300Y-138571701D01*
X143922304Y-138571706D01*
X144045350Y-138694752D01*
X144045355Y-138694756D01*
X144168139Y-138783963D01*
X144186126Y-138797031D01*
X144284915Y-138847367D01*
X144341164Y-138876028D01*
X144341166Y-138876028D01*
X144341169Y-138876030D01*
X144379351Y-138888436D01*
X144506661Y-138929802D01*
X144678524Y-138957023D01*
X144678529Y-138957023D01*
X144852544Y-138957023D01*
X145024406Y-138929802D01*
X145030343Y-138927873D01*
X145189899Y-138876030D01*
X145344942Y-138797031D01*
X145485719Y-138694751D01*
X145608762Y-138571708D01*
X145711042Y-138430931D01*
X145790041Y-138275888D01*
X145843813Y-138110395D01*
X145847773Y-138085391D01*
X145871034Y-137938533D01*
X145871034Y-135954512D01*
X145843813Y-135782650D01*
X145790039Y-135617153D01*
X145761378Y-135560904D01*
X145711042Y-135462115D01*
X145697974Y-135444128D01*
X145608767Y-135321344D01*
X145608763Y-135321339D01*
X145485717Y-135198293D01*
X145485712Y-135198289D01*
X145344945Y-135096017D01*
X145344944Y-135096016D01*
X145344942Y-135096015D01*
X145296526Y-135071346D01*
X145189903Y-135017017D01*
X145024406Y-134963243D01*
X144852544Y-134936023D01*
X144852539Y-134936023D01*
X144678529Y-134936023D01*
X144678524Y-134936023D01*
X144506661Y-134963243D01*
X144341164Y-135017017D01*
X144186122Y-135096017D01*
X144045355Y-135198289D01*
X144045350Y-135198293D01*
X143922304Y-135321339D01*
X143922300Y-135321344D01*
X143820028Y-135462111D01*
X143741028Y-135617153D01*
X143687254Y-135782650D01*
X143660034Y-135954512D01*
X137284461Y-135954512D01*
X137284461Y-130759060D01*
X137284461Y-130759058D01*
X137250353Y-130631764D01*
X137184461Y-130517636D01*
X137091275Y-130424450D01*
X137019328Y-130382911D01*
X136977148Y-130358558D01*
X136913500Y-130341504D01*
X136849853Y-130324450D01*
X136849852Y-130324450D01*
X133287019Y-130324450D01*
X133280934Y-130324301D01*
X133270822Y-130323804D01*
X132947038Y-130307894D01*
X132934928Y-130306701D01*
X132607272Y-130258095D01*
X132595338Y-130255721D01*
X132274020Y-130175234D01*
X132262378Y-130171702D01*
X131950504Y-130060109D01*
X131939265Y-130055454D01*
X131639817Y-129913824D01*
X131629085Y-129908088D01*
X131344979Y-129737801D01*
X131334861Y-129731041D01*
X131068797Y-129533714D01*
X131059391Y-129525994D01*
X130813966Y-129303554D01*
X130805361Y-129294949D01*
X130582907Y-129049509D01*
X130575188Y-129040103D01*
X130377865Y-128774046D01*
X130371104Y-128763928D01*
X130200811Y-128479815D01*
X130195083Y-128469099D01*
X130053444Y-128169633D01*
X130048799Y-128158420D01*
X129937198Y-127846523D01*
X129933671Y-127834898D01*
X129853179Y-127513567D01*
X129850806Y-127501637D01*
X129847890Y-127481983D01*
X129802199Y-127173981D01*
X129801006Y-127161871D01*
X129784610Y-126828199D01*
X129784461Y-126822113D01*
X129784461Y-121936523D01*
X133199951Y-121936523D01*
X133220233Y-122142455D01*
X133248920Y-122237023D01*
X133280302Y-122340477D01*
X133377849Y-122522973D01*
X133403152Y-122553805D01*
X133509123Y-122682933D01*
X133605743Y-122762225D01*
X133669084Y-122814208D01*
X133851580Y-122911755D01*
X134049600Y-122971823D01*
X134049599Y-122971823D01*
X134068063Y-122973641D01*
X134255534Y-122992106D01*
X134461468Y-122971823D01*
X134659488Y-122911755D01*
X134841984Y-122814208D01*
X135001944Y-122682933D01*
X135133219Y-122522973D01*
X135230766Y-122340477D01*
X135290834Y-122142457D01*
X135311117Y-121936523D01*
X135739951Y-121936523D01*
X135760233Y-122142455D01*
X135788920Y-122237023D01*
X135820302Y-122340477D01*
X135917849Y-122522973D01*
X135943152Y-122553805D01*
X136049123Y-122682933D01*
X136145743Y-122762225D01*
X136209084Y-122814208D01*
X136391580Y-122911755D01*
X136589600Y-122971823D01*
X136589599Y-122971823D01*
X136608063Y-122973641D01*
X136795534Y-122992106D01*
X137001468Y-122971823D01*
X137199488Y-122911755D01*
X137381984Y-122814208D01*
X137541944Y-122682933D01*
X137673219Y-122522973D01*
X137770766Y-122340477D01*
X137775453Y-122325026D01*
X137813751Y-122266588D01*
X137877564Y-122238132D01*
X137894113Y-122237023D01*
X141259701Y-122237023D01*
X141326740Y-122256708D01*
X141347382Y-122273342D01*
X142218715Y-123144675D01*
X142252200Y-123205998D01*
X142255034Y-123232356D01*
X142255034Y-126736085D01*
X142265273Y-126774298D01*
X142275513Y-126812514D01*
X142282687Y-126824937D01*
X142282689Y-126824945D01*
X142282691Y-126824944D01*
X142315073Y-126881032D01*
X142315075Y-126881035D01*
X149128715Y-133694675D01*
X149162200Y-133755998D01*
X149165034Y-133782356D01*
X149165034Y-134886678D01*
X149145349Y-134953717D01*
X149092545Y-134999472D01*
X149079354Y-135004608D01*
X149041174Y-135017014D01*
X149041171Y-135017015D01*
X149041169Y-135017016D01*
X148963647Y-135056515D01*
X148886121Y-135096017D01*
X148745355Y-135198289D01*
X148745350Y-135198293D01*
X148622304Y-135321339D01*
X148622300Y-135321344D01*
X148520028Y-135462111D01*
X148441028Y-135617153D01*
X148387254Y-135782650D01*
X148360034Y-135954512D01*
X148360034Y-137938533D01*
X148387254Y-138110395D01*
X148441028Y-138275892D01*
X148520028Y-138430934D01*
X148622300Y-138571701D01*
X148622304Y-138571706D01*
X148745350Y-138694752D01*
X148745355Y-138694756D01*
X148868139Y-138783963D01*
X148886126Y-138797031D01*
X149041169Y-138876030D01*
X149079352Y-138888436D01*
X149137027Y-138927873D01*
X149164226Y-138992232D01*
X149165034Y-139006367D01*
X149165034Y-139736085D01*
X149185513Y-139812512D01*
X149190998Y-139822012D01*
X149225074Y-139881034D01*
X149535074Y-140191034D01*
X149591023Y-140246983D01*
X149591025Y-140246984D01*
X149591029Y-140246987D01*
X149659538Y-140286540D01*
X149659545Y-140286544D01*
X149735972Y-140307023D01*
X149735974Y-140307023D01*
X155345094Y-140307023D01*
X155345096Y-140307023D01*
X155421523Y-140286544D01*
X155490045Y-140246983D01*
X155545994Y-140191034D01*
X155923686Y-139813342D01*
X155985009Y-139779857D01*
X156011367Y-139777023D01*
X161425094Y-139777023D01*
X161425096Y-139777023D01*
X161501523Y-139756544D01*
X161570045Y-139716983D01*
X161625994Y-139661034D01*
X162485994Y-138801034D01*
X162525556Y-138732511D01*
X162546034Y-138656085D01*
X162546034Y-138576961D01*
X162546034Y-138111594D01*
X162565719Y-138044555D01*
X162601141Y-138008493D01*
X162613649Y-138000135D01*
X162645341Y-137978958D01*
X162712017Y-137958080D01*
X162779398Y-137976563D01*
X162817334Y-138013167D01*
X162817433Y-138013315D01*
X162835982Y-138041076D01*
X162902303Y-138085390D01*
X162902304Y-138085391D01*
X162960781Y-138097022D01*
X162960784Y-138097023D01*
X162960786Y-138097023D01*
X164070284Y-138097023D01*
X164070285Y-138097022D01*
X164085102Y-138094075D01*
X164128763Y-138085391D01*
X164128763Y-138085390D01*
X164128765Y-138085390D01*
X164195086Y-138041075D01*
X164239401Y-137974754D01*
X164239401Y-137974752D01*
X164239402Y-137974752D01*
X164251033Y-137916275D01*
X164251034Y-137916273D01*
X164251034Y-136076772D01*
X164251033Y-136076770D01*
X164239402Y-136018293D01*
X164239401Y-136018292D01*
X164195086Y-135951970D01*
X164128764Y-135907655D01*
X164128763Y-135907654D01*
X164070286Y-135896023D01*
X164070282Y-135896023D01*
X163940034Y-135896023D01*
X163872995Y-135876338D01*
X163827240Y-135823534D01*
X163816034Y-135772023D01*
X163816034Y-134046962D01*
X163795554Y-133970532D01*
X163795551Y-133970527D01*
X163755998Y-133902018D01*
X163755992Y-133902010D01*
X162590046Y-132736064D01*
X162590038Y-132736058D01*
X162521529Y-132696505D01*
X162521524Y-132696502D01*
X162496047Y-132689675D01*
X162445096Y-132676023D01*
X162445094Y-132676023D01*
X159897386Y-132676023D01*
X159830347Y-132656338D01*
X159784592Y-132603534D01*
X159780345Y-132592978D01*
X159769820Y-132562902D01*
X159754650Y-132519548D01*
X159676245Y-132413312D01*
X159676244Y-132413311D01*
X159570010Y-132334907D01*
X159445382Y-132291297D01*
X159445383Y-132291297D01*
X159415794Y-132288523D01*
X159415790Y-132288523D01*
X158835278Y-132288523D01*
X158835274Y-132288523D01*
X158805684Y-132291297D01*
X158681057Y-132334907D01*
X158574823Y-132413311D01*
X158574822Y-132413312D01*
X158496418Y-132519546D01*
X158452808Y-132644173D01*
X158450034Y-132673762D01*
X158450034Y-133279283D01*
X158452808Y-133308872D01*
X158496418Y-133433499D01*
X158574822Y-133539733D01*
X158574823Y-133539734D01*
X158681057Y-133618138D01*
X158681058Y-133618138D01*
X158681059Y-133618139D01*
X158805685Y-133661748D01*
X158805684Y-133661748D01*
X158835274Y-133664523D01*
X158835278Y-133664523D01*
X159415794Y-133664523D01*
X159445383Y-133661748D01*
X159570009Y-133618139D01*
X159676245Y-133539734D01*
X159754650Y-133433498D01*
X159780345Y-133360068D01*
X159821067Y-133303292D01*
X159886020Y-133277545D01*
X159897386Y-133277023D01*
X162229701Y-133277023D01*
X162296740Y-133296708D01*
X162317382Y-133313342D01*
X163178715Y-134174675D01*
X163212200Y-134235998D01*
X163215034Y-134262356D01*
X163215034Y-135772023D01*
X163195349Y-135839062D01*
X163142545Y-135884817D01*
X163091034Y-135896023D01*
X162960781Y-135896023D01*
X162902304Y-135907654D01*
X162902303Y-135907655D01*
X162835981Y-135951970D01*
X162817334Y-135979878D01*
X162763721Y-136024682D01*
X162694396Y-136033388D01*
X162645342Y-136014087D01*
X162593930Y-135979734D01*
X162593917Y-135979727D01*
X162460076Y-135924289D01*
X162460064Y-135924286D01*
X162317978Y-135896023D01*
X162317974Y-135896023D01*
X162173094Y-135896023D01*
X162173089Y-135896023D01*
X162031003Y-135924286D01*
X162030991Y-135924289D01*
X161897150Y-135979727D01*
X161897137Y-135979734D01*
X161776680Y-136060222D01*
X161776676Y-136060225D01*
X161698215Y-136138687D01*
X161636892Y-136172172D01*
X161567200Y-136167188D01*
X161522853Y-136138687D01*
X161444391Y-136060225D01*
X161444387Y-136060222D01*
X161323930Y-135979734D01*
X161323917Y-135979727D01*
X161190076Y-135924289D01*
X161190064Y-135924286D01*
X161047978Y-135896023D01*
X161047974Y-135896023D01*
X160903094Y-135896023D01*
X160903089Y-135896023D01*
X160761003Y-135924286D01*
X160760991Y-135924289D01*
X160627150Y-135979727D01*
X160627137Y-135979734D01*
X160506680Y-136060222D01*
X160506676Y-136060225D01*
X160428215Y-136138687D01*
X160366892Y-136172172D01*
X160297200Y-136167188D01*
X160252853Y-136138687D01*
X160174391Y-136060225D01*
X160174387Y-136060222D01*
X160053930Y-135979734D01*
X160053917Y-135979727D01*
X159920076Y-135924289D01*
X159920064Y-135924286D01*
X159777978Y-135896023D01*
X159777974Y-135896023D01*
X159633094Y-135896023D01*
X159633089Y-135896023D01*
X159491003Y-135924286D01*
X159490991Y-135924289D01*
X159357150Y-135979727D01*
X159357137Y-135979734D01*
X159236680Y-136060222D01*
X159236676Y-136060225D01*
X159134236Y-136162665D01*
X159134233Y-136162669D01*
X159053745Y-136283126D01*
X159053738Y-136283139D01*
X158998300Y-136416980D01*
X158998297Y-136416992D01*
X158970034Y-136559078D01*
X158970034Y-137433967D01*
X158998297Y-137576053D01*
X158998300Y-137576065D01*
X159053738Y-137709906D01*
X159053745Y-137709919D01*
X159134233Y-137830376D01*
X159134236Y-137830380D01*
X159236676Y-137932820D01*
X159236680Y-137932823D01*
X159357137Y-138013311D01*
X159357150Y-138013318D01*
X159424165Y-138041076D01*
X159490996Y-138068758D01*
X159633089Y-138097022D01*
X159633093Y-138097023D01*
X159633094Y-138097023D01*
X159777975Y-138097023D01*
X159777976Y-138097022D01*
X159920072Y-138068758D01*
X160053924Y-138013315D01*
X160174388Y-137932823D01*
X160190940Y-137916271D01*
X160252853Y-137854359D01*
X160314176Y-137820874D01*
X160383868Y-137825858D01*
X160428215Y-137854359D01*
X160506676Y-137932820D01*
X160506680Y-137932823D01*
X160627137Y-138013311D01*
X160627150Y-138013318D01*
X160694165Y-138041076D01*
X160760996Y-138068758D01*
X160903089Y-138097022D01*
X160903093Y-138097023D01*
X160903094Y-138097023D01*
X161047975Y-138097023D01*
X161047976Y-138097022D01*
X161190072Y-138068758D01*
X161323924Y-138013315D01*
X161444388Y-137932823D01*
X161460940Y-137916271D01*
X161522853Y-137854359D01*
X161584176Y-137820874D01*
X161653868Y-137825858D01*
X161698215Y-137854359D01*
X161776676Y-137932820D01*
X161776680Y-137932823D01*
X161889925Y-138008492D01*
X161934730Y-138062105D01*
X161945034Y-138111594D01*
X161945034Y-138440690D01*
X161925349Y-138507729D01*
X161908715Y-138528371D01*
X161297382Y-139139704D01*
X161236059Y-139173189D01*
X161209701Y-139176023D01*
X155795972Y-139176023D01*
X155757758Y-139186262D01*
X155719543Y-139196502D01*
X155719538Y-139196505D01*
X155651029Y-139236058D01*
X155651021Y-139236064D01*
X155217382Y-139669704D01*
X155156059Y-139703189D01*
X155129701Y-139706023D01*
X149951367Y-139706023D01*
X149884328Y-139686338D01*
X149863686Y-139669704D01*
X149802353Y-139608371D01*
X149768868Y-139547048D01*
X149766034Y-139520690D01*
X149766034Y-139006367D01*
X149785719Y-138939328D01*
X149838523Y-138893573D01*
X149851710Y-138888438D01*
X149889899Y-138876030D01*
X150044942Y-138797031D01*
X150185719Y-138694751D01*
X150308762Y-138571708D01*
X150411042Y-138430931D01*
X150490041Y-138275888D01*
X150543813Y-138110395D01*
X150547773Y-138085391D01*
X150571034Y-137938533D01*
X150571034Y-135954512D01*
X153060034Y-135954512D01*
X153060034Y-137938533D01*
X153087254Y-138110395D01*
X153141028Y-138275892D01*
X153220028Y-138430934D01*
X153322300Y-138571701D01*
X153322304Y-138571706D01*
X153445350Y-138694752D01*
X153445355Y-138694756D01*
X153568139Y-138783963D01*
X153586126Y-138797031D01*
X153684915Y-138847367D01*
X153741164Y-138876028D01*
X153741166Y-138876028D01*
X153741169Y-138876030D01*
X153779351Y-138888436D01*
X153906661Y-138929802D01*
X154078524Y-138957023D01*
X154078529Y-138957023D01*
X154252544Y-138957023D01*
X154424406Y-138929802D01*
X154430343Y-138927873D01*
X154589899Y-138876030D01*
X154744942Y-138797031D01*
X154885719Y-138694751D01*
X155008762Y-138571708D01*
X155111042Y-138430931D01*
X155190041Y-138275888D01*
X155243813Y-138110395D01*
X155247773Y-138085391D01*
X155271034Y-137938533D01*
X155271034Y-135954512D01*
X155243813Y-135782650D01*
X155190039Y-135617153D01*
X155161378Y-135560904D01*
X155111042Y-135462115D01*
X155097974Y-135444128D01*
X155008767Y-135321344D01*
X155008763Y-135321339D01*
X154885717Y-135198293D01*
X154885712Y-135198289D01*
X154744945Y-135096017D01*
X154744944Y-135096016D01*
X154744942Y-135096015D01*
X154696526Y-135071346D01*
X154589903Y-135017017D01*
X154424406Y-134963243D01*
X154252544Y-134936023D01*
X154252539Y-134936023D01*
X154078529Y-134936023D01*
X154078524Y-134936023D01*
X153906661Y-134963243D01*
X153741164Y-135017017D01*
X153586122Y-135096017D01*
X153445355Y-135198289D01*
X153445350Y-135198293D01*
X153322304Y-135321339D01*
X153322300Y-135321344D01*
X153220028Y-135462111D01*
X153141028Y-135617153D01*
X153087254Y-135782650D01*
X153060034Y-135954512D01*
X150571034Y-135954512D01*
X150543813Y-135782650D01*
X150490039Y-135617153D01*
X150461378Y-135560904D01*
X150411042Y-135462115D01*
X150397974Y-135444128D01*
X150308767Y-135321344D01*
X150308763Y-135321339D01*
X150185717Y-135198293D01*
X150185712Y-135198289D01*
X150044946Y-135096017D01*
X150039549Y-135093267D01*
X149889899Y-135017016D01*
X149889893Y-135017014D01*
X149851714Y-135004608D01*
X149794039Y-134965170D01*
X149766842Y-134900811D01*
X149766034Y-134886678D01*
X149766034Y-133566963D01*
X149766034Y-133566961D01*
X149745556Y-133490535D01*
X149705994Y-133422012D01*
X142892353Y-126608371D01*
X142858868Y-126547048D01*
X142856034Y-126520690D01*
X142856034Y-123016962D01*
X142856034Y-123016961D01*
X142835555Y-122940534D01*
X142818940Y-122911755D01*
X142795998Y-122872018D01*
X142795992Y-122872010D01*
X141620046Y-121696064D01*
X141620038Y-121696058D01*
X141551529Y-121656505D01*
X141551524Y-121656502D01*
X141526047Y-121649675D01*
X141475096Y-121636023D01*
X141475094Y-121636023D01*
X137894113Y-121636023D01*
X137827074Y-121616338D01*
X137781319Y-121563534D01*
X137775453Y-121548020D01*
X137775211Y-121547224D01*
X137770766Y-121532569D01*
X137673219Y-121350073D01*
X137621236Y-121286732D01*
X137541944Y-121190112D01*
X137381986Y-121058840D01*
X137381987Y-121058840D01*
X137381984Y-121058838D01*
X137199488Y-120961291D01*
X137001468Y-120901223D01*
X137001466Y-120901222D01*
X137001468Y-120901222D01*
X136795534Y-120880940D01*
X136589601Y-120901222D01*
X136482648Y-120933666D01*
X136399466Y-120958899D01*
X136391577Y-120961292D01*
X136297691Y-121011476D01*
X136209084Y-121058838D01*
X136209082Y-121058839D01*
X136209081Y-121058840D01*
X136049123Y-121190112D01*
X135917851Y-121350070D01*
X135820303Y-121532566D01*
X135760233Y-121730590D01*
X135739951Y-121936523D01*
X135311117Y-121936523D01*
X135290834Y-121730589D01*
X135230766Y-121532569D01*
X135133219Y-121350073D01*
X135081236Y-121286732D01*
X135001944Y-121190112D01*
X134841986Y-121058840D01*
X134841987Y-121058840D01*
X134841984Y-121058838D01*
X134659488Y-120961291D01*
X134461468Y-120901223D01*
X134461466Y-120901222D01*
X134461468Y-120901222D01*
X134255534Y-120880940D01*
X134049601Y-120901222D01*
X133942648Y-120933666D01*
X133859466Y-120958899D01*
X133851577Y-120961292D01*
X133757691Y-121011476D01*
X133669084Y-121058838D01*
X133669082Y-121058839D01*
X133669081Y-121058840D01*
X133509123Y-121190112D01*
X133377851Y-121350070D01*
X133280303Y-121532566D01*
X133220233Y-121730590D01*
X133199951Y-121936523D01*
X129784461Y-121936523D01*
X129784461Y-116856523D01*
X133199951Y-116856523D01*
X133220233Y-117062455D01*
X133242707Y-117136543D01*
X133280302Y-117260477D01*
X133377849Y-117442973D01*
X133377851Y-117442975D01*
X133509123Y-117602933D01*
X133605743Y-117682225D01*
X133669084Y-117734208D01*
X133851580Y-117831755D01*
X134049600Y-117891823D01*
X134049599Y-117891823D01*
X134068063Y-117893641D01*
X134255534Y-117912106D01*
X134461468Y-117891823D01*
X134659488Y-117831755D01*
X134841984Y-117734208D01*
X135001944Y-117602933D01*
X135133219Y-117442973D01*
X135230766Y-117260477D01*
X135290834Y-117062457D01*
X135311117Y-116856523D01*
X135290834Y-116650589D01*
X135230766Y-116452569D01*
X135223154Y-116438329D01*
X135208913Y-116369927D01*
X135233913Y-116304683D01*
X135244832Y-116292195D01*
X135733686Y-115803342D01*
X135795009Y-115769857D01*
X135821367Y-115767023D01*
X136120624Y-115767023D01*
X136187663Y-115786708D01*
X136233418Y-115839512D01*
X136243362Y-115908670D01*
X136214337Y-115972226D01*
X136199288Y-115986877D01*
X136049123Y-116110112D01*
X135917851Y-116270070D01*
X135917849Y-116270073D01*
X135879177Y-116342421D01*
X135820303Y-116452566D01*
X135760233Y-116650590D01*
X135739951Y-116856523D01*
X135760233Y-117062455D01*
X135782707Y-117136543D01*
X135820302Y-117260477D01*
X135917849Y-117442973D01*
X135917851Y-117442975D01*
X136049123Y-117602933D01*
X136199288Y-117726169D01*
X136238623Y-117783915D01*
X136240494Y-117853760D01*
X136204307Y-117913528D01*
X136141551Y-117944244D01*
X136120624Y-117946023D01*
X135365972Y-117946023D01*
X135289544Y-117966501D01*
X135221023Y-118006063D01*
X135221020Y-118006065D01*
X134819860Y-118407224D01*
X134758537Y-118440709D01*
X134688845Y-118435725D01*
X134673727Y-118428902D01*
X134659490Y-118421292D01*
X134659489Y-118421291D01*
X134659488Y-118421291D01*
X134461468Y-118361223D01*
X134461466Y-118361222D01*
X134461468Y-118361222D01*
X134255534Y-118340940D01*
X134049601Y-118361222D01*
X133851577Y-118421292D01*
X133741432Y-118480166D01*
X133669084Y-118518838D01*
X133669082Y-118518839D01*
X133669081Y-118518840D01*
X133509123Y-118650112D01*
X133377852Y-118810069D01*
X133377849Y-118810073D01*
X133339177Y-118882421D01*
X133280303Y-118992566D01*
X133220233Y-119190590D01*
X133199951Y-119396523D01*
X133220233Y-119602455D01*
X133242707Y-119676543D01*
X133280302Y-119800477D01*
X133377849Y-119982973D01*
X133377851Y-119982975D01*
X133509123Y-120142933D01*
X133597121Y-120215150D01*
X133669084Y-120274208D01*
X133851580Y-120371755D01*
X134049600Y-120431823D01*
X134049599Y-120431823D01*
X134063672Y-120433209D01*
X134255534Y-120452106D01*
X134461468Y-120431823D01*
X134659488Y-120371755D01*
X134841984Y-120274208D01*
X135001944Y-120142933D01*
X135133219Y-119982973D01*
X135230766Y-119800477D01*
X135290834Y-119602457D01*
X135311117Y-119396523D01*
X135290834Y-119190589D01*
X135230766Y-118992569D01*
X135223154Y-118978329D01*
X135208913Y-118909927D01*
X135233913Y-118844683D01*
X135244832Y-118832195D01*
X135493686Y-118583342D01*
X135555009Y-118549857D01*
X135581367Y-118547023D01*
X135871552Y-118547023D01*
X135938591Y-118566708D01*
X135984346Y-118619512D01*
X135994290Y-118688670D01*
X135967405Y-118749688D01*
X135917851Y-118810069D01*
X135820303Y-118992566D01*
X135760233Y-119190590D01*
X135739951Y-119396523D01*
X135760233Y-119602455D01*
X135782707Y-119676543D01*
X135820302Y-119800477D01*
X135917849Y-119982973D01*
X135917851Y-119982975D01*
X136049123Y-120142933D01*
X136137121Y-120215150D01*
X136209084Y-120274208D01*
X136391580Y-120371755D01*
X136589600Y-120431823D01*
X136589599Y-120431823D01*
X136603672Y-120433209D01*
X136795534Y-120452106D01*
X137001468Y-120431823D01*
X137149192Y-120387012D01*
X143530034Y-120387012D01*
X143530034Y-122371033D01*
X143557254Y-122542895D01*
X143611028Y-122708392D01*
X143690028Y-122863434D01*
X143792300Y-123004201D01*
X143792304Y-123004206D01*
X143915350Y-123127252D01*
X143915355Y-123127256D01*
X143989320Y-123180994D01*
X144056126Y-123229531D01*
X144154915Y-123279867D01*
X144211164Y-123308528D01*
X144211166Y-123308528D01*
X144211169Y-123308530D01*
X144299877Y-123337353D01*
X144376661Y-123362302D01*
X144548524Y-123389523D01*
X144548529Y-123389523D01*
X144722544Y-123389523D01*
X144894406Y-123362302D01*
X145059899Y-123308530D01*
X145214942Y-123229531D01*
X145355719Y-123127251D01*
X145478762Y-123004208D01*
X145581042Y-122863431D01*
X145660041Y-122708388D01*
X145713813Y-122542895D01*
X145722949Y-122485211D01*
X145741034Y-122371033D01*
X145741034Y-120387012D01*
X145713813Y-120215150D01*
X145678162Y-120105429D01*
X145660041Y-120049658D01*
X145660039Y-120049655D01*
X145660039Y-120049653D01*
X145626063Y-119982973D01*
X145581042Y-119894615D01*
X145512647Y-119800477D01*
X145478767Y-119753844D01*
X145478763Y-119753839D01*
X145355717Y-119630793D01*
X145355712Y-119630789D01*
X145214945Y-119528517D01*
X145214944Y-119528516D01*
X145214942Y-119528515D01*
X145166526Y-119503846D01*
X145059903Y-119449517D01*
X144894406Y-119395743D01*
X144722544Y-119368523D01*
X144722539Y-119368523D01*
X144548529Y-119368523D01*
X144548524Y-119368523D01*
X144376661Y-119395743D01*
X144211164Y-119449517D01*
X144056122Y-119528517D01*
X143915355Y-119630789D01*
X143915350Y-119630793D01*
X143792304Y-119753839D01*
X143792300Y-119753844D01*
X143690028Y-119894611D01*
X143611028Y-120049653D01*
X143557254Y-120215150D01*
X143530034Y-120387012D01*
X137149192Y-120387012D01*
X137199488Y-120371755D01*
X137381984Y-120274208D01*
X137541944Y-120142933D01*
X137673219Y-119982973D01*
X137770766Y-119800477D01*
X137775453Y-119785026D01*
X137813751Y-119726588D01*
X137877564Y-119698132D01*
X137894113Y-119697023D01*
X138585094Y-119697023D01*
X138585096Y-119697023D01*
X138661523Y-119676544D01*
X138730045Y-119636983D01*
X138785994Y-119581034D01*
X140423686Y-117943342D01*
X140485009Y-117909857D01*
X140511367Y-117907023D01*
X148499701Y-117907023D01*
X148566740Y-117926708D01*
X148587382Y-117943342D01*
X148998715Y-118354675D01*
X149032200Y-118415998D01*
X149035034Y-118442356D01*
X149035034Y-119319178D01*
X149015349Y-119386217D01*
X148962545Y-119431972D01*
X148949354Y-119437108D01*
X148911174Y-119449514D01*
X148911171Y-119449515D01*
X148911169Y-119449516D01*
X148833647Y-119489015D01*
X148756121Y-119528517D01*
X148615355Y-119630789D01*
X148615350Y-119630793D01*
X148492304Y-119753839D01*
X148492300Y-119753844D01*
X148390028Y-119894611D01*
X148311028Y-120049653D01*
X148257254Y-120215150D01*
X148230034Y-120387012D01*
X148230034Y-122371033D01*
X148257254Y-122542895D01*
X148311028Y-122708392D01*
X148390028Y-122863434D01*
X148492300Y-123004201D01*
X148492304Y-123004206D01*
X148615350Y-123127252D01*
X148615355Y-123127256D01*
X148689320Y-123180994D01*
X148756126Y-123229531D01*
X148854915Y-123279867D01*
X148911164Y-123308528D01*
X148911166Y-123308528D01*
X148911169Y-123308530D01*
X148999877Y-123337353D01*
X149076661Y-123362302D01*
X149248524Y-123389523D01*
X149248529Y-123389523D01*
X149422544Y-123389523D01*
X149594406Y-123362302D01*
X149759899Y-123308530D01*
X149914942Y-123229531D01*
X150055719Y-123127251D01*
X150178762Y-123004208D01*
X150281042Y-122863431D01*
X150360041Y-122708388D01*
X150413813Y-122542895D01*
X150422949Y-122485211D01*
X150441034Y-122371033D01*
X150441034Y-120387012D01*
X152930034Y-120387012D01*
X152930034Y-122371033D01*
X152957254Y-122542895D01*
X153011028Y-122708392D01*
X153090028Y-122863434D01*
X153192300Y-123004201D01*
X153192304Y-123004206D01*
X153315350Y-123127252D01*
X153315355Y-123127256D01*
X153389320Y-123180994D01*
X153456126Y-123229531D01*
X153554915Y-123279867D01*
X153611164Y-123308528D01*
X153611166Y-123308528D01*
X153611169Y-123308530D01*
X153699877Y-123337353D01*
X153776661Y-123362302D01*
X153948524Y-123389523D01*
X153948529Y-123389523D01*
X154122544Y-123389523D01*
X154294406Y-123362302D01*
X154459899Y-123308530D01*
X154614942Y-123229531D01*
X154755719Y-123127251D01*
X154878762Y-123004208D01*
X154981042Y-122863431D01*
X155060041Y-122708388D01*
X155113813Y-122542895D01*
X155122949Y-122485211D01*
X155141034Y-122371033D01*
X155141034Y-120387012D01*
X155113813Y-120215150D01*
X155078162Y-120105429D01*
X155060041Y-120049658D01*
X155060039Y-120049655D01*
X155060039Y-120049653D01*
X155026063Y-119982973D01*
X154981042Y-119894615D01*
X154912647Y-119800477D01*
X154878767Y-119753844D01*
X154878763Y-119753839D01*
X154755717Y-119630793D01*
X154755712Y-119630789D01*
X154614945Y-119528517D01*
X154614944Y-119528516D01*
X154614942Y-119528515D01*
X154566526Y-119503846D01*
X154459903Y-119449517D01*
X154294406Y-119395743D01*
X154122544Y-119368523D01*
X154122539Y-119368523D01*
X153948529Y-119368523D01*
X153948524Y-119368523D01*
X153776661Y-119395743D01*
X153611164Y-119449517D01*
X153456122Y-119528517D01*
X153315355Y-119630789D01*
X153315350Y-119630793D01*
X153192304Y-119753839D01*
X153192300Y-119753844D01*
X153090028Y-119894611D01*
X153011028Y-120049653D01*
X152957254Y-120215150D01*
X152930034Y-120387012D01*
X150441034Y-120387012D01*
X150413813Y-120215150D01*
X150378162Y-120105429D01*
X150360041Y-120049658D01*
X150360039Y-120049655D01*
X150360039Y-120049653D01*
X150326063Y-119982973D01*
X150281042Y-119894615D01*
X150212647Y-119800477D01*
X150178767Y-119753844D01*
X150178763Y-119753839D01*
X150055717Y-119630793D01*
X150055712Y-119630789D01*
X149914946Y-119528517D01*
X149909549Y-119525767D01*
X149759899Y-119449516D01*
X149759893Y-119449514D01*
X149721714Y-119437108D01*
X149664039Y-119397670D01*
X149636842Y-119333311D01*
X149636034Y-119319178D01*
X149636034Y-118226962D01*
X149615554Y-118150532D01*
X149615551Y-118150527D01*
X149575998Y-118082018D01*
X149575992Y-118082010D01*
X148857686Y-117363704D01*
X148824201Y-117302381D01*
X148829185Y-117232689D01*
X148871057Y-117176756D01*
X148936521Y-117152339D01*
X148945367Y-117152023D01*
X155219701Y-117152023D01*
X155286740Y-117171708D01*
X155307382Y-117188342D01*
X156183715Y-118064675D01*
X156217200Y-118125998D01*
X156220034Y-118152356D01*
X156220034Y-120087783D01*
X156200349Y-120154822D01*
X156189747Y-120168985D01*
X156095159Y-120278145D01*
X156095156Y-120278151D01*
X156035368Y-120409066D01*
X156014887Y-120551523D01*
X156035368Y-120693979D01*
X156095156Y-120824894D01*
X156095157Y-120824896D01*
X156189406Y-120933666D01*
X156310481Y-121011476D01*
X156310484Y-121011477D01*
X156310483Y-121011477D01*
X156448570Y-121052022D01*
X156448572Y-121052023D01*
X156448573Y-121052023D01*
X156592496Y-121052023D01*
X156592496Y-121052022D01*
X156730587Y-121011476D01*
X156851662Y-120933666D01*
X156945911Y-120824896D01*
X157005699Y-120693980D01*
X157026181Y-120551523D01*
X157005699Y-120409066D01*
X156945911Y-120278150D01*
X156945909Y-120278148D01*
X156945908Y-120278145D01*
X156851321Y-120168985D01*
X156822296Y-120105429D01*
X156821034Y-120087783D01*
X156821034Y-117936962D01*
X156821034Y-117936961D01*
X156800555Y-117860534D01*
X156783940Y-117831755D01*
X156760998Y-117792018D01*
X156760992Y-117792010D01*
X155580046Y-116611064D01*
X155580038Y-116611058D01*
X155511529Y-116571505D01*
X155511524Y-116571502D01*
X155486047Y-116564675D01*
X155435096Y-116551023D01*
X140405972Y-116551023D01*
X140367758Y-116561262D01*
X140329543Y-116571502D01*
X140329538Y-116571505D01*
X140261029Y-116611058D01*
X140261021Y-116611064D01*
X138962382Y-117909704D01*
X138901059Y-117943189D01*
X138874701Y-117946023D01*
X137470444Y-117946023D01*
X137403405Y-117926338D01*
X137357650Y-117873534D01*
X137347706Y-117804376D01*
X137376731Y-117740820D01*
X137391780Y-117726169D01*
X137541944Y-117602933D01*
X137673219Y-117442973D01*
X137770766Y-117260477D01*
X137775453Y-117245026D01*
X137813751Y-117186588D01*
X137877564Y-117158132D01*
X137894113Y-117157023D01*
X138130094Y-117157023D01*
X138130096Y-117157023D01*
X138206523Y-117136544D01*
X138275045Y-117096983D01*
X138330994Y-117041034D01*
X139808686Y-115563342D01*
X139870009Y-115529857D01*
X139896367Y-115527023D01*
X143826465Y-115527023D01*
X143826467Y-115527023D01*
X143902894Y-115506544D01*
X143971416Y-115466983D01*
X144027365Y-115411034D01*
X149367011Y-110071386D01*
X149422596Y-110039294D01*
X149451523Y-110031544D01*
X149520045Y-109991983D01*
X149575994Y-109936034D01*
X149615555Y-109867512D01*
X149636034Y-109791085D01*
X149636034Y-107871367D01*
X149655719Y-107804328D01*
X149708523Y-107758573D01*
X149721710Y-107753438D01*
X149759899Y-107741030D01*
X149914942Y-107662031D01*
X150055719Y-107559751D01*
X150178762Y-107436708D01*
X150281042Y-107295931D01*
X150360041Y-107140888D01*
X150413813Y-106975395D01*
X150417260Y-106953629D01*
X150441034Y-106803533D01*
X150441034Y-104819512D01*
X152930034Y-104819512D01*
X152930034Y-106803533D01*
X152957254Y-106975395D01*
X153011028Y-107140892D01*
X153090028Y-107295934D01*
X153192300Y-107436701D01*
X153192304Y-107436706D01*
X153315350Y-107559752D01*
X153315355Y-107559756D01*
X153438139Y-107648963D01*
X153456126Y-107662031D01*
X153554915Y-107712367D01*
X153611164Y-107741028D01*
X153611166Y-107741028D01*
X153611169Y-107741030D01*
X153649351Y-107753436D01*
X153776661Y-107794802D01*
X153948524Y-107822023D01*
X153948529Y-107822023D01*
X154122544Y-107822023D01*
X154294406Y-107794802D01*
X154300343Y-107792873D01*
X154459899Y-107741030D01*
X154614942Y-107662031D01*
X154755719Y-107559751D01*
X154878762Y-107436708D01*
X154981042Y-107295931D01*
X155060041Y-107140888D01*
X155113813Y-106975395D01*
X155117260Y-106953629D01*
X155141034Y-106803533D01*
X155141034Y-104819512D01*
X155113813Y-104647650D01*
X155060039Y-104482153D01*
X155031378Y-104425904D01*
X154981042Y-104327115D01*
X154967974Y-104309128D01*
X154878767Y-104186344D01*
X154878763Y-104186339D01*
X154755717Y-104063293D01*
X154755712Y-104063289D01*
X154614945Y-103961017D01*
X154614944Y-103961016D01*
X154614942Y-103961015D01*
X154566526Y-103936346D01*
X154459903Y-103882017D01*
X154294406Y-103828243D01*
X154122544Y-103801023D01*
X154122539Y-103801023D01*
X153948529Y-103801023D01*
X153948524Y-103801023D01*
X153776661Y-103828243D01*
X153611164Y-103882017D01*
X153456122Y-103961017D01*
X153315355Y-104063289D01*
X153315350Y-104063293D01*
X153192304Y-104186339D01*
X153192300Y-104186344D01*
X153090028Y-104327111D01*
X153011028Y-104482153D01*
X152957254Y-104647650D01*
X152930034Y-104819512D01*
X150441034Y-104819512D01*
X150413813Y-104647650D01*
X150360039Y-104482153D01*
X150331378Y-104425904D01*
X150281042Y-104327115D01*
X150267974Y-104309128D01*
X150178767Y-104186344D01*
X150178763Y-104186339D01*
X150055717Y-104063293D01*
X150055712Y-104063289D01*
X149914945Y-103961017D01*
X149914944Y-103961016D01*
X149914942Y-103961015D01*
X149866526Y-103936346D01*
X149759903Y-103882017D01*
X149594406Y-103828243D01*
X149422544Y-103801023D01*
X149422539Y-103801023D01*
X149248529Y-103801023D01*
X149248524Y-103801023D01*
X149076661Y-103828243D01*
X148911164Y-103882017D01*
X148756122Y-103961017D01*
X148615355Y-104063289D01*
X148615350Y-104063293D01*
X148492304Y-104186339D01*
X148492300Y-104186344D01*
X148390028Y-104327111D01*
X148311028Y-104482153D01*
X148257254Y-104647650D01*
X148230034Y-104819512D01*
X148230034Y-106803533D01*
X148257254Y-106975395D01*
X148311028Y-107140892D01*
X148390028Y-107295934D01*
X148492300Y-107436701D01*
X148492304Y-107436706D01*
X148615350Y-107559752D01*
X148615355Y-107559756D01*
X148738139Y-107648963D01*
X148756126Y-107662031D01*
X148911169Y-107741030D01*
X148949352Y-107753436D01*
X149007027Y-107792873D01*
X149034226Y-107857232D01*
X149035034Y-107871367D01*
X149035034Y-109502061D01*
X149015349Y-109569100D01*
X148998715Y-109589742D01*
X147782715Y-110805742D01*
X147721392Y-110839227D01*
X147651700Y-110834243D01*
X147595767Y-110792371D01*
X147571350Y-110726907D01*
X147571034Y-110718061D01*
X147571034Y-103377356D01*
X147590719Y-103310317D01*
X147607353Y-103289675D01*
X148808686Y-102088342D01*
X148870009Y-102054857D01*
X148896367Y-102052023D01*
X155369701Y-102052023D01*
X155436740Y-102071708D01*
X155457382Y-102088342D01*
X156283715Y-102914675D01*
X156317200Y-102975998D01*
X156320034Y-103002356D01*
X156320034Y-104437783D01*
X156300349Y-104504822D01*
X156289747Y-104518985D01*
X156195159Y-104628145D01*
X156195156Y-104628151D01*
X156135368Y-104759066D01*
X156114887Y-104901523D01*
X156135368Y-105043979D01*
X156153090Y-105082784D01*
X156195157Y-105174896D01*
X156289406Y-105283666D01*
X156410481Y-105361476D01*
X156410484Y-105361477D01*
X156410483Y-105361477D01*
X156548570Y-105402022D01*
X156548572Y-105402023D01*
X156548573Y-105402023D01*
X156692496Y-105402023D01*
X156692496Y-105402022D01*
X156830584Y-105361477D01*
X156830585Y-105361477D01*
X156834863Y-105358728D01*
X156903994Y-105314299D01*
X156971034Y-105294615D01*
X157038073Y-105314299D01*
X157083828Y-105367103D01*
X157095034Y-105418615D01*
X157095034Y-109986085D01*
X157107214Y-110031540D01*
X157115513Y-110062513D01*
X157115514Y-110062514D01*
X157132527Y-110091981D01*
X157132528Y-110091983D01*
X157155073Y-110131032D01*
X157155075Y-110131035D01*
X158413715Y-111389675D01*
X158447200Y-111450998D01*
X158450034Y-111477356D01*
X158450034Y-111979283D01*
X158452808Y-112008872D01*
X158496418Y-112133499D01*
X158531091Y-112180479D01*
X158574823Y-112239734D01*
X158681059Y-112318139D01*
X158741991Y-112339460D01*
X158798764Y-112380180D01*
X158824512Y-112445132D01*
X158825034Y-112456500D01*
X158825034Y-114180690D01*
X158805349Y-114247729D01*
X158788715Y-114268371D01*
X157405075Y-115652010D01*
X157405069Y-115652018D01*
X157365516Y-115720527D01*
X157365513Y-115720532D01*
X157358543Y-115746544D01*
X157345034Y-115796961D01*
X157345034Y-126866085D01*
X157365513Y-126942512D01*
X157396984Y-126997021D01*
X157396985Y-126997025D01*
X157405070Y-127011028D01*
X157405072Y-127011031D01*
X157405074Y-127011034D01*
X157876023Y-127481983D01*
X157944546Y-127521545D01*
X158020972Y-127542023D01*
X158100096Y-127542023D01*
X158353682Y-127542023D01*
X158420721Y-127561708D01*
X158466476Y-127614512D01*
X158470723Y-127625068D01*
X158496418Y-127698498D01*
X158496418Y-127698499D01*
X158574822Y-127804733D01*
X158574823Y-127804734D01*
X158615680Y-127834888D01*
X158681059Y-127883139D01*
X158741991Y-127904460D01*
X158798764Y-127945180D01*
X158824512Y-128010132D01*
X158825034Y-128021500D01*
X158825034Y-130371545D01*
X158805349Y-130438584D01*
X158752545Y-130484339D01*
X158741989Y-130488586D01*
X158681058Y-130509906D01*
X158681057Y-130509907D01*
X158574823Y-130588311D01*
X158574822Y-130588312D01*
X158496418Y-130694546D01*
X158452808Y-130819173D01*
X158450034Y-130848762D01*
X158450034Y-131454283D01*
X158452808Y-131483872D01*
X158496418Y-131608499D01*
X158574822Y-131714733D01*
X158574823Y-131714734D01*
X158681057Y-131793138D01*
X158681058Y-131793138D01*
X158681059Y-131793139D01*
X158805685Y-131836748D01*
X158805684Y-131836748D01*
X158835274Y-131839523D01*
X158835278Y-131839523D01*
X159415794Y-131839523D01*
X159445383Y-131836748D01*
X159570009Y-131793139D01*
X159676245Y-131714734D01*
X159754650Y-131608498D01*
X159798259Y-131483872D01*
X159801034Y-131454279D01*
X159801034Y-130848767D01*
X159798259Y-130819174D01*
X159754650Y-130694548D01*
X159702759Y-130624238D01*
X159676245Y-130588312D01*
X159676244Y-130588311D01*
X159570010Y-130509907D01*
X159570009Y-130509906D01*
X159509079Y-130488586D01*
X159452303Y-130447864D01*
X159426556Y-130382911D01*
X159426034Y-130371545D01*
X159426034Y-128021500D01*
X159445719Y-127954461D01*
X159498523Y-127908706D01*
X159509056Y-127904467D01*
X159570009Y-127883139D01*
X159676245Y-127804734D01*
X159754650Y-127698498D01*
X159798259Y-127573872D01*
X159801034Y-127544279D01*
X159801034Y-126938767D01*
X159798259Y-126909174D01*
X159754650Y-126784548D01*
X159735839Y-126759060D01*
X159676245Y-126678312D01*
X159676244Y-126678311D01*
X159570010Y-126599907D01*
X159445382Y-126556297D01*
X159445383Y-126556297D01*
X159415794Y-126553523D01*
X159415790Y-126553523D01*
X158835278Y-126553523D01*
X158835274Y-126553523D01*
X158805684Y-126556297D01*
X158681057Y-126599907D01*
X158574823Y-126678311D01*
X158574822Y-126678312D01*
X158496418Y-126784546D01*
X158496418Y-126784547D01*
X158470723Y-126857978D01*
X158430001Y-126914754D01*
X158365048Y-126940501D01*
X158353682Y-126941023D01*
X158236367Y-126941023D01*
X158169328Y-126921338D01*
X158148686Y-126904704D01*
X157982353Y-126738371D01*
X157948868Y-126677048D01*
X157946034Y-126650690D01*
X157946034Y-125113762D01*
X158450034Y-125113762D01*
X158450034Y-125719283D01*
X158452808Y-125748872D01*
X158496418Y-125873499D01*
X158574822Y-125979733D01*
X158574823Y-125979734D01*
X158681057Y-126058138D01*
X158681058Y-126058138D01*
X158681059Y-126058139D01*
X158805685Y-126101748D01*
X158805684Y-126101748D01*
X158835274Y-126104523D01*
X158835278Y-126104523D01*
X159415794Y-126104523D01*
X159445383Y-126101748D01*
X159570009Y-126058139D01*
X159676245Y-125979734D01*
X159754650Y-125873498D01*
X159780345Y-125800068D01*
X159821067Y-125743292D01*
X159886020Y-125717545D01*
X159897386Y-125717023D01*
X162025094Y-125717023D01*
X162025096Y-125717023D01*
X162101523Y-125696544D01*
X162170045Y-125656983D01*
X162225994Y-125601034D01*
X163765994Y-124061034D01*
X163805555Y-123992511D01*
X163826034Y-123916085D01*
X163826034Y-123836961D01*
X163820259Y-123815407D01*
X163816034Y-123783315D01*
X163816034Y-122620844D01*
X163835719Y-122553805D01*
X163888523Y-122508050D01*
X163940034Y-122496844D01*
X164070284Y-122496844D01*
X164070285Y-122496843D01*
X164085102Y-122493896D01*
X164128763Y-122485212D01*
X164128763Y-122485211D01*
X164128765Y-122485211D01*
X164195086Y-122440896D01*
X164239401Y-122374575D01*
X164239401Y-122374573D01*
X164239402Y-122374573D01*
X164251033Y-122316096D01*
X164251034Y-122316094D01*
X164251034Y-120476593D01*
X164251033Y-120476591D01*
X164239402Y-120418114D01*
X164239401Y-120418113D01*
X164195086Y-120351791D01*
X164128764Y-120307476D01*
X164128763Y-120307475D01*
X164070286Y-120295844D01*
X164070282Y-120295844D01*
X162960786Y-120295844D01*
X162960781Y-120295844D01*
X162902304Y-120307475D01*
X162902303Y-120307476D01*
X162835981Y-120351791D01*
X162817334Y-120379699D01*
X162763721Y-120424503D01*
X162694396Y-120433209D01*
X162645342Y-120413908D01*
X162593930Y-120379555D01*
X162593917Y-120379548D01*
X162460076Y-120324110D01*
X162460064Y-120324107D01*
X162317978Y-120295844D01*
X162317974Y-120295844D01*
X162173094Y-120295844D01*
X162173089Y-120295844D01*
X162031003Y-120324107D01*
X162030991Y-120324110D01*
X161897150Y-120379548D01*
X161897137Y-120379555D01*
X161776680Y-120460043D01*
X161776676Y-120460046D01*
X161698215Y-120538508D01*
X161636892Y-120571993D01*
X161567200Y-120567009D01*
X161522853Y-120538508D01*
X161444391Y-120460046D01*
X161444387Y-120460043D01*
X161323930Y-120379555D01*
X161323917Y-120379548D01*
X161190076Y-120324110D01*
X161190064Y-120324107D01*
X161047978Y-120295844D01*
X161047974Y-120295844D01*
X160903094Y-120295844D01*
X160903089Y-120295844D01*
X160761003Y-120324107D01*
X160760991Y-120324110D01*
X160627150Y-120379548D01*
X160627137Y-120379555D01*
X160506680Y-120460043D01*
X160506676Y-120460046D01*
X160428215Y-120538508D01*
X160366892Y-120571993D01*
X160297200Y-120567009D01*
X160252853Y-120538508D01*
X160174391Y-120460046D01*
X160174387Y-120460043D01*
X160053930Y-120379555D01*
X160053917Y-120379548D01*
X159920076Y-120324110D01*
X159920064Y-120324107D01*
X159777978Y-120295844D01*
X159777974Y-120295844D01*
X159633094Y-120295844D01*
X159633089Y-120295844D01*
X159491003Y-120324107D01*
X159490991Y-120324110D01*
X159357150Y-120379548D01*
X159357137Y-120379555D01*
X159236680Y-120460043D01*
X159236676Y-120460046D01*
X159134236Y-120562486D01*
X159134233Y-120562490D01*
X159053745Y-120682947D01*
X159053738Y-120682960D01*
X158998300Y-120816801D01*
X158998297Y-120816813D01*
X158970034Y-120958899D01*
X158970034Y-121833788D01*
X158998297Y-121975874D01*
X158998300Y-121975886D01*
X159053738Y-122109727D01*
X159053745Y-122109740D01*
X159134233Y-122230197D01*
X159134236Y-122230201D01*
X159236676Y-122332641D01*
X159236680Y-122332644D01*
X159357137Y-122413132D01*
X159357150Y-122413139D01*
X159424165Y-122440897D01*
X159490996Y-122468579D01*
X159633089Y-122496843D01*
X159633093Y-122496844D01*
X159633094Y-122496844D01*
X159777975Y-122496844D01*
X159777976Y-122496843D01*
X159920072Y-122468579D01*
X160053924Y-122413136D01*
X160174388Y-122332644D01*
X160190940Y-122316092D01*
X160252853Y-122254180D01*
X160314176Y-122220695D01*
X160383868Y-122225679D01*
X160428215Y-122254180D01*
X160506676Y-122332641D01*
X160506680Y-122332644D01*
X160627137Y-122413132D01*
X160627150Y-122413139D01*
X160694165Y-122440897D01*
X160760996Y-122468579D01*
X160903089Y-122496843D01*
X160903093Y-122496844D01*
X160903094Y-122496844D01*
X161047975Y-122496844D01*
X161047976Y-122496843D01*
X161190072Y-122468579D01*
X161323924Y-122413136D01*
X161444388Y-122332644D01*
X161460940Y-122316092D01*
X161522853Y-122254180D01*
X161584176Y-122220695D01*
X161653868Y-122225679D01*
X161698215Y-122254180D01*
X161776676Y-122332641D01*
X161776680Y-122332644D01*
X161897137Y-122413132D01*
X161897150Y-122413139D01*
X161964165Y-122440897D01*
X162030996Y-122468579D01*
X162173089Y-122496843D01*
X162173093Y-122496844D01*
X162173094Y-122496844D01*
X162317975Y-122496844D01*
X162317976Y-122496843D01*
X162460072Y-122468579D01*
X162593924Y-122413136D01*
X162645341Y-122378779D01*
X162712018Y-122357901D01*
X162779398Y-122376385D01*
X162817334Y-122412988D01*
X162817433Y-122413136D01*
X162835982Y-122440897D01*
X162902303Y-122485211D01*
X162902304Y-122485212D01*
X162960781Y-122496843D01*
X162960784Y-122496844D01*
X162960786Y-122496844D01*
X163091034Y-122496844D01*
X163158073Y-122516529D01*
X163203828Y-122569333D01*
X163215034Y-122620844D01*
X163215034Y-123710690D01*
X163195349Y-123777729D01*
X163178715Y-123798371D01*
X161897382Y-125079704D01*
X161836059Y-125113189D01*
X161809701Y-125116023D01*
X159897386Y-125116023D01*
X159830347Y-125096338D01*
X159784592Y-125043534D01*
X159780345Y-125032978D01*
X159769820Y-125002902D01*
X159754650Y-124959548D01*
X159676245Y-124853312D01*
X159676244Y-124853311D01*
X159570010Y-124774907D01*
X159445382Y-124731297D01*
X159445383Y-124731297D01*
X159415794Y-124728523D01*
X159415790Y-124728523D01*
X158835278Y-124728523D01*
X158835274Y-124728523D01*
X158805684Y-124731297D01*
X158681057Y-124774907D01*
X158574823Y-124853311D01*
X158574822Y-124853312D01*
X158496418Y-124959546D01*
X158452808Y-125084173D01*
X158450034Y-125113762D01*
X157946034Y-125113762D01*
X157946034Y-116012356D01*
X157965719Y-115945317D01*
X157982353Y-115924675D01*
X158638358Y-115268670D01*
X159365994Y-114541034D01*
X159369226Y-114535436D01*
X159405555Y-114472512D01*
X159426034Y-114396085D01*
X159426034Y-112456500D01*
X159445719Y-112389461D01*
X159498523Y-112343706D01*
X159509056Y-112339467D01*
X159570009Y-112318139D01*
X159676245Y-112239734D01*
X159754650Y-112133498D01*
X159798259Y-112008872D01*
X159800736Y-111982457D01*
X159801034Y-111979283D01*
X159801034Y-111373762D01*
X159798259Y-111344173D01*
X159754649Y-111219546D01*
X159676245Y-111113312D01*
X159676244Y-111113311D01*
X159570010Y-111034907D01*
X159445382Y-110991297D01*
X159445383Y-110991297D01*
X159415794Y-110988523D01*
X159415790Y-110988523D01*
X158913867Y-110988523D01*
X158846828Y-110968838D01*
X158826186Y-110952204D01*
X158582296Y-110708314D01*
X158548811Y-110646991D01*
X158553795Y-110577299D01*
X158595667Y-110521366D01*
X158661131Y-110496949D01*
X158710930Y-110503591D01*
X158805685Y-110536748D01*
X158805684Y-110536748D01*
X158835274Y-110539523D01*
X158835278Y-110539523D01*
X159415794Y-110539523D01*
X159445383Y-110536748D01*
X159570009Y-110493139D01*
X159676245Y-110414734D01*
X159754650Y-110308498D01*
X159780345Y-110235068D01*
X159821067Y-110178292D01*
X159886020Y-110152545D01*
X159897386Y-110152023D01*
X162690094Y-110152023D01*
X162690096Y-110152023D01*
X162766523Y-110131544D01*
X162835045Y-110091983D01*
X162890994Y-110036034D01*
X163765994Y-109161034D01*
X163774083Y-109147023D01*
X163805555Y-109092512D01*
X163826034Y-109016085D01*
X163826034Y-108806961D01*
X163820259Y-108785407D01*
X163816034Y-108753315D01*
X163816034Y-107020668D01*
X163835719Y-106953629D01*
X163888523Y-106907874D01*
X163940034Y-106896668D01*
X164070284Y-106896668D01*
X164070285Y-106896667D01*
X164085102Y-106893720D01*
X164128763Y-106885036D01*
X164128763Y-106885035D01*
X164128765Y-106885035D01*
X164195086Y-106840720D01*
X164239401Y-106774399D01*
X164239401Y-106774397D01*
X164239402Y-106774397D01*
X164251033Y-106715920D01*
X164251034Y-106715918D01*
X164251034Y-104876417D01*
X164251033Y-104876415D01*
X164239402Y-104817938D01*
X164239401Y-104817937D01*
X164195086Y-104751615D01*
X164128764Y-104707300D01*
X164128763Y-104707299D01*
X164070286Y-104695668D01*
X164070282Y-104695668D01*
X162960786Y-104695668D01*
X162960781Y-104695668D01*
X162902304Y-104707299D01*
X162902303Y-104707300D01*
X162835981Y-104751615D01*
X162817334Y-104779523D01*
X162763721Y-104824327D01*
X162694396Y-104833033D01*
X162645342Y-104813732D01*
X162593930Y-104779379D01*
X162593917Y-104779372D01*
X162460076Y-104723934D01*
X162460064Y-104723931D01*
X162317978Y-104695668D01*
X162317974Y-104695668D01*
X162173094Y-104695668D01*
X162173089Y-104695668D01*
X162031003Y-104723931D01*
X162030991Y-104723934D01*
X161897150Y-104779372D01*
X161897137Y-104779379D01*
X161776680Y-104859867D01*
X161776676Y-104859870D01*
X161698215Y-104938332D01*
X161636892Y-104971817D01*
X161567200Y-104966833D01*
X161522853Y-104938332D01*
X161444391Y-104859870D01*
X161444387Y-104859867D01*
X161323930Y-104779379D01*
X161323917Y-104779372D01*
X161190076Y-104723934D01*
X161190064Y-104723931D01*
X161047978Y-104695668D01*
X161047974Y-104695668D01*
X160903094Y-104695668D01*
X160903089Y-104695668D01*
X160761003Y-104723931D01*
X160760991Y-104723934D01*
X160627150Y-104779372D01*
X160627137Y-104779379D01*
X160506680Y-104859867D01*
X160506676Y-104859870D01*
X160428215Y-104938332D01*
X160366892Y-104971817D01*
X160297200Y-104966833D01*
X160252853Y-104938332D01*
X160174391Y-104859870D01*
X160174387Y-104859867D01*
X160053930Y-104779379D01*
X160053917Y-104779372D01*
X159920076Y-104723934D01*
X159920064Y-104723931D01*
X159777978Y-104695668D01*
X159777974Y-104695668D01*
X159633094Y-104695668D01*
X159633089Y-104695668D01*
X159491003Y-104723931D01*
X159490991Y-104723934D01*
X159357150Y-104779372D01*
X159357137Y-104779379D01*
X159236680Y-104859867D01*
X159236676Y-104859870D01*
X159134236Y-104962310D01*
X159134233Y-104962314D01*
X159053745Y-105082771D01*
X159053738Y-105082784D01*
X158998300Y-105216625D01*
X158998297Y-105216637D01*
X158970034Y-105358723D01*
X158970034Y-106233612D01*
X158998297Y-106375698D01*
X158998300Y-106375710D01*
X159053738Y-106509551D01*
X159053745Y-106509564D01*
X159134233Y-106630021D01*
X159134236Y-106630025D01*
X159236676Y-106732465D01*
X159236680Y-106732468D01*
X159357137Y-106812956D01*
X159357150Y-106812963D01*
X159424165Y-106840721D01*
X159490996Y-106868403D01*
X159633089Y-106896667D01*
X159633093Y-106896668D01*
X159633094Y-106896668D01*
X159777975Y-106896668D01*
X159777976Y-106896667D01*
X159920072Y-106868403D01*
X160053924Y-106812960D01*
X160174388Y-106732468D01*
X160190940Y-106715916D01*
X160252853Y-106654004D01*
X160314176Y-106620519D01*
X160383868Y-106625503D01*
X160428215Y-106654004D01*
X160506676Y-106732465D01*
X160506680Y-106732468D01*
X160627137Y-106812956D01*
X160627150Y-106812963D01*
X160694165Y-106840721D01*
X160760996Y-106868403D01*
X160903089Y-106896667D01*
X160903093Y-106896668D01*
X160903094Y-106896668D01*
X161047975Y-106896668D01*
X161047976Y-106896667D01*
X161190072Y-106868403D01*
X161323924Y-106812960D01*
X161444388Y-106732468D01*
X161460940Y-106715916D01*
X161522853Y-106654004D01*
X161584176Y-106620519D01*
X161653868Y-106625503D01*
X161698215Y-106654004D01*
X161776676Y-106732465D01*
X161776680Y-106732468D01*
X161897137Y-106812956D01*
X161897150Y-106812963D01*
X161964165Y-106840721D01*
X162030996Y-106868403D01*
X162173089Y-106896667D01*
X162173093Y-106896668D01*
X162173094Y-106896668D01*
X162317975Y-106896668D01*
X162317976Y-106896667D01*
X162460072Y-106868403D01*
X162593924Y-106812960D01*
X162645341Y-106778603D01*
X162712018Y-106757725D01*
X162779398Y-106776209D01*
X162817334Y-106812812D01*
X162817433Y-106812960D01*
X162835982Y-106840721D01*
X162902303Y-106885035D01*
X162902304Y-106885036D01*
X162960781Y-106896667D01*
X162960784Y-106896668D01*
X162960786Y-106896668D01*
X163091034Y-106896668D01*
X163158073Y-106916353D01*
X163203828Y-106969157D01*
X163215034Y-107020668D01*
X163215034Y-108810690D01*
X163195349Y-108877729D01*
X163178715Y-108898371D01*
X162562382Y-109514704D01*
X162501059Y-109548189D01*
X162474701Y-109551023D01*
X159897386Y-109551023D01*
X159830347Y-109531338D01*
X159784592Y-109478534D01*
X159780345Y-109467978D01*
X159769820Y-109437902D01*
X159754650Y-109394548D01*
X159676245Y-109288312D01*
X159654837Y-109272512D01*
X159570010Y-109209907D01*
X159445382Y-109166297D01*
X159445383Y-109166297D01*
X159415794Y-109163523D01*
X159415790Y-109163523D01*
X158835278Y-109163523D01*
X158835274Y-109163523D01*
X158805684Y-109166297D01*
X158681057Y-109209907D01*
X158574823Y-109288311D01*
X158574822Y-109288312D01*
X158496418Y-109394546D01*
X158452808Y-109519173D01*
X158450034Y-109548762D01*
X158450034Y-110154283D01*
X158452808Y-110183872D01*
X158452808Y-110183874D01*
X158485964Y-110278624D01*
X158489527Y-110348402D01*
X158454798Y-110409030D01*
X158392805Y-110441258D01*
X158323229Y-110434853D01*
X158281242Y-110407260D01*
X157732353Y-109858371D01*
X157698868Y-109797048D01*
X157696034Y-109770690D01*
X157696034Y-100232356D01*
X157715719Y-100165317D01*
X157732353Y-100144675D01*
X159355991Y-98521037D01*
X159355994Y-98521034D01*
X159361751Y-98511063D01*
X159395555Y-98452512D01*
X159416034Y-98376085D01*
X159416034Y-96811500D01*
X159435719Y-96744461D01*
X159488523Y-96698706D01*
X159499056Y-96694467D01*
X159560009Y-96673139D01*
X159619184Y-96629466D01*
X159684811Y-96605496D01*
X159752981Y-96620811D01*
X159802050Y-96670551D01*
X159816437Y-96738924D01*
X159815554Y-96746882D01*
X159814887Y-96751521D01*
X159814887Y-96751522D01*
X159835368Y-96893979D01*
X159891132Y-97016083D01*
X159895157Y-97024896D01*
X159989406Y-97133666D01*
X160110481Y-97211476D01*
X160110484Y-97211477D01*
X160110483Y-97211477D01*
X160248570Y-97252022D01*
X160248572Y-97252023D01*
X160248573Y-97252023D01*
X160392496Y-97252023D01*
X160392496Y-97252022D01*
X160530587Y-97211476D01*
X160651662Y-97133666D01*
X160745911Y-97024896D01*
X160805699Y-96893980D01*
X160826181Y-96751523D01*
X160805699Y-96609066D01*
X160745911Y-96478150D01*
X160651662Y-96369380D01*
X160530587Y-96291570D01*
X160530585Y-96291569D01*
X160530583Y-96291568D01*
X160530584Y-96291568D01*
X160392497Y-96251023D01*
X160392495Y-96251023D01*
X160296367Y-96251023D01*
X160229328Y-96231338D01*
X160208686Y-96214704D01*
X159827353Y-95833371D01*
X159793868Y-95772048D01*
X159791034Y-95745690D01*
X159791034Y-95728762D01*
X159788259Y-95699173D01*
X159744649Y-95574546D01*
X159666245Y-95468312D01*
X159666244Y-95468311D01*
X159560010Y-95389907D01*
X159435382Y-95346297D01*
X159435383Y-95346297D01*
X159405794Y-95343523D01*
X159405790Y-95343523D01*
X158825278Y-95343523D01*
X158825274Y-95343523D01*
X158795684Y-95346297D01*
X158671057Y-95389907D01*
X158564824Y-95468310D01*
X158492197Y-95566717D01*
X158436549Y-95608967D01*
X158366893Y-95614426D01*
X158305344Y-95581358D01*
X158304746Y-95580764D01*
X157692353Y-94968371D01*
X157658868Y-94907048D01*
X157656034Y-94880690D01*
X157656034Y-93903762D01*
X158440034Y-93903762D01*
X158440034Y-94509283D01*
X158442808Y-94538872D01*
X158486418Y-94663499D01*
X158564822Y-94769733D01*
X158564823Y-94769734D01*
X158671057Y-94848138D01*
X158671058Y-94848138D01*
X158671059Y-94848139D01*
X158795685Y-94891748D01*
X158795684Y-94891748D01*
X158825274Y-94894523D01*
X158825278Y-94894523D01*
X159405794Y-94894523D01*
X159435383Y-94891748D01*
X159560009Y-94848139D01*
X159666245Y-94769734D01*
X159744650Y-94663498D01*
X159770345Y-94590068D01*
X159811067Y-94533292D01*
X159876020Y-94507545D01*
X159887386Y-94507023D01*
X161885094Y-94507023D01*
X161885096Y-94507023D01*
X161961523Y-94486544D01*
X162030045Y-94446983D01*
X162085994Y-94391034D01*
X163755994Y-92721034D01*
X163795556Y-92652511D01*
X163816034Y-92576085D01*
X163816034Y-92496961D01*
X163816034Y-91420492D01*
X163835719Y-91353453D01*
X163888523Y-91307698D01*
X163940034Y-91296492D01*
X164070284Y-91296492D01*
X164070285Y-91296491D01*
X164085102Y-91293544D01*
X164128763Y-91284860D01*
X164128763Y-91284859D01*
X164128765Y-91284859D01*
X164195086Y-91240544D01*
X164239401Y-91174223D01*
X164239401Y-91174221D01*
X164239402Y-91174221D01*
X164251033Y-91115744D01*
X164251034Y-91115742D01*
X164251034Y-89276241D01*
X164251033Y-89276239D01*
X164239402Y-89217762D01*
X164239401Y-89217761D01*
X164195086Y-89151439D01*
X164128764Y-89107124D01*
X164128763Y-89107123D01*
X164070286Y-89095492D01*
X164070282Y-89095492D01*
X162960786Y-89095492D01*
X162960781Y-89095492D01*
X162902304Y-89107123D01*
X162902303Y-89107124D01*
X162835981Y-89151439D01*
X162817334Y-89179347D01*
X162763721Y-89224151D01*
X162694396Y-89232857D01*
X162645342Y-89213556D01*
X162593930Y-89179203D01*
X162593917Y-89179196D01*
X162460076Y-89123758D01*
X162460064Y-89123755D01*
X162317978Y-89095492D01*
X162317974Y-89095492D01*
X162173094Y-89095492D01*
X162173089Y-89095492D01*
X162031003Y-89123755D01*
X162030991Y-89123758D01*
X161897150Y-89179196D01*
X161897137Y-89179203D01*
X161776680Y-89259691D01*
X161776676Y-89259694D01*
X161698215Y-89338156D01*
X161636892Y-89371641D01*
X161567200Y-89366657D01*
X161522853Y-89338156D01*
X161444391Y-89259694D01*
X161444387Y-89259691D01*
X161323930Y-89179203D01*
X161323917Y-89179196D01*
X161190076Y-89123758D01*
X161190064Y-89123755D01*
X161047978Y-89095492D01*
X161047974Y-89095492D01*
X160903094Y-89095492D01*
X160903089Y-89095492D01*
X160761003Y-89123755D01*
X160760991Y-89123758D01*
X160627150Y-89179196D01*
X160627137Y-89179203D01*
X160506680Y-89259691D01*
X160506676Y-89259694D01*
X160428215Y-89338156D01*
X160366892Y-89371641D01*
X160297200Y-89366657D01*
X160252853Y-89338156D01*
X160174391Y-89259694D01*
X160174387Y-89259691D01*
X160053930Y-89179203D01*
X160053917Y-89179196D01*
X159920076Y-89123758D01*
X159920064Y-89123755D01*
X159777978Y-89095492D01*
X159777974Y-89095492D01*
X159633094Y-89095492D01*
X159633089Y-89095492D01*
X159491003Y-89123755D01*
X159490991Y-89123758D01*
X159357150Y-89179196D01*
X159357137Y-89179203D01*
X159236680Y-89259691D01*
X159236676Y-89259694D01*
X159134236Y-89362134D01*
X159134233Y-89362138D01*
X159053745Y-89482595D01*
X159053738Y-89482608D01*
X158998300Y-89616449D01*
X158998297Y-89616461D01*
X158970034Y-89758547D01*
X158970034Y-90633436D01*
X158998297Y-90775522D01*
X158998300Y-90775534D01*
X159053738Y-90909375D01*
X159053745Y-90909388D01*
X159134233Y-91029845D01*
X159134236Y-91029849D01*
X159236676Y-91132289D01*
X159236680Y-91132292D01*
X159357137Y-91212780D01*
X159357150Y-91212787D01*
X159424165Y-91240545D01*
X159490996Y-91268227D01*
X159633089Y-91296491D01*
X159633093Y-91296492D01*
X159633094Y-91296492D01*
X159777975Y-91296492D01*
X159777976Y-91296491D01*
X159920072Y-91268227D01*
X160053924Y-91212784D01*
X160174388Y-91132292D01*
X160190940Y-91115740D01*
X160252853Y-91053828D01*
X160314176Y-91020343D01*
X160383868Y-91025327D01*
X160428215Y-91053828D01*
X160506676Y-91132289D01*
X160506680Y-91132292D01*
X160627137Y-91212780D01*
X160627150Y-91212787D01*
X160694165Y-91240545D01*
X160760996Y-91268227D01*
X160903089Y-91296491D01*
X160903093Y-91296492D01*
X160903094Y-91296492D01*
X161047975Y-91296492D01*
X161047976Y-91296491D01*
X161190072Y-91268227D01*
X161323924Y-91212784D01*
X161444388Y-91132292D01*
X161460940Y-91115740D01*
X161522853Y-91053828D01*
X161584176Y-91020343D01*
X161653868Y-91025327D01*
X161698215Y-91053828D01*
X161776676Y-91132289D01*
X161776680Y-91132292D01*
X161897137Y-91212780D01*
X161897150Y-91212787D01*
X161964165Y-91240545D01*
X162030996Y-91268227D01*
X162173089Y-91296491D01*
X162173093Y-91296492D01*
X162173094Y-91296492D01*
X162317975Y-91296492D01*
X162317976Y-91296491D01*
X162460072Y-91268227D01*
X162593924Y-91212784D01*
X162645341Y-91178427D01*
X162712018Y-91157549D01*
X162779398Y-91176033D01*
X162817334Y-91212636D01*
X162817433Y-91212784D01*
X162835982Y-91240545D01*
X162902303Y-91284859D01*
X162902304Y-91284860D01*
X162960781Y-91296491D01*
X162960784Y-91296492D01*
X162960786Y-91296492D01*
X163091034Y-91296492D01*
X163158073Y-91316177D01*
X163203828Y-91368981D01*
X163215034Y-91420492D01*
X163215034Y-92360690D01*
X163195349Y-92427729D01*
X163178715Y-92448371D01*
X161757382Y-93869704D01*
X161696059Y-93903189D01*
X161669701Y-93906023D01*
X159887386Y-93906023D01*
X159820347Y-93886338D01*
X159774592Y-93833534D01*
X159770345Y-93822978D01*
X159759820Y-93792902D01*
X159744650Y-93749548D01*
X159666245Y-93643312D01*
X159666244Y-93643311D01*
X159560010Y-93564907D01*
X159435382Y-93521297D01*
X159435383Y-93521297D01*
X159405794Y-93518523D01*
X159405790Y-93518523D01*
X158825278Y-93518523D01*
X158825274Y-93518523D01*
X158795684Y-93521297D01*
X158671057Y-93564907D01*
X158564823Y-93643311D01*
X158564822Y-93643312D01*
X158486418Y-93749546D01*
X158442808Y-93874173D01*
X158440034Y-93903762D01*
X157656034Y-93903762D01*
X157656034Y-82384856D01*
X157675719Y-82317817D01*
X157692353Y-82297175D01*
X158836186Y-81153342D01*
X158897509Y-81119857D01*
X158923867Y-81117023D01*
X159425794Y-81117023D01*
X159455383Y-81114248D01*
X159580009Y-81070639D01*
X159686245Y-80992234D01*
X159764650Y-80885998D01*
X159808259Y-80761372D01*
X159811034Y-80731779D01*
X159811034Y-80126267D01*
X159808259Y-80096674D01*
X159764650Y-79972048D01*
X159686245Y-79865812D01*
X159686244Y-79865811D01*
X159580010Y-79787407D01*
X159455382Y-79743797D01*
X159455383Y-79743797D01*
X159425794Y-79741023D01*
X159425790Y-79741023D01*
X158845278Y-79741023D01*
X158845274Y-79741023D01*
X158815684Y-79743797D01*
X158691057Y-79787407D01*
X158584823Y-79865811D01*
X158584822Y-79865812D01*
X158506418Y-79972046D01*
X158462808Y-80096673D01*
X158460034Y-80126262D01*
X158460034Y-80628190D01*
X158440349Y-80695229D01*
X158423715Y-80715871D01*
X157115075Y-82024510D01*
X157115069Y-82024518D01*
X157075516Y-82093027D01*
X157075513Y-82093032D01*
X157061860Y-82143985D01*
X157055034Y-82169461D01*
X157055034Y-95096085D01*
X157068686Y-95147036D01*
X157075513Y-95172513D01*
X157075516Y-95172518D01*
X157115069Y-95241027D01*
X157115073Y-95241032D01*
X157115074Y-95241034D01*
X158090074Y-96216034D01*
X158146023Y-96271983D01*
X158146025Y-96271984D01*
X158146029Y-96271987D01*
X158214538Y-96311540D01*
X158214545Y-96311544D01*
X158290972Y-96332023D01*
X158343682Y-96332023D01*
X158410721Y-96351708D01*
X158456476Y-96404512D01*
X158460723Y-96415068D01*
X158486418Y-96488498D01*
X158486418Y-96488499D01*
X158534024Y-96553003D01*
X158564823Y-96594734D01*
X158671059Y-96673139D01*
X158731991Y-96694460D01*
X158788764Y-96735180D01*
X158814512Y-96800132D01*
X158815034Y-96811500D01*
X158815034Y-98160690D01*
X158795349Y-98227729D01*
X158778715Y-98248371D01*
X157155075Y-99872010D01*
X157155069Y-99872018D01*
X157115516Y-99940527D01*
X157115513Y-99940532D01*
X157095034Y-100016962D01*
X157095034Y-102584607D01*
X157075349Y-102651646D01*
X157022545Y-102697401D01*
X156953387Y-102707345D01*
X156889831Y-102678320D01*
X156863648Y-102646610D01*
X156860994Y-102642012D01*
X155730045Y-101511063D01*
X155730043Y-101511062D01*
X155730038Y-101511058D01*
X155661529Y-101471505D01*
X155661524Y-101471502D01*
X155636047Y-101464675D01*
X155585096Y-101451023D01*
X148760096Y-101451023D01*
X148680972Y-101451023D01*
X148604544Y-101471501D01*
X148536023Y-101511063D01*
X148536020Y-101511065D01*
X147347715Y-102699371D01*
X147286392Y-102732856D01*
X147216700Y-102727872D01*
X147160767Y-102686000D01*
X147136350Y-102620536D01*
X147136034Y-102611690D01*
X147136034Y-99652356D01*
X147155719Y-99585317D01*
X147172353Y-99564675D01*
X148360945Y-98376083D01*
X149575994Y-97161034D01*
X149591795Y-97133666D01*
X149615555Y-97092512D01*
X149636034Y-97016085D01*
X149636034Y-92303867D01*
X149655719Y-92236828D01*
X149708523Y-92191073D01*
X149721710Y-92185938D01*
X149759899Y-92173530D01*
X149914942Y-92094531D01*
X150055719Y-91992251D01*
X150178762Y-91869208D01*
X150281042Y-91728431D01*
X150360041Y-91573388D01*
X150413813Y-91407895D01*
X150441034Y-91236033D01*
X150441034Y-89252012D01*
X152930034Y-89252012D01*
X152930034Y-91236033D01*
X152957254Y-91407895D01*
X153011028Y-91573392D01*
X153061270Y-91671995D01*
X153074947Y-91698838D01*
X153090028Y-91728434D01*
X153192300Y-91869201D01*
X153192304Y-91869206D01*
X153315350Y-91992252D01*
X153315355Y-91992256D01*
X153438139Y-92081463D01*
X153456126Y-92094531D01*
X153554915Y-92144867D01*
X153611164Y-92173528D01*
X153611166Y-92173528D01*
X153611169Y-92173530D01*
X153649351Y-92185936D01*
X153776661Y-92227302D01*
X153948524Y-92254523D01*
X153948529Y-92254523D01*
X154122544Y-92254523D01*
X154294406Y-92227302D01*
X154300343Y-92225373D01*
X154459899Y-92173530D01*
X154614942Y-92094531D01*
X154755719Y-91992251D01*
X154878762Y-91869208D01*
X154981042Y-91728431D01*
X155060041Y-91573388D01*
X155113813Y-91407895D01*
X155141034Y-91236033D01*
X155141034Y-89252012D01*
X155113813Y-89080150D01*
X155060039Y-88914653D01*
X155031378Y-88858404D01*
X154981042Y-88759615D01*
X154938452Y-88700994D01*
X154878767Y-88618844D01*
X154878763Y-88618839D01*
X154755717Y-88495793D01*
X154755712Y-88495789D01*
X154614945Y-88393517D01*
X154614944Y-88393516D01*
X154614942Y-88393515D01*
X154566526Y-88368846D01*
X154459903Y-88314517D01*
X154294406Y-88260743D01*
X154122544Y-88233523D01*
X154122539Y-88233523D01*
X153948529Y-88233523D01*
X153948524Y-88233523D01*
X153776661Y-88260743D01*
X153611164Y-88314517D01*
X153456122Y-88393517D01*
X153315355Y-88495789D01*
X153315350Y-88495793D01*
X153192304Y-88618839D01*
X153192300Y-88618844D01*
X153090028Y-88759611D01*
X153011028Y-88914653D01*
X152957254Y-89080150D01*
X152930034Y-89252012D01*
X150441034Y-89252012D01*
X150413813Y-89080150D01*
X150360039Y-88914653D01*
X150331378Y-88858404D01*
X150281042Y-88759615D01*
X150238452Y-88700994D01*
X150178767Y-88618844D01*
X150178763Y-88618839D01*
X150055717Y-88495793D01*
X150055712Y-88495789D01*
X149914945Y-88393517D01*
X149914944Y-88393516D01*
X149914942Y-88393515D01*
X149866526Y-88368846D01*
X149759903Y-88314517D01*
X149594406Y-88260743D01*
X149422544Y-88233523D01*
X149422539Y-88233523D01*
X149248529Y-88233523D01*
X149248524Y-88233523D01*
X149076661Y-88260743D01*
X148911164Y-88314517D01*
X148756122Y-88393517D01*
X148615355Y-88495789D01*
X148615350Y-88495793D01*
X148492304Y-88618839D01*
X148492300Y-88618844D01*
X148390028Y-88759611D01*
X148311028Y-88914653D01*
X148257254Y-89080150D01*
X148230034Y-89252012D01*
X148230034Y-91236033D01*
X148257254Y-91407895D01*
X148311028Y-91573392D01*
X148361270Y-91671995D01*
X148374947Y-91698838D01*
X148390028Y-91728434D01*
X148492300Y-91869201D01*
X148492304Y-91869206D01*
X148615350Y-91992252D01*
X148615355Y-91992256D01*
X148738139Y-92081463D01*
X148756126Y-92094531D01*
X148911169Y-92173530D01*
X148949352Y-92185936D01*
X149007027Y-92225373D01*
X149034226Y-92289732D01*
X149035034Y-92303867D01*
X149035034Y-96800690D01*
X149015349Y-96867729D01*
X148998715Y-96888371D01*
X146595075Y-99292010D01*
X146595069Y-99292018D01*
X146555516Y-99360527D01*
X146555513Y-99360532D01*
X146535034Y-99436962D01*
X146535034Y-110870690D01*
X146515349Y-110937729D01*
X146498715Y-110958371D01*
X143477382Y-113979704D01*
X143416059Y-114013189D01*
X143389701Y-114016023D01*
X137894113Y-114016023D01*
X137827074Y-113996338D01*
X137781319Y-113943534D01*
X137775453Y-113928020D01*
X137775211Y-113927224D01*
X137770766Y-113912569D01*
X137673219Y-113730073D01*
X137621236Y-113666732D01*
X137541944Y-113570112D01*
X137381986Y-113438840D01*
X137381987Y-113438840D01*
X137381984Y-113438838D01*
X137199488Y-113341291D01*
X137001468Y-113281223D01*
X137001466Y-113281222D01*
X137001468Y-113281222D01*
X136795534Y-113260940D01*
X136589601Y-113281222D01*
X136391577Y-113341292D01*
X136281432Y-113400166D01*
X136209084Y-113438838D01*
X136209082Y-113438839D01*
X136209081Y-113438840D01*
X136049123Y-113570112D01*
X135917851Y-113730070D01*
X135917849Y-113730073D01*
X135879177Y-113802421D01*
X135820303Y-113912566D01*
X135760233Y-114110590D01*
X135739951Y-114316523D01*
X135760233Y-114522455D01*
X135788920Y-114617023D01*
X135820302Y-114720477D01*
X135874688Y-114822226D01*
X135917851Y-114902976D01*
X135967405Y-114963358D01*
X135994718Y-115027668D01*
X135982927Y-115096536D01*
X135935774Y-115148096D01*
X135871552Y-115166023D01*
X135605972Y-115166023D01*
X135567758Y-115176262D01*
X135529543Y-115186502D01*
X135529538Y-115186505D01*
X135461029Y-115226058D01*
X135461021Y-115226064D01*
X134819860Y-115867224D01*
X134758537Y-115900709D01*
X134688845Y-115895725D01*
X134673727Y-115888902D01*
X134659490Y-115881292D01*
X134659489Y-115881291D01*
X134659488Y-115881291D01*
X134461468Y-115821223D01*
X134461466Y-115821222D01*
X134461468Y-115821222D01*
X134255534Y-115800940D01*
X134049601Y-115821222D01*
X133851577Y-115881292D01*
X133741432Y-115940166D01*
X133669084Y-115978838D01*
X133669082Y-115978839D01*
X133669081Y-115978840D01*
X133509123Y-116110112D01*
X133377851Y-116270070D01*
X133377849Y-116270073D01*
X133339177Y-116342421D01*
X133280303Y-116452566D01*
X133220233Y-116650590D01*
X133199951Y-116856523D01*
X129784461Y-116856523D01*
X129784461Y-89121961D01*
X132435034Y-89121961D01*
X132435034Y-112836085D01*
X132448686Y-112887036D01*
X132455513Y-112912513D01*
X132455516Y-112912518D01*
X132495069Y-112981027D01*
X132495075Y-112981035D01*
X133266235Y-113752195D01*
X133299720Y-113813518D01*
X133294736Y-113883210D01*
X133287915Y-113898323D01*
X133280304Y-113912562D01*
X133220233Y-114110590D01*
X133199951Y-114316523D01*
X133220233Y-114522455D01*
X133248920Y-114617023D01*
X133280302Y-114720477D01*
X133377849Y-114902973D01*
X133412503Y-114945200D01*
X133509123Y-115062933D01*
X133605743Y-115142225D01*
X133669084Y-115194208D01*
X133851580Y-115291755D01*
X134049600Y-115351823D01*
X134049599Y-115351823D01*
X134068063Y-115353641D01*
X134255534Y-115372106D01*
X134461468Y-115351823D01*
X134659488Y-115291755D01*
X134841984Y-115194208D01*
X135001944Y-115062933D01*
X135133219Y-114902973D01*
X135230766Y-114720477D01*
X135290834Y-114522457D01*
X135311117Y-114316523D01*
X135290834Y-114110589D01*
X135230766Y-113912569D01*
X135133219Y-113730073D01*
X135081236Y-113666732D01*
X135001944Y-113570112D01*
X134841986Y-113438840D01*
X134841987Y-113438840D01*
X134841984Y-113438838D01*
X134659488Y-113341291D01*
X134461468Y-113281223D01*
X134461466Y-113281222D01*
X134461468Y-113281222D01*
X134255534Y-113260940D01*
X134049601Y-113281222D01*
X133851573Y-113341293D01*
X133837334Y-113348904D01*
X133768931Y-113363143D01*
X133703688Y-113338139D01*
X133691206Y-113327224D01*
X133072353Y-112708371D01*
X133038868Y-112647048D01*
X133036034Y-112620690D01*
X133036034Y-112211172D01*
X133055719Y-112144133D01*
X133108523Y-112098378D01*
X133177681Y-112088434D01*
X133241237Y-112117459D01*
X133278694Y-112175178D01*
X133280302Y-112180477D01*
X133377849Y-112362973D01*
X133399587Y-112389461D01*
X133509123Y-112522933D01*
X133590118Y-112589403D01*
X133669084Y-112654208D01*
X133851580Y-112751755D01*
X134049600Y-112811823D01*
X134049599Y-112811823D01*
X134068063Y-112813641D01*
X134255534Y-112832106D01*
X134461468Y-112811823D01*
X134659488Y-112751755D01*
X134841984Y-112654208D01*
X135001944Y-112522933D01*
X135133219Y-112362973D01*
X135230766Y-112180477D01*
X135290834Y-111982457D01*
X135311117Y-111776523D01*
X135290834Y-111570589D01*
X135230766Y-111372569D01*
X135133219Y-111190073D01*
X135077561Y-111122253D01*
X135745034Y-111122253D01*
X135745034Y-112430792D01*
X135747887Y-112461222D01*
X135747887Y-112461224D01*
X135792740Y-112589403D01*
X135792741Y-112589405D01*
X135873384Y-112698673D01*
X135982652Y-112779316D01*
X136025379Y-112794267D01*
X136110833Y-112824169D01*
X136141264Y-112827023D01*
X136141268Y-112827023D01*
X137449804Y-112827023D01*
X137480233Y-112824169D01*
X137480235Y-112824169D01*
X137544324Y-112801742D01*
X137608416Y-112779316D01*
X137717684Y-112698673D01*
X137798327Y-112589405D01*
X137821586Y-112522933D01*
X137843180Y-112461224D01*
X137843180Y-112461222D01*
X137846034Y-112430792D01*
X137846034Y-112201023D01*
X137865719Y-112133984D01*
X137918523Y-112088229D01*
X137970034Y-112077023D01*
X139175094Y-112077023D01*
X139175096Y-112077023D01*
X139251523Y-112056544D01*
X139320045Y-112016983D01*
X139375994Y-111961034D01*
X141995994Y-109341034D01*
X142035556Y-109272511D01*
X142056034Y-109196085D01*
X142056034Y-109116961D01*
X142056034Y-104819512D01*
X143530034Y-104819512D01*
X143530034Y-106803533D01*
X143557254Y-106975395D01*
X143611028Y-107140892D01*
X143690028Y-107295934D01*
X143792300Y-107436701D01*
X143792304Y-107436706D01*
X143915350Y-107559752D01*
X143915355Y-107559756D01*
X144038139Y-107648963D01*
X144056126Y-107662031D01*
X144154915Y-107712367D01*
X144211164Y-107741028D01*
X144211166Y-107741028D01*
X144211169Y-107741030D01*
X144249351Y-107753436D01*
X144376661Y-107794802D01*
X144548524Y-107822023D01*
X144548529Y-107822023D01*
X144722544Y-107822023D01*
X144894406Y-107794802D01*
X144900343Y-107792873D01*
X145059899Y-107741030D01*
X145214942Y-107662031D01*
X145355719Y-107559751D01*
X145478762Y-107436708D01*
X145581042Y-107295931D01*
X145660041Y-107140888D01*
X145713813Y-106975395D01*
X145717260Y-106953629D01*
X145741034Y-106803533D01*
X145741034Y-104819512D01*
X145713813Y-104647650D01*
X145660039Y-104482153D01*
X145631378Y-104425904D01*
X145581042Y-104327115D01*
X145567974Y-104309128D01*
X145478767Y-104186344D01*
X145478763Y-104186339D01*
X145355717Y-104063293D01*
X145355712Y-104063289D01*
X145214945Y-103961017D01*
X145214944Y-103961016D01*
X145214942Y-103961015D01*
X145166526Y-103936346D01*
X145059903Y-103882017D01*
X144894406Y-103828243D01*
X144722544Y-103801023D01*
X144722539Y-103801023D01*
X144548529Y-103801023D01*
X144548524Y-103801023D01*
X144376661Y-103828243D01*
X144211164Y-103882017D01*
X144056122Y-103961017D01*
X143915355Y-104063289D01*
X143915350Y-104063293D01*
X143792304Y-104186339D01*
X143792300Y-104186344D01*
X143690028Y-104327111D01*
X143611028Y-104482153D01*
X143557254Y-104647650D01*
X143530034Y-104819512D01*
X142056034Y-104819512D01*
X142056034Y-102642356D01*
X142075719Y-102575317D01*
X142092353Y-102554675D01*
X144502353Y-100144675D01*
X147025994Y-97621034D01*
X147048181Y-97582605D01*
X147065555Y-97552512D01*
X147086034Y-97476085D01*
X147086034Y-84792356D01*
X147105719Y-84725317D01*
X147122353Y-84704675D01*
X148356695Y-83470333D01*
X149725994Y-82101034D01*
X149765556Y-82032511D01*
X149786034Y-81956085D01*
X149786034Y-81876961D01*
X149786034Y-81676961D01*
X149770259Y-81618088D01*
X149766034Y-81585995D01*
X149766034Y-76736367D01*
X149785719Y-76669328D01*
X149838523Y-76623573D01*
X149851710Y-76618438D01*
X149889899Y-76606030D01*
X150044942Y-76527031D01*
X150185719Y-76424751D01*
X150308762Y-76301708D01*
X150411042Y-76160931D01*
X150490041Y-76005888D01*
X150543813Y-75840395D01*
X150555152Y-75768805D01*
X150571034Y-75668533D01*
X150571034Y-73684512D01*
X153060034Y-73684512D01*
X153060034Y-75668533D01*
X153087254Y-75840395D01*
X153141028Y-76005892D01*
X153220028Y-76160934D01*
X153322300Y-76301701D01*
X153322304Y-76301706D01*
X153445350Y-76424752D01*
X153445355Y-76424756D01*
X153568139Y-76513963D01*
X153586126Y-76527031D01*
X153684915Y-76577367D01*
X153741164Y-76606028D01*
X153741166Y-76606028D01*
X153741169Y-76606030D01*
X153777175Y-76617729D01*
X153906661Y-76659802D01*
X154078524Y-76687023D01*
X154078529Y-76687023D01*
X154252544Y-76687023D01*
X154424406Y-76659802D01*
X154430343Y-76657873D01*
X154589899Y-76606030D01*
X154744942Y-76527031D01*
X154885719Y-76424751D01*
X155008762Y-76301708D01*
X155111042Y-76160931D01*
X155190041Y-76005888D01*
X155243813Y-75840395D01*
X155255152Y-75768805D01*
X155271034Y-75668533D01*
X155271034Y-73684512D01*
X155243813Y-73512650D01*
X155190039Y-73347153D01*
X155161378Y-73290904D01*
X155111042Y-73192115D01*
X155097974Y-73174128D01*
X155008767Y-73051344D01*
X155008763Y-73051339D01*
X154885717Y-72928293D01*
X154885712Y-72928289D01*
X154744945Y-72826017D01*
X154744944Y-72826016D01*
X154744942Y-72826015D01*
X154696526Y-72801346D01*
X154589903Y-72747017D01*
X154424406Y-72693243D01*
X154252544Y-72666023D01*
X154252539Y-72666023D01*
X154078529Y-72666023D01*
X154078524Y-72666023D01*
X153906661Y-72693243D01*
X153741164Y-72747017D01*
X153586122Y-72826017D01*
X153445355Y-72928289D01*
X153445350Y-72928293D01*
X153322304Y-73051339D01*
X153322300Y-73051344D01*
X153220028Y-73192111D01*
X153141028Y-73347153D01*
X153087254Y-73512650D01*
X153060034Y-73684512D01*
X150571034Y-73684512D01*
X150543813Y-73512650D01*
X150490039Y-73347153D01*
X150461378Y-73290904D01*
X150411042Y-73192115D01*
X150397974Y-73174128D01*
X150308767Y-73051344D01*
X150308763Y-73051339D01*
X150185717Y-72928293D01*
X150185712Y-72928289D01*
X150044946Y-72826017D01*
X150034516Y-72820703D01*
X149889899Y-72747016D01*
X149871092Y-72740905D01*
X149813418Y-72701465D01*
X149786222Y-72637106D01*
X149798138Y-72568260D01*
X149821730Y-72535297D01*
X150013686Y-72343342D01*
X150075009Y-72309857D01*
X150101367Y-72307023D01*
X159850408Y-72307023D01*
X159917447Y-72326708D01*
X159938089Y-72343342D01*
X160895002Y-73300255D01*
X160928487Y-73361578D01*
X160923503Y-73431270D01*
X160881631Y-73487203D01*
X160831514Y-73509553D01*
X160761000Y-73523579D01*
X160760991Y-73523582D01*
X160627150Y-73579020D01*
X160627137Y-73579027D01*
X160506680Y-73659515D01*
X160506676Y-73659518D01*
X160428215Y-73737980D01*
X160366892Y-73771465D01*
X160297200Y-73766481D01*
X160252853Y-73737980D01*
X160174391Y-73659518D01*
X160174387Y-73659515D01*
X160053930Y-73579027D01*
X160053917Y-73579020D01*
X159920076Y-73523582D01*
X159920064Y-73523579D01*
X159777978Y-73495316D01*
X159777974Y-73495316D01*
X159633094Y-73495316D01*
X159633089Y-73495316D01*
X159491003Y-73523579D01*
X159490991Y-73523582D01*
X159357150Y-73579020D01*
X159357137Y-73579027D01*
X159236680Y-73659515D01*
X159236676Y-73659518D01*
X159134236Y-73761958D01*
X159134233Y-73761962D01*
X159053745Y-73882419D01*
X159053738Y-73882432D01*
X158998300Y-74016273D01*
X158998297Y-74016285D01*
X158970034Y-74158371D01*
X158970034Y-75033260D01*
X158998297Y-75175346D01*
X158998300Y-75175358D01*
X159053738Y-75309199D01*
X159053745Y-75309212D01*
X159134233Y-75429669D01*
X159134236Y-75429673D01*
X159236676Y-75532113D01*
X159236680Y-75532116D01*
X159357137Y-75612604D01*
X159357150Y-75612611D01*
X159424165Y-75640369D01*
X159490996Y-75668051D01*
X159633089Y-75696315D01*
X159633093Y-75696316D01*
X159633094Y-75696316D01*
X159777975Y-75696316D01*
X159777976Y-75696315D01*
X159920072Y-75668051D01*
X160053924Y-75612608D01*
X160174388Y-75532116D01*
X160190940Y-75515564D01*
X160252853Y-75453652D01*
X160314176Y-75420167D01*
X160383868Y-75425151D01*
X160428215Y-75453652D01*
X160506676Y-75532113D01*
X160506680Y-75532116D01*
X160627137Y-75612604D01*
X160627150Y-75612611D01*
X160694165Y-75640369D01*
X160760996Y-75668051D01*
X160903089Y-75696315D01*
X160903093Y-75696316D01*
X160903094Y-75696316D01*
X161047975Y-75696316D01*
X161047976Y-75696315D01*
X161190072Y-75668051D01*
X161323924Y-75612608D01*
X161444388Y-75532116D01*
X161460940Y-75515564D01*
X161522853Y-75453652D01*
X161584176Y-75420167D01*
X161653868Y-75425151D01*
X161698215Y-75453652D01*
X161776676Y-75532113D01*
X161776680Y-75532116D01*
X161897137Y-75612604D01*
X161897150Y-75612611D01*
X161964165Y-75640369D01*
X162030996Y-75668051D01*
X162173089Y-75696315D01*
X162173093Y-75696316D01*
X162173094Y-75696316D01*
X162317975Y-75696316D01*
X162317976Y-75696315D01*
X162460072Y-75668051D01*
X162593924Y-75612608D01*
X162645341Y-75578251D01*
X162712018Y-75557373D01*
X162779398Y-75575857D01*
X162817334Y-75612460D01*
X162817433Y-75612608D01*
X162835982Y-75640369D01*
X162902303Y-75684683D01*
X162902304Y-75684684D01*
X162960781Y-75696315D01*
X162960784Y-75696316D01*
X162960786Y-75696316D01*
X163091034Y-75696316D01*
X163158073Y-75716001D01*
X163203828Y-75768805D01*
X163215034Y-75820316D01*
X163215034Y-76550690D01*
X163195349Y-76617729D01*
X163178715Y-76638371D01*
X161549882Y-78267204D01*
X161488559Y-78300689D01*
X161462201Y-78303523D01*
X159907386Y-78303523D01*
X159840347Y-78283838D01*
X159794592Y-78231034D01*
X159790345Y-78220478D01*
X159779820Y-78190402D01*
X159764650Y-78147048D01*
X159686245Y-78040812D01*
X159686244Y-78040811D01*
X159580010Y-77962407D01*
X159455382Y-77918797D01*
X159455383Y-77918797D01*
X159425794Y-77916023D01*
X159425790Y-77916023D01*
X158845278Y-77916023D01*
X158845274Y-77916023D01*
X158815684Y-77918797D01*
X158691057Y-77962407D01*
X158584823Y-78040811D01*
X158584822Y-78040812D01*
X158506418Y-78147046D01*
X158462808Y-78271673D01*
X158460034Y-78301262D01*
X158460034Y-78906783D01*
X158462808Y-78936372D01*
X158506418Y-79060999D01*
X158584822Y-79167233D01*
X158584823Y-79167234D01*
X158691057Y-79245638D01*
X158691058Y-79245638D01*
X158691059Y-79245639D01*
X158815685Y-79289248D01*
X158815684Y-79289248D01*
X158845274Y-79292023D01*
X158845278Y-79292023D01*
X159425794Y-79292023D01*
X159455383Y-79289248D01*
X159580009Y-79245639D01*
X159686245Y-79167234D01*
X159764650Y-79060998D01*
X159790345Y-78987568D01*
X159831067Y-78930792D01*
X159896020Y-78905045D01*
X159907386Y-78904523D01*
X161677594Y-78904523D01*
X161677596Y-78904523D01*
X161754023Y-78884044D01*
X161822545Y-78844483D01*
X161878494Y-78788534D01*
X163755994Y-76911034D01*
X163795555Y-76842512D01*
X163816034Y-76766085D01*
X163816034Y-75820316D01*
X163835719Y-75753277D01*
X163888523Y-75707522D01*
X163940034Y-75696316D01*
X164070284Y-75696316D01*
X164070285Y-75696315D01*
X164085102Y-75693368D01*
X164128763Y-75684684D01*
X164128763Y-75684683D01*
X164128765Y-75684683D01*
X164195086Y-75640368D01*
X164239401Y-75574047D01*
X164239401Y-75574045D01*
X164239402Y-75574045D01*
X164251033Y-75515568D01*
X164251034Y-75515566D01*
X164251034Y-73676065D01*
X164251033Y-73676063D01*
X164239402Y-73617586D01*
X164239401Y-73617585D01*
X164195086Y-73551263D01*
X164128764Y-73506948D01*
X164128763Y-73506947D01*
X164070286Y-73495316D01*
X164070282Y-73495316D01*
X162960786Y-73495316D01*
X162960781Y-73495316D01*
X162902304Y-73506947D01*
X162902303Y-73506948D01*
X162835981Y-73551263D01*
X162817334Y-73579171D01*
X162763721Y-73623975D01*
X162694396Y-73632681D01*
X162645342Y-73613380D01*
X162593930Y-73579027D01*
X162593917Y-73579020D01*
X162460076Y-73523582D01*
X162460064Y-73523579D01*
X162317978Y-73495316D01*
X162317974Y-73495316D01*
X162173094Y-73495316D01*
X162173089Y-73495316D01*
X162043682Y-73521057D01*
X161974090Y-73514830D01*
X161931810Y-73487121D01*
X160210753Y-71766064D01*
X160210745Y-71766058D01*
X160142236Y-71726505D01*
X160142231Y-71726502D01*
X160116754Y-71719675D01*
X160065803Y-71706023D01*
X149885972Y-71706023D01*
X149847758Y-71716262D01*
X149809543Y-71726502D01*
X149809538Y-71726505D01*
X149741029Y-71766058D01*
X149741021Y-71766064D01*
X149225075Y-72282010D01*
X149225069Y-72282018D01*
X149185516Y-72350527D01*
X149185513Y-72350532D01*
X149165034Y-72426962D01*
X149165034Y-72616678D01*
X149145349Y-72683717D01*
X149092545Y-72729472D01*
X149079354Y-72734608D01*
X149041174Y-72747014D01*
X149041171Y-72747015D01*
X149041169Y-72747016D01*
X148963647Y-72786515D01*
X148886121Y-72826017D01*
X148745355Y-72928289D01*
X148745350Y-72928293D01*
X148622304Y-73051339D01*
X148622300Y-73051344D01*
X148520028Y-73192111D01*
X148441028Y-73347153D01*
X148387254Y-73512650D01*
X148360034Y-73684512D01*
X148360034Y-75668533D01*
X148387254Y-75840395D01*
X148441028Y-76005892D01*
X148520028Y-76160934D01*
X148622300Y-76301701D01*
X148622304Y-76301706D01*
X148745350Y-76424752D01*
X148745355Y-76424756D01*
X148868139Y-76513963D01*
X148886126Y-76527031D01*
X149041169Y-76606030D01*
X149079352Y-76618436D01*
X149137027Y-76657873D01*
X149164226Y-76722232D01*
X149165034Y-76736367D01*
X149165034Y-81736082D01*
X149165890Y-81742584D01*
X149155125Y-81811619D01*
X149130632Y-81846452D01*
X146601023Y-84376063D01*
X146545075Y-84432010D01*
X146545069Y-84432018D01*
X146505516Y-84500527D01*
X146505513Y-84500532D01*
X146485034Y-84576962D01*
X146485034Y-97260690D01*
X146465349Y-97327729D01*
X146448715Y-97348371D01*
X141515075Y-102282010D01*
X141515069Y-102282018D01*
X141475516Y-102350527D01*
X141475511Y-102350538D01*
X141464808Y-102390483D01*
X141428443Y-102450143D01*
X141365596Y-102480671D01*
X141296220Y-102472376D01*
X141242343Y-102427890D01*
X141221069Y-102361338D01*
X141221034Y-102358388D01*
X141221034Y-99486964D01*
X141221034Y-99486961D01*
X141217793Y-99474865D01*
X141200556Y-99410535D01*
X141160994Y-99342012D01*
X140330045Y-98511063D01*
X139235045Y-97416063D01*
X139201959Y-97396961D01*
X139201957Y-97396960D01*
X139201956Y-97396958D01*
X139166528Y-97376504D01*
X139166525Y-97376502D01*
X139128309Y-97366262D01*
X139090096Y-97356023D01*
X139090094Y-97356023D01*
X137924113Y-97356023D01*
X137857074Y-97336338D01*
X137811319Y-97283534D01*
X137805453Y-97268020D01*
X137803229Y-97260690D01*
X137800766Y-97252569D01*
X137703219Y-97070073D01*
X137651236Y-97006732D01*
X137571944Y-96910112D01*
X137411986Y-96778840D01*
X137411987Y-96778840D01*
X137411984Y-96778838D01*
X137229488Y-96681291D01*
X137031468Y-96621223D01*
X137031466Y-96621222D01*
X137031468Y-96621222D01*
X136825534Y-96600940D01*
X136619601Y-96621222D01*
X136421577Y-96681292D01*
X136355245Y-96716748D01*
X136239084Y-96778838D01*
X136239082Y-96778839D01*
X136239081Y-96778840D01*
X136079123Y-96910112D01*
X135947851Y-97070070D01*
X135947849Y-97070073D01*
X135935854Y-97092514D01*
X135850303Y-97252566D01*
X135790233Y-97450590D01*
X135769951Y-97656523D01*
X135790233Y-97862455D01*
X135790234Y-97862457D01*
X135850302Y-98060477D01*
X135947849Y-98242973D01*
X135947851Y-98242975D01*
X136079123Y-98402933D01*
X136174313Y-98481052D01*
X136239084Y-98534208D01*
X136421580Y-98631755D01*
X136619600Y-98691823D01*
X136619599Y-98691823D01*
X136638063Y-98693641D01*
X136825534Y-98712106D01*
X137031468Y-98691823D01*
X137229488Y-98631755D01*
X137411984Y-98534208D01*
X137571944Y-98402933D01*
X137703219Y-98242973D01*
X137800766Y-98060477D01*
X137805453Y-98045026D01*
X137843751Y-97986588D01*
X137907564Y-97958132D01*
X137924113Y-97957023D01*
X138874701Y-97957023D01*
X138941740Y-97976708D01*
X138962382Y-97993342D01*
X140583715Y-99614675D01*
X140617200Y-99675998D01*
X140620034Y-99702356D01*
X140620034Y-104612783D01*
X140600349Y-104679822D01*
X140589747Y-104693985D01*
X140495159Y-104803145D01*
X140495156Y-104803151D01*
X140435368Y-104934066D01*
X140414887Y-105076523D01*
X140435368Y-105218979D01*
X140495156Y-105349894D01*
X140495159Y-105349900D01*
X140501655Y-105357396D01*
X140530680Y-105420951D01*
X140524564Y-105463483D01*
X140541390Y-105457208D01*
X140609663Y-105472060D01*
X140617275Y-105476577D01*
X140710478Y-105536475D01*
X140710483Y-105536477D01*
X140848570Y-105577022D01*
X140848572Y-105577023D01*
X140848573Y-105577023D01*
X140992496Y-105577023D01*
X140992496Y-105577022D01*
X141130587Y-105536476D01*
X141251662Y-105458666D01*
X141251662Y-105458665D01*
X141259123Y-105453871D01*
X141260185Y-105455524D01*
X141313381Y-105431228D01*
X141382540Y-105441168D01*
X141435346Y-105486921D01*
X141455034Y-105553959D01*
X141455034Y-108980690D01*
X141435349Y-109047729D01*
X141418715Y-109068371D01*
X139047382Y-111439704D01*
X138986059Y-111473189D01*
X138959701Y-111476023D01*
X137970034Y-111476023D01*
X137902995Y-111456338D01*
X137857240Y-111403534D01*
X137846034Y-111352023D01*
X137846034Y-111122253D01*
X137843180Y-111091823D01*
X137843180Y-111091821D01*
X137808004Y-110991297D01*
X137798327Y-110963641D01*
X137717684Y-110854373D01*
X137608416Y-110773730D01*
X137608414Y-110773729D01*
X137480234Y-110728876D01*
X137449804Y-110726023D01*
X137449800Y-110726023D01*
X136141268Y-110726023D01*
X136141264Y-110726023D01*
X136110834Y-110728876D01*
X136110832Y-110728876D01*
X135982653Y-110773729D01*
X135982651Y-110773730D01*
X135873384Y-110854373D01*
X135792741Y-110963640D01*
X135792740Y-110963642D01*
X135747887Y-111091821D01*
X135747887Y-111091823D01*
X135745034Y-111122253D01*
X135077561Y-111122253D01*
X135070223Y-111113312D01*
X135001944Y-111030112D01*
X134884211Y-110933492D01*
X134841984Y-110898838D01*
X134659488Y-110801291D01*
X134461468Y-110741223D01*
X134461466Y-110741222D01*
X134461468Y-110741222D01*
X134255534Y-110720940D01*
X134049601Y-110741222D01*
X133851577Y-110801292D01*
X133780607Y-110839227D01*
X133669084Y-110898838D01*
X133669082Y-110898839D01*
X133669081Y-110898840D01*
X133509123Y-111030112D01*
X133377851Y-111190070D01*
X133280301Y-111372569D01*
X133278694Y-111377869D01*
X133240397Y-111436307D01*
X133176584Y-111464764D01*
X133107517Y-111454203D01*
X133055124Y-111407978D01*
X133036034Y-111341873D01*
X133036034Y-102491356D01*
X133055719Y-102424317D01*
X133108523Y-102378562D01*
X133177681Y-102368618D01*
X133241237Y-102397643D01*
X133247715Y-102403675D01*
X134636023Y-103791983D01*
X134695363Y-103826243D01*
X134698828Y-103828244D01*
X134704546Y-103831545D01*
X134780972Y-103852023D01*
X137744701Y-103852023D01*
X137811740Y-103871708D01*
X137832382Y-103888342D01*
X140283715Y-106339675D01*
X140317200Y-106400998D01*
X140320034Y-106427356D01*
X140320034Y-107362783D01*
X140300349Y-107429822D01*
X140289747Y-107443985D01*
X140195159Y-107553145D01*
X140195156Y-107553151D01*
X140135368Y-107684066D01*
X140114887Y-107826523D01*
X140135368Y-107968979D01*
X140195156Y-108099894D01*
X140195157Y-108099896D01*
X140289406Y-108208666D01*
X140410481Y-108286476D01*
X140410484Y-108286477D01*
X140410483Y-108286477D01*
X140548570Y-108327022D01*
X140548572Y-108327023D01*
X140548573Y-108327023D01*
X140692496Y-108327023D01*
X140692496Y-108327022D01*
X140830587Y-108286476D01*
X140951662Y-108208666D01*
X141045911Y-108099896D01*
X141105699Y-107968980D01*
X141126181Y-107826523D01*
X141105699Y-107684066D01*
X141045911Y-107553150D01*
X141045909Y-107553148D01*
X141045908Y-107553145D01*
X140951321Y-107443985D01*
X140922296Y-107380429D01*
X140921034Y-107362783D01*
X140921034Y-106211963D01*
X140921034Y-106211961D01*
X140900556Y-106135535D01*
X140860994Y-106067012D01*
X140462555Y-105668573D01*
X140429070Y-105607250D01*
X140432784Y-105555303D01*
X140407941Y-105562598D01*
X140340902Y-105542913D01*
X140320261Y-105526279D01*
X138105046Y-103311064D01*
X138105038Y-103311058D01*
X138036529Y-103271505D01*
X138036524Y-103271502D01*
X138011047Y-103264675D01*
X137960096Y-103251023D01*
X137960094Y-103251023D01*
X134996367Y-103251023D01*
X134929328Y-103231338D01*
X134908686Y-103214704D01*
X133472353Y-101778371D01*
X133438868Y-101717048D01*
X133436034Y-101690690D01*
X133436034Y-101120505D01*
X133455719Y-101053466D01*
X133508523Y-101007711D01*
X133577681Y-100997767D01*
X133638699Y-101024652D01*
X133699080Y-101074205D01*
X133699084Y-101074208D01*
X133881580Y-101171755D01*
X134079600Y-101231823D01*
X134079599Y-101231823D01*
X134098063Y-101233641D01*
X134285534Y-101252106D01*
X134491468Y-101231823D01*
X134689488Y-101171755D01*
X134871984Y-101074208D01*
X135031944Y-100942933D01*
X135163219Y-100782973D01*
X135260766Y-100600477D01*
X135320834Y-100402457D01*
X135341117Y-100196523D01*
X135769951Y-100196523D01*
X135790233Y-100402455D01*
X135790234Y-100402457D01*
X135850302Y-100600477D01*
X135947849Y-100782973D01*
X135947851Y-100782975D01*
X136079123Y-100942933D01*
X136145940Y-100997767D01*
X136239084Y-101074208D01*
X136421580Y-101171755D01*
X136619600Y-101231823D01*
X136619599Y-101231823D01*
X136638063Y-101233641D01*
X136825534Y-101252106D01*
X137031468Y-101231823D01*
X137229488Y-101171755D01*
X137411984Y-101074208D01*
X137571944Y-100942933D01*
X137703219Y-100782973D01*
X137800766Y-100600477D01*
X137860834Y-100402457D01*
X137881117Y-100196523D01*
X137860834Y-99990589D01*
X137800766Y-99792569D01*
X137703219Y-99610073D01*
X137602187Y-99486964D01*
X137571944Y-99450112D01*
X137411986Y-99318840D01*
X137411987Y-99318840D01*
X137411984Y-99318838D01*
X137229488Y-99221291D01*
X137031468Y-99161223D01*
X137031466Y-99161222D01*
X137031468Y-99161222D01*
X136825534Y-99140940D01*
X136619601Y-99161222D01*
X136421577Y-99221292D01*
X136325701Y-99272540D01*
X136239084Y-99318838D01*
X136239082Y-99318839D01*
X136239081Y-99318840D01*
X136079123Y-99450112D01*
X135947851Y-99610070D01*
X135947849Y-99610073D01*
X135925976Y-99650994D01*
X135850303Y-99792566D01*
X135790233Y-99990590D01*
X135769951Y-100196523D01*
X135341117Y-100196523D01*
X135320834Y-99990589D01*
X135260766Y-99792569D01*
X135163219Y-99610073D01*
X135062187Y-99486964D01*
X135031944Y-99450112D01*
X134871986Y-99318840D01*
X134871987Y-99318840D01*
X134871984Y-99318838D01*
X134689488Y-99221291D01*
X134491468Y-99161223D01*
X134491466Y-99161222D01*
X134491468Y-99161222D01*
X134285534Y-99140940D01*
X134079601Y-99161222D01*
X133881577Y-99221292D01*
X133699080Y-99318840D01*
X133638698Y-99368394D01*
X133574387Y-99395706D01*
X133505520Y-99383914D01*
X133453960Y-99336761D01*
X133436034Y-99272540D01*
X133436034Y-98982355D01*
X133455719Y-98915316D01*
X133472349Y-98894678D01*
X133721206Y-98645820D01*
X133782529Y-98612336D01*
X133852221Y-98617320D01*
X133867339Y-98624143D01*
X133881580Y-98631755D01*
X134079600Y-98691823D01*
X134079599Y-98691823D01*
X134098063Y-98693641D01*
X134285534Y-98712106D01*
X134491468Y-98691823D01*
X134689488Y-98631755D01*
X134871984Y-98534208D01*
X135031944Y-98402933D01*
X135163219Y-98242973D01*
X135260766Y-98060477D01*
X135320834Y-97862457D01*
X135341117Y-97656523D01*
X135320834Y-97450589D01*
X135260766Y-97252569D01*
X135163219Y-97070073D01*
X135111236Y-97006732D01*
X135031944Y-96910112D01*
X134871986Y-96778840D01*
X134871987Y-96778840D01*
X134871984Y-96778838D01*
X134689488Y-96681291D01*
X134491468Y-96621223D01*
X134491466Y-96621222D01*
X134491468Y-96621222D01*
X134285534Y-96600940D01*
X134079601Y-96621222D01*
X133881577Y-96681292D01*
X133815245Y-96716748D01*
X133699084Y-96778838D01*
X133699082Y-96778839D01*
X133699081Y-96778840D01*
X133539123Y-96910112D01*
X133407851Y-97070070D01*
X133407849Y-97070073D01*
X133395854Y-97092514D01*
X133310303Y-97252566D01*
X133278695Y-97356765D01*
X133240397Y-97415204D01*
X133176585Y-97443660D01*
X133107518Y-97433100D01*
X133055124Y-97386876D01*
X133036034Y-97320770D01*
X133036034Y-95452275D01*
X133055719Y-95385236D01*
X133108523Y-95339481D01*
X133177681Y-95329537D01*
X133241237Y-95358562D01*
X133278694Y-95416278D01*
X133310302Y-95520477D01*
X133407849Y-95702973D01*
X133442503Y-95745200D01*
X133539123Y-95862933D01*
X133635743Y-95942225D01*
X133699084Y-95994208D01*
X133881580Y-96091755D01*
X134079600Y-96151823D01*
X134079599Y-96151823D01*
X134098063Y-96153641D01*
X134285534Y-96172106D01*
X134491468Y-96151823D01*
X134689488Y-96091755D01*
X134871984Y-95994208D01*
X135031944Y-95862933D01*
X135163219Y-95702973D01*
X135260766Y-95520477D01*
X135320834Y-95322457D01*
X135341117Y-95116523D01*
X135769951Y-95116523D01*
X135790233Y-95322455D01*
X135810694Y-95389907D01*
X135850302Y-95520477D01*
X135947849Y-95702973D01*
X135982503Y-95745200D01*
X136079123Y-95862933D01*
X136175743Y-95942225D01*
X136239084Y-95994208D01*
X136421580Y-96091755D01*
X136619600Y-96151823D01*
X136619599Y-96151823D01*
X136638063Y-96153641D01*
X136825534Y-96172106D01*
X137031468Y-96151823D01*
X137229488Y-96091755D01*
X137411984Y-95994208D01*
X137571944Y-95862933D01*
X137703219Y-95702973D01*
X137800766Y-95520477D01*
X137860834Y-95322457D01*
X137881117Y-95116523D01*
X137860834Y-94910589D01*
X137800766Y-94712569D01*
X137703219Y-94530073D01*
X137651236Y-94466732D01*
X137571944Y-94370112D01*
X137411986Y-94238840D01*
X137411987Y-94238840D01*
X137411984Y-94238838D01*
X137229488Y-94141291D01*
X137031468Y-94081223D01*
X137031466Y-94081222D01*
X137031468Y-94081222D01*
X136825534Y-94060940D01*
X136619601Y-94081222D01*
X136421577Y-94141292D01*
X136311432Y-94200166D01*
X136239084Y-94238838D01*
X136239082Y-94238839D01*
X136239081Y-94238840D01*
X136079123Y-94370112D01*
X135947851Y-94530070D01*
X135947849Y-94530073D01*
X135943146Y-94538872D01*
X135850303Y-94712566D01*
X135790233Y-94910590D01*
X135769951Y-95116523D01*
X135341117Y-95116523D01*
X135320834Y-94910589D01*
X135260766Y-94712569D01*
X135163219Y-94530073D01*
X135111236Y-94466732D01*
X135031944Y-94370112D01*
X134871986Y-94238840D01*
X134871987Y-94238840D01*
X134871984Y-94238838D01*
X134689488Y-94141291D01*
X134491468Y-94081223D01*
X134491466Y-94081222D01*
X134491468Y-94081222D01*
X134285534Y-94060940D01*
X134079601Y-94081222D01*
X133881577Y-94141292D01*
X133771432Y-94200166D01*
X133699084Y-94238838D01*
X133699082Y-94238839D01*
X133699081Y-94238840D01*
X133539123Y-94370112D01*
X133407851Y-94530070D01*
X133407849Y-94530073D01*
X133403146Y-94538872D01*
X133310303Y-94712566D01*
X133310302Y-94712568D01*
X133310302Y-94712569D01*
X133292962Y-94769734D01*
X133278695Y-94816765D01*
X133240397Y-94875204D01*
X133176585Y-94903660D01*
X133107518Y-94893100D01*
X133055124Y-94846876D01*
X133036034Y-94780770D01*
X133036034Y-92912275D01*
X133055719Y-92845236D01*
X133108523Y-92799481D01*
X133177681Y-92789537D01*
X133241237Y-92818562D01*
X133278694Y-92876278D01*
X133310302Y-92980477D01*
X133407849Y-93162973D01*
X133407851Y-93162975D01*
X133539123Y-93322933D01*
X133635743Y-93402225D01*
X133699084Y-93454208D01*
X133881580Y-93551755D01*
X134079600Y-93611823D01*
X134079599Y-93611823D01*
X134098063Y-93613641D01*
X134285534Y-93632106D01*
X134491468Y-93611823D01*
X134689488Y-93551755D01*
X134871984Y-93454208D01*
X135031944Y-93322933D01*
X135163219Y-93162973D01*
X135260766Y-92980477D01*
X135320834Y-92782457D01*
X135341117Y-92576523D01*
X135769951Y-92576523D01*
X135790233Y-92782455D01*
X135818695Y-92876280D01*
X135850302Y-92980477D01*
X135947849Y-93162973D01*
X135947851Y-93162975D01*
X136079123Y-93322933D01*
X136175743Y-93402225D01*
X136239084Y-93454208D01*
X136421580Y-93551755D01*
X136619600Y-93611823D01*
X136619599Y-93611823D01*
X136638063Y-93613641D01*
X136825534Y-93632106D01*
X137031468Y-93611823D01*
X137229488Y-93551755D01*
X137411984Y-93454208D01*
X137571944Y-93322933D01*
X137703219Y-93162973D01*
X137800766Y-92980477D01*
X137860834Y-92782457D01*
X137881117Y-92576523D01*
X137860834Y-92370589D01*
X137800766Y-92172569D01*
X137703219Y-91990073D01*
X137635547Y-91907614D01*
X137571944Y-91830112D01*
X137411986Y-91698840D01*
X137411987Y-91698840D01*
X137411984Y-91698838D01*
X137229488Y-91601291D01*
X137031468Y-91541223D01*
X137031466Y-91541222D01*
X137031468Y-91541222D01*
X136825534Y-91520940D01*
X136619601Y-91541222D01*
X136421577Y-91601292D01*
X136311432Y-91660166D01*
X136239084Y-91698838D01*
X136239082Y-91698839D01*
X136239081Y-91698840D01*
X136079123Y-91830112D01*
X135947851Y-91990070D01*
X135947849Y-91990073D01*
X135909177Y-92062421D01*
X135850303Y-92172566D01*
X135850302Y-92172568D01*
X135850302Y-92172569D01*
X135849464Y-92175333D01*
X135790233Y-92370590D01*
X135769951Y-92576523D01*
X135341117Y-92576523D01*
X135320834Y-92370589D01*
X135260766Y-92172569D01*
X135163219Y-91990073D01*
X135095547Y-91907614D01*
X135031944Y-91830112D01*
X134871986Y-91698840D01*
X134871987Y-91698840D01*
X134871984Y-91698838D01*
X134689488Y-91601291D01*
X134491468Y-91541223D01*
X134491466Y-91541222D01*
X134491468Y-91541222D01*
X134285534Y-91520940D01*
X134079601Y-91541222D01*
X133881577Y-91601292D01*
X133771432Y-91660166D01*
X133699084Y-91698838D01*
X133699082Y-91698839D01*
X133699081Y-91698840D01*
X133539123Y-91830112D01*
X133407851Y-91990070D01*
X133407849Y-91990073D01*
X133369177Y-92062421D01*
X133310303Y-92172566D01*
X133310302Y-92172568D01*
X133310302Y-92172569D01*
X133290810Y-92236828D01*
X133278695Y-92276765D01*
X133240397Y-92335204D01*
X133176585Y-92363660D01*
X133107518Y-92353100D01*
X133055124Y-92306876D01*
X133036034Y-92240770D01*
X133036034Y-90372275D01*
X133055719Y-90305236D01*
X133108523Y-90259481D01*
X133177681Y-90249537D01*
X133241237Y-90278562D01*
X133278694Y-90336278D01*
X133310302Y-90440477D01*
X133407849Y-90622973D01*
X133416436Y-90633436D01*
X133539123Y-90782933D01*
X133620118Y-90849403D01*
X133699084Y-90914208D01*
X133881580Y-91011755D01*
X134079600Y-91071823D01*
X134079599Y-91071823D01*
X134098063Y-91073641D01*
X134285534Y-91092106D01*
X134491468Y-91071823D01*
X134689488Y-91011755D01*
X134871984Y-90914208D01*
X135031944Y-90782933D01*
X135163219Y-90622973D01*
X135260766Y-90440477D01*
X135320834Y-90242457D01*
X135341117Y-90036523D01*
X135320834Y-89830589D01*
X135260766Y-89632569D01*
X135163219Y-89450073D01*
X135107561Y-89382253D01*
X135775034Y-89382253D01*
X135775034Y-90690792D01*
X135777887Y-90721222D01*
X135777887Y-90721224D01*
X135822740Y-90849403D01*
X135822741Y-90849405D01*
X135903384Y-90958673D01*
X136012652Y-91039316D01*
X136054125Y-91053828D01*
X136140833Y-91084169D01*
X136171264Y-91087023D01*
X136171268Y-91087023D01*
X137479804Y-91087023D01*
X137510233Y-91084169D01*
X137510235Y-91084169D01*
X137574324Y-91061742D01*
X137638416Y-91039316D01*
X137747684Y-90958673D01*
X137828327Y-90849405D01*
X137851586Y-90782933D01*
X137873180Y-90721224D01*
X137873180Y-90721222D01*
X137876034Y-90690792D01*
X137876034Y-89382253D01*
X137873180Y-89351823D01*
X137873180Y-89351821D01*
X137839540Y-89255686D01*
X137828327Y-89223641D01*
X137747684Y-89114373D01*
X137638416Y-89033730D01*
X137638414Y-89033729D01*
X137510234Y-88988876D01*
X137479804Y-88986023D01*
X137479800Y-88986023D01*
X136171268Y-88986023D01*
X136171264Y-88986023D01*
X136140834Y-88988876D01*
X136140832Y-88988876D01*
X136012653Y-89033729D01*
X136012651Y-89033730D01*
X135903384Y-89114373D01*
X135822741Y-89223640D01*
X135822740Y-89223642D01*
X135777887Y-89351821D01*
X135777887Y-89351823D01*
X135775034Y-89382253D01*
X135107561Y-89382253D01*
X135071372Y-89338156D01*
X135031944Y-89290112D01*
X134871986Y-89158840D01*
X134871987Y-89158840D01*
X134871984Y-89158838D01*
X134689488Y-89061291D01*
X134491468Y-89001223D01*
X134491466Y-89001222D01*
X134491468Y-89001222D01*
X134285534Y-88980940D01*
X134079601Y-89001222D01*
X133881577Y-89061292D01*
X133817595Y-89095492D01*
X133699084Y-89158838D01*
X133699082Y-89158839D01*
X133699081Y-89158840D01*
X133539123Y-89290112D01*
X133407851Y-89450070D01*
X133407849Y-89450073D01*
X133390462Y-89482602D01*
X133310303Y-89632566D01*
X133278695Y-89736765D01*
X133240397Y-89795204D01*
X133176585Y-89823660D01*
X133107518Y-89813100D01*
X133055124Y-89766876D01*
X133036034Y-89700770D01*
X133036034Y-89337356D01*
X133055719Y-89270317D01*
X133072353Y-89249675D01*
X135358686Y-86963342D01*
X135420009Y-86929857D01*
X135446367Y-86927023D01*
X138669701Y-86927023D01*
X138736740Y-86946708D01*
X138757382Y-86963342D01*
X140458715Y-88664675D01*
X140492200Y-88725998D01*
X140495034Y-88752356D01*
X140495034Y-92017555D01*
X140515513Y-92093982D01*
X140515514Y-92093985D01*
X140517887Y-92098093D01*
X140517891Y-92098109D01*
X140517895Y-92098107D01*
X140555073Y-92162502D01*
X140555075Y-92162505D01*
X140567903Y-92175333D01*
X140601388Y-92236656D01*
X140602960Y-92280660D01*
X140601652Y-92289757D01*
X140622133Y-92432214D01*
X140629512Y-92448371D01*
X140681922Y-92563131D01*
X140776171Y-92671901D01*
X140897246Y-92749711D01*
X140897249Y-92749712D01*
X140897248Y-92749712D01*
X141004406Y-92781175D01*
X141032882Y-92789537D01*
X141035335Y-92790257D01*
X141035337Y-92790258D01*
X141035338Y-92790258D01*
X141179261Y-92790258D01*
X141179261Y-92790257D01*
X141317352Y-92749711D01*
X141438427Y-92671901D01*
X141532676Y-92563131D01*
X141592464Y-92432215D01*
X141612946Y-92289758D01*
X141592464Y-92147301D01*
X141532676Y-92016385D01*
X141438427Y-91907615D01*
X141317352Y-91829805D01*
X141317350Y-91829804D01*
X141317348Y-91829803D01*
X141317349Y-91829803D01*
X141185100Y-91790972D01*
X141126321Y-91753198D01*
X141097296Y-91689642D01*
X141096034Y-91671995D01*
X141096034Y-89252012D01*
X143530034Y-89252012D01*
X143530034Y-91236033D01*
X143557254Y-91407895D01*
X143611028Y-91573392D01*
X143661270Y-91671995D01*
X143674947Y-91698838D01*
X143690028Y-91728434D01*
X143792300Y-91869201D01*
X143792304Y-91869206D01*
X143915350Y-91992252D01*
X143915355Y-91992256D01*
X144038139Y-92081463D01*
X144056126Y-92094531D01*
X144154915Y-92144867D01*
X144211164Y-92173528D01*
X144211166Y-92173528D01*
X144211169Y-92173530D01*
X144249351Y-92185936D01*
X144376661Y-92227302D01*
X144548524Y-92254523D01*
X144548529Y-92254523D01*
X144722544Y-92254523D01*
X144894406Y-92227302D01*
X144900343Y-92225373D01*
X145059899Y-92173530D01*
X145214942Y-92094531D01*
X145355719Y-91992251D01*
X145478762Y-91869208D01*
X145581042Y-91728431D01*
X145660041Y-91573388D01*
X145713813Y-91407895D01*
X145741034Y-91236033D01*
X145741034Y-89252012D01*
X145713813Y-89080150D01*
X145660039Y-88914653D01*
X145631378Y-88858404D01*
X145581042Y-88759615D01*
X145538452Y-88700994D01*
X145478767Y-88618844D01*
X145478763Y-88618839D01*
X145355717Y-88495793D01*
X145355712Y-88495789D01*
X145214945Y-88393517D01*
X145214944Y-88393516D01*
X145214942Y-88393515D01*
X145166526Y-88368846D01*
X145059903Y-88314517D01*
X144894406Y-88260743D01*
X144722544Y-88233523D01*
X144722539Y-88233523D01*
X144548529Y-88233523D01*
X144548524Y-88233523D01*
X144376661Y-88260743D01*
X144211164Y-88314517D01*
X144056122Y-88393517D01*
X143915355Y-88495789D01*
X143915350Y-88495793D01*
X143792304Y-88618839D01*
X143792300Y-88618844D01*
X143690028Y-88759611D01*
X143611028Y-88914653D01*
X143557254Y-89080150D01*
X143530034Y-89252012D01*
X141096034Y-89252012D01*
X141096034Y-88536962D01*
X141085003Y-88495795D01*
X141075555Y-88460534D01*
X141036862Y-88393515D01*
X141035998Y-88392018D01*
X141035992Y-88392010D01*
X139030046Y-86386064D01*
X139030038Y-86386058D01*
X138961529Y-86346505D01*
X138961524Y-86346502D01*
X138936047Y-86339675D01*
X138885096Y-86326023D01*
X135230972Y-86326023D01*
X135192758Y-86336262D01*
X135154543Y-86346502D01*
X135154538Y-86346505D01*
X135086029Y-86386058D01*
X135086021Y-86386064D01*
X132495075Y-88977010D01*
X132495069Y-88977018D01*
X132455516Y-89045527D01*
X132455513Y-89045532D01*
X132441860Y-89096485D01*
X132435034Y-89121961D01*
X129784461Y-89121961D01*
X129784461Y-84890839D01*
X129784462Y-84890836D01*
X129784461Y-84827992D01*
X129784610Y-84821909D01*
X129785635Y-84801034D01*
X129801009Y-84488006D01*
X129802202Y-84475903D01*
X129850804Y-84148234D01*
X129853171Y-84136331D01*
X129933658Y-83814997D01*
X129937188Y-83803362D01*
X130048781Y-83491473D01*
X130053438Y-83480230D01*
X130195058Y-83180797D01*
X130200789Y-83170073D01*
X130371098Y-82885928D01*
X130377839Y-82875840D01*
X130575177Y-82609758D01*
X130582865Y-82600390D01*
X130805351Y-82354915D01*
X130813931Y-82346336D01*
X131059388Y-82123868D01*
X131068766Y-82116171D01*
X131334835Y-81918843D01*
X131344952Y-81912083D01*
X131512568Y-81811619D01*
X131629080Y-81741784D01*
X131639796Y-81736057D01*
X131939253Y-81594428D01*
X131950472Y-81589781D01*
X132262373Y-81478183D01*
X132274006Y-81474655D01*
X132595333Y-81394171D01*
X132607248Y-81391801D01*
X132934919Y-81343200D01*
X132947013Y-81342008D01*
X133281154Y-81325598D01*
X133287214Y-81325450D01*
X133349845Y-81325451D01*
X133349849Y-81325450D01*
X136718069Y-81325450D01*
X136849853Y-81325450D01*
X136977147Y-81291342D01*
X137091275Y-81225450D01*
X137184461Y-81132264D01*
X137250353Y-81018136D01*
X137284461Y-80890842D01*
X137284461Y-73684512D01*
X143660034Y-73684512D01*
X143660034Y-75668533D01*
X143687254Y-75840395D01*
X143741028Y-76005892D01*
X143820028Y-76160934D01*
X143922300Y-76301701D01*
X143922304Y-76301706D01*
X144045350Y-76424752D01*
X144045355Y-76424756D01*
X144168139Y-76513963D01*
X144186126Y-76527031D01*
X144284915Y-76577367D01*
X144341164Y-76606028D01*
X144341166Y-76606028D01*
X144341169Y-76606030D01*
X144377175Y-76617729D01*
X144506661Y-76659802D01*
X144678524Y-76687023D01*
X144678529Y-76687023D01*
X144852544Y-76687023D01*
X145024406Y-76659802D01*
X145030343Y-76657873D01*
X145189899Y-76606030D01*
X145344942Y-76527031D01*
X145485719Y-76424751D01*
X145608762Y-76301708D01*
X145711042Y-76160931D01*
X145790041Y-76005888D01*
X145843813Y-75840395D01*
X145855152Y-75768805D01*
X145871034Y-75668533D01*
X145871034Y-73684512D01*
X145843813Y-73512650D01*
X145790039Y-73347153D01*
X145761378Y-73290904D01*
X145711042Y-73192115D01*
X145697974Y-73174128D01*
X145608767Y-73051344D01*
X145608763Y-73051339D01*
X145485717Y-72928293D01*
X145485712Y-72928289D01*
X145344945Y-72826017D01*
X145344944Y-72826016D01*
X145344942Y-72826015D01*
X145296526Y-72801346D01*
X145189903Y-72747017D01*
X145024406Y-72693243D01*
X144852544Y-72666023D01*
X144852539Y-72666023D01*
X144678529Y-72666023D01*
X144678524Y-72666023D01*
X144506661Y-72693243D01*
X144341164Y-72747017D01*
X144186122Y-72826017D01*
X144045355Y-72928289D01*
X144045350Y-72928293D01*
X143922304Y-73051339D01*
X143922300Y-73051344D01*
X143820028Y-73192111D01*
X143741028Y-73347153D01*
X143687254Y-73512650D01*
X143660034Y-73684512D01*
X137284461Y-73684512D01*
X137284461Y-59890839D01*
X137284462Y-59890836D01*
X137284461Y-59827992D01*
X137284534Y-59825000D01*
X138778776Y-59825000D01*
X138797452Y-60098028D01*
X138797455Y-60098049D01*
X138853134Y-60365988D01*
X138853135Y-60365990D01*
X138944786Y-60623863D01*
X138944787Y-60623864D01*
X138944788Y-60623867D01*
X139048723Y-60824447D01*
X139070698Y-60866854D01*
X139228525Y-61090437D01*
X139228529Y-61090441D01*
X139228532Y-61090445D01*
X139415325Y-61290445D01*
X139548445Y-61398740D01*
X139627625Y-61463155D01*
X139627628Y-61463157D01*
X139627631Y-61463159D01*
X139861459Y-61605344D01*
X139861461Y-61605345D01*
X139861463Y-61605346D01*
X140112485Y-61714371D01*
X140376015Y-61788199D01*
X140647143Y-61825455D01*
X140783976Y-61825450D01*
X140783982Y-61825450D01*
X147709805Y-61825450D01*
X147709849Y-61825452D01*
X147718085Y-61825452D01*
X147718089Y-61825453D01*
X147732518Y-61825452D01*
X147732857Y-61825551D01*
X147783981Y-61825549D01*
X147783981Y-61825550D01*
X147920819Y-61825545D01*
X148191945Y-61788269D01*
X148455469Y-61714424D01*
X148706484Y-61605384D01*
X148940314Y-61463180D01*
X149152604Y-61290462D01*
X149339398Y-61090446D01*
X149497218Y-60866858D01*
X149519192Y-60824450D01*
X149623121Y-60623869D01*
X149623122Y-60623867D01*
X149623124Y-60623864D01*
X149714770Y-60365990D01*
X149770449Y-60098038D01*
X149789125Y-59825000D01*
X149770449Y-59551962D01*
X149714770Y-59284010D01*
X149623124Y-59026136D01*
X149596721Y-58975179D01*
X149497223Y-58783150D01*
X149497219Y-58783145D01*
X149497218Y-58783142D01*
X149339398Y-58559554D01*
X149339393Y-58559549D01*
X149339392Y-58559547D01*
X149152611Y-58359545D01*
X149152608Y-58359542D01*
X149152604Y-58359538D01*
X148940314Y-58186820D01*
X148940311Y-58186818D01*
X148940308Y-58186816D01*
X148706486Y-58044617D01*
X148706484Y-58044616D01*
X148455469Y-57935576D01*
X148455467Y-57935575D01*
X148455466Y-57935575D01*
X148191944Y-57861730D01*
X147920821Y-57824455D01*
X147920815Y-57824454D01*
X147857469Y-57824452D01*
X147857433Y-57824450D01*
X147849853Y-57824450D01*
X147783982Y-57824450D01*
X147783973Y-57824449D01*
X147718089Y-57824447D01*
X147718087Y-57824447D01*
X147709849Y-57824447D01*
X147709805Y-57824450D01*
X140710750Y-57824450D01*
X140709262Y-57824546D01*
X140647146Y-57824545D01*
X140647145Y-57824545D01*
X140647143Y-57824545D01*
X140484466Y-57846898D01*
X140376013Y-57861801D01*
X140376009Y-57861802D01*
X140112485Y-57935629D01*
X139861459Y-58044655D01*
X139627631Y-58186840D01*
X139627623Y-58186846D01*
X139415325Y-58359554D01*
X139228532Y-58559554D01*
X139228520Y-58559569D01*
X139070696Y-58783148D01*
X138944788Y-59026132D01*
X138853136Y-59284005D01*
X138853134Y-59284011D01*
X138797455Y-59551950D01*
X138797452Y-59551971D01*
X138778776Y-59825000D01*
X137284534Y-59825000D01*
X137284610Y-59821909D01*
X137287699Y-59759020D01*
X137301009Y-59488006D01*
X137302202Y-59475903D01*
X137330666Y-59284005D01*
X137350804Y-59148234D01*
X137353171Y-59136331D01*
X137433658Y-58814997D01*
X137437188Y-58803362D01*
X137548781Y-58491473D01*
X137553438Y-58480230D01*
X137558119Y-58470334D01*
X137695062Y-58180789D01*
X137700789Y-58170073D01*
X137871098Y-57885928D01*
X137877839Y-57875840D01*
X138075177Y-57609758D01*
X138082865Y-57600390D01*
X138305351Y-57354915D01*
X138313931Y-57346336D01*
X138559388Y-57123868D01*
X138568766Y-57116171D01*
X138834835Y-56918843D01*
X138844952Y-56912083D01*
X138844964Y-56912076D01*
X139129080Y-56741784D01*
X139139796Y-56736057D01*
X139439253Y-56594428D01*
X139450472Y-56589781D01*
X139762373Y-56478183D01*
X139774006Y-56474655D01*
X140095333Y-56394171D01*
X140107248Y-56391801D01*
X140434919Y-56343200D01*
X140447013Y-56342008D01*
X140781154Y-56325598D01*
X140787214Y-56325450D01*
X140849845Y-56325451D01*
X140849849Y-56325450D01*
X147718070Y-56325450D01*
X147718074Y-56325451D01*
G37*
%TD.AperFunction*%
%TA.AperFunction,NonConductor*%
G36*
X138212740Y-114636708D02*
G01*
X138258495Y-114689512D01*
X138268439Y-114758670D01*
X138239414Y-114822226D01*
X138233382Y-114828704D01*
X137932382Y-115129704D01*
X137871059Y-115163189D01*
X137844701Y-115166023D01*
X137719516Y-115166023D01*
X137652477Y-115146338D01*
X137606722Y-115093534D01*
X137596778Y-115024376D01*
X137623663Y-114963358D01*
X137644629Y-114937809D01*
X137673219Y-114902973D01*
X137770766Y-114720477D01*
X137775453Y-114705026D01*
X137813751Y-114646588D01*
X137877564Y-114618132D01*
X137894113Y-114617023D01*
X138145701Y-114617023D01*
X138212740Y-114636708D01*
G37*
%TD.AperFunction*%
%TA.AperFunction,NonConductor*%
G36*
X139162740Y-115146708D02*
G01*
X139208495Y-115199512D01*
X139218439Y-115268670D01*
X139189414Y-115332226D01*
X139183382Y-115338704D01*
X138002382Y-116519704D01*
X137941059Y-116553189D01*
X137914701Y-116556023D01*
X137894113Y-116556023D01*
X137827074Y-116536338D01*
X137781319Y-116483534D01*
X137775453Y-116468020D01*
X137775211Y-116467224D01*
X137770766Y-116452569D01*
X137673219Y-116270073D01*
X137621236Y-116206732D01*
X137541944Y-116110112D01*
X137391780Y-115986877D01*
X137352445Y-115929131D01*
X137350574Y-115859286D01*
X137386761Y-115799518D01*
X137449517Y-115768802D01*
X137470444Y-115767023D01*
X138060094Y-115767023D01*
X138060096Y-115767023D01*
X138136523Y-115746544D01*
X138205045Y-115706983D01*
X138260994Y-115651034D01*
X138748686Y-115163342D01*
X138810009Y-115129857D01*
X138836367Y-115127023D01*
X139095701Y-115127023D01*
X139162740Y-115146708D01*
G37*
%TD.AperFunction*%
%TA.AperFunction,NonConductor*%
G36*
X138737740Y-118566708D02*
G01*
X138783495Y-118619512D01*
X138793439Y-118688670D01*
X138764414Y-118752226D01*
X138758382Y-118758704D01*
X138457382Y-119059704D01*
X138396059Y-119093189D01*
X138369701Y-119096023D01*
X137894113Y-119096023D01*
X137827074Y-119076338D01*
X137781319Y-119023534D01*
X137775453Y-119008020D01*
X137775211Y-119007224D01*
X137770766Y-118992569D01*
X137673219Y-118810073D01*
X137631062Y-118758704D01*
X137623663Y-118749688D01*
X137596350Y-118685378D01*
X137608141Y-118616510D01*
X137655294Y-118564950D01*
X137719516Y-118547023D01*
X138670701Y-118547023D01*
X138737740Y-118566708D01*
G37*
%TD.AperFunction*%
%TA.AperFunction,NonConductor*%
G36*
X141222104Y-92012594D02*
G01*
X141107299Y-92290758D01*
X140830135Y-92404563D01*
X140695534Y-91818895D01*
X140895534Y-91818895D01*
X141222104Y-92012594D01*
G37*
%TD.AperFunction*%
%TA.AperFunction,NonConductor*%
G36*
X156797698Y-120436718D02*
G01*
X156520534Y-120552523D01*
X156243370Y-120436718D01*
X156420534Y-119951523D01*
X156620534Y-119951523D01*
X156797698Y-120436718D01*
G37*
%TD.AperFunction*%
%TA.AperFunction,NonConductor*%
G36*
X141197698Y-104961718D02*
G01*
X140920534Y-105077523D01*
X140643370Y-104961718D01*
X140820534Y-104476523D01*
X141020534Y-104476523D01*
X141197698Y-104961718D01*
G37*
%TD.AperFunction*%
%TA.AperFunction,NonConductor*%
G36*
X160435339Y-96474359D02*
G01*
X160321241Y-96752230D01*
X160043370Y-96866328D01*
X159825560Y-96397970D01*
X159966981Y-96256549D01*
X160435339Y-96474359D01*
G37*
%TD.AperFunction*%
%TA.AperFunction,NonConductor*%
G36*
X140897698Y-107711718D02*
G01*
X140620534Y-107827523D01*
X140343370Y-107711718D01*
X140520534Y-107226523D01*
X140720534Y-107226523D01*
X140897698Y-107711718D01*
G37*
%TD.AperFunction*%
%TA.AperFunction,NonConductor*%
G36*
X156897698Y-104786718D02*
G01*
X156620534Y-104902523D01*
X156343370Y-104786718D01*
X156520534Y-104301523D01*
X156720534Y-104301523D01*
X156897698Y-104786718D01*
G37*
%TD.AperFunction*%
M02*
