%TF.GenerationSoftware,KiCad,Pcbnew,8.0.7*%
%TF.CreationDate,2025-07-11T10:43:35+03:00*%
%TF.ProjectId,switch board,73776974-6368-4206-926f-6172642e6b69,rev?*%
%TF.SameCoordinates,Original*%
%TF.FileFunction,Profile,NP*%
%FSLAX46Y46*%
G04 Gerber Fmt 4.6, Leading zero omitted, Abs format (unit mm)*
G04 Created by KiCad (PCBNEW 8.0.7) date 2025-07-11 10:43:35*
%MOMM*%
%LPD*%
G01*
G04 APERTURE LIST*
%TA.AperFunction,Profile*%
%ADD10C,0.250000*%
%TD*%
G04 APERTURE END LIST*
D10*
X147783961Y-55824950D02*
X140783961Y-55824950D01*
X151783961Y-145824950D02*
X152103961Y-145824950D01*
X156103958Y-141824950D02*
X156103958Y-140742704D01*
X165346300Y-140742704D02*
X165346300Y-70907196D01*
X140783961Y-155824950D02*
G75*
G02*
X136784007Y-151824950I-27J3999927D01*
G01*
X156103958Y-70907196D02*
X156103958Y-69824950D01*
X140783961Y-153324950D02*
X147783961Y-153324950D01*
X156103958Y-140742704D02*
X165346300Y-140742704D01*
X133283961Y-130824950D02*
X136783961Y-130824950D01*
X140783961Y-155824950D02*
X147783961Y-155824950D01*
X140783961Y-153324950D02*
G75*
G02*
X140783961Y-150324896I-27J1500027D01*
G01*
X136783961Y-59824950D02*
G75*
G02*
X140783961Y-55824950I3999973J27D01*
G01*
X140783961Y-61324950D02*
X147783961Y-61324950D01*
X165346300Y-70907196D02*
X156103958Y-70907196D01*
X151783961Y-65824950D02*
X151783961Y-59824950D01*
X147783961Y-58324950D02*
X140783961Y-58324950D01*
X152103961Y-65824950D02*
X151783961Y-65824950D01*
X133283961Y-130824950D02*
G75*
G02*
X129284007Y-126824950I-27J3999927D01*
G01*
X136783961Y-80824950D02*
X133283961Y-80824950D01*
X156103958Y-141824950D02*
G75*
G02*
X152103961Y-145824947I-4000024J27D01*
G01*
X136783961Y-59824950D02*
X136783961Y-80824950D01*
X152103961Y-65824950D02*
G75*
G02*
X156104007Y-69824950I-27J-4000073D01*
G01*
X129283961Y-84824950D02*
X129283961Y-126824950D01*
X140783961Y-61324950D02*
G75*
G02*
X140783961Y-58324896I-27J1500027D01*
G01*
X156103961Y-69824950D02*
X156103958Y-69824950D01*
X151783961Y-151824950D02*
G75*
G02*
X147783961Y-155824950I-4000027J27D01*
G01*
X147783961Y-55824950D02*
G75*
G02*
X151784007Y-59824950I-27J-4000073D01*
G01*
X136783961Y-130824950D02*
X136783961Y-151824950D01*
X129283961Y-84824950D02*
G75*
G02*
X133283961Y-80824950I3999973J27D01*
G01*
X151783961Y-151824950D02*
X151783961Y-145824950D01*
X147783961Y-150324950D02*
G75*
G02*
X147783961Y-153324896I-27J-1499973D01*
G01*
X147783961Y-58324950D02*
G75*
G02*
X147783961Y-61324896I-27J-1499973D01*
G01*
X147783961Y-150324950D02*
X140783961Y-150324950D01*
M02*
