M48
INCH
T1C0.0118
T2C0.0374
T3C0.0394
T4C0.0400
T5C0.0433
T6C0.0512
%
G90
G05
T1
X4.5433Y-4.7677
X4.5787Y-4.6063
X4.685Y-4.7126
X4.7283Y-4.7835
X4.8661Y-4.374
X5.1803Y-2.0547
X5.185Y-3.6929
X5.185Y-4.3661
X5.2362Y-4.3583
X5.2717Y-4.3583
X5.2811Y-3.9512
X5.3022Y-4.3455
X5.3504Y-3.9197
X5.3858Y-3.485
X5.5555Y-2.6244
T2
X5.4843Y-3.7283
X5.4843Y-3.8268
X5.4843Y-3.9252
X5.4843Y-4.0236
X5.4843Y-4.122
T3
X4.1811Y-5.126
X4.1811Y-5.226
X4.1811Y-5.326
X4.1811Y-5.426
X4.1811Y-5.526
X4.1811Y-5.626
X4.2894Y-4.4291
X4.2897Y-4.0392
X4.2897Y-4.1392
X4.3878Y-4.4291
X4.3897Y-4.0392
X4.3897Y-4.1392
X4.4897Y-4.0392
X4.4897Y-4.1392
X4.5897Y-4.0392
X4.5897Y-4.1392
X4.6417Y-4.4291
X4.6897Y-4.0392
X4.6897Y-4.1392
X4.7402Y-4.4291
X4.9936Y-4.3894
X4.9936Y-4.6965
X4.9959Y-4.0392
X4.9959Y-4.1392
X5.0134Y-4.9409
X5.0154Y-5.8061
X5.092Y-4.3894
X5.092Y-4.6965
X5.0959Y-4.0392
X5.0959Y-4.1392
X5.1134Y-4.9409
X5.1154Y-5.8061
X5.1959Y-4.0392
X5.1959Y-4.1392
X5.2134Y-4.9409
X5.2154Y-5.8061
X5.2959Y-4.0392
X5.2959Y-4.1392
X5.3134Y-4.9409
X5.3154Y-5.8061
X5.4134Y-4.9409
X5.4154Y-5.8061
X5.4921Y-2.1118
X5.4921Y-2.2118
X5.4921Y-2.3118
X5.4921Y-2.4118
X5.4921Y-2.5118
X5.4921Y-2.978
X5.4921Y-3.078
X5.4921Y-3.178
X5.4921Y-3.278
X5.4921Y-3.378
X5.5921Y-2.1118
X5.5921Y-2.2118
X5.5921Y-2.3118
X5.5921Y-2.4118
X5.5921Y-2.5118
X5.5921Y-2.978
X5.5921Y-3.078
X5.5921Y-3.178
X5.5921Y-3.278
X5.5921Y-3.378
T4
X5.2897Y-1.9454
X5.2897Y-2.0454
X5.2897Y-2.1454
X5.2897Y-2.2454
X5.2897Y-2.3454
X5.2897Y-2.4454
X5.2897Y-2.5454
X5.2897Y-2.6454
X5.2897Y-2.7454
X5.2897Y-2.8454
X5.2897Y-2.9454
X5.2897Y-3.0454
X5.2897Y-3.1454
X5.2897Y-3.2454
X5.2897Y-3.3454
X5.2897Y-3.4454
X5.2897Y-3.5454
X5.2897Y-3.6454
T5
X4.0069Y-5.215
X4.0069Y-5.315
X4.0069Y-5.415
X4.0079Y-5.6618
X4.0079Y-5.7618
X4.0079Y-5.8618
T6
X3.3937Y-5.6535
X3.3937Y-5.8504
X3.3976Y-5.2047
X3.3976Y-5.4016
X3.8892Y-4.7795
X3.8892Y-4.9764
M30
