%TF.GenerationSoftware,KiCad,Pcbnew,8.0.7*%
%TF.CreationDate,2025-07-11T11:49:07+03:00*%
%TF.ProjectId,Pool Extruder Redesign,506f6f6c-2045-4787-9472-756465722052,rev?*%
%TF.SameCoordinates,Original*%
%TF.FileFunction,Soldermask,Top*%
%TF.FilePolarity,Negative*%
%FSLAX46Y46*%
G04 Gerber Fmt 4.6, Leading zero omitted, Abs format (unit mm)*
G04 Created by KiCad (PCBNEW 8.0.7) date 2025-07-11 11:49:07*
%MOMM*%
%LPD*%
G01*
G04 APERTURE LIST*
G04 Aperture macros list*
%AMRoundRect*
0 Rectangle with rounded corners*
0 $1 Rounding radius*
0 $2 $3 $4 $5 $6 $7 $8 $9 X,Y pos of 4 corners*
0 Add a 4 corners polygon primitive as box body*
4,1,4,$2,$3,$4,$5,$6,$7,$8,$9,$2,$3,0*
0 Add four circle primitives for the rounded corners*
1,1,$1+$1,$2,$3*
1,1,$1+$1,$4,$5*
1,1,$1+$1,$6,$7*
1,1,$1+$1,$8,$9*
0 Add four rect primitives between the rounded corners*
20,1,$1+$1,$2,$3,$4,$5,0*
20,1,$1+$1,$4,$5,$6,$7,0*
20,1,$1+$1,$6,$7,$8,$9,0*
20,1,$1+$1,$8,$9,$2,$3,0*%
G04 Aperture macros list end*
%ADD10RoundRect,0.237500X0.250000X0.237500X-0.250000X0.237500X-0.250000X-0.237500X0.250000X-0.237500X0*%
%ADD11RoundRect,0.250000X-0.725000X0.600000X-0.725000X-0.600000X0.725000X-0.600000X0.725000X0.600000X0*%
%ADD12O,1.950000X1.700000*%
%ADD13C,1.879600*%
%ADD14RoundRect,0.250000X-0.600000X-0.600000X0.600000X-0.600000X0.600000X0.600000X-0.600000X0.600000X0*%
%ADD15C,1.700000*%
%ADD16R,1.700000X1.700000*%
%ADD17O,1.700000X1.700000*%
%ADD18RoundRect,0.237500X0.237500X-0.250000X0.237500X0.250000X-0.237500X0.250000X-0.237500X-0.250000X0*%
%ADD19RoundRect,0.250000X0.600000X0.750000X-0.600000X0.750000X-0.600000X-0.750000X0.600000X-0.750000X0*%
%ADD20O,1.700000X2.000000*%
%ADD21R,3.000000X3.000000*%
%ADD22C,3.000000*%
%ADD23C,2.200000*%
%ADD24RoundRect,0.225000X-0.225000X-0.250000X0.225000X-0.250000X0.225000X0.250000X-0.225000X0.250000X0*%
%ADD25RoundRect,0.237500X-0.237500X0.287500X-0.237500X-0.287500X0.237500X-0.287500X0.237500X0.287500X0*%
%ADD26RoundRect,0.250000X-0.600000X-0.750000X0.600000X-0.750000X0.600000X0.750000X-0.600000X0.750000X0*%
%ADD27RoundRect,0.225000X0.250000X-0.225000X0.250000X0.225000X-0.250000X0.225000X-0.250000X-0.225000X0*%
%ADD28R,2.000000X1.905000*%
%ADD29O,2.000000X1.905000*%
%ADD30RoundRect,0.237500X-0.237500X0.250000X-0.237500X-0.250000X0.237500X-0.250000X0.237500X0.250000X0*%
G04 APERTURE END LIST*
D10*
%TO.C,R6*%
X117500707Y-118400000D03*
X115675707Y-118400000D03*
%TD*%
D11*
%TO.C,J9*%
X139300000Y-94700000D03*
D12*
X139300000Y-97200000D03*
X139300000Y-99700000D03*
X139300000Y-102200000D03*
X139300000Y-104700000D03*
%TD*%
D13*
%TO.C,AUX4*%
X134358356Y-92593773D03*
X134358356Y-90053773D03*
X134358356Y-87513773D03*
X134358356Y-84973773D03*
X134358356Y-82433773D03*
X134358356Y-79893773D03*
X134358356Y-77353773D03*
X134358356Y-74813773D03*
X134358356Y-72273773D03*
X134358356Y-69733773D03*
X134358356Y-67193773D03*
X134358356Y-64653773D03*
X134358356Y-62113773D03*
X134358356Y-59573773D03*
X134358356Y-57033773D03*
X134358356Y-54493773D03*
X134358356Y-51953773D03*
X134358356Y-49413773D03*
%TD*%
D14*
%TO.C,J6*%
X139500000Y-75640000D03*
D15*
X142040000Y-75640000D03*
X139500000Y-78180000D03*
X142040000Y-78180000D03*
X139500000Y-80720000D03*
X142040000Y-80720000D03*
X139500000Y-83260000D03*
X142040000Y-83260000D03*
X139500000Y-85800000D03*
X142040000Y-85800000D03*
%TD*%
D16*
%TO.C,J5*%
X106200000Y-130200000D03*
D17*
X106200000Y-132740000D03*
X106200000Y-135280000D03*
X106200000Y-137820000D03*
X106200000Y-140360000D03*
X106200000Y-142900000D03*
%TD*%
D16*
%TO.C,REF\u002A\u002A*%
X137500000Y-125500000D03*
D17*
X134960000Y-125500000D03*
X132420000Y-125500000D03*
X129880000Y-125500000D03*
X127340000Y-125500000D03*
%TD*%
D10*
%TO.C,R1*%
X106800000Y-152200000D03*
X104975000Y-152200000D03*
%TD*%
%TO.C,R3*%
X106800000Y-150430000D03*
X104975000Y-150430000D03*
%TD*%
D18*
%TO.C,R8*%
X94357500Y-137982500D03*
X94357500Y-136157500D03*
%TD*%
D19*
%TO.C,T4*%
X120400000Y-112500000D03*
D20*
X117900000Y-112500000D03*
%TD*%
D21*
%TO.C,J3*%
X86200000Y-143600000D03*
D22*
X86200000Y-148600000D03*
%TD*%
D15*
%TO.C,AUX2*%
X108958356Y-105134973D03*
X108958356Y-102594973D03*
X111498356Y-105134973D03*
X111498356Y-102594973D03*
X114038356Y-105134973D03*
X114038356Y-102594973D03*
X116578356Y-105134973D03*
X116578356Y-102594973D03*
X119118356Y-105134973D03*
X119118356Y-102594973D03*
%TD*%
D23*
%TO.C,REF\u002A\u002A*%
X142829944Y-125749720D03*
%TD*%
D10*
%TO.C,R4*%
X106800000Y-121900000D03*
X104975000Y-121900000D03*
%TD*%
D24*
%TO.C,C2*%
X115650000Y-107700000D03*
X117200000Y-107700000D03*
%TD*%
D25*
%TO.C,D2*%
X96057500Y-136240000D03*
X96057500Y-137990000D03*
%TD*%
D26*
%TO.C,T1*%
X126837500Y-111490000D03*
D20*
X129337500Y-111490000D03*
%TD*%
D21*
%TO.C,J4*%
X86300000Y-132200000D03*
D22*
X86300000Y-137200000D03*
%TD*%
D19*
%TO.C,T3*%
X111450000Y-112500000D03*
D20*
X108950000Y-112500000D03*
%TD*%
D10*
%TO.C,R5*%
X113700707Y-118400000D03*
X111875707Y-118400000D03*
%TD*%
D27*
%TO.C,C4*%
X122600000Y-118700000D03*
X122600000Y-117150000D03*
%TD*%
D15*
%TO.C,AUX3*%
X134517056Y-102594973D03*
X134517056Y-105134973D03*
X131977056Y-102594973D03*
X131977056Y-105134973D03*
X129437056Y-102594973D03*
X129437056Y-105134973D03*
X126897056Y-102594973D03*
X126897056Y-105134973D03*
%TD*%
D28*
%TO.C,Q2*%
X101800000Y-148890000D03*
D29*
X101800000Y-146350000D03*
X101800000Y-143810000D03*
%TD*%
D24*
%TO.C,C1*%
X112150000Y-107700000D03*
X113700000Y-107700000D03*
%TD*%
D30*
%TO.C,R10*%
X122600000Y-120675000D03*
X122600000Y-122500000D03*
%TD*%
D10*
%TO.C,R2*%
X106800000Y-123620000D03*
X104975000Y-123620000D03*
%TD*%
D23*
%TO.C,REF\u002A\u002A*%
X143646935Y-147053064D03*
%TD*%
D30*
%TO.C,R7*%
X94357500Y-147665000D03*
X94357500Y-149490000D03*
%TD*%
D14*
%TO.C,J2*%
X139500000Y-53640000D03*
D15*
X142040000Y-53640000D03*
X139500000Y-56180000D03*
X142040000Y-56180000D03*
X139500000Y-58720000D03*
X142040000Y-58720000D03*
X139500000Y-61260000D03*
X142040000Y-61260000D03*
X139500000Y-63800000D03*
X142040000Y-63800000D03*
%TD*%
D18*
%TO.C,R9*%
X123000000Y-106125000D03*
X123000000Y-104300000D03*
%TD*%
D24*
%TO.C,C3*%
X124600000Y-107700000D03*
X126150000Y-107700000D03*
%TD*%
D16*
%TO.C,REF\u002A\u002A*%
X137550000Y-147475000D03*
D17*
X135010000Y-147475000D03*
X132470000Y-147475000D03*
X129930000Y-147475000D03*
X127390000Y-147475000D03*
%TD*%
D28*
%TO.C,Q1*%
X101775000Y-137540000D03*
D29*
X101775000Y-135000000D03*
X101775000Y-132460000D03*
%TD*%
D26*
%TO.C,T2*%
X126837500Y-119290000D03*
D20*
X129337500Y-119290000D03*
%TD*%
D21*
%TO.C,J1*%
X98785000Y-121400000D03*
D22*
X98785000Y-126400000D03*
%TD*%
D25*
%TO.C,D1*%
X96057500Y-147647500D03*
X96057500Y-149397500D03*
%TD*%
D23*
%TO.C,REF\u002A\u002A*%
X105646935Y-126053064D03*
%TD*%
%TO.C,REF\u002A\u002A*%
X105646239Y-147046007D03*
%TD*%
M02*
