%TF.GenerationSoftware,KiCad,Pcbnew,8.0.7*%
%TF.CreationDate,2025-07-11T11:49:07+03:00*%
%TF.ProjectId,Pool Extruder Redesign,506f6f6c-2045-4787-9472-756465722052,rev?*%
%TF.SameCoordinates,Original*%
%TF.FileFunction,Copper,L2,Bot*%
%TF.FilePolarity,Positive*%
%FSLAX46Y46*%
G04 Gerber Fmt 4.6, Leading zero omitted, Abs format (unit mm)*
G04 Created by KiCad (PCBNEW 8.0.7) date 2025-07-11 11:49:07*
%MOMM*%
%LPD*%
G01*
G04 APERTURE LIST*
G04 Aperture macros list*
%AMRoundRect*
0 Rectangle with rounded corners*
0 $1 Rounding radius*
0 $2 $3 $4 $5 $6 $7 $8 $9 X,Y pos of 4 corners*
0 Add a 4 corners polygon primitive as box body*
4,1,4,$2,$3,$4,$5,$6,$7,$8,$9,$2,$3,0*
0 Add four circle primitives for the rounded corners*
1,1,$1+$1,$2,$3*
1,1,$1+$1,$4,$5*
1,1,$1+$1,$6,$7*
1,1,$1+$1,$8,$9*
0 Add four rect primitives between the rounded corners*
20,1,$1+$1,$2,$3,$4,$5,0*
20,1,$1+$1,$4,$5,$6,$7,0*
20,1,$1+$1,$6,$7,$8,$9,0*
20,1,$1+$1,$8,$9,$2,$3,0*%
G04 Aperture macros list end*
%TA.AperFunction,ComponentPad*%
%ADD10RoundRect,0.250000X-0.725000X0.600000X-0.725000X-0.600000X0.725000X-0.600000X0.725000X0.600000X0*%
%TD*%
%TA.AperFunction,ComponentPad*%
%ADD11O,1.950000X1.700000*%
%TD*%
%TA.AperFunction,ComponentPad*%
%ADD12C,1.879600*%
%TD*%
%TA.AperFunction,ComponentPad*%
%ADD13RoundRect,0.250000X-0.600000X-0.600000X0.600000X-0.600000X0.600000X0.600000X-0.600000X0.600000X0*%
%TD*%
%TA.AperFunction,ComponentPad*%
%ADD14C,1.700000*%
%TD*%
%TA.AperFunction,ComponentPad*%
%ADD15R,1.700000X1.700000*%
%TD*%
%TA.AperFunction,ComponentPad*%
%ADD16O,1.700000X1.700000*%
%TD*%
%TA.AperFunction,ComponentPad*%
%ADD17RoundRect,0.250000X0.600000X0.750000X-0.600000X0.750000X-0.600000X-0.750000X0.600000X-0.750000X0*%
%TD*%
%TA.AperFunction,ComponentPad*%
%ADD18O,1.700000X2.000000*%
%TD*%
%TA.AperFunction,ComponentPad*%
%ADD19R,3.000000X3.000000*%
%TD*%
%TA.AperFunction,ComponentPad*%
%ADD20C,3.000000*%
%TD*%
%TA.AperFunction,ComponentPad*%
%ADD21RoundRect,0.250000X-0.600000X-0.750000X0.600000X-0.750000X0.600000X0.750000X-0.600000X0.750000X0*%
%TD*%
%TA.AperFunction,ComponentPad*%
%ADD22R,2.000000X1.905000*%
%TD*%
%TA.AperFunction,ComponentPad*%
%ADD23O,2.000000X1.905000*%
%TD*%
%TA.AperFunction,ViaPad*%
%ADD24C,0.600000*%
%TD*%
%TA.AperFunction,Conductor*%
%ADD25C,0.500000*%
%TD*%
%TA.AperFunction,Conductor*%
%ADD26C,0.200000*%
%TD*%
G04 APERTURE END LIST*
D10*
%TO.P,J9,1,Pin_1*%
%TO.N,/D29*%
X139300000Y-94700000D03*
D11*
%TO.P,J9,2,Pin_2*%
%TO.N,/D32*%
X139300000Y-97200000D03*
%TO.P,J9,3,Pin_3*%
%TO.N,/D31*%
X139300000Y-99700000D03*
%TO.P,J9,4,Pin_4*%
%TO.N,/D47*%
X139300000Y-102200000D03*
%TO.P,J9,5,Pin_5*%
%TO.N,/D33*%
X139300000Y-104700000D03*
%TD*%
D12*
%TO.P,AUX4,1*%
%TO.N,VCC*%
X134358356Y-92593773D03*
%TO.P,AUX4,2*%
%TO.N,GND*%
X134358356Y-90053773D03*
%TO.P,AUX4,3*%
%TO.N,/D32*%
X134358356Y-87513773D03*
%TO.P,AUX4,4*%
%TO.N,/D47*%
X134358356Y-84973773D03*
%TO.P,AUX4,5*%
%TO.N,/D45*%
X134358356Y-82433773D03*
%TO.P,AUX4,6*%
%TO.N,/D43*%
X134358356Y-79893773D03*
%TO.P,AUX4,7*%
%TO.N,/D41*%
X134358356Y-77353773D03*
%TO.P,AUX4,8*%
%TO.N,/D39*%
X134358356Y-74813773D03*
%TO.P,AUX4,9*%
%TO.N,/D37*%
X134358356Y-72273773D03*
%TO.P,AUX4,10*%
%TO.N,/D35*%
X134358356Y-69733773D03*
%TO.P,AUX4,11*%
%TO.N,/D33*%
X134358356Y-67193773D03*
%TO.P,AUX4,12*%
%TO.N,/D31*%
X134358356Y-64653773D03*
%TO.P,AUX4,13*%
%TO.N,/D29*%
X134358356Y-62113773D03*
%TO.P,AUX4,14*%
%TO.N,/D27*%
X134358356Y-59573773D03*
%TO.P,AUX4,15*%
%TO.N,/D25*%
X134358356Y-57033773D03*
%TO.P,AUX4,16*%
%TO.N,/D23*%
X134358356Y-54493773D03*
%TO.P,AUX4,17*%
%TO.N,/D17*%
X134358356Y-51953773D03*
%TO.P,AUX4,18*%
%TO.N,/D16*%
X134358356Y-49413773D03*
%TD*%
D13*
%TO.P,J6,1,Pin_1*%
%TO.N,/D39*%
X139500000Y-75640000D03*
D14*
%TO.P,J6,2,Pin_2*%
%TO.N,/D37*%
X142040000Y-75640000D03*
%TO.P,J6,3,Pin_3*%
%TO.N,/D41*%
X139500000Y-78180000D03*
%TO.P,J6,4,Pin_4*%
%TO.N,/D35*%
X142040000Y-78180000D03*
%TO.P,J6,5,Pin_5*%
%TO.N,/D43*%
X139500000Y-80720000D03*
%TO.P,J6,6,Pin_6*%
%TO.N,/D33*%
X142040000Y-80720000D03*
%TO.P,J6,7,Pin_7*%
%TO.N,/D47*%
X139500000Y-83260000D03*
%TO.P,J6,8,Pin_8*%
%TO.N,/D31*%
X142040000Y-83260000D03*
%TO.P,J6,9,Pin_9*%
%TO.N,/D32*%
X139500000Y-85800000D03*
%TO.P,J6,10,Pin_10*%
%TO.N,/D29*%
X142040000Y-85800000D03*
%TD*%
D15*
%TO.P,J5,1,Pin_1*%
%TO.N,/D53*%
X106200000Y-130200000D03*
D16*
%TO.P,J5,2,Pin_2*%
%TO.N,/SCK*%
X106200000Y-132740000D03*
%TO.P,J5,3,Pin_3*%
%TO.N,/MOSI*%
X106200000Y-135280000D03*
%TO.P,J5,4,Pin_4*%
%TO.N,/MISO*%
X106200000Y-137820000D03*
%TO.P,J5,5,Pin_5*%
%TO.N,VCC*%
X106200000Y-140360000D03*
%TO.P,J5,6,Pin_6*%
%TO.N,GND*%
X106200000Y-142900000D03*
%TD*%
D15*
%TO.P,REF\u002A\u002A,1*%
%TO.N,VCC*%
X137500000Y-125500000D03*
D16*
%TO.P,REF\u002A\u002A,2*%
%TO.N,N/C*%
X134960000Y-125500000D03*
%TO.P,REF\u002A\u002A,3*%
%TO.N,/D17*%
X132420000Y-125500000D03*
%TO.P,REF\u002A\u002A,4*%
%TO.N,/D16*%
X129880000Y-125500000D03*
%TO.P,REF\u002A\u002A,5*%
%TO.N,GND*%
X127340000Y-125500000D03*
%TD*%
D17*
%TO.P,T4,1,Pin_1*%
%TO.N,/A10*%
X120400000Y-112500000D03*
D18*
%TO.P,T4,2,Pin_2*%
%TO.N,GND*%
X117900000Y-112500000D03*
%TD*%
D19*
%TO.P,J3,1,Pin_1*%
%TO.N,/heater_1_line*%
X86200000Y-143600000D03*
D20*
%TO.P,J3,2,Pin_2*%
%TO.N,/12V*%
X86200000Y-148600000D03*
%TD*%
D14*
%TO.P,AUX2,1*%
%TO.N,VCC*%
X108958356Y-105134973D03*
%TO.P,AUX2,2*%
%TO.N,GND*%
X108958356Y-102594973D03*
%TO.P,AUX2,3*%
%TO.N,/A5*%
X111498356Y-105134973D03*
%TO.P,AUX2,4*%
%TO.N,/A9*%
X111498356Y-102594973D03*
%TO.P,AUX2,5*%
%TO.N,/A10*%
X114038356Y-105134973D03*
%TO.P,AUX2,6*%
%TO.N,/D40*%
X114038356Y-102594973D03*
%TO.P,AUX2,7*%
%TO.N,/D44*%
X116578356Y-105134973D03*
%TO.P,AUX2,8*%
%TO.N,/D42*%
X116578356Y-102594973D03*
%TO.P,AUX2,9*%
%TO.N,/A12*%
X119118356Y-105134973D03*
%TO.P,AUX2,10*%
%TO.N,/A11*%
X119118356Y-102594973D03*
%TD*%
D21*
%TO.P,T1,1,Pin_1*%
%TO.N,/A11*%
X126837500Y-111490000D03*
D18*
%TO.P,T1,2,Pin_2*%
%TO.N,GND*%
X129337500Y-111490000D03*
%TD*%
D19*
%TO.P,J4,1,Pin_1*%
%TO.N,/heater_2_line*%
X86300000Y-132200000D03*
D20*
%TO.P,J4,2,Pin_2*%
%TO.N,/12V*%
X86300000Y-137200000D03*
%TD*%
D17*
%TO.P,T3,1,Pin_1*%
%TO.N,/A5*%
X111450000Y-112500000D03*
D18*
%TO.P,T3,2,Pin_2*%
%TO.N,GND*%
X108950000Y-112500000D03*
%TD*%
D14*
%TO.P,AUX3,1*%
%TO.N,VCC*%
X134517056Y-102594973D03*
%TO.P,AUX3,2*%
%TO.N,/D49*%
X134517056Y-105134973D03*
%TO.P,AUX3,3*%
%TO.N,/MISO*%
X131977056Y-102594973D03*
%TO.P,AUX3,4*%
%TO.N,/MOSI*%
X131977056Y-105134973D03*
%TO.P,AUX3,5*%
%TO.N,/SCK*%
X129437056Y-102594973D03*
%TO.P,AUX3,6*%
%TO.N,/D53*%
X129437056Y-105134973D03*
%TO.P,AUX3,7*%
%TO.N,GND*%
X126897056Y-102594973D03*
%TO.P,AUX3,8*%
%TO.N,N/C*%
X126897056Y-105134973D03*
%TD*%
D22*
%TO.P,Q2,1,G*%
%TO.N,Net-(Q2-G)*%
X101800000Y-148890000D03*
D23*
%TO.P,Q2,2,D*%
%TO.N,/heater_1_line*%
X101800000Y-146350000D03*
%TO.P,Q2,3,S*%
%TO.N,GND*%
X101800000Y-143810000D03*
%TD*%
D13*
%TO.P,J2,1,Pin_1*%
%TO.N,GND*%
X139500000Y-53640000D03*
D14*
%TO.P,J2,2,Pin_2*%
X142040000Y-53640000D03*
%TO.P,J2,3,Pin_3*%
%TO.N,/D23*%
X139500000Y-56180000D03*
%TO.P,J2,4,Pin_4*%
%TO.N,GND*%
X142040000Y-56180000D03*
%TO.P,J2,5,Pin_5*%
%TO.N,/D25*%
X139500000Y-58720000D03*
%TO.P,J2,6,Pin_6*%
%TO.N,VCC*%
X142040000Y-58720000D03*
%TO.P,J2,7,Pin_7*%
%TO.N,/D27*%
X139500000Y-61260000D03*
%TO.P,J2,8,Pin_8*%
%TO.N,VCC*%
X142040000Y-61260000D03*
%TO.P,J2,9,Pin_9*%
%TO.N,GND*%
X139500000Y-63800000D03*
%TO.P,J2,10,Pin_10*%
%TO.N,VCC*%
X142040000Y-63800000D03*
%TD*%
D15*
%TO.P,REF\u002A\u002A,1*%
%TO.N,N/C*%
X137550000Y-147475000D03*
D16*
%TO.P,REF\u002A\u002A,2*%
X135010000Y-147475000D03*
%TO.P,REF\u002A\u002A,3*%
X132470000Y-147475000D03*
%TO.P,REF\u002A\u002A,4*%
X129930000Y-147475000D03*
%TO.P,REF\u002A\u002A,5*%
X127390000Y-147475000D03*
%TD*%
D22*
%TO.P,Q1,1,G*%
%TO.N,Net-(Q1-G)*%
X101775000Y-137540000D03*
D23*
%TO.P,Q1,2,D*%
%TO.N,/heater_2_line*%
X101775000Y-135000000D03*
%TO.P,Q1,3,S*%
%TO.N,GND*%
X101775000Y-132460000D03*
%TD*%
D21*
%TO.P,T2,1,Pin_1*%
%TO.N,/A12*%
X126837500Y-119290000D03*
D18*
%TO.P,T2,2,Pin_2*%
%TO.N,GND*%
X129337500Y-119290000D03*
%TD*%
D19*
%TO.P,J1,1,Pin_1*%
%TO.N,/12V*%
X98785000Y-121400000D03*
D20*
%TO.P,J1,2,Pin_2*%
%TO.N,GND*%
X98785000Y-126400000D03*
%TD*%
D24*
%TO.N,GND*%
X134140000Y-100360000D03*
X136800000Y-88520000D03*
X141110000Y-66660000D03*
X131580000Y-52190000D03*
X135900000Y-99560000D03*
%TO.N,VCC*%
X120100000Y-121500000D03*
X116300000Y-117000000D03*
%TO.N,/D53*%
X131700000Y-110900000D03*
%TO.N,/SCK*%
X133000000Y-110700000D03*
%TO.N,/MOSI*%
X133900000Y-110700000D03*
%TO.N,/MISO*%
X134675735Y-110375735D03*
%TO.N,/D45*%
X131700000Y-93800000D03*
%TO.N,/D44*%
X115400000Y-121100000D03*
X119000000Y-119700000D03*
%TO.N,/A12*%
X123600000Y-111100000D03*
%TD*%
D25*
%TO.N,VCC*%
X136294973Y-102594973D02*
X137000000Y-103300000D01*
X137500000Y-125500000D02*
X137500000Y-110800000D01*
X135215000Y-100260000D02*
X134765000Y-99810000D01*
X133460000Y-93770000D02*
X134358356Y-92871644D01*
X137500000Y-110800000D02*
X135800000Y-109100000D01*
X134358356Y-92871644D02*
X134358356Y-92593773D01*
X133460000Y-95060000D02*
X133460000Y-93770000D01*
X134517056Y-102594973D02*
X136294973Y-102594973D01*
X134765000Y-99810000D02*
X134765000Y-96365000D01*
X134765000Y-96365000D02*
X133460000Y-95060000D01*
D26*
X108740000Y-140360000D02*
X118100000Y-131000000D01*
D25*
X135800000Y-109100000D02*
X112923383Y-109100000D01*
D26*
X118600000Y-117000000D02*
X119800000Y-118200000D01*
D25*
X137000000Y-107900000D02*
X135800000Y-109100000D01*
D26*
X135100000Y-123100000D02*
X137500000Y-125500000D01*
D25*
X137000000Y-103300000D02*
X137000000Y-107900000D01*
X134517056Y-102594973D02*
X134517056Y-101422944D01*
D26*
X123500000Y-123100000D02*
X135100000Y-123100000D01*
X120100000Y-118500000D02*
X120100000Y-121500000D01*
X106200000Y-140360000D02*
X108740000Y-140360000D01*
X118100000Y-128500000D02*
X123500000Y-123100000D01*
D25*
X134517056Y-101422944D02*
X135215000Y-100725000D01*
X135215000Y-100725000D02*
X135215000Y-100260000D01*
D26*
X118100000Y-131000000D02*
X118100000Y-128500000D01*
X116300000Y-117000000D02*
X118600000Y-117000000D01*
X119800000Y-118200000D02*
X120100000Y-118500000D01*
D25*
X112923383Y-109100000D02*
X108958356Y-105134973D01*
D26*
%TO.N,/D53*%
X132400000Y-119300000D02*
X132400000Y-111600000D01*
X106200000Y-130200000D02*
X113600000Y-130200000D01*
X132400000Y-120000000D02*
X132400000Y-119300000D01*
X130900000Y-121500000D02*
X132400000Y-120000000D01*
X132400000Y-111600000D02*
X131700000Y-110900000D01*
X122300000Y-121500000D02*
X130900000Y-121500000D01*
X121000000Y-122800000D02*
X122300000Y-121500000D01*
X113600000Y-130200000D02*
X121000000Y-122800000D01*
%TO.N,/SCK*%
X116700000Y-128000000D02*
X122800000Y-121900000D01*
X131065686Y-121900000D02*
X133000000Y-119965686D01*
X133000000Y-119965686D02*
X133000000Y-110700000D01*
X116700000Y-130600000D02*
X116700000Y-128000000D01*
X106200000Y-132740000D02*
X114560000Y-132740000D01*
X122800000Y-121900000D02*
X131065686Y-121900000D01*
X114560000Y-132740000D02*
X116700000Y-130600000D01*
%TO.N,/MOSI*%
X123000000Y-122300000D02*
X125300000Y-122300000D01*
X131231372Y-122300000D02*
X133600000Y-119931372D01*
X133600000Y-111300000D02*
X133600000Y-111000000D01*
X133600000Y-119931372D02*
X133600000Y-111300000D01*
X125300000Y-122300000D02*
X131231372Y-122300000D01*
X106200000Y-135280000D02*
X112585686Y-135280000D01*
X133600000Y-111000000D02*
X133900000Y-110700000D01*
X117100000Y-130765686D02*
X117100000Y-128200000D01*
X112585686Y-135280000D02*
X117100000Y-130765686D01*
X117100000Y-128200000D02*
X123000000Y-122300000D01*
%TO.N,/MISO*%
X110611372Y-137820000D02*
X117500000Y-130931372D01*
X123165686Y-122700000D02*
X131397058Y-122700000D01*
X134100000Y-119997058D02*
X134100000Y-111800000D01*
X117500000Y-128365686D02*
X123165686Y-122700000D01*
X117500000Y-130600000D02*
X117500000Y-128365686D01*
X134100000Y-111800000D02*
X134675735Y-111224265D01*
X106200000Y-137820000D02*
X110611372Y-137820000D01*
X117500000Y-130931372D02*
X117500000Y-130600000D01*
X131397058Y-122700000D02*
X134100000Y-119997058D01*
X134675735Y-111224265D02*
X134675735Y-110375735D01*
%TO.N,/D47*%
X137525000Y-100425000D02*
X137525000Y-88388773D01*
X139300000Y-102200000D02*
X137525000Y-100425000D01*
X137056227Y-87920000D02*
X135705471Y-87920000D01*
X133844814Y-88753573D02*
X133118556Y-88027315D01*
X137525000Y-88388773D02*
X137056227Y-87920000D01*
X133118556Y-88027315D02*
X133118556Y-86213573D01*
X137600000Y-83200000D02*
X137660000Y-83260000D01*
X136132129Y-83200000D02*
X137600000Y-83200000D01*
X137660000Y-83260000D02*
X139500000Y-83260000D01*
X134871898Y-88753573D02*
X133844814Y-88753573D01*
X133118556Y-86213573D02*
X134358356Y-84973773D01*
X134358356Y-84973773D02*
X136132129Y-83200000D01*
X135705471Y-87920000D02*
X134871898Y-88753573D01*
%TO.N,/D45*%
X131700000Y-85092129D02*
X131700000Y-93800000D01*
X134358356Y-82433773D02*
X131700000Y-85092129D01*
%TO.N,/D44*%
X117600000Y-121100000D02*
X119000000Y-119700000D01*
X115400000Y-121100000D02*
X117600000Y-121100000D01*
%TO.N,/D43*%
X134358356Y-79893773D02*
X138673773Y-79893773D01*
X138673773Y-79893773D02*
X139500000Y-80720000D01*
%TO.N,/D42*%
X121244865Y-105635135D02*
X121159865Y-105550135D01*
X119594702Y-103984973D02*
X117968356Y-103984973D01*
X134215000Y-96654459D02*
X134215000Y-99195000D01*
X130720000Y-105860000D02*
X129520000Y-107060000D01*
X132545541Y-94985000D02*
X134215000Y-96654459D01*
X131100000Y-52670000D02*
X131100000Y-94060000D01*
X121159865Y-105550135D02*
X119594702Y-103984973D01*
X134215000Y-99195000D02*
X132800000Y-100610000D01*
X123825135Y-105635135D02*
X121244865Y-105635135D01*
X132025000Y-94985000D02*
X132545541Y-94985000D01*
X131580000Y-52190000D02*
X131100000Y-52670000D01*
X131830000Y-100610000D02*
X130720000Y-101720000D01*
X131100000Y-94060000D02*
X132025000Y-94985000D01*
X117968356Y-103984973D02*
X116578356Y-102594973D01*
X130720000Y-101720000D02*
X130720000Y-105860000D01*
X129520000Y-107060000D02*
X125250000Y-107060000D01*
X132800000Y-100610000D02*
X131830000Y-100610000D01*
X125250000Y-107060000D02*
X123825135Y-105635135D01*
%TO.N,/D41*%
X135184583Y-78180000D02*
X134358356Y-77353773D01*
X139500000Y-78180000D02*
X135184583Y-78180000D01*
%TO.N,/D40*%
X132700000Y-107470000D02*
X133127056Y-107042944D01*
X133127056Y-107042944D02*
X133127056Y-101372944D01*
X140890000Y-66440000D02*
X141110000Y-66660000D01*
X114038356Y-102594973D02*
X115428356Y-103984973D01*
X142010000Y-56250000D02*
X140890000Y-57370000D01*
X136800000Y-98720000D02*
X135960000Y-99560000D01*
X140890000Y-57370000D02*
X140890000Y-66440000D01*
X136800000Y-88520000D02*
X136800000Y-98720000D01*
X115428356Y-105618356D02*
X117280000Y-107470000D01*
X115428356Y-103984973D02*
X115428356Y-105618356D01*
X142040000Y-56220000D02*
X142010000Y-56250000D01*
X133127056Y-101372944D02*
X134140000Y-100360000D01*
X117280000Y-107470000D02*
X132700000Y-107470000D01*
X142040000Y-56180000D02*
X142040000Y-56220000D01*
%TO.N,/D39*%
X139500000Y-75640000D02*
X138340000Y-76800000D01*
X138340000Y-76800000D02*
X136000000Y-76800000D01*
X134358356Y-75158356D02*
X134358356Y-74813773D01*
X136000000Y-76800000D02*
X134358356Y-75158356D01*
%TO.N,/D37*%
X138273773Y-72273773D02*
X141640000Y-75640000D01*
X134358356Y-72273773D02*
X138273773Y-72273773D01*
%TO.N,/D35*%
X143190000Y-75163654D02*
X143190000Y-77030000D01*
X137760119Y-69733773D02*
X143190000Y-75163654D01*
X143190000Y-77030000D02*
X142040000Y-78180000D01*
X134358356Y-69733773D02*
X137760119Y-69733773D01*
%TO.N,/D33*%
X143590000Y-79170000D02*
X143590000Y-74990000D01*
X143590000Y-74990000D02*
X135793773Y-67193773D01*
X135793773Y-67193773D02*
X134358356Y-67193773D01*
X142040000Y-80720000D02*
X143590000Y-79170000D01*
%TO.N,/D32*%
X134358356Y-87513773D02*
X137786227Y-87513773D01*
X137786227Y-87513773D02*
X139500000Y-85800000D01*
%TO.N,/D31*%
X143990000Y-74285417D02*
X143990000Y-74800000D01*
X142075000Y-91100000D02*
X142075000Y-96925000D01*
X142040000Y-83260000D02*
X143190000Y-84410000D01*
X142040000Y-83260000D02*
X143990000Y-81310000D01*
X142075000Y-96925000D02*
X139300000Y-99700000D01*
X143190000Y-89985000D02*
X142075000Y-91100000D01*
X143190000Y-84410000D02*
X143190000Y-89985000D01*
X134358356Y-64653773D02*
X143990000Y-74285417D01*
X143990000Y-81310000D02*
X143990000Y-74800000D01*
%TO.N,/D29*%
X139200000Y-82110000D02*
X139976346Y-82110000D01*
X134358356Y-62113773D02*
X133118556Y-63353573D01*
X140800000Y-84560000D02*
X142040000Y-85800000D01*
X139976346Y-82110000D02*
X140800000Y-82933654D01*
X140800000Y-82933654D02*
X140800000Y-84560000D01*
X133118556Y-80418556D02*
X133893973Y-81193973D01*
X138283973Y-81193973D02*
X139200000Y-82110000D01*
X133893973Y-81193973D02*
X138283973Y-81193973D01*
X133118556Y-63353573D02*
X133118556Y-80418556D01*
%TO.N,/D27*%
X134358356Y-59573773D02*
X137813773Y-59573773D01*
X137813773Y-59573773D02*
X139500000Y-61260000D01*
%TO.N,/D25*%
X134358356Y-57033773D02*
X137813773Y-57033773D01*
%TO.N,/D23*%
X137813773Y-54493773D02*
X139500000Y-56180000D01*
X134358356Y-54493773D02*
X137813773Y-54493773D01*
%TO.N,/A12*%
X126837500Y-119290000D02*
X126837500Y-115337500D01*
X124600000Y-113100000D02*
X123600000Y-112100000D01*
X126837500Y-115337500D02*
X124600000Y-113100000D01*
X123600000Y-112100000D02*
X123600000Y-111100000D01*
%TD*%
%TA.AperFunction,Conductor*%
%TO.N,VCC*%
G36*
X135067164Y-101226389D02*
G01*
X134713611Y-100872836D01*
X133916015Y-101993932D01*
X134516349Y-102595680D01*
X135302354Y-102269692D01*
X135067164Y-101226389D01*
G37*
%TD.AperFunction*%
%TD*%
%TA.AperFunction,Conductor*%
%TO.N,VCC*%
G36*
X133210000Y-94143566D02*
G01*
X133710000Y-94143566D01*
X135022895Y-93258312D01*
X134358356Y-92592773D01*
X133418556Y-92593773D01*
X133210000Y-94143566D01*
G37*
%TD.AperFunction*%
%TD*%
%TA.AperFunction,Conductor*%
%TO.N,/D44*%
G36*
X116000000Y-121200000D02*
G01*
X116000000Y-121000000D01*
X115514805Y-120822836D01*
X115399000Y-121100000D01*
X115514805Y-121377164D01*
X116000000Y-121200000D01*
G37*
%TD.AperFunction*%
%TD*%
%TA.AperFunction,Conductor*%
%TO.N,/D37*%
G36*
X136237956Y-72373773D02*
G01*
X136237956Y-72173773D01*
X134718002Y-71405511D01*
X134357356Y-72273773D01*
X134718002Y-73142035D01*
X136237956Y-72373773D01*
G37*
%TD.AperFunction*%
%TD*%
%TA.AperFunction,Conductor*%
%TO.N,VCC*%
G36*
X107900000Y-140460000D02*
G01*
X107900000Y-140260000D01*
X106525281Y-139574702D01*
X106199000Y-140360000D01*
X106525281Y-141145298D01*
X107900000Y-140460000D01*
G37*
%TD.AperFunction*%
%TD*%
%TA.AperFunction,Conductor*%
%TO.N,/SCK*%
G36*
X132900000Y-111300000D02*
G01*
X133100000Y-111300000D01*
X133277164Y-110814805D01*
X133000000Y-110699000D01*
X132722836Y-110814805D01*
X132900000Y-111300000D01*
G37*
%TD.AperFunction*%
%TD*%
%TA.AperFunction,Conductor*%
%TO.N,/D41*%
G36*
X137800000Y-78080000D02*
G01*
X137800000Y-78280000D01*
X139174719Y-78965298D01*
X139501000Y-78180000D01*
X139174719Y-77394702D01*
X137800000Y-78080000D01*
G37*
%TD.AperFunction*%
%TD*%
%TA.AperFunction,Conductor*%
%TO.N,/D35*%
G36*
X136237956Y-69833773D02*
G01*
X136237956Y-69633773D01*
X134718002Y-68865511D01*
X134357356Y-69733773D01*
X134718002Y-70602035D01*
X136237956Y-69833773D01*
G37*
%TD.AperFunction*%
%TD*%
%TA.AperFunction,Conductor*%
%TO.N,/D31*%
G36*
X140623743Y-98517678D02*
G01*
X140482322Y-98376257D01*
X139009173Y-98866333D01*
X139299293Y-99700707D01*
X140258667Y-99865827D01*
X140623743Y-98517678D01*
G37*
%TD.AperFunction*%
%TD*%
%TA.AperFunction,Conductor*%
%TO.N,/D40*%
G36*
X133645026Y-100713553D02*
G01*
X133786447Y-100854974D01*
X134254805Y-100637164D01*
X134140707Y-100359293D01*
X133862836Y-100245195D01*
X133645026Y-100713553D01*
G37*
%TD.AperFunction*%
%TD*%
%TA.AperFunction,Conductor*%
%TO.N,/D41*%
G36*
X135895722Y-78280000D02*
G01*
X135895722Y-78080000D01*
X135226618Y-76994127D01*
X134357356Y-77353773D01*
X134358356Y-78293573D01*
X135895722Y-78280000D01*
G37*
%TD.AperFunction*%
%TD*%
%TA.AperFunction,Conductor*%
%TO.N,/D53*%
G36*
X132053553Y-111394974D02*
G01*
X132194974Y-111253553D01*
X131977164Y-110785195D01*
X131699293Y-110899293D01*
X131585195Y-111177164D01*
X132053553Y-111394974D01*
G37*
%TD.AperFunction*%
%TD*%
%TA.AperFunction,Conductor*%
%TO.N,/D40*%
G36*
X136419007Y-99242414D02*
G01*
X136277586Y-99100993D01*
X135785195Y-99282836D01*
X135899293Y-99560707D01*
X136177164Y-99674805D01*
X136419007Y-99242414D01*
G37*
%TD.AperFunction*%
%TD*%
%TA.AperFunction,Conductor*%
%TO.N,VCC*%
G36*
X136119670Y-123978249D02*
G01*
X135978249Y-124119670D01*
X136650000Y-125852082D01*
X137500707Y-125500707D01*
X137852082Y-124650000D01*
X136119670Y-123978249D01*
G37*
%TD.AperFunction*%
%TD*%
%TA.AperFunction,Conductor*%
%TO.N,/D27*%
G36*
X138368629Y-59987208D02*
G01*
X138227208Y-60128629D01*
X138714702Y-61585281D01*
X139500707Y-61260707D01*
X139825281Y-60474702D01*
X138368629Y-59987208D01*
G37*
%TD.AperFunction*%
%TD*%
%TA.AperFunction,Conductor*%
%TO.N,/D43*%
G36*
X138142234Y-79793773D02*
G01*
X138142234Y-79993773D01*
X138714702Y-81045281D01*
X139501000Y-80720000D01*
X139500000Y-79870000D01*
X138142234Y-79793773D01*
G37*
%TD.AperFunction*%
%TD*%
%TA.AperFunction,Conductor*%
%TO.N,/D40*%
G36*
X140990000Y-66151127D02*
G01*
X140790000Y-66151127D01*
X140810000Y-66660000D01*
X141110000Y-66661000D01*
X141322132Y-66447868D01*
X140990000Y-66151127D01*
G37*
%TD.AperFunction*%
%TD*%
%TA.AperFunction,Conductor*%
%TO.N,/D39*%
G36*
X138031959Y-76700000D02*
G01*
X138031959Y-76900000D01*
X139796135Y-76490000D01*
X139501000Y-75640000D01*
X138650000Y-75228929D01*
X138031959Y-76700000D01*
G37*
%TD.AperFunction*%
%TD*%
%TA.AperFunction,Conductor*%
%TO.N,/D40*%
G36*
X136700000Y-89120000D02*
G01*
X136900000Y-89120000D01*
X137077164Y-88634805D01*
X136800000Y-88519000D01*
X136522836Y-88634805D01*
X136700000Y-89120000D01*
G37*
%TD.AperFunction*%
%TD*%
%TA.AperFunction,Conductor*%
%TO.N,/MISO*%
G36*
X107900000Y-137920000D02*
G01*
X107900000Y-137720000D01*
X106525281Y-137034702D01*
X106199000Y-137820000D01*
X106525281Y-138605298D01*
X107900000Y-137920000D01*
G37*
%TD.AperFunction*%
%TD*%
%TA.AperFunction,Conductor*%
%TO.N,/A12*%
G36*
X126937500Y-117440000D02*
G01*
X126737500Y-117440000D01*
X126060723Y-118363223D01*
X126837500Y-119291000D01*
X127614277Y-118363223D01*
X126937500Y-117440000D01*
G37*
%TD.AperFunction*%
%TD*%
%TA.AperFunction,Conductor*%
%TO.N,/D23*%
G36*
X138368629Y-54907208D02*
G01*
X138227208Y-55048629D01*
X138714702Y-56505281D01*
X139500707Y-56180707D01*
X139825281Y-55394702D01*
X138368629Y-54907208D01*
G37*
%TD.AperFunction*%
%TD*%
%TA.AperFunction,Conductor*%
%TO.N,VCC*%
G36*
X136217056Y-102844973D02*
G01*
X136217056Y-102344973D01*
X134842337Y-101809675D01*
X134516056Y-102594973D01*
X134842337Y-103380271D01*
X136217056Y-102844973D01*
G37*
%TD.AperFunction*%
%TD*%
%TA.AperFunction,Conductor*%
%TO.N,/D25*%
G36*
X136237956Y-57133773D02*
G01*
X136237956Y-56933773D01*
X134718002Y-56165511D01*
X134357356Y-57033773D01*
X134718002Y-57902035D01*
X136237956Y-57133773D01*
G37*
%TD.AperFunction*%
%TD*%
%TA.AperFunction,Conductor*%
%TO.N,/D31*%
G36*
X143312792Y-82128629D02*
G01*
X143171371Y-81987208D01*
X141714719Y-82474702D01*
X142039293Y-83260707D01*
X142825298Y-83585281D01*
X143312792Y-82128629D01*
G37*
%TD.AperFunction*%
%TD*%
%TA.AperFunction,Conductor*%
%TO.N,VCC*%
G36*
X137750000Y-123800000D02*
G01*
X137250000Y-123800000D01*
X136650000Y-124650000D01*
X137500000Y-125501000D01*
X138350000Y-124650000D01*
X137750000Y-123800000D01*
G37*
%TD.AperFunction*%
%TD*%
%TA.AperFunction,Conductor*%
%TO.N,/SCK*%
G36*
X107900000Y-132840000D02*
G01*
X107900000Y-132640000D01*
X106525281Y-131954702D01*
X106199000Y-132740000D01*
X106525281Y-133525298D01*
X107900000Y-132840000D01*
G37*
%TD.AperFunction*%
%TD*%
%TA.AperFunction,Conductor*%
%TO.N,/D23*%
G36*
X136237956Y-54593773D02*
G01*
X136237956Y-54393773D01*
X134718002Y-53625511D01*
X134357356Y-54493773D01*
X134718002Y-55362035D01*
X136237956Y-54593773D01*
G37*
%TD.AperFunction*%
%TD*%
%TA.AperFunction,Conductor*%
%TO.N,/MISO*%
G36*
X134575735Y-110975735D02*
G01*
X134775735Y-110975735D01*
X134952899Y-110490540D01*
X134675735Y-110374735D01*
X134398571Y-110490540D01*
X134575735Y-110975735D01*
G37*
%TD.AperFunction*%
%TD*%
%TA.AperFunction,Conductor*%
%TO.N,/D29*%
G36*
X140908629Y-84527208D02*
G01*
X140767208Y-84668629D01*
X141254702Y-86125281D01*
X142040707Y-85800707D01*
X142365281Y-85014702D01*
X140908629Y-84527208D01*
G37*
%TD.AperFunction*%
%TD*%
%TA.AperFunction,Conductor*%
%TO.N,GND*%
G36*
X137504332Y-83517112D02*
G01*
X137544011Y-83540021D01*
X137620438Y-83560500D01*
X137712395Y-83560500D01*
X137767716Y-83573525D01*
X139071803Y-84223613D01*
X139071820Y-84223621D01*
X139078100Y-84226620D01*
X139078831Y-84226954D01*
X139078834Y-84226954D01*
X139084872Y-84229714D01*
X139084732Y-84230018D01*
X139092700Y-84233443D01*
X139096046Y-84235232D01*
X139294066Y-84295300D01*
X139294065Y-84295300D01*
X139312529Y-84297118D01*
X139500000Y-84315583D01*
X139705934Y-84295300D01*
X139903954Y-84235232D01*
X140086450Y-84137685D01*
X140246410Y-84006410D01*
X140253865Y-83997327D01*
X140279646Y-83965912D01*
X140337391Y-83926576D01*
X140407235Y-83924705D01*
X140467004Y-83960891D01*
X140497721Y-84023647D01*
X140499500Y-84044575D01*
X140499500Y-84599562D01*
X140509112Y-84635434D01*
X140519979Y-84675990D01*
X140539902Y-84710496D01*
X140539903Y-84710499D01*
X140559537Y-84744507D01*
X140559541Y-84744512D01*
X140563485Y-84748456D01*
X140593394Y-84796784D01*
X140721738Y-85180280D01*
X140951819Y-85867772D01*
X141055848Y-86178615D01*
X141055853Y-86178628D01*
X141058198Y-86185259D01*
X141060794Y-86192215D01*
X141060478Y-86192332D01*
X141063681Y-86200371D01*
X141064767Y-86203953D01*
X141064768Y-86203954D01*
X141162315Y-86386450D01*
X141162317Y-86386452D01*
X141293589Y-86546410D01*
X141358763Y-86599896D01*
X141453550Y-86677685D01*
X141636046Y-86775232D01*
X141834066Y-86835300D01*
X141834065Y-86835300D01*
X141852529Y-86837118D01*
X142040000Y-86855583D01*
X142245934Y-86835300D01*
X142443954Y-86775232D01*
X142626450Y-86677685D01*
X142686835Y-86628129D01*
X142751145Y-86600816D01*
X142820013Y-86612607D01*
X142871573Y-86659760D01*
X142889500Y-86723982D01*
X142889500Y-89809167D01*
X142869815Y-89876206D01*
X142853181Y-89896848D01*
X141834541Y-90915487D01*
X141834535Y-90915495D01*
X141794982Y-90984004D01*
X141794979Y-90984009D01*
X141774500Y-91060439D01*
X141774500Y-96749166D01*
X141754815Y-96816205D01*
X141738181Y-96836847D01*
X139898715Y-98676312D01*
X139837392Y-98709797D01*
X139767700Y-98704813D01*
X139763600Y-98703199D01*
X139731420Y-98689870D01*
X139731412Y-98689868D01*
X139528469Y-98649500D01*
X139528465Y-98649500D01*
X139071535Y-98649500D01*
X139071530Y-98649500D01*
X138868587Y-98689868D01*
X138868579Y-98689870D01*
X138677403Y-98769058D01*
X138505342Y-98884024D01*
X138359024Y-99030342D01*
X138244058Y-99202403D01*
X138164870Y-99393579D01*
X138164868Y-99393587D01*
X138124500Y-99596530D01*
X138124500Y-99803469D01*
X138164868Y-100006412D01*
X138164870Y-100006420D01*
X138244058Y-100197596D01*
X138359024Y-100369657D01*
X138505342Y-100515975D01*
X138505345Y-100515977D01*
X138677402Y-100630941D01*
X138868580Y-100710130D01*
X139071530Y-100750499D01*
X139071534Y-100750500D01*
X139071535Y-100750500D01*
X139528466Y-100750500D01*
X139528467Y-100750499D01*
X139731420Y-100710130D01*
X139922598Y-100630941D01*
X140094655Y-100515977D01*
X140240977Y-100369655D01*
X140355941Y-100197598D01*
X140435130Y-100006420D01*
X140475500Y-99803465D01*
X140475500Y-99596535D01*
X140435130Y-99393580D01*
X140355941Y-99202402D01*
X140355938Y-99202398D01*
X140353072Y-99197035D01*
X140355497Y-99195738D01*
X140338177Y-99140328D01*
X140356693Y-99072956D01*
X140374473Y-99050496D01*
X142315460Y-97109511D01*
X142315462Y-97109506D01*
X142318412Y-97105664D01*
X142374840Y-97064461D01*
X142444586Y-97060307D01*
X142505506Y-97094520D01*
X142538258Y-97156238D01*
X142540787Y-97181151D01*
X142540787Y-106398505D01*
X142574895Y-106525801D01*
X142607841Y-106582864D01*
X142640787Y-106639928D01*
X143714256Y-107713397D01*
X144765831Y-108764971D01*
X144799316Y-108826294D01*
X144802150Y-108852652D01*
X144802150Y-145999021D01*
X144782465Y-146066060D01*
X144729661Y-146111815D01*
X144660503Y-146121759D01*
X144596947Y-146092734D01*
X144590469Y-146086702D01*
X144526721Y-146022954D01*
X144354755Y-145898015D01*
X144165349Y-145801508D01*
X144165348Y-145801507D01*
X144165347Y-145801507D01*
X143963178Y-145735818D01*
X143963176Y-145735817D01*
X143963175Y-145735817D01*
X143801892Y-145710272D01*
X143753222Y-145702564D01*
X143540648Y-145702564D01*
X143491977Y-145710272D01*
X143330695Y-145735817D01*
X143128520Y-145801508D01*
X142939114Y-145898015D01*
X142767148Y-146022954D01*
X142616825Y-146173277D01*
X142491886Y-146345243D01*
X142395379Y-146534649D01*
X142329688Y-146736824D01*
X142296435Y-146946777D01*
X142296435Y-147159350D01*
X142328570Y-147362246D01*
X142329689Y-147369307D01*
X142382485Y-147531797D01*
X142395379Y-147571478D01*
X142491886Y-147760884D01*
X142616825Y-147932850D01*
X142767148Y-148083173D01*
X142939114Y-148208112D01*
X142939116Y-148208113D01*
X142939119Y-148208115D01*
X143128523Y-148304621D01*
X143330692Y-148370310D01*
X143540648Y-148403564D01*
X143540649Y-148403564D01*
X143753221Y-148403564D01*
X143753222Y-148403564D01*
X143963178Y-148370310D01*
X144165347Y-148304621D01*
X144354751Y-148208115D01*
X144493778Y-148107107D01*
X144526721Y-148083173D01*
X144526723Y-148083170D01*
X144526727Y-148083168D01*
X144590469Y-148019426D01*
X144651792Y-147985941D01*
X144721484Y-147990925D01*
X144777417Y-148032797D01*
X144801834Y-148098261D01*
X144802150Y-148107107D01*
X144802150Y-148757701D01*
X144782465Y-148824740D01*
X144765831Y-148845382D01*
X144291988Y-149319226D01*
X142493573Y-151117639D01*
X142480675Y-151128001D01*
X142480716Y-151128049D01*
X142474498Y-151133275D01*
X142439390Y-151171650D01*
X142435584Y-151175628D01*
X142398806Y-151212407D01*
X142393856Y-151218858D01*
X142393806Y-151218820D01*
X142384030Y-151232162D01*
X140112356Y-153715298D01*
X140052581Y-153751474D01*
X140020866Y-153755599D01*
X84162414Y-153755599D01*
X84095375Y-153735914D01*
X84070924Y-153715298D01*
X79413641Y-148624485D01*
X79401649Y-148599995D01*
X84494732Y-148599995D01*
X84494732Y-148600004D01*
X84513777Y-148854154D01*
X84565528Y-149080892D01*
X84570492Y-149102637D01*
X84663607Y-149339888D01*
X84791041Y-149560612D01*
X84949950Y-149759877D01*
X85136783Y-149933232D01*
X85347366Y-150076805D01*
X85347371Y-150076807D01*
X85347372Y-150076808D01*
X85347373Y-150076809D01*
X85469328Y-150135538D01*
X85576992Y-150187387D01*
X85576993Y-150187387D01*
X85576996Y-150187389D01*
X85820542Y-150262513D01*
X86072565Y-150300500D01*
X86327435Y-150300500D01*
X86579458Y-150262513D01*
X86823004Y-150187389D01*
X87052634Y-150076805D01*
X87263217Y-149933232D01*
X87450050Y-149759877D01*
X87608959Y-149560612D01*
X87736393Y-149339888D01*
X87829508Y-149102637D01*
X87886222Y-148854157D01*
X87905268Y-148600000D01*
X87898813Y-148513868D01*
X87890019Y-148396507D01*
X87886222Y-148345843D01*
X87829508Y-148097363D01*
X87736393Y-147860112D01*
X87608959Y-147639388D01*
X87450050Y-147440123D01*
X87263217Y-147266768D01*
X87052634Y-147123195D01*
X87052630Y-147123193D01*
X87052627Y-147123191D01*
X87052626Y-147123190D01*
X86823006Y-147012612D01*
X86823008Y-147012612D01*
X86579466Y-146937489D01*
X86579462Y-146937488D01*
X86579458Y-146937487D01*
X86458231Y-146919214D01*
X86327440Y-146899500D01*
X86327435Y-146899500D01*
X86072565Y-146899500D01*
X86072559Y-146899500D01*
X85915609Y-146923157D01*
X85820542Y-146937487D01*
X85820539Y-146937488D01*
X85820533Y-146937489D01*
X85576992Y-147012612D01*
X85347373Y-147123190D01*
X85347372Y-147123191D01*
X85136782Y-147266768D01*
X84949952Y-147440121D01*
X84949950Y-147440123D01*
X84791041Y-147639388D01*
X84663608Y-147860109D01*
X84570492Y-148097362D01*
X84570490Y-148097369D01*
X84513777Y-148345845D01*
X84494732Y-148599995D01*
X79401649Y-148599995D01*
X79382913Y-148561735D01*
X79381131Y-148540786D01*
X79381131Y-142080247D01*
X84499500Y-142080247D01*
X84499500Y-145119752D01*
X84511131Y-145178229D01*
X84511132Y-145178230D01*
X84555447Y-145244552D01*
X84621769Y-145288867D01*
X84621770Y-145288868D01*
X84680247Y-145300499D01*
X84680250Y-145300500D01*
X84680252Y-145300500D01*
X87719750Y-145300500D01*
X87719751Y-145300499D01*
X87734568Y-145297552D01*
X87778229Y-145288868D01*
X87778229Y-145288867D01*
X87778231Y-145288867D01*
X87844552Y-145244552D01*
X87888867Y-145178231D01*
X87888867Y-145178229D01*
X87888868Y-145178229D01*
X87900499Y-145119752D01*
X87900500Y-145119750D01*
X87900500Y-143560000D01*
X100321491Y-143560000D01*
X101309252Y-143560000D01*
X101287482Y-143597708D01*
X101250000Y-143737591D01*
X101250000Y-143882409D01*
X101287482Y-144022292D01*
X101309252Y-144060000D01*
X100321491Y-144060000D01*
X100335765Y-144150128D01*
X100406417Y-144367570D01*
X100510211Y-144571276D01*
X100644597Y-144756242D01*
X100806257Y-144917902D01*
X100991223Y-145052288D01*
X101158623Y-145137583D01*
X101209419Y-145185558D01*
X101226214Y-145253379D01*
X101203677Y-145319513D01*
X101158625Y-145358552D01*
X101148195Y-145363866D01*
X101064426Y-145424728D01*
X101001371Y-145470541D01*
X101001369Y-145470543D01*
X101001368Y-145470543D01*
X100873043Y-145598868D01*
X100873043Y-145598869D01*
X100873041Y-145598871D01*
X100827228Y-145661926D01*
X100766366Y-145745695D01*
X100683971Y-145907404D01*
X100627891Y-146080000D01*
X100627891Y-146080003D01*
X100599500Y-146259257D01*
X100599500Y-146440742D01*
X100627891Y-146619996D01*
X100627891Y-146619999D01*
X100683971Y-146792595D01*
X100683973Y-146792598D01*
X100766366Y-146954304D01*
X100873041Y-147101129D01*
X101001371Y-147229459D01*
X101148196Y-147336134D01*
X101309902Y-147418527D01*
X101309904Y-147418528D01*
X101482501Y-147474608D01*
X101482502Y-147474608D01*
X101482505Y-147474609D01*
X101570371Y-147488525D01*
X101583006Y-147490527D01*
X101646141Y-147520456D01*
X101683072Y-147579768D01*
X101682074Y-147649630D01*
X101643464Y-147707863D01*
X101579501Y-147735977D01*
X101563608Y-147737000D01*
X100780247Y-147737000D01*
X100721770Y-147748631D01*
X100721769Y-147748632D01*
X100655447Y-147792947D01*
X100611132Y-147859269D01*
X100611131Y-147859270D01*
X100599500Y-147917747D01*
X100599500Y-149862252D01*
X100611131Y-149920729D01*
X100611132Y-149920730D01*
X100655447Y-149987052D01*
X100721769Y-150031367D01*
X100721770Y-150031368D01*
X100780247Y-150042999D01*
X100780250Y-150043000D01*
X100780252Y-150043000D01*
X102819750Y-150043000D01*
X102819751Y-150042999D01*
X102834568Y-150040052D01*
X102878229Y-150031368D01*
X102878229Y-150031367D01*
X102878231Y-150031367D01*
X102944552Y-149987052D01*
X102988867Y-149920731D01*
X102988867Y-149920729D01*
X102988868Y-149920729D01*
X103000499Y-149862252D01*
X103000500Y-149862250D01*
X103000500Y-147917749D01*
X103000499Y-147917747D01*
X102988868Y-147859270D01*
X102988867Y-147859269D01*
X102944552Y-147792947D01*
X102878230Y-147748632D01*
X102878229Y-147748631D01*
X102819752Y-147737000D01*
X102819748Y-147737000D01*
X102036392Y-147737000D01*
X101969353Y-147717315D01*
X101923598Y-147664511D01*
X101913654Y-147595353D01*
X101942679Y-147531797D01*
X102001457Y-147494023D01*
X102016994Y-147490527D01*
X102022915Y-147489589D01*
X102117495Y-147474609D01*
X102117498Y-147474608D01*
X102117499Y-147474608D01*
X102290095Y-147418528D01*
X102290095Y-147418527D01*
X102290098Y-147418527D01*
X102451804Y-147336134D01*
X102598629Y-147229459D01*
X102726959Y-147101129D01*
X102833634Y-146954304D01*
X102841065Y-146939720D01*
X104295739Y-146939720D01*
X104295739Y-147152293D01*
X104324856Y-147336134D01*
X104328993Y-147362250D01*
X104384082Y-147531797D01*
X104394683Y-147564421D01*
X104491190Y-147753827D01*
X104616129Y-147925793D01*
X104766452Y-148076116D01*
X104938418Y-148201055D01*
X104938420Y-148201056D01*
X104938423Y-148201058D01*
X105127827Y-148297564D01*
X105329996Y-148363253D01*
X105539952Y-148396507D01*
X105539953Y-148396507D01*
X105752525Y-148396507D01*
X105752526Y-148396507D01*
X105962482Y-148363253D01*
X106164651Y-148297564D01*
X106354055Y-148201058D01*
X106376028Y-148185093D01*
X106526025Y-148076116D01*
X106526027Y-148076113D01*
X106526031Y-148076111D01*
X106676343Y-147925799D01*
X106676345Y-147925795D01*
X106676348Y-147925793D01*
X106801287Y-147753827D01*
X106801286Y-147753827D01*
X106801290Y-147753823D01*
X106897796Y-147564419D01*
X106926850Y-147475000D01*
X126334417Y-147475000D01*
X126354699Y-147680932D01*
X126378853Y-147760558D01*
X126414768Y-147878954D01*
X126512315Y-148061450D01*
X126541787Y-148097362D01*
X126643589Y-148221410D01*
X126736382Y-148297562D01*
X126803550Y-148352685D01*
X126986046Y-148450232D01*
X127184066Y-148510300D01*
X127184065Y-148510300D01*
X127202529Y-148512118D01*
X127390000Y-148530583D01*
X127595934Y-148510300D01*
X127793954Y-148450232D01*
X127976450Y-148352685D01*
X128136410Y-148221410D01*
X128267685Y-148061450D01*
X128365232Y-147878954D01*
X128425300Y-147680934D01*
X128445583Y-147475000D01*
X128874417Y-147475000D01*
X128894699Y-147680932D01*
X128918853Y-147760558D01*
X128954768Y-147878954D01*
X129052315Y-148061450D01*
X129081787Y-148097362D01*
X129183589Y-148221410D01*
X129276382Y-148297562D01*
X129343550Y-148352685D01*
X129526046Y-148450232D01*
X129724066Y-148510300D01*
X129724065Y-148510300D01*
X129742529Y-148512118D01*
X129930000Y-148530583D01*
X130135934Y-148510300D01*
X130333954Y-148450232D01*
X130516450Y-148352685D01*
X130676410Y-148221410D01*
X130807685Y-148061450D01*
X130905232Y-147878954D01*
X130965300Y-147680934D01*
X130985583Y-147475000D01*
X131414417Y-147475000D01*
X131434699Y-147680932D01*
X131458853Y-147760558D01*
X131494768Y-147878954D01*
X131592315Y-148061450D01*
X131621787Y-148097362D01*
X131723589Y-148221410D01*
X131816382Y-148297562D01*
X131883550Y-148352685D01*
X132066046Y-148450232D01*
X132264066Y-148510300D01*
X132264065Y-148510300D01*
X132282529Y-148512118D01*
X132470000Y-148530583D01*
X132675934Y-148510300D01*
X132873954Y-148450232D01*
X133056450Y-148352685D01*
X133216410Y-148221410D01*
X133347685Y-148061450D01*
X133445232Y-147878954D01*
X133505300Y-147680934D01*
X133525583Y-147475000D01*
X133954417Y-147475000D01*
X133974699Y-147680932D01*
X133998853Y-147760558D01*
X134034768Y-147878954D01*
X134132315Y-148061450D01*
X134161787Y-148097362D01*
X134263589Y-148221410D01*
X134356382Y-148297562D01*
X134423550Y-148352685D01*
X134606046Y-148450232D01*
X134804066Y-148510300D01*
X134804065Y-148510300D01*
X134822529Y-148512118D01*
X135010000Y-148530583D01*
X135215934Y-148510300D01*
X135413954Y-148450232D01*
X135596450Y-148352685D01*
X135756410Y-148221410D01*
X135887685Y-148061450D01*
X135985232Y-147878954D01*
X136045300Y-147680934D01*
X136065583Y-147475000D01*
X136045300Y-147269066D01*
X135985232Y-147071046D01*
X135887685Y-146888550D01*
X135808940Y-146792598D01*
X135756410Y-146728589D01*
X135606121Y-146605252D01*
X135606115Y-146605247D01*
X136499500Y-146605247D01*
X136499500Y-148344752D01*
X136511131Y-148403229D01*
X136511132Y-148403230D01*
X136555447Y-148469552D01*
X136621769Y-148513867D01*
X136621770Y-148513868D01*
X136680247Y-148525499D01*
X136680250Y-148525500D01*
X136680252Y-148525500D01*
X138419750Y-148525500D01*
X138419751Y-148525499D01*
X138434568Y-148522552D01*
X138478229Y-148513868D01*
X138478229Y-148513867D01*
X138478231Y-148513867D01*
X138544552Y-148469552D01*
X138588867Y-148403231D01*
X138588867Y-148403229D01*
X138588868Y-148403229D01*
X138600499Y-148344752D01*
X138600500Y-148344750D01*
X138600500Y-146605249D01*
X138600499Y-146605247D01*
X138588868Y-146546770D01*
X138588867Y-146546769D01*
X138544552Y-146480447D01*
X138478230Y-146436132D01*
X138478229Y-146436131D01*
X138419752Y-146424500D01*
X138419748Y-146424500D01*
X136680252Y-146424500D01*
X136680247Y-146424500D01*
X136621770Y-146436131D01*
X136621769Y-146436132D01*
X136555447Y-146480447D01*
X136511132Y-146546769D01*
X136511131Y-146546770D01*
X136499500Y-146605247D01*
X135606115Y-146605247D01*
X135596450Y-146597315D01*
X135413954Y-146499768D01*
X135215934Y-146439700D01*
X135215932Y-146439699D01*
X135215934Y-146439699D01*
X135010000Y-146419417D01*
X134804067Y-146439699D01*
X134606043Y-146499769D01*
X134540783Y-146534652D01*
X134423550Y-146597315D01*
X134423548Y-146597316D01*
X134423547Y-146597317D01*
X134263589Y-146728589D01*
X134132317Y-146888547D01*
X134132315Y-146888550D01*
X134106157Y-146937488D01*
X134034769Y-147071043D01*
X133974699Y-147269067D01*
X133954417Y-147475000D01*
X133525583Y-147475000D01*
X133505300Y-147269066D01*
X133445232Y-147071046D01*
X133347685Y-146888550D01*
X133268940Y-146792598D01*
X133216410Y-146728589D01*
X133066121Y-146605252D01*
X133056450Y-146597315D01*
X132873954Y-146499768D01*
X132675934Y-146439700D01*
X132675932Y-146439699D01*
X132675934Y-146439699D01*
X132470000Y-146419417D01*
X132264067Y-146439699D01*
X132066043Y-146499769D01*
X132000783Y-146534652D01*
X131883550Y-146597315D01*
X131883548Y-146597316D01*
X131883547Y-146597317D01*
X131723589Y-146728589D01*
X131592317Y-146888547D01*
X131592315Y-146888550D01*
X131566157Y-146937488D01*
X131494769Y-147071043D01*
X131434699Y-147269067D01*
X131414417Y-147475000D01*
X130985583Y-147475000D01*
X130965300Y-147269066D01*
X130905232Y-147071046D01*
X130807685Y-146888550D01*
X130728940Y-146792598D01*
X130676410Y-146728589D01*
X130526121Y-146605252D01*
X130516450Y-146597315D01*
X130333954Y-146499768D01*
X130135934Y-146439700D01*
X130135932Y-146439699D01*
X130135934Y-146439699D01*
X129930000Y-146419417D01*
X129724067Y-146439699D01*
X129526043Y-146499769D01*
X129460783Y-146534652D01*
X129343550Y-146597315D01*
X129343548Y-146597316D01*
X129343547Y-146597317D01*
X129183589Y-146728589D01*
X129052317Y-146888547D01*
X129052315Y-146888550D01*
X129026157Y-146937488D01*
X128954769Y-147071043D01*
X128894699Y-147269067D01*
X128874417Y-147475000D01*
X128445583Y-147475000D01*
X128425300Y-147269066D01*
X128365232Y-147071046D01*
X128267685Y-146888550D01*
X128188940Y-146792598D01*
X128136410Y-146728589D01*
X127986121Y-146605252D01*
X127976450Y-146597315D01*
X127793954Y-146499768D01*
X127595934Y-146439700D01*
X127595932Y-146439699D01*
X127595934Y-146439699D01*
X127390000Y-146419417D01*
X127184067Y-146439699D01*
X126986043Y-146499769D01*
X126920783Y-146534652D01*
X126803550Y-146597315D01*
X126803548Y-146597316D01*
X126803547Y-146597317D01*
X126643589Y-146728589D01*
X126512317Y-146888547D01*
X126512315Y-146888550D01*
X126486157Y-146937488D01*
X126414769Y-147071043D01*
X126354699Y-147269067D01*
X126334417Y-147475000D01*
X106926850Y-147475000D01*
X106963485Y-147362250D01*
X106996739Y-147152294D01*
X106996739Y-146939720D01*
X106963485Y-146729764D01*
X106897796Y-146527595D01*
X106801290Y-146338191D01*
X106801288Y-146338188D01*
X106801287Y-146338186D01*
X106676348Y-146166220D01*
X106526025Y-146015897D01*
X106354059Y-145890958D01*
X106164653Y-145794451D01*
X106164652Y-145794450D01*
X106164651Y-145794450D01*
X105962482Y-145728761D01*
X105962480Y-145728760D01*
X105962479Y-145728760D01*
X105797082Y-145702564D01*
X105752526Y-145695507D01*
X105539952Y-145695507D01*
X105495396Y-145702564D01*
X105329999Y-145728760D01*
X105127824Y-145794451D01*
X104938418Y-145890958D01*
X104766452Y-146015897D01*
X104616129Y-146166220D01*
X104491190Y-146338186D01*
X104394683Y-146527592D01*
X104328992Y-146729767D01*
X104295739Y-146939720D01*
X102841065Y-146939720D01*
X102916027Y-146792598D01*
X102936443Y-146729764D01*
X102972108Y-146619999D01*
X102972108Y-146619998D01*
X102972109Y-146619995D01*
X103000500Y-146440743D01*
X103000500Y-146259257D01*
X102972109Y-146080005D01*
X102972108Y-146080001D01*
X102972108Y-146080000D01*
X102916028Y-145907404D01*
X102907647Y-145890956D01*
X102833634Y-145745696D01*
X102726959Y-145598871D01*
X102598629Y-145470541D01*
X102525216Y-145417203D01*
X102451802Y-145363864D01*
X102441377Y-145358553D01*
X102390581Y-145310580D01*
X102373785Y-145242759D01*
X102396322Y-145176624D01*
X102441376Y-145137583D01*
X102608776Y-145052288D01*
X102793742Y-144917902D01*
X102955402Y-144756242D01*
X103089788Y-144571276D01*
X103193582Y-144367570D01*
X103264234Y-144150128D01*
X103278509Y-144060000D01*
X102290748Y-144060000D01*
X102312518Y-144022292D01*
X102350000Y-143882409D01*
X102350000Y-143737591D01*
X102312518Y-143597708D01*
X102290748Y-143560000D01*
X103278509Y-143560000D01*
X103264234Y-143469871D01*
X103193582Y-143252429D01*
X103089788Y-143048723D01*
X102955402Y-142863757D01*
X102793742Y-142702097D01*
X102608776Y-142567711D01*
X102405068Y-142463917D01*
X102187625Y-142393265D01*
X102187626Y-142393265D01*
X102050000Y-142371467D01*
X102050000Y-143319252D01*
X102012292Y-143297482D01*
X101872409Y-143260000D01*
X101727591Y-143260000D01*
X101587708Y-143297482D01*
X101550000Y-143319252D01*
X101550000Y-142371467D01*
X101412374Y-142393265D01*
X101194931Y-142463917D01*
X100991223Y-142567711D01*
X100806257Y-142702097D01*
X100644597Y-142863757D01*
X100510211Y-143048723D01*
X100406417Y-143252429D01*
X100335765Y-143469871D01*
X100321491Y-143560000D01*
X87900500Y-143560000D01*
X87900500Y-142080249D01*
X87900499Y-142080247D01*
X87888868Y-142021770D01*
X87888867Y-142021769D01*
X87844552Y-141955447D01*
X87778230Y-141911132D01*
X87778229Y-141911131D01*
X87719752Y-141899500D01*
X87719748Y-141899500D01*
X84680252Y-141899500D01*
X84680247Y-141899500D01*
X84621770Y-141911131D01*
X84621769Y-141911132D01*
X84555447Y-141955447D01*
X84511132Y-142021769D01*
X84511131Y-142021770D01*
X84499500Y-142080247D01*
X79381131Y-142080247D01*
X79381131Y-137199995D01*
X84594732Y-137199995D01*
X84594732Y-137200004D01*
X84613777Y-137454154D01*
X84620402Y-137483181D01*
X84670492Y-137702637D01*
X84763607Y-137939888D01*
X84891041Y-138160612D01*
X85049950Y-138359877D01*
X85236783Y-138533232D01*
X85447366Y-138676805D01*
X85447371Y-138676807D01*
X85447372Y-138676808D01*
X85447373Y-138676809D01*
X85569328Y-138735538D01*
X85676992Y-138787387D01*
X85676993Y-138787387D01*
X85676996Y-138787389D01*
X85920542Y-138862513D01*
X86172565Y-138900500D01*
X86427435Y-138900500D01*
X86679458Y-138862513D01*
X86923004Y-138787389D01*
X87109276Y-138697685D01*
X87152626Y-138676809D01*
X87152626Y-138676808D01*
X87152634Y-138676805D01*
X87363217Y-138533232D01*
X87550050Y-138359877D01*
X87708959Y-138160612D01*
X87836393Y-137939888D01*
X87929508Y-137702637D01*
X87986222Y-137454157D01*
X88005268Y-137200000D01*
X87986222Y-136945843D01*
X87929508Y-136697363D01*
X87836393Y-136460112D01*
X87708959Y-136239388D01*
X87550050Y-136040123D01*
X87363217Y-135866768D01*
X87152634Y-135723195D01*
X87152630Y-135723193D01*
X87152627Y-135723191D01*
X87152626Y-135723190D01*
X86923006Y-135612612D01*
X86923008Y-135612612D01*
X86679466Y-135537489D01*
X86679462Y-135537488D01*
X86679458Y-135537487D01*
X86558231Y-135519214D01*
X86427440Y-135499500D01*
X86427435Y-135499500D01*
X86172565Y-135499500D01*
X86172559Y-135499500D01*
X86015609Y-135523157D01*
X85920542Y-135537487D01*
X85920539Y-135537488D01*
X85920533Y-135537489D01*
X85676992Y-135612612D01*
X85447373Y-135723190D01*
X85447372Y-135723191D01*
X85236782Y-135866768D01*
X85049952Y-136040121D01*
X85049950Y-136040123D01*
X84891041Y-136239388D01*
X84763608Y-136460109D01*
X84670492Y-136697362D01*
X84670490Y-136697369D01*
X84613777Y-136945845D01*
X84594732Y-137199995D01*
X79381131Y-137199995D01*
X79381131Y-130680247D01*
X84599500Y-130680247D01*
X84599500Y-133719752D01*
X84611131Y-133778229D01*
X84611132Y-133778230D01*
X84655447Y-133844552D01*
X84721769Y-133888867D01*
X84721770Y-133888868D01*
X84780247Y-133900499D01*
X84780250Y-133900500D01*
X84780252Y-133900500D01*
X87819750Y-133900500D01*
X87819751Y-133900499D01*
X87834568Y-133897552D01*
X87878229Y-133888868D01*
X87878229Y-133888867D01*
X87878231Y-133888867D01*
X87944552Y-133844552D01*
X87988867Y-133778231D01*
X87988867Y-133778229D01*
X87988868Y-133778229D01*
X88000499Y-133719752D01*
X88000500Y-133719750D01*
X88000500Y-132210000D01*
X100296491Y-132210000D01*
X101284252Y-132210000D01*
X101262482Y-132247708D01*
X101225000Y-132387591D01*
X101225000Y-132532409D01*
X101262482Y-132672292D01*
X101284252Y-132710000D01*
X100296491Y-132710000D01*
X100310765Y-132800128D01*
X100381417Y-133017570D01*
X100485211Y-133221276D01*
X100619597Y-133406242D01*
X100781257Y-133567902D01*
X100966223Y-133702288D01*
X101133623Y-133787583D01*
X101184419Y-133835558D01*
X101201214Y-133903379D01*
X101178677Y-133969513D01*
X101133625Y-134008552D01*
X101123195Y-134013866D01*
X101039426Y-134074728D01*
X100976371Y-134120541D01*
X100976369Y-134120543D01*
X100976368Y-134120543D01*
X100848043Y-134248868D01*
X100848043Y-134248869D01*
X100848041Y-134248871D01*
X100807429Y-134304768D01*
X100741366Y-134395695D01*
X100658971Y-134557404D01*
X100602891Y-134730000D01*
X100602891Y-134730003D01*
X100574500Y-134909257D01*
X100574500Y-135090742D01*
X100602891Y-135269996D01*
X100602891Y-135269999D01*
X100658971Y-135442595D01*
X100707322Y-135537489D01*
X100741366Y-135604304D01*
X100848041Y-135751129D01*
X100976371Y-135879459D01*
X101123196Y-135986134D01*
X101229152Y-136040121D01*
X101284904Y-136068528D01*
X101457501Y-136124608D01*
X101457502Y-136124608D01*
X101457505Y-136124609D01*
X101545371Y-136138525D01*
X101558006Y-136140527D01*
X101621141Y-136170456D01*
X101658072Y-136229768D01*
X101657074Y-136299630D01*
X101618464Y-136357863D01*
X101554501Y-136385977D01*
X101538608Y-136387000D01*
X100755247Y-136387000D01*
X100696770Y-136398631D01*
X100696769Y-136398632D01*
X100630447Y-136442947D01*
X100586132Y-136509269D01*
X100586131Y-136509270D01*
X100574500Y-136567747D01*
X100574500Y-138512252D01*
X100586131Y-138570729D01*
X100586132Y-138570730D01*
X100630447Y-138637052D01*
X100696769Y-138681367D01*
X100696770Y-138681368D01*
X100755247Y-138692999D01*
X100755250Y-138693000D01*
X100755252Y-138693000D01*
X102794750Y-138693000D01*
X102794751Y-138692999D01*
X102809568Y-138690052D01*
X102853229Y-138681368D01*
X102853229Y-138681367D01*
X102853231Y-138681367D01*
X102919552Y-138637052D01*
X102963867Y-138570731D01*
X102963867Y-138570729D01*
X102963868Y-138570729D01*
X102975499Y-138512252D01*
X102975500Y-138512250D01*
X102975500Y-136567749D01*
X102975499Y-136567747D01*
X102963868Y-136509270D01*
X102963867Y-136509269D01*
X102919552Y-136442947D01*
X102853230Y-136398632D01*
X102853229Y-136398631D01*
X102794752Y-136387000D01*
X102794748Y-136387000D01*
X102011392Y-136387000D01*
X101944353Y-136367315D01*
X101898598Y-136314511D01*
X101888654Y-136245353D01*
X101917679Y-136181797D01*
X101976457Y-136144023D01*
X101991994Y-136140527D01*
X101997915Y-136139589D01*
X102092495Y-136124609D01*
X102092498Y-136124608D01*
X102092499Y-136124608D01*
X102265095Y-136068528D01*
X102265095Y-136068527D01*
X102265098Y-136068527D01*
X102426804Y-135986134D01*
X102573629Y-135879459D01*
X102701959Y-135751129D01*
X102808634Y-135604304D01*
X102891027Y-135442598D01*
X102947109Y-135269995D01*
X102975500Y-135090743D01*
X102975500Y-134909257D01*
X102947109Y-134730005D01*
X102947108Y-134730001D01*
X102947108Y-134730000D01*
X102891028Y-134557404D01*
X102878894Y-134533589D01*
X102808634Y-134395696D01*
X102701959Y-134248871D01*
X102573629Y-134120541D01*
X102500216Y-134067203D01*
X102426802Y-134013864D01*
X102416377Y-134008553D01*
X102365581Y-133960580D01*
X102348785Y-133892759D01*
X102371322Y-133826624D01*
X102416376Y-133787583D01*
X102583776Y-133702288D01*
X102768742Y-133567902D01*
X102930402Y-133406242D01*
X103064788Y-133221276D01*
X103168582Y-133017570D01*
X103239234Y-132800128D01*
X103253509Y-132710000D01*
X102265748Y-132710000D01*
X102287518Y-132672292D01*
X102325000Y-132532409D01*
X102325000Y-132387591D01*
X102287518Y-132247708D01*
X102265748Y-132210000D01*
X103253509Y-132210000D01*
X103239234Y-132119871D01*
X103168582Y-131902429D01*
X103064788Y-131698723D01*
X102930402Y-131513757D01*
X102768742Y-131352097D01*
X102583776Y-131217711D01*
X102380068Y-131113917D01*
X102162625Y-131043265D01*
X102162626Y-131043265D01*
X102025000Y-131021467D01*
X102025000Y-131969252D01*
X101987292Y-131947482D01*
X101847409Y-131910000D01*
X101702591Y-131910000D01*
X101562708Y-131947482D01*
X101525000Y-131969252D01*
X101525000Y-131021467D01*
X101387374Y-131043265D01*
X101169931Y-131113917D01*
X100966223Y-131217711D01*
X100781257Y-131352097D01*
X100619597Y-131513757D01*
X100485211Y-131698723D01*
X100381417Y-131902429D01*
X100310765Y-132119871D01*
X100296491Y-132210000D01*
X88000500Y-132210000D01*
X88000500Y-130680249D01*
X88000499Y-130680247D01*
X87988868Y-130621770D01*
X87988867Y-130621769D01*
X87944552Y-130555447D01*
X87878230Y-130511132D01*
X87878229Y-130511131D01*
X87819752Y-130499500D01*
X87819748Y-130499500D01*
X84780252Y-130499500D01*
X84780247Y-130499500D01*
X84721770Y-130511131D01*
X84721769Y-130511132D01*
X84655447Y-130555447D01*
X84611132Y-130621769D01*
X84611131Y-130621770D01*
X84599500Y-130680247D01*
X79381131Y-130680247D01*
X79381131Y-126399998D01*
X96779891Y-126399998D01*
X96779891Y-126400001D01*
X96800300Y-126685362D01*
X96861109Y-126964895D01*
X96961091Y-127232958D01*
X97098191Y-127484038D01*
X97098196Y-127484046D01*
X97204882Y-127626562D01*
X97204883Y-127626563D01*
X98183958Y-126647488D01*
X98208978Y-126707890D01*
X98280112Y-126814351D01*
X98370649Y-126904888D01*
X98477110Y-126976022D01*
X98537511Y-127001041D01*
X97558435Y-127980115D01*
X97558436Y-127980116D01*
X97700953Y-128086803D01*
X97700961Y-128086808D01*
X97952042Y-128223908D01*
X97952041Y-128223908D01*
X98220104Y-128323890D01*
X98499637Y-128384699D01*
X98784999Y-128405109D01*
X98785001Y-128405109D01*
X99070362Y-128384699D01*
X99349895Y-128323890D01*
X99617958Y-128223908D01*
X99869038Y-128086808D01*
X99869039Y-128086807D01*
X100011563Y-127980115D01*
X99032488Y-127001041D01*
X99092890Y-126976022D01*
X99199351Y-126904888D01*
X99289888Y-126814351D01*
X99361022Y-126707890D01*
X99386041Y-126647488D01*
X100365115Y-127626563D01*
X100471807Y-127484039D01*
X100471808Y-127484038D01*
X100608908Y-127232958D01*
X100708890Y-126964895D01*
X100769699Y-126685362D01*
X100790109Y-126400001D01*
X100790109Y-126399998D01*
X100769699Y-126114637D01*
X100733183Y-125946777D01*
X104296435Y-125946777D01*
X104296435Y-126159350D01*
X104324410Y-126335981D01*
X104329689Y-126369307D01*
X104388562Y-126550500D01*
X104395379Y-126571478D01*
X104491886Y-126760884D01*
X104616825Y-126932850D01*
X104767148Y-127083173D01*
X104939114Y-127208112D01*
X104939116Y-127208113D01*
X104939119Y-127208115D01*
X105128523Y-127304621D01*
X105330692Y-127370310D01*
X105540648Y-127403564D01*
X105540649Y-127403564D01*
X105753221Y-127403564D01*
X105753222Y-127403564D01*
X105963178Y-127370310D01*
X106165347Y-127304621D01*
X106354751Y-127208115D01*
X106376724Y-127192150D01*
X106526721Y-127083173D01*
X106526723Y-127083170D01*
X106526727Y-127083168D01*
X106677039Y-126932856D01*
X106677041Y-126932852D01*
X106677044Y-126932850D01*
X106801983Y-126760884D01*
X106801982Y-126760884D01*
X106801986Y-126760880D01*
X106898492Y-126571476D01*
X106964181Y-126369307D01*
X106997435Y-126159351D01*
X106997435Y-125946777D01*
X106964181Y-125736821D01*
X106898492Y-125534652D01*
X106801986Y-125345248D01*
X106801984Y-125345245D01*
X106801983Y-125345243D01*
X106677044Y-125173277D01*
X106526721Y-125022954D01*
X106354755Y-124898015D01*
X106165349Y-124801508D01*
X106165348Y-124801507D01*
X106165347Y-124801507D01*
X105963178Y-124735818D01*
X105963176Y-124735817D01*
X105963175Y-124735817D01*
X105801892Y-124710272D01*
X105753222Y-124702564D01*
X105540648Y-124702564D01*
X105491977Y-124710272D01*
X105330695Y-124735817D01*
X105128520Y-124801508D01*
X104939114Y-124898015D01*
X104767148Y-125022954D01*
X104616825Y-125173277D01*
X104491886Y-125345243D01*
X104395379Y-125534649D01*
X104329688Y-125736824D01*
X104296435Y-125946777D01*
X100733183Y-125946777D01*
X100708890Y-125835104D01*
X100608908Y-125567041D01*
X100471808Y-125315961D01*
X100471803Y-125315953D01*
X100365116Y-125173436D01*
X100365115Y-125173435D01*
X99386041Y-126152510D01*
X99361022Y-126092110D01*
X99289888Y-125985649D01*
X99199351Y-125895112D01*
X99092890Y-125823978D01*
X99032487Y-125798958D01*
X100011563Y-124819883D01*
X100011562Y-124819882D01*
X99869046Y-124713196D01*
X99869038Y-124713191D01*
X99617957Y-124576091D01*
X99617958Y-124576091D01*
X99349895Y-124476109D01*
X99070362Y-124415300D01*
X98785001Y-124394891D01*
X98784999Y-124394891D01*
X98499637Y-124415300D01*
X98220104Y-124476109D01*
X97952041Y-124576091D01*
X97700961Y-124713191D01*
X97700953Y-124713196D01*
X97558435Y-124819882D01*
X98537512Y-125798958D01*
X98477110Y-125823978D01*
X98370649Y-125895112D01*
X98280112Y-125985649D01*
X98208978Y-126092110D01*
X98183958Y-126152511D01*
X97204882Y-125173435D01*
X97098196Y-125315953D01*
X97098191Y-125315961D01*
X96961091Y-125567041D01*
X96861109Y-125835104D01*
X96800300Y-126114637D01*
X96779891Y-126399998D01*
X79381131Y-126399998D01*
X79381131Y-124025912D01*
X79400816Y-123958873D01*
X79413637Y-123942217D01*
X83129695Y-119880247D01*
X97084500Y-119880247D01*
X97084500Y-122919752D01*
X97096131Y-122978229D01*
X97096132Y-122978230D01*
X97140447Y-123044552D01*
X97206769Y-123088867D01*
X97206770Y-123088868D01*
X97265247Y-123100499D01*
X97265250Y-123100500D01*
X97265252Y-123100500D01*
X100304750Y-123100500D01*
X100304751Y-123100499D01*
X100319568Y-123097552D01*
X100363229Y-123088868D01*
X100363229Y-123088867D01*
X100363231Y-123088867D01*
X100429552Y-123044552D01*
X100473867Y-122978231D01*
X100473867Y-122978229D01*
X100473868Y-122978229D01*
X100485499Y-122919752D01*
X100485500Y-122919750D01*
X100485500Y-121100000D01*
X114894353Y-121100000D01*
X114914834Y-121242456D01*
X114967394Y-121357544D01*
X114974623Y-121373373D01*
X115068872Y-121482143D01*
X115189947Y-121559953D01*
X115189950Y-121559954D01*
X115189949Y-121559954D01*
X115328036Y-121600499D01*
X115328038Y-121600500D01*
X115328039Y-121600500D01*
X115471961Y-121600500D01*
X115571906Y-121571153D01*
X115587846Y-121567595D01*
X115589605Y-121567322D01*
X115595790Y-121566364D01*
X116029436Y-121408022D01*
X116071967Y-121400500D01*
X117639560Y-121400500D01*
X117639562Y-121400500D01*
X117715989Y-121380021D01*
X117784511Y-121340460D01*
X117840460Y-121284511D01*
X118737335Y-120387634D01*
X118772722Y-120362883D01*
X119162602Y-120181571D01*
X119196530Y-120165793D01*
X119196807Y-120166389D01*
X119202182Y-120164073D01*
X119201984Y-120163638D01*
X119210048Y-120159954D01*
X119210053Y-120159953D01*
X119331128Y-120082143D01*
X119425377Y-119973373D01*
X119485165Y-119842457D01*
X119505647Y-119700000D01*
X119485165Y-119557543D01*
X119425377Y-119426627D01*
X119331128Y-119317857D01*
X119210053Y-119240047D01*
X119210051Y-119240046D01*
X119210049Y-119240045D01*
X119210050Y-119240045D01*
X119071963Y-119199500D01*
X119071961Y-119199500D01*
X118928039Y-119199500D01*
X118928036Y-119199500D01*
X118789949Y-119240045D01*
X118668873Y-119317856D01*
X118574621Y-119426628D01*
X118574619Y-119426632D01*
X118551317Y-119477655D01*
X118538601Y-119499358D01*
X118531788Y-119508669D01*
X118337113Y-119927277D01*
X118312358Y-119962669D01*
X117511848Y-120763181D01*
X117450525Y-120796666D01*
X117424167Y-120799500D01*
X116071968Y-120799500D01*
X116029437Y-120791978D01*
X115595783Y-120633634D01*
X115585631Y-120631941D01*
X115571098Y-120628608D01*
X115471963Y-120599500D01*
X115471961Y-120599500D01*
X115328039Y-120599500D01*
X115328036Y-120599500D01*
X115189949Y-120640045D01*
X115068873Y-120717856D01*
X114974623Y-120826626D01*
X114974622Y-120826628D01*
X114914834Y-120957543D01*
X114894353Y-121100000D01*
X100485500Y-121100000D01*
X100485500Y-119880249D01*
X100485499Y-119880247D01*
X100473868Y-119821770D01*
X100473867Y-119821769D01*
X100429552Y-119755447D01*
X100363230Y-119711132D01*
X100363229Y-119711131D01*
X100304752Y-119699500D01*
X100304748Y-119699500D01*
X97265252Y-119699500D01*
X97265247Y-119699500D01*
X97206770Y-119711131D01*
X97206769Y-119711132D01*
X97140447Y-119755447D01*
X97096132Y-119821769D01*
X97096131Y-119821770D01*
X97084500Y-119880247D01*
X83129695Y-119880247D01*
X84070924Y-118851403D01*
X84130699Y-118815227D01*
X84162414Y-118811102D01*
X103116627Y-118811102D01*
X103133074Y-118812896D01*
X103133080Y-118812833D01*
X103141165Y-118813533D01*
X103141174Y-118813535D01*
X103193139Y-118811224D01*
X103198648Y-118811102D01*
X103250659Y-118811102D01*
X103258718Y-118810041D01*
X103258726Y-118810103D01*
X103264835Y-118809160D01*
X103264824Y-118809098D01*
X103272823Y-118807680D01*
X103272829Y-118807680D01*
X103322480Y-118791980D01*
X103327649Y-118790471D01*
X103377951Y-118776994D01*
X103377953Y-118776992D01*
X103377956Y-118776992D01*
X103385465Y-118773882D01*
X103385490Y-118773942D01*
X103391146Y-118771450D01*
X103391118Y-118771391D01*
X103398479Y-118767951D01*
X103398479Y-118767950D01*
X103398482Y-118767950D01*
X103442354Y-118739949D01*
X103447021Y-118737115D01*
X103492079Y-118711102D01*
X103492082Y-118711098D01*
X103498534Y-118706149D01*
X103498573Y-118706200D01*
X103503385Y-118702334D01*
X103503344Y-118702285D01*
X103509565Y-118697054D01*
X103509570Y-118697052D01*
X103544700Y-118658650D01*
X103548464Y-118654715D01*
X103585265Y-118617916D01*
X103585270Y-118617906D01*
X103590214Y-118611466D01*
X103590264Y-118611504D01*
X103600036Y-118598163D01*
X105062101Y-117000000D01*
X115794353Y-117000000D01*
X115814834Y-117142456D01*
X115874622Y-117273371D01*
X115874623Y-117273373D01*
X115968872Y-117382143D01*
X116089947Y-117459953D01*
X116089950Y-117459954D01*
X116089949Y-117459954D01*
X116228036Y-117500499D01*
X116228038Y-117500500D01*
X116228039Y-117500500D01*
X116371961Y-117500500D01*
X116471906Y-117471153D01*
X116487846Y-117467595D01*
X116489605Y-117467322D01*
X116495790Y-117466364D01*
X116882002Y-117325342D01*
X116929436Y-117308022D01*
X116971967Y-117300500D01*
X118424167Y-117300500D01*
X118491206Y-117320185D01*
X118511848Y-117336819D01*
X119763181Y-118588152D01*
X119796666Y-118649475D01*
X119799500Y-118675833D01*
X119799500Y-120828030D01*
X119791978Y-120870561D01*
X119633633Y-121304218D01*
X119633137Y-121307193D01*
X119623625Y-121338294D01*
X119614834Y-121357544D01*
X119594353Y-121500000D01*
X119614834Y-121642456D01*
X119674622Y-121773371D01*
X119674623Y-121773373D01*
X119768872Y-121882143D01*
X119889947Y-121959953D01*
X119889950Y-121959954D01*
X119889949Y-121959954D01*
X120028036Y-122000499D01*
X120028038Y-122000500D01*
X120028039Y-122000500D01*
X120171962Y-122000500D01*
X120171962Y-122000499D01*
X120310053Y-121959953D01*
X120431128Y-121882143D01*
X120525377Y-121773373D01*
X120585165Y-121642457D01*
X120605647Y-121500000D01*
X120585165Y-121357543D01*
X120576334Y-121338207D01*
X120567914Y-121310099D01*
X120567882Y-121310108D01*
X120567670Y-121309285D01*
X120566593Y-121305692D01*
X120566364Y-121304209D01*
X120408022Y-120870561D01*
X120400500Y-120828030D01*
X120400500Y-118460439D01*
X120399124Y-118455303D01*
X120380021Y-118384011D01*
X120347174Y-118327118D01*
X120340464Y-118315495D01*
X120340458Y-118315487D01*
X118784512Y-116759541D01*
X118784507Y-116759537D01*
X118771235Y-116751875D01*
X118771233Y-116751874D01*
X118715991Y-116719980D01*
X118715990Y-116719979D01*
X118690513Y-116713152D01*
X118639562Y-116699500D01*
X118639560Y-116699500D01*
X116971968Y-116699500D01*
X116929437Y-116691978D01*
X116495783Y-116533634D01*
X116485631Y-116531941D01*
X116471098Y-116528608D01*
X116371963Y-116499500D01*
X116371961Y-116499500D01*
X116228039Y-116499500D01*
X116228036Y-116499500D01*
X116089949Y-116540045D01*
X115968873Y-116617856D01*
X115874623Y-116726626D01*
X115874622Y-116726628D01*
X115814834Y-116857543D01*
X115794353Y-117000000D01*
X105062101Y-117000000D01*
X105806064Y-116186784D01*
X105809829Y-116182848D01*
X105846628Y-116146051D01*
X105846629Y-116146048D01*
X105851577Y-116139601D01*
X105851628Y-116139640D01*
X105855280Y-116134656D01*
X105855227Y-116134619D01*
X105859881Y-116127958D01*
X105859886Y-116127954D01*
X105883883Y-116081762D01*
X105886498Y-116076992D01*
X105912520Y-116031923D01*
X105912521Y-116031916D01*
X105915632Y-116024410D01*
X105915691Y-116024434D01*
X105917930Y-116018670D01*
X105917869Y-116018648D01*
X105920639Y-116011017D01*
X105920643Y-116011010D01*
X105931865Y-115960191D01*
X105933159Y-115954889D01*
X105946628Y-115904629D01*
X105946628Y-115904627D01*
X105947689Y-115896571D01*
X105947751Y-115896579D01*
X105948423Y-115890427D01*
X105948360Y-115890422D01*
X105949060Y-115882335D01*
X105949062Y-115882327D01*
X105946750Y-115830348D01*
X105946628Y-115824838D01*
X105946628Y-112243753D01*
X107600000Y-112243753D01*
X107600000Y-112250000D01*
X108516988Y-112250000D01*
X108484075Y-112307007D01*
X108450000Y-112434174D01*
X108450000Y-112565826D01*
X108484075Y-112692993D01*
X108516988Y-112750000D01*
X107600000Y-112750000D01*
X107600000Y-112756246D01*
X107633242Y-112966127D01*
X107633242Y-112966130D01*
X107698904Y-113168217D01*
X107795379Y-113357557D01*
X107920272Y-113529459D01*
X107920276Y-113529464D01*
X108070535Y-113679723D01*
X108070540Y-113679727D01*
X108242442Y-113804620D01*
X108431782Y-113901095D01*
X108633871Y-113966757D01*
X108700000Y-113977231D01*
X108700000Y-112933012D01*
X108757007Y-112965925D01*
X108884174Y-113000000D01*
X109015826Y-113000000D01*
X109142993Y-112965925D01*
X109200000Y-112933012D01*
X109200000Y-113977230D01*
X109266126Y-113966757D01*
X109266129Y-113966757D01*
X109468217Y-113901095D01*
X109657557Y-113804620D01*
X109829459Y-113679727D01*
X109829464Y-113679723D01*
X109979723Y-113529464D01*
X109979727Y-113529459D01*
X110104620Y-113357557D01*
X110165015Y-113239028D01*
X110212990Y-113188232D01*
X110280811Y-113171437D01*
X110346946Y-113193974D01*
X110390397Y-113248690D01*
X110399500Y-113295323D01*
X110399500Y-113304269D01*
X110402353Y-113334699D01*
X110402353Y-113334701D01*
X110447206Y-113462880D01*
X110447207Y-113462882D01*
X110527850Y-113572150D01*
X110637118Y-113652793D01*
X110679845Y-113667744D01*
X110765299Y-113697646D01*
X110795730Y-113700500D01*
X110795734Y-113700500D01*
X112104270Y-113700500D01*
X112134699Y-113697646D01*
X112134701Y-113697646D01*
X112198790Y-113675219D01*
X112262882Y-113652793D01*
X112372150Y-113572150D01*
X112452793Y-113462882D01*
X112489648Y-113357557D01*
X112497646Y-113334701D01*
X112497646Y-113334699D01*
X112500500Y-113304269D01*
X112500500Y-112243753D01*
X116550000Y-112243753D01*
X116550000Y-112250000D01*
X117466988Y-112250000D01*
X117434075Y-112307007D01*
X117400000Y-112434174D01*
X117400000Y-112565826D01*
X117434075Y-112692993D01*
X117466988Y-112750000D01*
X116550000Y-112750000D01*
X116550000Y-112756246D01*
X116583242Y-112966127D01*
X116583242Y-112966130D01*
X116648904Y-113168217D01*
X116745379Y-113357557D01*
X116870272Y-113529459D01*
X116870276Y-113529464D01*
X117020535Y-113679723D01*
X117020540Y-113679727D01*
X117192442Y-113804620D01*
X117381782Y-113901095D01*
X117583871Y-113966757D01*
X117650000Y-113977231D01*
X117650000Y-112933012D01*
X117707007Y-112965925D01*
X117834174Y-113000000D01*
X117965826Y-113000000D01*
X118092993Y-112965925D01*
X118150000Y-112933012D01*
X118150000Y-113977230D01*
X118216126Y-113966757D01*
X118216129Y-113966757D01*
X118418217Y-113901095D01*
X118607557Y-113804620D01*
X118779459Y-113679727D01*
X118779464Y-113679723D01*
X118929723Y-113529464D01*
X118929727Y-113529459D01*
X119054620Y-113357557D01*
X119115015Y-113239028D01*
X119162990Y-113188232D01*
X119230811Y-113171437D01*
X119296946Y-113193974D01*
X119340397Y-113248690D01*
X119349500Y-113295323D01*
X119349500Y-113304269D01*
X119352353Y-113334699D01*
X119352353Y-113334701D01*
X119397206Y-113462880D01*
X119397207Y-113462882D01*
X119477850Y-113572150D01*
X119587118Y-113652793D01*
X119629845Y-113667744D01*
X119715299Y-113697646D01*
X119745730Y-113700500D01*
X119745734Y-113700500D01*
X121054270Y-113700500D01*
X121084699Y-113697646D01*
X121084701Y-113697646D01*
X121148790Y-113675219D01*
X121212882Y-113652793D01*
X121322150Y-113572150D01*
X121402793Y-113462882D01*
X121439648Y-113357557D01*
X121447646Y-113334701D01*
X121447646Y-113334699D01*
X121450500Y-113304269D01*
X121450500Y-111695730D01*
X121447646Y-111665300D01*
X121447646Y-111665298D01*
X121414006Y-111569163D01*
X121402793Y-111537118D01*
X121322150Y-111427850D01*
X121212882Y-111347207D01*
X121212880Y-111347206D01*
X121084700Y-111302353D01*
X121054270Y-111299500D01*
X121054266Y-111299500D01*
X119745734Y-111299500D01*
X119745730Y-111299500D01*
X119715300Y-111302353D01*
X119715298Y-111302353D01*
X119587119Y-111347206D01*
X119587117Y-111347207D01*
X119477850Y-111427850D01*
X119397207Y-111537117D01*
X119397206Y-111537119D01*
X119352353Y-111665298D01*
X119352353Y-111665300D01*
X119349500Y-111695730D01*
X119349500Y-111704676D01*
X119329815Y-111771715D01*
X119277011Y-111817470D01*
X119207853Y-111827414D01*
X119144297Y-111798389D01*
X119115015Y-111760971D01*
X119054620Y-111642442D01*
X118929727Y-111470540D01*
X118929723Y-111470535D01*
X118779464Y-111320276D01*
X118779459Y-111320272D01*
X118607557Y-111195379D01*
X118420368Y-111100000D01*
X123094353Y-111100000D01*
X123114834Y-111242456D01*
X123114835Y-111242459D01*
X123123661Y-111261783D01*
X123132083Y-111289893D01*
X123132116Y-111289885D01*
X123132330Y-111290717D01*
X123133404Y-111294301D01*
X123133632Y-111295776D01*
X123133635Y-111295787D01*
X123202363Y-111484011D01*
X123279670Y-111695730D01*
X123291978Y-111729436D01*
X123299500Y-111771967D01*
X123299500Y-112139562D01*
X123304499Y-112158217D01*
X123319979Y-112215990D01*
X123319982Y-112215995D01*
X123357563Y-112281088D01*
X123359535Y-112284504D01*
X123359542Y-112284513D01*
X126500681Y-115425652D01*
X126534166Y-115486975D01*
X126537000Y-115513333D01*
X126537000Y-117325342D01*
X126517315Y-117392381D01*
X126513007Y-117398653D01*
X125900409Y-118234326D01*
X125900397Y-118234345D01*
X125896844Y-118240902D01*
X125887598Y-118255449D01*
X125834707Y-118327116D01*
X125789853Y-118455303D01*
X125787000Y-118485730D01*
X125787000Y-120094269D01*
X125789853Y-120124699D01*
X125789853Y-120124701D01*
X125834706Y-120252880D01*
X125834707Y-120252882D01*
X125915350Y-120362150D01*
X126024618Y-120442793D01*
X126067345Y-120457744D01*
X126152799Y-120487646D01*
X126183230Y-120490500D01*
X126183234Y-120490500D01*
X127491770Y-120490500D01*
X127522199Y-120487646D01*
X127522201Y-120487646D01*
X127586290Y-120465219D01*
X127650382Y-120442793D01*
X127759650Y-120362150D01*
X127840293Y-120252882D01*
X127870767Y-120165793D01*
X127885146Y-120124701D01*
X127885146Y-120124699D01*
X127888000Y-120094269D01*
X127888000Y-120085323D01*
X127907685Y-120018284D01*
X127960489Y-119972529D01*
X128029647Y-119962585D01*
X128093203Y-119991610D01*
X128122485Y-120029028D01*
X128182879Y-120147557D01*
X128307772Y-120319459D01*
X128307776Y-120319464D01*
X128458035Y-120469723D01*
X128458040Y-120469727D01*
X128629942Y-120594620D01*
X128819282Y-120691095D01*
X129021371Y-120756757D01*
X129087500Y-120767231D01*
X129087500Y-119723012D01*
X129144507Y-119755925D01*
X129271674Y-119790000D01*
X129403326Y-119790000D01*
X129530493Y-119755925D01*
X129587500Y-119723012D01*
X129587500Y-120767230D01*
X129653626Y-120756757D01*
X129653629Y-120756757D01*
X129855717Y-120691095D01*
X130045057Y-120594620D01*
X130216959Y-120469727D01*
X130216964Y-120469723D01*
X130367223Y-120319464D01*
X130367227Y-120319459D01*
X130492120Y-120147557D01*
X130588595Y-119958217D01*
X130654257Y-119756130D01*
X130654257Y-119756127D01*
X130687500Y-119546246D01*
X130687500Y-119540000D01*
X129770512Y-119540000D01*
X129803425Y-119482993D01*
X129837500Y-119355826D01*
X129837500Y-119224174D01*
X129803425Y-119097007D01*
X129770512Y-119040000D01*
X130687500Y-119040000D01*
X130687500Y-119033753D01*
X130654257Y-118823872D01*
X130654257Y-118823869D01*
X130588595Y-118621782D01*
X130492120Y-118432442D01*
X130367227Y-118260540D01*
X130367223Y-118260535D01*
X130216964Y-118110276D01*
X130216959Y-118110272D01*
X130045057Y-117985379D01*
X129855715Y-117888903D01*
X129653624Y-117823241D01*
X129587500Y-117812768D01*
X129587500Y-118856988D01*
X129530493Y-118824075D01*
X129403326Y-118790000D01*
X129271674Y-118790000D01*
X129144507Y-118824075D01*
X129087500Y-118856988D01*
X129087500Y-117812768D01*
X129087499Y-117812768D01*
X129021375Y-117823241D01*
X128819284Y-117888903D01*
X128629942Y-117985379D01*
X128458040Y-118110272D01*
X128458035Y-118110276D01*
X128307776Y-118260535D01*
X128307772Y-118260540D01*
X128182879Y-118432442D01*
X128122485Y-118550971D01*
X128074510Y-118601767D01*
X128006689Y-118618562D01*
X127940554Y-118596024D01*
X127897103Y-118541309D01*
X127888000Y-118494676D01*
X127888000Y-118485730D01*
X127885146Y-118455300D01*
X127885146Y-118455298D01*
X127857446Y-118376138D01*
X127840293Y-118327118D01*
X127831715Y-118315495D01*
X127786731Y-118254543D01*
X127777801Y-118239510D01*
X127777695Y-118239574D01*
X127774596Y-118234340D01*
X127774592Y-118234330D01*
X127605225Y-118003288D01*
X127161993Y-117398653D01*
X127138233Y-117332947D01*
X127138000Y-117325342D01*
X127138000Y-115297939D01*
X127117520Y-115221509D01*
X127117517Y-115221504D01*
X127077964Y-115152995D01*
X127077958Y-115152987D01*
X123936819Y-112011848D01*
X123903334Y-111950525D01*
X123900500Y-111924167D01*
X123900500Y-111771967D01*
X123908022Y-111729436D01*
X123920328Y-111695734D01*
X124066364Y-111295789D01*
X124066857Y-111292826D01*
X124076378Y-111261696D01*
X124085165Y-111242456D01*
X124086416Y-111233753D01*
X124105647Y-111100000D01*
X124085165Y-110957543D01*
X124025377Y-110826627D01*
X123931128Y-110717857D01*
X123881137Y-110685730D01*
X125787000Y-110685730D01*
X125787000Y-112294269D01*
X125789853Y-112324699D01*
X125789853Y-112324701D01*
X125834706Y-112452880D01*
X125834707Y-112452882D01*
X125915350Y-112562150D01*
X126024618Y-112642793D01*
X126067345Y-112657744D01*
X126152799Y-112687646D01*
X126183230Y-112690500D01*
X126183234Y-112690500D01*
X127491770Y-112690500D01*
X127522199Y-112687646D01*
X127522201Y-112687646D01*
X127586290Y-112665219D01*
X127650382Y-112642793D01*
X127759650Y-112562150D01*
X127840293Y-112452882D01*
X127877148Y-112347557D01*
X127885146Y-112324701D01*
X127885146Y-112324699D01*
X127888000Y-112294269D01*
X127888000Y-112285323D01*
X127907685Y-112218284D01*
X127960489Y-112172529D01*
X128029647Y-112162585D01*
X128093203Y-112191610D01*
X128122485Y-112229028D01*
X128182879Y-112347557D01*
X128307772Y-112519459D01*
X128307776Y-112519464D01*
X128458035Y-112669723D01*
X128458040Y-112669727D01*
X128629942Y-112794620D01*
X128819282Y-112891095D01*
X129021371Y-112956757D01*
X129087500Y-112967231D01*
X129087500Y-111923012D01*
X129144507Y-111955925D01*
X129271674Y-111990000D01*
X129403326Y-111990000D01*
X129530493Y-111955925D01*
X129587500Y-111923012D01*
X129587500Y-112967230D01*
X129653626Y-112956757D01*
X129653629Y-112956757D01*
X129855717Y-112891095D01*
X130045057Y-112794620D01*
X130216959Y-112669727D01*
X130216964Y-112669723D01*
X130367223Y-112519464D01*
X130367227Y-112519459D01*
X130492120Y-112347557D01*
X130588595Y-112158217D01*
X130654257Y-111956130D01*
X130654257Y-111956127D01*
X130687500Y-111746246D01*
X130687500Y-111740000D01*
X129770512Y-111740000D01*
X129803425Y-111682993D01*
X129837500Y-111555826D01*
X129837500Y-111424174D01*
X129803425Y-111297007D01*
X129770512Y-111240000D01*
X130687500Y-111240000D01*
X130687500Y-111233753D01*
X130654257Y-111023872D01*
X130654257Y-111023869D01*
X130588595Y-110821782D01*
X130492120Y-110632442D01*
X130367227Y-110460540D01*
X130367223Y-110460535D01*
X130216964Y-110310276D01*
X130216959Y-110310272D01*
X130045057Y-110185379D01*
X129855715Y-110088903D01*
X129653624Y-110023241D01*
X129587500Y-110012768D01*
X129587500Y-111056988D01*
X129530493Y-111024075D01*
X129403326Y-110990000D01*
X129271674Y-110990000D01*
X129144507Y-111024075D01*
X129087500Y-111056988D01*
X129087500Y-110012768D01*
X129087499Y-110012768D01*
X129021375Y-110023241D01*
X128819284Y-110088903D01*
X128629942Y-110185379D01*
X128458040Y-110310272D01*
X128458035Y-110310276D01*
X128307776Y-110460535D01*
X128307772Y-110460540D01*
X128182879Y-110632442D01*
X128122485Y-110750971D01*
X128074510Y-110801767D01*
X128006689Y-110818562D01*
X127940554Y-110796024D01*
X127897103Y-110741309D01*
X127888000Y-110694676D01*
X127888000Y-110685730D01*
X127885146Y-110655300D01*
X127885146Y-110655298D01*
X127849128Y-110552367D01*
X127840293Y-110527118D01*
X127759650Y-110417850D01*
X127650382Y-110337207D01*
X127650380Y-110337206D01*
X127522200Y-110292353D01*
X127491770Y-110289500D01*
X127491766Y-110289500D01*
X126183234Y-110289500D01*
X126183230Y-110289500D01*
X126152800Y-110292353D01*
X126152798Y-110292353D01*
X126024619Y-110337206D01*
X126024617Y-110337207D01*
X125915350Y-110417850D01*
X125834707Y-110527117D01*
X125834706Y-110527119D01*
X125789853Y-110655298D01*
X125789853Y-110655300D01*
X125787000Y-110685730D01*
X123881137Y-110685730D01*
X123810053Y-110640047D01*
X123810051Y-110640046D01*
X123810049Y-110640045D01*
X123810050Y-110640045D01*
X123671963Y-110599500D01*
X123671961Y-110599500D01*
X123528039Y-110599500D01*
X123528036Y-110599500D01*
X123389949Y-110640045D01*
X123268873Y-110717856D01*
X123174623Y-110826626D01*
X123174622Y-110826628D01*
X123114834Y-110957543D01*
X123094353Y-111100000D01*
X118420368Y-111100000D01*
X118418215Y-111098903D01*
X118216124Y-111033241D01*
X118150000Y-111022768D01*
X118150000Y-112066988D01*
X118092993Y-112034075D01*
X117965826Y-112000000D01*
X117834174Y-112000000D01*
X117707007Y-112034075D01*
X117650000Y-112066988D01*
X117650000Y-111022768D01*
X117649999Y-111022768D01*
X117583875Y-111033241D01*
X117381784Y-111098903D01*
X117192442Y-111195379D01*
X117020540Y-111320272D01*
X117020535Y-111320276D01*
X116870276Y-111470535D01*
X116870272Y-111470540D01*
X116745379Y-111642442D01*
X116648904Y-111831782D01*
X116583242Y-112033869D01*
X116583242Y-112033872D01*
X116550000Y-112243753D01*
X112500500Y-112243753D01*
X112500500Y-111695730D01*
X112497646Y-111665300D01*
X112497646Y-111665298D01*
X112464006Y-111569163D01*
X112452793Y-111537118D01*
X112372150Y-111427850D01*
X112262882Y-111347207D01*
X112262880Y-111347206D01*
X112134700Y-111302353D01*
X112104270Y-111299500D01*
X112104266Y-111299500D01*
X110795734Y-111299500D01*
X110795730Y-111299500D01*
X110765300Y-111302353D01*
X110765298Y-111302353D01*
X110637119Y-111347206D01*
X110637117Y-111347207D01*
X110527850Y-111427850D01*
X110447207Y-111537117D01*
X110447206Y-111537119D01*
X110402353Y-111665298D01*
X110402353Y-111665300D01*
X110399500Y-111695730D01*
X110399500Y-111704676D01*
X110379815Y-111771715D01*
X110327011Y-111817470D01*
X110257853Y-111827414D01*
X110194297Y-111798389D01*
X110165015Y-111760971D01*
X110104620Y-111642442D01*
X109979727Y-111470540D01*
X109979723Y-111470535D01*
X109829464Y-111320276D01*
X109829459Y-111320272D01*
X109657557Y-111195379D01*
X109468215Y-111098903D01*
X109266124Y-111033241D01*
X109200000Y-111022768D01*
X109200000Y-112066988D01*
X109142993Y-112034075D01*
X109015826Y-112000000D01*
X108884174Y-112000000D01*
X108757007Y-112034075D01*
X108700000Y-112066988D01*
X108700000Y-111022768D01*
X108699999Y-111022768D01*
X108633875Y-111033241D01*
X108431784Y-111098903D01*
X108242442Y-111195379D01*
X108070540Y-111320272D01*
X108070535Y-111320276D01*
X107920276Y-111470535D01*
X107920272Y-111470540D01*
X107795379Y-111642442D01*
X107698904Y-111831782D01*
X107633242Y-112033869D01*
X107633242Y-112033872D01*
X107600000Y-112243753D01*
X105946628Y-112243753D01*
X105946628Y-108528087D01*
X105946628Y-108528085D01*
X105912520Y-108400791D01*
X105846628Y-108286663D01*
X105753442Y-108193477D01*
X105753441Y-108193476D01*
X105749111Y-108189146D01*
X105749100Y-108189136D01*
X103721584Y-106161619D01*
X103688099Y-106100296D01*
X103685265Y-106073938D01*
X103685265Y-103142710D01*
X103704950Y-103075671D01*
X103721584Y-103055029D01*
X105617122Y-101159491D01*
X105678445Y-101126006D01*
X105704803Y-101123172D01*
X108360944Y-101123172D01*
X108427983Y-101142857D01*
X108473738Y-101195661D01*
X108483682Y-101264819D01*
X108454657Y-101328375D01*
X108413349Y-101359554D01*
X108280779Y-101421372D01*
X108280777Y-101421373D01*
X108196983Y-101480046D01*
X108196982Y-101480046D01*
X108828947Y-102112010D01*
X108765363Y-102129048D01*
X108651349Y-102194874D01*
X108558257Y-102287966D01*
X108492431Y-102401980D01*
X108475393Y-102465563D01*
X107843429Y-101833599D01*
X107843429Y-101833600D01*
X107784756Y-101917394D01*
X107784755Y-101917396D01*
X107684926Y-102131480D01*
X107684922Y-102131489D01*
X107623788Y-102359646D01*
X107623786Y-102359657D01*
X107603199Y-102594971D01*
X107603199Y-102594974D01*
X107623786Y-102830288D01*
X107623788Y-102830299D01*
X107684922Y-103058456D01*
X107684926Y-103058465D01*
X107784754Y-103272549D01*
X107843429Y-103356345D01*
X108475393Y-102724381D01*
X108492431Y-102787966D01*
X108558257Y-102901980D01*
X108651349Y-102995072D01*
X108765363Y-103060898D01*
X108828947Y-103077935D01*
X108196982Y-103709899D01*
X108280773Y-103768571D01*
X108280777Y-103768573D01*
X108494863Y-103868402D01*
X108494872Y-103868406D01*
X108617005Y-103901131D01*
X108676666Y-103937496D01*
X108707195Y-104000342D01*
X108698901Y-104069718D01*
X108654415Y-104123596D01*
X108620908Y-104139566D01*
X108554402Y-104159740D01*
X108423714Y-104229595D01*
X108371906Y-104257288D01*
X108371904Y-104257289D01*
X108371903Y-104257290D01*
X108211945Y-104388562D01*
X108088710Y-104538727D01*
X108080671Y-104548523D01*
X108055008Y-104596534D01*
X107983125Y-104731016D01*
X107923055Y-104929040D01*
X107902773Y-105134973D01*
X107923055Y-105340905D01*
X107939366Y-105394675D01*
X107983124Y-105538927D01*
X108080671Y-105721423D01*
X108098250Y-105742843D01*
X108211945Y-105881383D01*
X108278240Y-105935789D01*
X108371906Y-106012658D01*
X108554402Y-106110205D01*
X108554413Y-106110208D01*
X108554741Y-106110345D01*
X108557188Y-106111389D01*
X108560866Y-106113005D01*
X108560867Y-106113006D01*
X109856936Y-106682606D01*
X109894726Y-106708446D01*
X112646769Y-109460489D01*
X112749496Y-109519799D01*
X112773704Y-109526284D01*
X112773707Y-109526286D01*
X112773708Y-109526286D01*
X112803830Y-109534357D01*
X112864074Y-109550500D01*
X135562035Y-109550500D01*
X135629074Y-109570185D01*
X135649716Y-109586819D01*
X137013181Y-110950284D01*
X137046666Y-111011607D01*
X137049500Y-111037965D01*
X137049500Y-123688335D01*
X137029815Y-123755374D01*
X137026804Y-123759844D01*
X136888823Y-123955316D01*
X136834081Y-123998733D01*
X136764555Y-124005662D01*
X136742690Y-123999420D01*
X136247171Y-123807280D01*
X136204319Y-123779348D01*
X135284512Y-122859541D01*
X135284504Y-122859535D01*
X135215995Y-122819982D01*
X135215990Y-122819979D01*
X135190513Y-122813152D01*
X135139562Y-122799500D01*
X135139560Y-122799500D01*
X132021891Y-122799500D01*
X131954852Y-122779815D01*
X131909097Y-122727011D01*
X131899153Y-122657853D01*
X131928178Y-122594297D01*
X131934210Y-122587819D01*
X133121529Y-121400500D01*
X134340460Y-120181569D01*
X134352940Y-120159953D01*
X134380021Y-120113047D01*
X134400500Y-120036620D01*
X134400500Y-111975833D01*
X134420185Y-111908794D01*
X134436819Y-111888152D01*
X134659673Y-111665298D01*
X134916195Y-111408776D01*
X134936760Y-111373156D01*
X134939615Y-111368212D01*
X134955753Y-111340259D01*
X134955755Y-111340256D01*
X134965911Y-111302354D01*
X134976235Y-111263827D01*
X134976235Y-111047702D01*
X134983757Y-111005171D01*
X135001148Y-110957543D01*
X135142099Y-110571524D01*
X135142592Y-110568561D01*
X135152113Y-110537431D01*
X135156823Y-110527118D01*
X135160900Y-110518192D01*
X135181382Y-110375735D01*
X135160900Y-110233278D01*
X135101112Y-110102362D01*
X135006863Y-109993592D01*
X134885788Y-109915782D01*
X134885786Y-109915781D01*
X134885784Y-109915780D01*
X134885785Y-109915780D01*
X134747698Y-109875235D01*
X134747696Y-109875235D01*
X134603774Y-109875235D01*
X134603771Y-109875235D01*
X134465684Y-109915780D01*
X134344608Y-109993591D01*
X134250358Y-110102361D01*
X134250356Y-110102364D01*
X134222957Y-110162358D01*
X134177201Y-110215161D01*
X134110162Y-110234844D01*
X134075230Y-110229821D01*
X133971964Y-110199500D01*
X133971961Y-110199500D01*
X133828039Y-110199500D01*
X133828036Y-110199500D01*
X133689949Y-110240045D01*
X133568872Y-110317856D01*
X133543712Y-110346893D01*
X133484933Y-110384667D01*
X133415064Y-110384666D01*
X133356288Y-110346893D01*
X133331127Y-110317856D01*
X133282868Y-110286842D01*
X133210053Y-110240047D01*
X133210051Y-110240046D01*
X133210049Y-110240045D01*
X133210050Y-110240045D01*
X133071963Y-110199500D01*
X133071961Y-110199500D01*
X132928039Y-110199500D01*
X132928036Y-110199500D01*
X132789949Y-110240045D01*
X132668873Y-110317856D01*
X132574623Y-110426626D01*
X132574622Y-110426628D01*
X132514834Y-110557543D01*
X132494353Y-110700000D01*
X132514834Y-110842456D01*
X132514835Y-110842459D01*
X132523661Y-110861783D01*
X132532083Y-110889893D01*
X132532116Y-110889885D01*
X132532330Y-110890717D01*
X132533404Y-110894301D01*
X132533632Y-110895776D01*
X132533636Y-110895791D01*
X132553354Y-110949792D01*
X132557857Y-111019516D01*
X132523950Y-111080607D01*
X132462397Y-111113667D01*
X132392741Y-111108202D01*
X132337098Y-111065945D01*
X132324440Y-111044610D01*
X132319153Y-111033241D01*
X132168213Y-110708673D01*
X132160263Y-110697543D01*
X132148375Y-110676986D01*
X132125377Y-110626627D01*
X132031128Y-110517857D01*
X131910053Y-110440047D01*
X131910051Y-110440046D01*
X131910049Y-110440045D01*
X131910050Y-110440045D01*
X131771963Y-110399500D01*
X131771961Y-110399500D01*
X131628039Y-110399500D01*
X131628036Y-110399500D01*
X131489949Y-110440045D01*
X131368873Y-110517856D01*
X131368872Y-110517856D01*
X131368872Y-110517857D01*
X131356290Y-110532377D01*
X131274623Y-110626626D01*
X131274622Y-110626628D01*
X131214834Y-110757543D01*
X131194353Y-110900000D01*
X131214834Y-111042456D01*
X131274622Y-111173371D01*
X131274623Y-111173373D01*
X131368872Y-111282143D01*
X131368874Y-111282144D01*
X131368876Y-111282146D01*
X131474517Y-111350037D01*
X131489947Y-111359953D01*
X131489951Y-111359954D01*
X131498014Y-111363637D01*
X131497792Y-111364121D01*
X131502835Y-111366310D01*
X131503146Y-111365643D01*
X131666079Y-111441415D01*
X131927274Y-111562883D01*
X131962667Y-111587638D01*
X132063181Y-111688152D01*
X132096666Y-111749475D01*
X132099500Y-111775833D01*
X132099500Y-119824167D01*
X132079815Y-119891206D01*
X132063181Y-119911848D01*
X130811848Y-121163181D01*
X130750525Y-121196666D01*
X130724167Y-121199500D01*
X122260438Y-121199500D01*
X122184010Y-121219978D01*
X122115489Y-121259540D01*
X122115486Y-121259542D01*
X113511848Y-129863181D01*
X113450525Y-129896666D01*
X113424167Y-129899500D01*
X108030252Y-129899500D01*
X107963213Y-129879815D01*
X107948211Y-129868480D01*
X107194198Y-129203174D01*
X107194189Y-129203168D01*
X107165601Y-129185940D01*
X107160711Y-129182836D01*
X107128230Y-129161132D01*
X107128229Y-129161131D01*
X107069754Y-129149500D01*
X107067548Y-129149283D01*
X107055389Y-129149030D01*
X107049797Y-129149500D01*
X105330247Y-129149500D01*
X105271770Y-129161131D01*
X105271769Y-129161132D01*
X105205447Y-129205447D01*
X105161132Y-129271769D01*
X105161131Y-129271770D01*
X105149500Y-129330247D01*
X105149500Y-131069752D01*
X105161131Y-131128229D01*
X105161132Y-131128230D01*
X105205447Y-131194552D01*
X105271769Y-131238867D01*
X105271770Y-131238868D01*
X105330247Y-131250499D01*
X105330250Y-131250500D01*
X105330252Y-131250500D01*
X107069750Y-131250500D01*
X107069751Y-131250499D01*
X107098989Y-131244683D01*
X107128227Y-131238868D01*
X107128227Y-131238867D01*
X107128231Y-131238867D01*
X107167540Y-131212600D01*
X107174089Y-131208514D01*
X107194199Y-131196824D01*
X107948211Y-130531520D01*
X108011503Y-130501926D01*
X108030252Y-130500500D01*
X113639560Y-130500500D01*
X113639562Y-130500500D01*
X113715989Y-130480021D01*
X113784511Y-130440460D01*
X113840460Y-130384511D01*
X116187819Y-128037152D01*
X116249142Y-128003667D01*
X116318834Y-128008651D01*
X116374767Y-128050523D01*
X116399184Y-128115987D01*
X116399500Y-128124833D01*
X116399500Y-130424167D01*
X116379815Y-130491206D01*
X116363181Y-130511848D01*
X114471848Y-132403181D01*
X114410525Y-132436666D01*
X114384167Y-132439500D01*
X107987606Y-132439500D01*
X107932285Y-132426475D01*
X106628183Y-131776380D01*
X106621946Y-131773400D01*
X106615197Y-131770314D01*
X106615331Y-131770019D01*
X106607353Y-131766584D01*
X106603956Y-131764768D01*
X106457454Y-131720328D01*
X106405934Y-131704700D01*
X106405932Y-131704699D01*
X106405934Y-131704699D01*
X106200000Y-131684417D01*
X105994067Y-131704699D01*
X105796043Y-131764769D01*
X105685898Y-131823643D01*
X105613550Y-131862315D01*
X105613548Y-131862316D01*
X105613547Y-131862317D01*
X105453589Y-131993589D01*
X105322317Y-132153547D01*
X105224769Y-132336043D01*
X105164699Y-132534067D01*
X105144417Y-132740000D01*
X105164699Y-132945932D01*
X105164700Y-132945934D01*
X105224768Y-133143954D01*
X105322315Y-133326450D01*
X105322317Y-133326452D01*
X105453589Y-133486410D01*
X105550209Y-133565702D01*
X105613550Y-133617685D01*
X105796046Y-133715232D01*
X105994066Y-133775300D01*
X105994065Y-133775300D01*
X106012529Y-133777118D01*
X106200000Y-133795583D01*
X106405934Y-133775300D01*
X106603954Y-133715232D01*
X106612508Y-133710658D01*
X106626814Y-133704141D01*
X106628175Y-133703621D01*
X106628179Y-133703621D01*
X106628181Y-133703619D01*
X106628186Y-133703618D01*
X107932284Y-133053525D01*
X107987605Y-133040500D01*
X114100853Y-133040500D01*
X114167892Y-133060185D01*
X114213647Y-133112989D01*
X114223591Y-133182147D01*
X114194566Y-133245703D01*
X114188534Y-133252181D01*
X112497534Y-134943181D01*
X112436211Y-134976666D01*
X112409853Y-134979500D01*
X107987606Y-134979500D01*
X107932285Y-134966475D01*
X106628183Y-134316380D01*
X106621946Y-134313400D01*
X106615197Y-134310314D01*
X106615331Y-134310019D01*
X106607353Y-134306584D01*
X106603956Y-134304768D01*
X106419684Y-134248871D01*
X106405934Y-134244700D01*
X106405932Y-134244699D01*
X106405934Y-134244699D01*
X106200000Y-134224417D01*
X105994067Y-134244699D01*
X105796043Y-134304769D01*
X105685898Y-134363643D01*
X105613550Y-134402315D01*
X105613548Y-134402316D01*
X105613547Y-134402317D01*
X105453589Y-134533589D01*
X105322317Y-134693547D01*
X105224769Y-134876043D01*
X105164699Y-135074067D01*
X105144417Y-135280000D01*
X105164699Y-135485932D01*
X105180339Y-135537489D01*
X105224768Y-135683954D01*
X105322315Y-135866450D01*
X105322317Y-135866452D01*
X105453589Y-136026410D01*
X105470299Y-136040123D01*
X105613550Y-136157685D01*
X105796046Y-136255232D01*
X105994066Y-136315300D01*
X105994065Y-136315300D01*
X106012529Y-136317118D01*
X106200000Y-136335583D01*
X106405934Y-136315300D01*
X106603954Y-136255232D01*
X106612508Y-136250658D01*
X106626814Y-136244141D01*
X106628175Y-136243621D01*
X106628179Y-136243621D01*
X106628181Y-136243619D01*
X106628186Y-136243618D01*
X107932284Y-135593525D01*
X107987605Y-135580500D01*
X112126539Y-135580500D01*
X112193578Y-135600185D01*
X112239333Y-135652989D01*
X112249277Y-135722147D01*
X112220252Y-135785703D01*
X112214220Y-135792181D01*
X110523220Y-137483181D01*
X110461897Y-137516666D01*
X110435539Y-137519500D01*
X107987606Y-137519500D01*
X107932285Y-137506475D01*
X106628183Y-136856380D01*
X106621946Y-136853400D01*
X106615197Y-136850314D01*
X106615331Y-136850019D01*
X106607353Y-136846584D01*
X106603956Y-136844768D01*
X106457454Y-136800328D01*
X106405934Y-136784700D01*
X106405932Y-136784699D01*
X106405934Y-136784699D01*
X106200000Y-136764417D01*
X105994067Y-136784699D01*
X105796043Y-136844769D01*
X105685898Y-136903643D01*
X105613550Y-136942315D01*
X105613548Y-136942316D01*
X105613547Y-136942317D01*
X105453589Y-137073589D01*
X105322317Y-137233547D01*
X105224769Y-137416043D01*
X105164699Y-137614067D01*
X105144417Y-137820000D01*
X105164699Y-138025932D01*
X105164700Y-138025934D01*
X105224768Y-138223954D01*
X105322315Y-138406450D01*
X105322317Y-138406452D01*
X105453589Y-138566410D01*
X105539668Y-138637052D01*
X105613550Y-138697685D01*
X105796046Y-138795232D01*
X105994066Y-138855300D01*
X105994065Y-138855300D01*
X106012529Y-138857118D01*
X106200000Y-138875583D01*
X106405934Y-138855300D01*
X106603954Y-138795232D01*
X106612508Y-138790658D01*
X106626814Y-138784141D01*
X106628175Y-138783621D01*
X106628179Y-138783621D01*
X106628181Y-138783619D01*
X106628186Y-138783618D01*
X107932284Y-138133525D01*
X107987605Y-138120500D01*
X110255167Y-138120500D01*
X110322206Y-138140185D01*
X110367961Y-138192989D01*
X110377905Y-138262147D01*
X110348880Y-138325703D01*
X110342848Y-138332181D01*
X108651848Y-140023181D01*
X108590525Y-140056666D01*
X108564167Y-140059500D01*
X107987606Y-140059500D01*
X107932285Y-140046475D01*
X106628183Y-139396380D01*
X106621946Y-139393400D01*
X106615197Y-139390314D01*
X106615331Y-139390019D01*
X106607353Y-139386584D01*
X106603956Y-139384768D01*
X106457454Y-139340328D01*
X106405934Y-139324700D01*
X106405932Y-139324699D01*
X106405934Y-139324699D01*
X106200000Y-139304417D01*
X105994067Y-139324699D01*
X105796043Y-139384769D01*
X105685898Y-139443643D01*
X105613550Y-139482315D01*
X105613548Y-139482316D01*
X105613547Y-139482317D01*
X105453589Y-139613589D01*
X105322317Y-139773547D01*
X105224769Y-139956043D01*
X105164699Y-140154067D01*
X105144417Y-140360000D01*
X105164699Y-140565932D01*
X105187173Y-140640020D01*
X105224768Y-140763954D01*
X105322315Y-140946450D01*
X105322317Y-140946452D01*
X105453589Y-141106410D01*
X105550209Y-141185702D01*
X105613550Y-141237685D01*
X105796046Y-141335232D01*
X105862551Y-141355405D01*
X105920989Y-141393702D01*
X105949446Y-141457514D01*
X105938887Y-141526581D01*
X105892663Y-141578975D01*
X105858650Y-141593841D01*
X105736514Y-141626567D01*
X105736507Y-141626570D01*
X105522422Y-141726399D01*
X105522420Y-141726400D01*
X105328926Y-141861886D01*
X105328920Y-141861891D01*
X105161891Y-142028920D01*
X105161886Y-142028926D01*
X105026400Y-142222420D01*
X105026399Y-142222422D01*
X104926570Y-142436507D01*
X104926567Y-142436513D01*
X104869364Y-142649999D01*
X104869364Y-142650000D01*
X105766988Y-142650000D01*
X105734075Y-142707007D01*
X105700000Y-142834174D01*
X105700000Y-142965826D01*
X105734075Y-143092993D01*
X105766988Y-143150000D01*
X104869364Y-143150000D01*
X104926567Y-143363486D01*
X104926570Y-143363492D01*
X105026399Y-143577578D01*
X105161894Y-143771082D01*
X105328917Y-143938105D01*
X105522421Y-144073600D01*
X105736507Y-144173429D01*
X105736516Y-144173433D01*
X105950000Y-144230634D01*
X105950000Y-143333012D01*
X106007007Y-143365925D01*
X106134174Y-143400000D01*
X106265826Y-143400000D01*
X106392993Y-143365925D01*
X106450000Y-143333012D01*
X106450000Y-144230633D01*
X106663483Y-144173433D01*
X106663492Y-144173429D01*
X106877578Y-144073600D01*
X107071082Y-143938105D01*
X107238105Y-143771082D01*
X107373600Y-143577578D01*
X107473429Y-143363492D01*
X107473432Y-143363486D01*
X107530636Y-143150000D01*
X106633012Y-143150000D01*
X106665925Y-143092993D01*
X106700000Y-142965826D01*
X106700000Y-142834174D01*
X106665925Y-142707007D01*
X106633012Y-142650000D01*
X107530636Y-142650000D01*
X107530635Y-142649999D01*
X107473432Y-142436513D01*
X107473429Y-142436507D01*
X107373600Y-142222422D01*
X107373599Y-142222420D01*
X107238113Y-142028926D01*
X107238108Y-142028920D01*
X107071082Y-141861894D01*
X106877578Y-141726399D01*
X106663492Y-141626570D01*
X106663485Y-141626567D01*
X106541350Y-141593841D01*
X106481690Y-141557476D01*
X106451161Y-141494629D01*
X106459456Y-141425253D01*
X106503941Y-141371375D01*
X106537446Y-141355406D01*
X106603954Y-141335232D01*
X106612508Y-141330658D01*
X106626814Y-141324141D01*
X106628175Y-141323621D01*
X106628179Y-141323621D01*
X106628181Y-141323619D01*
X106628186Y-141323618D01*
X107932284Y-140673525D01*
X107987605Y-140660500D01*
X108779560Y-140660500D01*
X108779562Y-140660500D01*
X108855989Y-140640021D01*
X108924511Y-140600460D01*
X108980460Y-140544511D01*
X118340460Y-131184511D01*
X118372953Y-131128231D01*
X118380021Y-131115989D01*
X118400500Y-131039562D01*
X118400500Y-128675833D01*
X118420185Y-128608794D01*
X118436819Y-128588152D01*
X121774972Y-125249999D01*
X126009364Y-125249999D01*
X126009364Y-125250000D01*
X126906988Y-125250000D01*
X126874075Y-125307007D01*
X126840000Y-125434174D01*
X126840000Y-125565826D01*
X126874075Y-125692993D01*
X126906988Y-125750000D01*
X126009364Y-125750000D01*
X126066567Y-125963486D01*
X126066570Y-125963492D01*
X126166399Y-126177578D01*
X126301894Y-126371082D01*
X126468917Y-126538105D01*
X126662421Y-126673600D01*
X126876507Y-126773429D01*
X126876516Y-126773433D01*
X127090000Y-126830634D01*
X127090000Y-125933012D01*
X127147007Y-125965925D01*
X127274174Y-126000000D01*
X127405826Y-126000000D01*
X127532993Y-125965925D01*
X127590000Y-125933012D01*
X127590000Y-126830633D01*
X127803483Y-126773433D01*
X127803492Y-126773429D01*
X128017578Y-126673600D01*
X128211082Y-126538105D01*
X128378105Y-126371082D01*
X128513600Y-126177578D01*
X128613429Y-125963492D01*
X128613433Y-125963483D01*
X128646158Y-125841350D01*
X128682522Y-125781690D01*
X128745369Y-125751160D01*
X128814745Y-125759454D01*
X128868623Y-125803939D01*
X128884593Y-125837447D01*
X128904768Y-125903954D01*
X129002315Y-126086450D01*
X129002317Y-126086452D01*
X129133589Y-126246410D01*
X129230209Y-126325702D01*
X129293550Y-126377685D01*
X129476046Y-126475232D01*
X129674066Y-126535300D01*
X129674065Y-126535300D01*
X129692529Y-126537118D01*
X129880000Y-126555583D01*
X130085934Y-126535300D01*
X130283954Y-126475232D01*
X130466450Y-126377685D01*
X130626410Y-126246410D01*
X130757685Y-126086450D01*
X130855232Y-125903954D01*
X130915300Y-125705934D01*
X130935583Y-125500000D01*
X131364417Y-125500000D01*
X131384699Y-125705932D01*
X131384700Y-125705934D01*
X131444768Y-125903954D01*
X131542315Y-126086450D01*
X131542317Y-126086452D01*
X131673589Y-126246410D01*
X131770209Y-126325702D01*
X131833550Y-126377685D01*
X132016046Y-126475232D01*
X132214066Y-126535300D01*
X132214065Y-126535300D01*
X132232529Y-126537118D01*
X132420000Y-126555583D01*
X132625934Y-126535300D01*
X132823954Y-126475232D01*
X133006450Y-126377685D01*
X133166410Y-126246410D01*
X133297685Y-126086450D01*
X133395232Y-125903954D01*
X133455300Y-125705934D01*
X133475583Y-125500000D01*
X133455300Y-125294066D01*
X133395232Y-125096046D01*
X133297685Y-124913550D01*
X133205735Y-124801508D01*
X133166410Y-124753589D01*
X133016121Y-124630252D01*
X133006450Y-124622315D01*
X132823954Y-124524768D01*
X132625934Y-124464700D01*
X132625932Y-124464699D01*
X132625934Y-124464699D01*
X132420000Y-124444417D01*
X132214067Y-124464699D01*
X132038692Y-124517898D01*
X132020408Y-124523445D01*
X132016043Y-124524769D01*
X131928114Y-124571769D01*
X131833550Y-124622315D01*
X131833548Y-124622316D01*
X131833547Y-124622317D01*
X131673589Y-124753589D01*
X131542317Y-124913547D01*
X131444769Y-125096043D01*
X131384699Y-125294067D01*
X131364417Y-125500000D01*
X130935583Y-125500000D01*
X130915300Y-125294066D01*
X130855232Y-125096046D01*
X130757685Y-124913550D01*
X130665735Y-124801508D01*
X130626410Y-124753589D01*
X130476121Y-124630252D01*
X130466450Y-124622315D01*
X130283954Y-124524768D01*
X130085934Y-124464700D01*
X130085932Y-124464699D01*
X130085934Y-124464699D01*
X129880000Y-124444417D01*
X129674067Y-124464699D01*
X129498692Y-124517898D01*
X129480408Y-124523445D01*
X129476043Y-124524769D01*
X129388114Y-124571769D01*
X129293550Y-124622315D01*
X129293548Y-124622316D01*
X129293547Y-124622317D01*
X129133589Y-124753589D01*
X129002317Y-124913547D01*
X128904767Y-125096046D01*
X128884593Y-125162552D01*
X128846296Y-125220990D01*
X128782483Y-125249447D01*
X128713416Y-125238886D01*
X128661023Y-125192661D01*
X128646158Y-125158649D01*
X128613433Y-125036516D01*
X128613429Y-125036507D01*
X128513600Y-124822422D01*
X128513599Y-124822420D01*
X128378113Y-124628926D01*
X128378108Y-124628920D01*
X128211082Y-124461894D01*
X128017578Y-124326399D01*
X127803492Y-124226570D01*
X127803486Y-124226567D01*
X127590000Y-124169364D01*
X127590000Y-125066988D01*
X127532993Y-125034075D01*
X127405826Y-125000000D01*
X127274174Y-125000000D01*
X127147007Y-125034075D01*
X127090000Y-125066988D01*
X127090000Y-124169364D01*
X127089999Y-124169364D01*
X126876513Y-124226567D01*
X126876507Y-124226570D01*
X126662422Y-124326399D01*
X126662420Y-124326400D01*
X126468926Y-124461886D01*
X126468920Y-124461891D01*
X126301891Y-124628920D01*
X126301886Y-124628926D01*
X126166400Y-124822420D01*
X126166399Y-124822422D01*
X126066570Y-125036507D01*
X126066567Y-125036513D01*
X126009364Y-125249999D01*
X121774972Y-125249999D01*
X123588152Y-123436819D01*
X123649475Y-123403334D01*
X123675833Y-123400500D01*
X134924167Y-123400500D01*
X134991206Y-123420185D01*
X135011848Y-123436819D01*
X135779348Y-124204319D01*
X135807280Y-124247171D01*
X135989693Y-124717605D01*
X135995576Y-124787226D01*
X135962886Y-124848976D01*
X135902000Y-124883250D01*
X135832250Y-124879165D01*
X135778227Y-124841099D01*
X135706410Y-124753590D01*
X135556121Y-124630252D01*
X135546450Y-124622315D01*
X135363954Y-124524768D01*
X135165934Y-124464700D01*
X135165932Y-124464699D01*
X135165934Y-124464699D01*
X134960000Y-124444417D01*
X134754067Y-124464699D01*
X134578692Y-124517898D01*
X134560408Y-124523445D01*
X134556043Y-124524769D01*
X134468114Y-124571769D01*
X134373550Y-124622315D01*
X134373548Y-124622316D01*
X134373547Y-124622317D01*
X134213589Y-124753589D01*
X134082317Y-124913547D01*
X133984769Y-125096043D01*
X133924699Y-125294067D01*
X133904417Y-125500000D01*
X133924699Y-125705932D01*
X133924700Y-125705934D01*
X133984768Y-125903954D01*
X134082315Y-126086450D01*
X134082317Y-126086452D01*
X134213589Y-126246410D01*
X134310209Y-126325702D01*
X134373550Y-126377685D01*
X134556046Y-126475232D01*
X134754066Y-126535300D01*
X134754065Y-126535300D01*
X134772529Y-126537118D01*
X134960000Y-126555583D01*
X135165934Y-126535300D01*
X135363954Y-126475232D01*
X135546450Y-126377685D01*
X135706410Y-126246410D01*
X135837685Y-126086450D01*
X135935232Y-125903954D01*
X135995300Y-125705934D01*
X136015583Y-125500000D01*
X136010006Y-125443383D01*
X136023024Y-125374741D01*
X136071088Y-125324030D01*
X136138939Y-125307354D01*
X136205034Y-125330009D01*
X136248388Y-125384801D01*
X136249022Y-125386401D01*
X136441113Y-125881794D01*
X136449500Y-125926622D01*
X136449500Y-126369752D01*
X136461131Y-126428229D01*
X136461132Y-126428230D01*
X136505447Y-126494552D01*
X136571769Y-126538867D01*
X136571770Y-126538868D01*
X136630247Y-126550499D01*
X136630250Y-126550500D01*
X136630252Y-126550500D01*
X138369750Y-126550500D01*
X138369751Y-126550499D01*
X138384568Y-126547552D01*
X138428229Y-126538868D01*
X138428229Y-126538867D01*
X138428231Y-126538867D01*
X138494552Y-126494552D01*
X138538867Y-126428231D01*
X138538867Y-126428229D01*
X138538868Y-126428229D01*
X138548922Y-126377682D01*
X138550500Y-126369748D01*
X138550500Y-125643433D01*
X141479444Y-125643433D01*
X141479444Y-125856006D01*
X141509606Y-126046446D01*
X141512698Y-126065963D01*
X141559629Y-126210402D01*
X141578388Y-126268134D01*
X141674895Y-126457540D01*
X141799834Y-126629506D01*
X141950157Y-126779829D01*
X142122123Y-126904768D01*
X142122125Y-126904769D01*
X142122128Y-126904771D01*
X142311532Y-127001277D01*
X142513701Y-127066966D01*
X142723657Y-127100220D01*
X142723658Y-127100220D01*
X142936230Y-127100220D01*
X142936231Y-127100220D01*
X143146187Y-127066966D01*
X143348356Y-127001277D01*
X143537760Y-126904771D01*
X143639803Y-126830633D01*
X143709730Y-126779829D01*
X143709732Y-126779826D01*
X143709736Y-126779824D01*
X143860048Y-126629512D01*
X143860050Y-126629508D01*
X143860053Y-126629506D01*
X143984992Y-126457540D01*
X143984991Y-126457540D01*
X143984995Y-126457536D01*
X144081501Y-126268132D01*
X144147190Y-126065963D01*
X144180444Y-125856007D01*
X144180444Y-125643433D01*
X144147190Y-125433477D01*
X144081501Y-125231308D01*
X143984995Y-125041904D01*
X143984993Y-125041901D01*
X143984992Y-125041899D01*
X143860053Y-124869933D01*
X143709730Y-124719610D01*
X143537764Y-124594671D01*
X143348358Y-124498164D01*
X143348357Y-124498163D01*
X143348356Y-124498163D01*
X143146187Y-124432474D01*
X143146185Y-124432473D01*
X143146184Y-124432473D01*
X142984901Y-124406928D01*
X142936231Y-124399220D01*
X142723657Y-124399220D01*
X142674986Y-124406928D01*
X142513704Y-124432473D01*
X142311529Y-124498164D01*
X142122123Y-124594671D01*
X141950157Y-124719610D01*
X141799834Y-124869933D01*
X141674895Y-125041899D01*
X141578388Y-125231305D01*
X141512697Y-125433480D01*
X141479444Y-125643433D01*
X138550500Y-125643433D01*
X138550500Y-124630252D01*
X138550500Y-124630249D01*
X138549151Y-124623471D01*
X138548075Y-124612316D01*
X138547513Y-124612378D01*
X138546750Y-124605461D01*
X138546751Y-124605455D01*
X138544780Y-124596720D01*
X138544779Y-124596718D01*
X138544727Y-124596487D01*
X138540905Y-124582017D01*
X138538867Y-124571769D01*
X138529288Y-124557433D01*
X138519088Y-124538925D01*
X138512207Y-124523445D01*
X138113685Y-123958873D01*
X137973196Y-123759846D01*
X137950617Y-123693725D01*
X137950500Y-123688337D01*
X137950500Y-110740692D01*
X137944381Y-110717857D01*
X137923532Y-110640047D01*
X137923531Y-110640040D01*
X137919802Y-110626120D01*
X137919799Y-110626115D01*
X137919799Y-110626113D01*
X137860489Y-110523386D01*
X136524784Y-109187681D01*
X136491299Y-109126358D01*
X136496283Y-109056666D01*
X136524784Y-109012319D01*
X136923922Y-108613181D01*
X137360489Y-108176614D01*
X137419798Y-108073887D01*
X137419799Y-108073886D01*
X137450500Y-107959309D01*
X137450500Y-104596530D01*
X138124500Y-104596530D01*
X138124500Y-104803469D01*
X138164868Y-105006412D01*
X138164870Y-105006420D01*
X138226373Y-105154902D01*
X138244059Y-105197598D01*
X138287869Y-105263165D01*
X138359024Y-105369657D01*
X138505342Y-105515975D01*
X138505345Y-105515977D01*
X138677402Y-105630941D01*
X138868580Y-105710130D01*
X139071530Y-105750499D01*
X139071534Y-105750500D01*
X139071535Y-105750500D01*
X139528466Y-105750500D01*
X139528467Y-105750499D01*
X139731420Y-105710130D01*
X139922598Y-105630941D01*
X140094655Y-105515977D01*
X140240977Y-105369655D01*
X140355941Y-105197598D01*
X140435130Y-105006420D01*
X140475500Y-104803465D01*
X140475500Y-104596535D01*
X140435130Y-104393580D01*
X140355941Y-104202402D01*
X140240977Y-104030345D01*
X140240975Y-104030342D01*
X140094657Y-103884024D01*
X139969593Y-103800460D01*
X139922598Y-103769059D01*
X139921422Y-103768572D01*
X139731420Y-103689870D01*
X139731412Y-103689868D01*
X139528469Y-103649500D01*
X139528465Y-103649500D01*
X139071535Y-103649500D01*
X139071530Y-103649500D01*
X138868587Y-103689868D01*
X138868579Y-103689870D01*
X138677403Y-103769058D01*
X138505342Y-103884024D01*
X138359024Y-104030342D01*
X138244058Y-104202403D01*
X138164870Y-104393579D01*
X138164868Y-104393587D01*
X138124500Y-104596530D01*
X137450500Y-104596530D01*
X137450500Y-103240691D01*
X137426286Y-103150326D01*
X137426286Y-103150325D01*
X137426286Y-103150324D01*
X137421092Y-103130941D01*
X137419799Y-103126113D01*
X137360490Y-103023386D01*
X136571587Y-102234484D01*
X136496306Y-102191020D01*
X136468861Y-102175174D01*
X136456753Y-102171930D01*
X136444646Y-102168686D01*
X136444643Y-102168685D01*
X136389292Y-102153854D01*
X136354282Y-102144473D01*
X136354281Y-102144473D01*
X136291786Y-102144473D01*
X136246793Y-102136022D01*
X135470834Y-101833873D01*
X135415506Y-101791205D01*
X135394863Y-101745593D01*
X135388482Y-101717288D01*
X135306252Y-101352515D01*
X135310712Y-101282789D01*
X135339531Y-101237570D01*
X135575489Y-101001614D01*
X135634799Y-100898887D01*
X135641285Y-100874675D01*
X135641286Y-100874675D01*
X135641286Y-100874671D01*
X135665500Y-100784309D01*
X135665500Y-100200691D01*
X135665499Y-100200689D01*
X135664624Y-100194043D01*
X135675385Y-100125007D01*
X135721762Y-100072749D01*
X135789029Y-100053859D01*
X135822497Y-100058873D01*
X135828038Y-100060500D01*
X135828039Y-100060500D01*
X135971962Y-100060500D01*
X135971962Y-100060499D01*
X136110053Y-100019953D01*
X136231128Y-99942143D01*
X136325377Y-99833373D01*
X136385165Y-99702457D01*
X136403245Y-99576699D01*
X136432269Y-99513146D01*
X136438287Y-99506682D01*
X137012821Y-98932149D01*
X137074142Y-98898666D01*
X137143834Y-98903650D01*
X137199767Y-98945522D01*
X137224184Y-99010986D01*
X137224500Y-99019832D01*
X137224500Y-100464562D01*
X137234654Y-100502457D01*
X137244979Y-100540991D01*
X137244981Y-100540994D01*
X137278089Y-100598337D01*
X137278090Y-100598341D01*
X137278091Y-100598341D01*
X137284539Y-100609511D01*
X137284541Y-100609513D01*
X138225522Y-101550493D01*
X138259007Y-101611816D01*
X138254023Y-101681507D01*
X138246264Y-101696676D01*
X138246929Y-101697032D01*
X138244059Y-101702400D01*
X138164870Y-101893579D01*
X138164868Y-101893587D01*
X138124500Y-102096530D01*
X138124500Y-102303469D01*
X138164868Y-102506412D01*
X138164870Y-102506420D01*
X138244058Y-102697596D01*
X138359024Y-102869657D01*
X138505342Y-103015975D01*
X138505345Y-103015977D01*
X138677402Y-103130941D01*
X138868580Y-103210130D01*
X139022222Y-103240691D01*
X139071530Y-103250499D01*
X139071534Y-103250500D01*
X139071535Y-103250500D01*
X139528466Y-103250500D01*
X139528467Y-103250499D01*
X139731420Y-103210130D01*
X139922598Y-103130941D01*
X140094655Y-103015977D01*
X140240977Y-102869655D01*
X140355941Y-102697598D01*
X140435130Y-102506420D01*
X140475500Y-102303465D01*
X140475500Y-102096535D01*
X140435130Y-101893580D01*
X140355941Y-101702402D01*
X140240977Y-101530345D01*
X140240975Y-101530342D01*
X140094657Y-101384024D01*
X140008626Y-101326541D01*
X139922598Y-101269059D01*
X139874309Y-101249057D01*
X139731420Y-101189870D01*
X139731412Y-101189868D01*
X139528469Y-101149500D01*
X139528465Y-101149500D01*
X139071535Y-101149500D01*
X139071530Y-101149500D01*
X138868587Y-101189868D01*
X138868580Y-101189870D01*
X138836415Y-101203193D01*
X138766946Y-101210661D01*
X138704467Y-101179385D01*
X138701283Y-101176312D01*
X137861819Y-100336848D01*
X137828334Y-100275525D01*
X137825500Y-100249167D01*
X137825500Y-97096530D01*
X138124500Y-97096530D01*
X138124500Y-97303469D01*
X138164868Y-97506412D01*
X138164870Y-97506420D01*
X138244058Y-97697596D01*
X138359024Y-97869657D01*
X138505342Y-98015975D01*
X138505345Y-98015977D01*
X138677402Y-98130941D01*
X138868580Y-98210130D01*
X139071530Y-98250499D01*
X139071534Y-98250500D01*
X139071535Y-98250500D01*
X139528466Y-98250500D01*
X139528467Y-98250499D01*
X139731420Y-98210130D01*
X139922598Y-98130941D01*
X140094655Y-98015977D01*
X140240977Y-97869655D01*
X140355941Y-97697598D01*
X140435130Y-97506420D01*
X140475500Y-97303465D01*
X140475500Y-97096535D01*
X140435130Y-96893580D01*
X140355941Y-96702402D01*
X140240977Y-96530345D01*
X140240975Y-96530342D01*
X140094657Y-96384024D01*
X139977422Y-96305691D01*
X139922598Y-96269059D01*
X139731420Y-96189870D01*
X139731412Y-96189868D01*
X139528469Y-96149500D01*
X139528465Y-96149500D01*
X139071535Y-96149500D01*
X139071530Y-96149500D01*
X138868587Y-96189868D01*
X138868579Y-96189870D01*
X138677403Y-96269058D01*
X138505342Y-96384024D01*
X138359024Y-96530342D01*
X138244058Y-96702403D01*
X138164870Y-96893579D01*
X138164868Y-96893587D01*
X138124500Y-97096530D01*
X137825500Y-97096530D01*
X137825500Y-94045730D01*
X138124500Y-94045730D01*
X138124500Y-95354269D01*
X138127353Y-95384699D01*
X138127353Y-95384701D01*
X138167458Y-95499310D01*
X138172207Y-95512882D01*
X138252850Y-95622150D01*
X138362118Y-95702793D01*
X138404845Y-95717744D01*
X138490299Y-95747646D01*
X138520730Y-95750500D01*
X138520734Y-95750500D01*
X140079270Y-95750500D01*
X140109699Y-95747646D01*
X140109701Y-95747646D01*
X140173790Y-95725219D01*
X140237882Y-95702793D01*
X140347150Y-95622150D01*
X140427793Y-95512882D01*
X140466596Y-95401990D01*
X140472646Y-95384701D01*
X140472646Y-95384699D01*
X140475500Y-95354269D01*
X140475500Y-94045730D01*
X140472646Y-94015300D01*
X140472646Y-94015298D01*
X140427793Y-93887119D01*
X140427792Y-93887117D01*
X140363497Y-93800000D01*
X140347150Y-93777850D01*
X140237882Y-93697207D01*
X140237880Y-93697206D01*
X140109700Y-93652353D01*
X140079270Y-93649500D01*
X140079266Y-93649500D01*
X138520734Y-93649500D01*
X138520730Y-93649500D01*
X138490300Y-93652353D01*
X138490298Y-93652353D01*
X138362119Y-93697206D01*
X138362117Y-93697207D01*
X138252850Y-93777850D01*
X138172207Y-93887117D01*
X138172206Y-93887119D01*
X138127353Y-94015298D01*
X138127353Y-94015300D01*
X138124500Y-94045730D01*
X137825500Y-94045730D01*
X137825500Y-88349212D01*
X137805020Y-88272782D01*
X137805017Y-88272777D01*
X137765464Y-88204268D01*
X137765458Y-88204260D01*
X137587152Y-88025954D01*
X137553667Y-87964631D01*
X137558651Y-87894939D01*
X137600523Y-87839006D01*
X137665987Y-87814589D01*
X137674833Y-87814273D01*
X137825787Y-87814273D01*
X137825789Y-87814273D01*
X137902216Y-87793794D01*
X137970738Y-87754233D01*
X138026687Y-87698284D01*
X138448458Y-87276511D01*
X138496782Y-87246604D01*
X139878615Y-86784151D01*
X139885244Y-86781806D01*
X139885997Y-86781525D01*
X139885999Y-86781523D01*
X139892217Y-86779204D01*
X139892336Y-86779524D01*
X139900375Y-86776317D01*
X139903954Y-86775232D01*
X140086450Y-86677685D01*
X140246410Y-86546410D01*
X140377685Y-86386450D01*
X140475232Y-86203954D01*
X140535300Y-86005934D01*
X140555583Y-85800000D01*
X140535300Y-85594066D01*
X140475232Y-85396046D01*
X140377685Y-85213550D01*
X140325702Y-85150209D01*
X140246410Y-85053589D01*
X140086452Y-84922317D01*
X140086453Y-84922317D01*
X140086450Y-84922315D01*
X139903954Y-84824768D01*
X139705934Y-84764700D01*
X139705932Y-84764699D01*
X139705934Y-84764699D01*
X139500000Y-84744417D01*
X139294067Y-84764699D01*
X139125452Y-84815848D01*
X139096050Y-84824767D01*
X139096043Y-84824769D01*
X139045718Y-84851669D01*
X138913550Y-84922315D01*
X138913548Y-84922316D01*
X138913547Y-84922317D01*
X138753589Y-85053589D01*
X138622317Y-85213547D01*
X138524768Y-85396044D01*
X138521952Y-85405330D01*
X138516458Y-85420022D01*
X138515851Y-85421375D01*
X138053392Y-86803217D01*
X138023483Y-86851544D01*
X137698073Y-87176955D01*
X137636752Y-87210439D01*
X137610394Y-87213273D01*
X136326392Y-87213273D01*
X136270455Y-87199940D01*
X134898486Y-86506477D01*
X134889144Y-86501236D01*
X134868811Y-86488646D01*
X134868809Y-86488645D01*
X134861898Y-86485967D01*
X134850509Y-86481555D01*
X134839376Y-86476600D01*
X134821944Y-86467789D01*
X134814890Y-86464390D01*
X134814891Y-86464390D01*
X134814861Y-86464376D01*
X134814111Y-86464032D01*
X134814106Y-86464030D01*
X134803156Y-86461634D01*
X134784875Y-86456129D01*
X134693661Y-86420793D01*
X134671751Y-86412305D01*
X134491744Y-86378655D01*
X134429464Y-86346987D01*
X134394191Y-86286675D01*
X134397125Y-86216867D01*
X134437334Y-86159727D01*
X134475457Y-86139084D01*
X134654627Y-86079602D01*
X134670913Y-86075398D01*
X134671746Y-86075242D01*
X134671746Y-86075241D01*
X134671751Y-86075241D01*
X134692829Y-86067074D01*
X134698486Y-86065041D01*
X134770820Y-86041028D01*
X134777771Y-86038581D01*
X134777777Y-86038579D01*
X134778553Y-86038290D01*
X134778553Y-86038289D01*
X134778558Y-86038288D01*
X134785410Y-86033889D01*
X134807600Y-86022612D01*
X134868809Y-85998901D01*
X135048484Y-85887650D01*
X135204658Y-85745279D01*
X135332012Y-85576635D01*
X135426209Y-85387462D01*
X135432273Y-85366144D01*
X135433711Y-85361452D01*
X135932325Y-83843628D01*
X135962445Y-83794653D01*
X136220282Y-83536816D01*
X136281604Y-83503334D01*
X136307962Y-83500500D01*
X137442333Y-83500500D01*
X137504332Y-83517112D01*
G37*
%TD.AperFunction*%
%TA.AperFunction,Conductor*%
G36*
X121790708Y-101142857D02*
G01*
X121811349Y-101159490D01*
X122712525Y-102060667D01*
X122712526Y-102060668D01*
X122805712Y-102153854D01*
X122885450Y-102199891D01*
X122919840Y-102219746D01*
X123047133Y-102253854D01*
X123047134Y-102253854D01*
X123047135Y-102253854D01*
X123178916Y-102253854D01*
X123178918Y-102253854D01*
X123306212Y-102219746D01*
X123420340Y-102153854D01*
X124414703Y-101159491D01*
X124476026Y-101126006D01*
X124502384Y-101123172D01*
X126299644Y-101123172D01*
X126366683Y-101142857D01*
X126412438Y-101195661D01*
X126422382Y-101264819D01*
X126393357Y-101328375D01*
X126352049Y-101359554D01*
X126219479Y-101421372D01*
X126219477Y-101421373D01*
X126135683Y-101480046D01*
X126135682Y-101480046D01*
X126767647Y-102112010D01*
X126704063Y-102129048D01*
X126590049Y-102194874D01*
X126496957Y-102287966D01*
X126431131Y-102401980D01*
X126414093Y-102465563D01*
X125782129Y-101833599D01*
X125782129Y-101833600D01*
X125723456Y-101917394D01*
X125723455Y-101917396D01*
X125623626Y-102131480D01*
X125623622Y-102131489D01*
X125562488Y-102359646D01*
X125562486Y-102359657D01*
X125541899Y-102594971D01*
X125541899Y-102594974D01*
X125562486Y-102830288D01*
X125562488Y-102830299D01*
X125623622Y-103058456D01*
X125623626Y-103058465D01*
X125723454Y-103272549D01*
X125782129Y-103356345D01*
X126414093Y-102724381D01*
X126431131Y-102787966D01*
X126496957Y-102901980D01*
X126590049Y-102995072D01*
X126704063Y-103060898D01*
X126767647Y-103077935D01*
X126135682Y-103709899D01*
X126219473Y-103768571D01*
X126219477Y-103768573D01*
X126433563Y-103868402D01*
X126433572Y-103868406D01*
X126555705Y-103901131D01*
X126615366Y-103937496D01*
X126645895Y-104000342D01*
X126637601Y-104069718D01*
X126593115Y-104123596D01*
X126559608Y-104139566D01*
X126493102Y-104159740D01*
X126362414Y-104229595D01*
X126310606Y-104257288D01*
X126310604Y-104257289D01*
X126310603Y-104257290D01*
X126150645Y-104388562D01*
X126027410Y-104538727D01*
X126019371Y-104548523D01*
X125993708Y-104596534D01*
X125921825Y-104731016D01*
X125861755Y-104929040D01*
X125841473Y-105134973D01*
X125861755Y-105340905D01*
X125878066Y-105394675D01*
X125921824Y-105538927D01*
X126019371Y-105721423D01*
X126036950Y-105742843D01*
X126150645Y-105881383D01*
X126216940Y-105935789D01*
X126310606Y-106012658D01*
X126493102Y-106110205D01*
X126691122Y-106170273D01*
X126691121Y-106170273D01*
X126709585Y-106172091D01*
X126897056Y-106190556D01*
X127102990Y-106170273D01*
X127301010Y-106110205D01*
X127483506Y-106012658D01*
X127643466Y-105881383D01*
X127774741Y-105721423D01*
X127872288Y-105538927D01*
X127932356Y-105340907D01*
X127952639Y-105134973D01*
X127932356Y-104929039D01*
X127872288Y-104731019D01*
X127774741Y-104548523D01*
X127695816Y-104452352D01*
X127643466Y-104388562D01*
X127492896Y-104264994D01*
X127483506Y-104257288D01*
X127313610Y-104166475D01*
X127301012Y-104159742D01*
X127301011Y-104159741D01*
X127301010Y-104159741D01*
X127234503Y-104139566D01*
X127176065Y-104101269D01*
X127147609Y-104037457D01*
X127158169Y-103968390D01*
X127204393Y-103915996D01*
X127238406Y-103901131D01*
X127360539Y-103868406D01*
X127360548Y-103868402D01*
X127574636Y-103768572D01*
X127658427Y-103709898D01*
X127026464Y-103077935D01*
X127090049Y-103060898D01*
X127204063Y-102995072D01*
X127297155Y-102901980D01*
X127362981Y-102787966D01*
X127380018Y-102724381D01*
X128011981Y-103356344D01*
X128070655Y-103272553D01*
X128170485Y-103058465D01*
X128170489Y-103058456D01*
X128203214Y-102936323D01*
X128239578Y-102876663D01*
X128302425Y-102846133D01*
X128371801Y-102854427D01*
X128425679Y-102898912D01*
X128441649Y-102932420D01*
X128461824Y-102998927D01*
X128559371Y-103181423D01*
X128559373Y-103181425D01*
X128690645Y-103341383D01*
X128756940Y-103395789D01*
X128850606Y-103472658D01*
X129033102Y-103570205D01*
X129231122Y-103630273D01*
X129231121Y-103630273D01*
X129249585Y-103632091D01*
X129437056Y-103650556D01*
X129642990Y-103630273D01*
X129841010Y-103570205D01*
X130023506Y-103472658D01*
X130183466Y-103341383D01*
X130199646Y-103321667D01*
X130257390Y-103282333D01*
X130327234Y-103280461D01*
X130387004Y-103316647D01*
X130417721Y-103379402D01*
X130419500Y-103400331D01*
X130419500Y-104329614D01*
X130399815Y-104396653D01*
X130347011Y-104442408D01*
X130277853Y-104452352D01*
X130214297Y-104423327D01*
X130199647Y-104408279D01*
X130183466Y-104388563D01*
X130085533Y-104308192D01*
X130023506Y-104257288D01*
X129853610Y-104166475D01*
X129841012Y-104159742D01*
X129841011Y-104159741D01*
X129841010Y-104159741D01*
X129642990Y-104099673D01*
X129642988Y-104099672D01*
X129642990Y-104099672D01*
X129437056Y-104079390D01*
X129231123Y-104099672D01*
X129055748Y-104152871D01*
X129033106Y-104159740D01*
X129033099Y-104159742D01*
X128937223Y-104210990D01*
X128850606Y-104257288D01*
X128850604Y-104257289D01*
X128850603Y-104257290D01*
X128690645Y-104388562D01*
X128567410Y-104538727D01*
X128559371Y-104548523D01*
X128533708Y-104596534D01*
X128461825Y-104731016D01*
X128401755Y-104929040D01*
X128381473Y-105134973D01*
X128401755Y-105340905D01*
X128418066Y-105394675D01*
X128461824Y-105538927D01*
X128559371Y-105721423D01*
X128576950Y-105742843D01*
X128690645Y-105881383D01*
X128756940Y-105935789D01*
X128850606Y-106012658D01*
X129033102Y-106110205D01*
X129231122Y-106170273D01*
X129231121Y-106170273D01*
X129249585Y-106172091D01*
X129437056Y-106190556D01*
X129642990Y-106170273D01*
X129659852Y-106165157D01*
X129729717Y-106164533D01*
X129788831Y-106201780D01*
X129818423Y-106265074D01*
X129809099Y-106334319D01*
X129783529Y-106371499D01*
X129431848Y-106723181D01*
X129370525Y-106756666D01*
X129344167Y-106759500D01*
X125425833Y-106759500D01*
X125358794Y-106739815D01*
X125338152Y-106723181D01*
X124009647Y-105394676D01*
X124009639Y-105394670D01*
X123941130Y-105355117D01*
X123941125Y-105355114D01*
X123915648Y-105348287D01*
X123864697Y-105334635D01*
X123864695Y-105334635D01*
X121420698Y-105334635D01*
X121353659Y-105314950D01*
X121333017Y-105298316D01*
X119779214Y-103744514D01*
X119779206Y-103744508D01*
X119760654Y-103733797D01*
X119760650Y-103733796D01*
X119728976Y-103715509D01*
X119710690Y-103704951D01*
X119704749Y-103702491D01*
X119650344Y-103658652D01*
X119628276Y-103592359D01*
X119645553Y-103524659D01*
X119693744Y-103478570D01*
X119704806Y-103472658D01*
X119864766Y-103341383D01*
X119996041Y-103181423D01*
X120093588Y-102998927D01*
X120153656Y-102800907D01*
X120173939Y-102594973D01*
X120153656Y-102389039D01*
X120093588Y-102191019D01*
X119996041Y-102008523D01*
X119923444Y-101920063D01*
X119864766Y-101848562D01*
X119704808Y-101717290D01*
X119704809Y-101717290D01*
X119704806Y-101717288D01*
X119522310Y-101619741D01*
X119324290Y-101559673D01*
X119324288Y-101559672D01*
X119324290Y-101559672D01*
X119118356Y-101539390D01*
X118912423Y-101559672D01*
X118737048Y-101612871D01*
X118715428Y-101619430D01*
X118714399Y-101619742D01*
X118618523Y-101670990D01*
X118531906Y-101717288D01*
X118531904Y-101717289D01*
X118531903Y-101717290D01*
X118371945Y-101848562D01*
X118240673Y-102008520D01*
X118143125Y-102191016D01*
X118083055Y-102389040D01*
X118062773Y-102594973D01*
X118083055Y-102800905D01*
X118091972Y-102830299D01*
X118143124Y-102998927D01*
X118240671Y-103181423D01*
X118240673Y-103181425D01*
X118371945Y-103341383D01*
X118522110Y-103464619D01*
X118561445Y-103522365D01*
X118563316Y-103592210D01*
X118527129Y-103651978D01*
X118464373Y-103682694D01*
X118443446Y-103684473D01*
X118144189Y-103684473D01*
X118077150Y-103664788D01*
X118056508Y-103648154D01*
X118054870Y-103646516D01*
X118024961Y-103598188D01*
X117929569Y-103313153D01*
X117683109Y-102576721D01*
X117562507Y-102216357D01*
X117560162Y-102209728D01*
X117559881Y-102208975D01*
X117559879Y-102208973D01*
X117557560Y-102202754D01*
X117557878Y-102202635D01*
X117554670Y-102194587D01*
X117553588Y-102191019D01*
X117456041Y-102008523D01*
X117383444Y-101920063D01*
X117324766Y-101848562D01*
X117164808Y-101717290D01*
X117164809Y-101717290D01*
X117164806Y-101717288D01*
X116982310Y-101619741D01*
X116784290Y-101559673D01*
X116784288Y-101559672D01*
X116784290Y-101559672D01*
X116578356Y-101539390D01*
X116372423Y-101559672D01*
X116197048Y-101612871D01*
X116175428Y-101619430D01*
X116174399Y-101619742D01*
X116078523Y-101670990D01*
X115991906Y-101717288D01*
X115991904Y-101717289D01*
X115991903Y-101717290D01*
X115831945Y-101848562D01*
X115700673Y-102008520D01*
X115603125Y-102191016D01*
X115543055Y-102389040D01*
X115522773Y-102594973D01*
X115543055Y-102800905D01*
X115551972Y-102830299D01*
X115603124Y-102998927D01*
X115700671Y-103181423D01*
X115700673Y-103181425D01*
X115831945Y-103341383D01*
X115898240Y-103395789D01*
X115991906Y-103472658D01*
X116174402Y-103570205D01*
X116183690Y-103573022D01*
X116198396Y-103578521D01*
X116199733Y-103579120D01*
X116199740Y-103579124D01*
X116973372Y-103838033D01*
X117058284Y-103866450D01*
X117228107Y-103923286D01*
X117228108Y-103923286D01*
X117581571Y-104041578D01*
X117629899Y-104071487D01*
X117727896Y-104169484D01*
X117783845Y-104225433D01*
X117783847Y-104225434D01*
X117783851Y-104225437D01*
X117839020Y-104257288D01*
X117852367Y-104264994D01*
X117928794Y-104285473D01*
X118194374Y-104285473D01*
X118261413Y-104305158D01*
X118307168Y-104357962D01*
X118317112Y-104427120D01*
X118290227Y-104488138D01*
X118240673Y-104548519D01*
X118143125Y-104731016D01*
X118083055Y-104929040D01*
X118062773Y-105134973D01*
X118083055Y-105340905D01*
X118099366Y-105394675D01*
X118143124Y-105538927D01*
X118240671Y-105721423D01*
X118258250Y-105742843D01*
X118371945Y-105881383D01*
X118438240Y-105935789D01*
X118531906Y-106012658D01*
X118714402Y-106110205D01*
X118912422Y-106170273D01*
X118912421Y-106170273D01*
X118930885Y-106172091D01*
X119118356Y-106190556D01*
X119324290Y-106170273D01*
X119522310Y-106110205D01*
X119704806Y-106012658D01*
X119864766Y-105881383D01*
X119996041Y-105721423D01*
X120093588Y-105538927D01*
X120153656Y-105340907D01*
X120161313Y-105263164D01*
X120187474Y-105198378D01*
X120244508Y-105158019D01*
X120314308Y-105154902D01*
X120372395Y-105187637D01*
X120919405Y-105734646D01*
X121004405Y-105819646D01*
X121060354Y-105875595D01*
X121060356Y-105875596D01*
X121060360Y-105875599D01*
X121079666Y-105886745D01*
X121128876Y-105915156D01*
X121205303Y-105935635D01*
X123649302Y-105935635D01*
X123716341Y-105955320D01*
X123736983Y-105971954D01*
X124722848Y-106957819D01*
X124756333Y-107019142D01*
X124751349Y-107088834D01*
X124709477Y-107144767D01*
X124644013Y-107169184D01*
X124635167Y-107169500D01*
X117455833Y-107169500D01*
X117388794Y-107149815D01*
X117368152Y-107133181D01*
X116624615Y-106389644D01*
X116591130Y-106328321D01*
X116596114Y-106258629D01*
X116637986Y-106202696D01*
X116700140Y-106178561D01*
X116784290Y-106170273D01*
X116982310Y-106110205D01*
X117164806Y-106012658D01*
X117324766Y-105881383D01*
X117456041Y-105721423D01*
X117553588Y-105538927D01*
X117613656Y-105340907D01*
X117633939Y-105134973D01*
X117613656Y-104929039D01*
X117553588Y-104731019D01*
X117456041Y-104548523D01*
X117377116Y-104452352D01*
X117324766Y-104388562D01*
X117174196Y-104264994D01*
X117164806Y-104257288D01*
X116994910Y-104166475D01*
X116982312Y-104159742D01*
X116982311Y-104159741D01*
X116982310Y-104159741D01*
X116784290Y-104099673D01*
X116784288Y-104099672D01*
X116784290Y-104099672D01*
X116578356Y-104079390D01*
X116372423Y-104099672D01*
X116197048Y-104152871D01*
X116174406Y-104159740D01*
X116174399Y-104159742D01*
X115991902Y-104257290D01*
X115931520Y-104306844D01*
X115867209Y-104334156D01*
X115798342Y-104322364D01*
X115746782Y-104275211D01*
X115728856Y-104210990D01*
X115728856Y-103945412D01*
X115712407Y-103884024D01*
X115708377Y-103868984D01*
X115690507Y-103838032D01*
X115668820Y-103800468D01*
X115668814Y-103800460D01*
X115514870Y-103646516D01*
X115484961Y-103598188D01*
X115389569Y-103313153D01*
X115143109Y-102576721D01*
X115022507Y-102216357D01*
X115020162Y-102209728D01*
X115019881Y-102208975D01*
X115019879Y-102208973D01*
X115017560Y-102202754D01*
X115017878Y-102202635D01*
X115014670Y-102194587D01*
X115013588Y-102191019D01*
X114916041Y-102008523D01*
X114843444Y-101920063D01*
X114784766Y-101848562D01*
X114624808Y-101717290D01*
X114624809Y-101717290D01*
X114624806Y-101717288D01*
X114442310Y-101619741D01*
X114244290Y-101559673D01*
X114244288Y-101559672D01*
X114244290Y-101559672D01*
X114038356Y-101539390D01*
X113832423Y-101559672D01*
X113657048Y-101612871D01*
X113635428Y-101619430D01*
X113634399Y-101619742D01*
X113538523Y-101670990D01*
X113451906Y-101717288D01*
X113451904Y-101717289D01*
X113451903Y-101717290D01*
X113291945Y-101848562D01*
X113160673Y-102008520D01*
X113063125Y-102191016D01*
X113003055Y-102389040D01*
X112982773Y-102594973D01*
X113003055Y-102800905D01*
X113011972Y-102830299D01*
X113063124Y-102998927D01*
X113160671Y-103181423D01*
X113160673Y-103181425D01*
X113291945Y-103341383D01*
X113358240Y-103395789D01*
X113451906Y-103472658D01*
X113634402Y-103570205D01*
X113643690Y-103573022D01*
X113658396Y-103578521D01*
X113659733Y-103579120D01*
X113659740Y-103579124D01*
X114433372Y-103838033D01*
X114518284Y-103866450D01*
X114688107Y-103923286D01*
X114688108Y-103923286D01*
X115041571Y-104041578D01*
X115089899Y-104071487D01*
X115091537Y-104073125D01*
X115125022Y-104134448D01*
X115127856Y-104160806D01*
X115127856Y-104460063D01*
X115108171Y-104527102D01*
X115055367Y-104572857D01*
X114986209Y-104582801D01*
X114922653Y-104553776D01*
X114908002Y-104538727D01*
X114784766Y-104388562D01*
X114634196Y-104264994D01*
X114624806Y-104257288D01*
X114454910Y-104166475D01*
X114442312Y-104159742D01*
X114442311Y-104159741D01*
X114442310Y-104159741D01*
X114244290Y-104099673D01*
X114244288Y-104099672D01*
X114244290Y-104099672D01*
X114038356Y-104079390D01*
X113832423Y-104099672D01*
X113657048Y-104152871D01*
X113634406Y-104159740D01*
X113634399Y-104159742D01*
X113538523Y-104210990D01*
X113451906Y-104257288D01*
X113451904Y-104257289D01*
X113451903Y-104257290D01*
X113291945Y-104388562D01*
X113168710Y-104538727D01*
X113160671Y-104548523D01*
X113135008Y-104596534D01*
X113063125Y-104731016D01*
X113003055Y-104929040D01*
X112982773Y-105134973D01*
X113003055Y-105340905D01*
X113019366Y-105394675D01*
X113063124Y-105538927D01*
X113160671Y-105721423D01*
X113178250Y-105742843D01*
X113291945Y-105881383D01*
X113358240Y-105935789D01*
X113451906Y-106012658D01*
X113634402Y-106110205D01*
X113832422Y-106170273D01*
X113832421Y-106170273D01*
X113850885Y-106172091D01*
X114038356Y-106190556D01*
X114244290Y-106170273D01*
X114442310Y-106110205D01*
X114624806Y-106012658D01*
X114784766Y-105881383D01*
X114916041Y-105721423D01*
X114920542Y-105713001D01*
X114969499Y-105663156D01*
X115037635Y-105647690D01*
X115103316Y-105671517D01*
X115145689Y-105727072D01*
X115147020Y-105731171D01*
X115148334Y-105734344D01*
X115157662Y-105750500D01*
X115180811Y-105790595D01*
X115187896Y-105802867D01*
X117039540Y-107654511D01*
X117095489Y-107710460D01*
X117095491Y-107710461D01*
X117095495Y-107710464D01*
X117163483Y-107749716D01*
X117164011Y-107750021D01*
X117240438Y-107770500D01*
X117240440Y-107770500D01*
X132739560Y-107770500D01*
X132739562Y-107770500D01*
X132815989Y-107750021D01*
X132884511Y-107710460D01*
X132940460Y-107654511D01*
X133367516Y-107227455D01*
X133407077Y-107158933D01*
X133427556Y-107082506D01*
X133427556Y-105809882D01*
X133447241Y-105742843D01*
X133500045Y-105697088D01*
X133569203Y-105687144D01*
X133632759Y-105716169D01*
X133647406Y-105731214D01*
X133668570Y-105757002D01*
X133770645Y-105881383D01*
X133836940Y-105935789D01*
X133930606Y-106012658D01*
X134113102Y-106110205D01*
X134311122Y-106170273D01*
X134311121Y-106170273D01*
X134329585Y-106172091D01*
X134517056Y-106190556D01*
X134722990Y-106170273D01*
X134921010Y-106110205D01*
X135103506Y-106012658D01*
X135263466Y-105881383D01*
X135394741Y-105721423D01*
X135492288Y-105538927D01*
X135552356Y-105340907D01*
X135572639Y-105134973D01*
X135552356Y-104929039D01*
X135492288Y-104731019D01*
X135394741Y-104548523D01*
X135315816Y-104452352D01*
X135263466Y-104388562D01*
X135112896Y-104264994D01*
X135103506Y-104257288D01*
X134933610Y-104166475D01*
X134921012Y-104159742D01*
X134921011Y-104159741D01*
X134921010Y-104159741D01*
X134722990Y-104099673D01*
X134722988Y-104099672D01*
X134722990Y-104099672D01*
X134517056Y-104079390D01*
X134311123Y-104099672D01*
X134135748Y-104152871D01*
X134113106Y-104159740D01*
X134113099Y-104159742D01*
X134017223Y-104210990D01*
X133930606Y-104257288D01*
X133930604Y-104257289D01*
X133930603Y-104257290D01*
X133770645Y-104388562D01*
X133647410Y-104538727D01*
X133589664Y-104578062D01*
X133519819Y-104579933D01*
X133460051Y-104543746D01*
X133429335Y-104480990D01*
X133427556Y-104460063D01*
X133427556Y-103269882D01*
X133447241Y-103202843D01*
X133500045Y-103157088D01*
X133569203Y-103147144D01*
X133632759Y-103176169D01*
X133647406Y-103191214D01*
X133688011Y-103240691D01*
X133770645Y-103341383D01*
X133836940Y-103395789D01*
X133930606Y-103472658D01*
X134113102Y-103570205D01*
X134311122Y-103630273D01*
X134311121Y-103630273D01*
X134329585Y-103632091D01*
X134517056Y-103650556D01*
X134722990Y-103630273D01*
X134921010Y-103570205D01*
X134921016Y-103570201D01*
X134921354Y-103570062D01*
X134923837Y-103569064D01*
X134927558Y-103567614D01*
X134927563Y-103567614D01*
X136077814Y-103119720D01*
X136147424Y-103113739D01*
X136209220Y-103146342D01*
X136210485Y-103147589D01*
X136513181Y-103450284D01*
X136546666Y-103511607D01*
X136549500Y-103537965D01*
X136549500Y-107662035D01*
X136529815Y-107729074D01*
X136513181Y-107749716D01*
X135649716Y-108613181D01*
X135588393Y-108646666D01*
X135562035Y-108649500D01*
X113161348Y-108649500D01*
X113094309Y-108629815D01*
X113073667Y-108613181D01*
X110531829Y-106071343D01*
X110505991Y-106033556D01*
X110441468Y-105886741D01*
X110432517Y-105817451D01*
X110462450Y-105754317D01*
X110521763Y-105717389D01*
X110591625Y-105718389D01*
X110649856Y-105757002D01*
X110650843Y-105758189D01*
X110751945Y-105881382D01*
X110751946Y-105881383D01*
X110911906Y-106012658D01*
X111094402Y-106110205D01*
X111292422Y-106170273D01*
X111292421Y-106170273D01*
X111310885Y-106172091D01*
X111498356Y-106190556D01*
X111704290Y-106170273D01*
X111902310Y-106110205D01*
X112084806Y-106012658D01*
X112244766Y-105881383D01*
X112376041Y-105721423D01*
X112473588Y-105538927D01*
X112533656Y-105340907D01*
X112553939Y-105134973D01*
X112533656Y-104929039D01*
X112473588Y-104731019D01*
X112376041Y-104548523D01*
X112297116Y-104452352D01*
X112244766Y-104388562D01*
X112094196Y-104264994D01*
X112084806Y-104257288D01*
X111914910Y-104166475D01*
X111902312Y-104159742D01*
X111902311Y-104159741D01*
X111902310Y-104159741D01*
X111704290Y-104099673D01*
X111704288Y-104099672D01*
X111704290Y-104099672D01*
X111498356Y-104079390D01*
X111292423Y-104099672D01*
X111117048Y-104152871D01*
X111094406Y-104159740D01*
X111094399Y-104159742D01*
X110998523Y-104210990D01*
X110911906Y-104257288D01*
X110911904Y-104257289D01*
X110911903Y-104257290D01*
X110751945Y-104388562D01*
X110628710Y-104538727D01*
X110620671Y-104548523D01*
X110595008Y-104596534D01*
X110523125Y-104731016D01*
X110463055Y-104929040D01*
X110442773Y-105134973D01*
X110462270Y-105332933D01*
X110449251Y-105401579D01*
X110401186Y-105452289D01*
X110333335Y-105468964D01*
X110267241Y-105446308D01*
X110225346Y-105394977D01*
X110225214Y-105394676D01*
X109936389Y-104737484D01*
X109936387Y-104737481D01*
X109934776Y-104733815D01*
X109933730Y-104731363D01*
X109933591Y-104731030D01*
X109933588Y-104731019D01*
X109836041Y-104548523D01*
X109757116Y-104452352D01*
X109704766Y-104388562D01*
X109554196Y-104264994D01*
X109544806Y-104257288D01*
X109374910Y-104166475D01*
X109362312Y-104159742D01*
X109362311Y-104159741D01*
X109362310Y-104159741D01*
X109295803Y-104139566D01*
X109237365Y-104101269D01*
X109208909Y-104037457D01*
X109219469Y-103968390D01*
X109265693Y-103915996D01*
X109299706Y-103901131D01*
X109421839Y-103868406D01*
X109421848Y-103868402D01*
X109635936Y-103768572D01*
X109719727Y-103709898D01*
X109087764Y-103077935D01*
X109151349Y-103060898D01*
X109265363Y-102995072D01*
X109358455Y-102901980D01*
X109424281Y-102787966D01*
X109441318Y-102724381D01*
X110073281Y-103356344D01*
X110131955Y-103272553D01*
X110231785Y-103058465D01*
X110231789Y-103058456D01*
X110264514Y-102936323D01*
X110300878Y-102876663D01*
X110363725Y-102846133D01*
X110433101Y-102854427D01*
X110486979Y-102898912D01*
X110502949Y-102932420D01*
X110523124Y-102998927D01*
X110620671Y-103181423D01*
X110620673Y-103181425D01*
X110751945Y-103341383D01*
X110818240Y-103395789D01*
X110911906Y-103472658D01*
X111094402Y-103570205D01*
X111292422Y-103630273D01*
X111292421Y-103630273D01*
X111310885Y-103632091D01*
X111498356Y-103650556D01*
X111704290Y-103630273D01*
X111902310Y-103570205D01*
X112084806Y-103472658D01*
X112244766Y-103341383D01*
X112376041Y-103181423D01*
X112473588Y-102998927D01*
X112533656Y-102800907D01*
X112553939Y-102594973D01*
X112533656Y-102389039D01*
X112473588Y-102191019D01*
X112376041Y-102008523D01*
X112303444Y-101920063D01*
X112244766Y-101848562D01*
X112084808Y-101717290D01*
X112084809Y-101717290D01*
X112084806Y-101717288D01*
X111902310Y-101619741D01*
X111704290Y-101559673D01*
X111704288Y-101559672D01*
X111704290Y-101559672D01*
X111498356Y-101539390D01*
X111292423Y-101559672D01*
X111117048Y-101612871D01*
X111095428Y-101619430D01*
X111094399Y-101619742D01*
X110998523Y-101670990D01*
X110911906Y-101717288D01*
X110911904Y-101717289D01*
X110911903Y-101717290D01*
X110751945Y-101848562D01*
X110620673Y-102008520D01*
X110523123Y-102191019D01*
X110502949Y-102257525D01*
X110464652Y-102315963D01*
X110400839Y-102344420D01*
X110331772Y-102333859D01*
X110279379Y-102287634D01*
X110264514Y-102253622D01*
X110231789Y-102131489D01*
X110231785Y-102131480D01*
X110131957Y-101917397D01*
X110073281Y-101833599D01*
X109441318Y-102465563D01*
X109424281Y-102401980D01*
X109358455Y-102287966D01*
X109265363Y-102194874D01*
X109151349Y-102129048D01*
X109087765Y-102112010D01*
X109719728Y-101480046D01*
X109635932Y-101421371D01*
X109503364Y-101359554D01*
X109450925Y-101313382D01*
X109431773Y-101246188D01*
X109451989Y-101179307D01*
X109505154Y-101133973D01*
X109555769Y-101123172D01*
X118891880Y-101123172D01*
X121723669Y-101123172D01*
X121790708Y-101142857D01*
G37*
%TD.AperFunction*%
%TA.AperFunction,Conductor*%
G36*
X130058695Y-99177999D02*
G01*
X130094679Y-99206236D01*
X130154373Y-99274305D01*
X130332126Y-99430189D01*
X130381999Y-99473927D01*
X130633732Y-99642130D01*
X130737673Y-99693388D01*
X130905264Y-99776035D01*
X130905274Y-99776039D01*
X131191944Y-99873350D01*
X131191948Y-99873351D01*
X131191957Y-99873354D01*
X131488897Y-99932419D01*
X131791006Y-99952220D01*
X132093115Y-99932419D01*
X132390055Y-99873354D01*
X132476827Y-99843899D01*
X132676737Y-99776039D01*
X132676747Y-99776035D01*
X132948280Y-99642130D01*
X133090720Y-99546954D01*
X133157395Y-99526077D01*
X133224775Y-99544561D01*
X133271466Y-99596540D01*
X133282642Y-99665510D01*
X133254757Y-99729574D01*
X133247290Y-99737738D01*
X132711848Y-100273181D01*
X132650525Y-100306666D01*
X132624167Y-100309500D01*
X131790438Y-100309500D01*
X131742542Y-100322334D01*
X131714007Y-100329980D01*
X131662014Y-100359999D01*
X131645492Y-100369537D01*
X131645487Y-100369541D01*
X130479541Y-101535487D01*
X130479535Y-101535495D01*
X130439982Y-101604004D01*
X130439979Y-101604009D01*
X130419500Y-101680439D01*
X130419500Y-101789614D01*
X130399815Y-101856653D01*
X130347011Y-101902408D01*
X130277853Y-101912352D01*
X130214297Y-101883327D01*
X130199647Y-101868279D01*
X130183466Y-101848563D01*
X130116649Y-101793728D01*
X130023506Y-101717288D01*
X129841010Y-101619741D01*
X129642990Y-101559673D01*
X129642988Y-101559672D01*
X129642990Y-101559672D01*
X129437056Y-101539390D01*
X129231123Y-101559672D01*
X129055748Y-101612871D01*
X129034128Y-101619430D01*
X129033099Y-101619742D01*
X128937223Y-101670990D01*
X128850606Y-101717288D01*
X128850604Y-101717289D01*
X128850603Y-101717290D01*
X128690645Y-101848562D01*
X128559373Y-102008520D01*
X128461823Y-102191019D01*
X128441649Y-102257525D01*
X128403352Y-102315963D01*
X128339539Y-102344420D01*
X128270472Y-102333859D01*
X128218079Y-102287634D01*
X128203214Y-102253622D01*
X128170489Y-102131489D01*
X128170485Y-102131480D01*
X128070657Y-101917397D01*
X128011981Y-101833599D01*
X127380018Y-102465563D01*
X127362981Y-102401980D01*
X127297155Y-102287966D01*
X127204063Y-102194874D01*
X127090049Y-102129048D01*
X127026465Y-102112010D01*
X127658428Y-101480046D01*
X127574632Y-101421371D01*
X127429148Y-101353531D01*
X127376709Y-101307359D01*
X127357557Y-101240165D01*
X127377773Y-101173284D01*
X127430938Y-101127949D01*
X127467909Y-101117902D01*
X127726483Y-101089285D01*
X128029444Y-101020716D01*
X128322808Y-100918613D01*
X128602874Y-100784262D01*
X128866112Y-100619359D01*
X129109202Y-100425983D01*
X129329079Y-100206571D01*
X129522970Y-99963891D01*
X129687515Y-99702457D01*
X129688426Y-99701010D01*
X129688427Y-99701007D01*
X129688430Y-99701003D01*
X129823373Y-99421222D01*
X129884429Y-99246986D01*
X129925175Y-99190230D01*
X129990139Y-99164512D01*
X130058695Y-99177999D01*
G37*
%TD.AperFunction*%
%TA.AperFunction,Conductor*%
G36*
X136262341Y-88240185D02*
G01*
X136308096Y-88292989D01*
X136318040Y-88362147D01*
X136315116Y-88375587D01*
X136294353Y-88520000D01*
X136314834Y-88662456D01*
X136374622Y-88793371D01*
X136374623Y-88793373D01*
X136468872Y-88902143D01*
X136468875Y-88902144D01*
X136469213Y-88902535D01*
X136498238Y-88966091D01*
X136499500Y-88983738D01*
X136499500Y-98544166D01*
X136479815Y-98611205D01*
X136463181Y-98631847D01*
X136071427Y-99023600D01*
X136010104Y-99057085D01*
X135980829Y-99058132D01*
X135980829Y-99059500D01*
X135828036Y-99059500D01*
X135689949Y-99100045D01*
X135568873Y-99177856D01*
X135474623Y-99286626D01*
X135474622Y-99286628D01*
X135452294Y-99335520D01*
X135406539Y-99388324D01*
X135339500Y-99408008D01*
X135272460Y-99388323D01*
X135226705Y-99335519D01*
X135215500Y-99284008D01*
X135215500Y-96305693D01*
X135215500Y-96305691D01*
X135184799Y-96191114D01*
X135184799Y-96191113D01*
X135184799Y-96191112D01*
X135125492Y-96088389D01*
X135125488Y-96088384D01*
X133946819Y-94909715D01*
X133913334Y-94848392D01*
X133910500Y-94822034D01*
X133910500Y-94322169D01*
X133930185Y-94255130D01*
X133965176Y-94219357D01*
X134029494Y-94175989D01*
X134826445Y-93638622D01*
X134850970Y-93625811D01*
X134868809Y-93618901D01*
X135048484Y-93507650D01*
X135123571Y-93439198D01*
X135132958Y-93431450D01*
X135141712Y-93424921D01*
X135143440Y-93423499D01*
X135149676Y-93418155D01*
X135149680Y-93418150D01*
X135154793Y-93412552D01*
X135155000Y-93412741D01*
X135165062Y-93401374D01*
X135204658Y-93365279D01*
X135332012Y-93196635D01*
X135426209Y-93007462D01*
X135426209Y-93007459D01*
X135426211Y-93007457D01*
X135484041Y-92804202D01*
X135484042Y-92804199D01*
X135503541Y-92593773D01*
X135503541Y-92593772D01*
X135484042Y-92383346D01*
X135484041Y-92383343D01*
X135426211Y-92180088D01*
X135426208Y-92180082D01*
X135357537Y-92042172D01*
X135332012Y-91990911D01*
X135204658Y-91822267D01*
X135204656Y-91822264D01*
X135048485Y-91679897D01*
X135048484Y-91679896D01*
X134916905Y-91598425D01*
X134870270Y-91546397D01*
X134859166Y-91477415D01*
X134887120Y-91413381D01*
X134934775Y-91380630D01*
X134934008Y-91378880D01*
X134938700Y-91376822D01*
X135148553Y-91263254D01*
X135148556Y-91263253D01*
X135185514Y-91234485D01*
X135185514Y-91234484D01*
X134494298Y-90543268D01*
X134554437Y-90527154D01*
X134670276Y-90460275D01*
X134764858Y-90365693D01*
X134831737Y-90249854D01*
X134847851Y-90189715D01*
X135538297Y-90880162D01*
X135628960Y-90741394D01*
X135628965Y-90741386D01*
X135724810Y-90522877D01*
X135783386Y-90291569D01*
X135783388Y-90291561D01*
X135803091Y-90053779D01*
X135803091Y-90053766D01*
X135783388Y-89815984D01*
X135783386Y-89815976D01*
X135724810Y-89584668D01*
X135628962Y-89366153D01*
X135538297Y-89227382D01*
X134847850Y-89917829D01*
X134831737Y-89857692D01*
X134764858Y-89741853D01*
X134670276Y-89647271D01*
X134554437Y-89580392D01*
X134494296Y-89564277D01*
X135203557Y-88855018D01*
X135203995Y-88853094D01*
X135224579Y-88825862D01*
X135793623Y-88256819D01*
X135854946Y-88223334D01*
X135881304Y-88220500D01*
X136195302Y-88220500D01*
X136262341Y-88240185D01*
G37*
%TD.AperFunction*%
%TA.AperFunction,Conductor*%
G36*
X140557005Y-61851226D02*
G01*
X140587721Y-61913982D01*
X140589500Y-61934909D01*
X140589500Y-63012692D01*
X140569815Y-63079731D01*
X140553181Y-63100373D01*
X139982962Y-63670591D01*
X139965925Y-63607007D01*
X139900099Y-63492993D01*
X139807007Y-63399901D01*
X139692993Y-63334075D01*
X139629409Y-63317037D01*
X140261372Y-62685073D01*
X140177576Y-62626398D01*
X139963492Y-62526570D01*
X139963486Y-62526567D01*
X139841349Y-62493841D01*
X139781689Y-62457476D01*
X139751160Y-62394629D01*
X139759455Y-62325253D01*
X139803940Y-62271375D01*
X139837444Y-62255407D01*
X139903954Y-62235232D01*
X140086450Y-62137685D01*
X140246410Y-62006410D01*
X140369647Y-61856244D01*
X140427392Y-61816910D01*
X140497236Y-61815039D01*
X140557005Y-61851226D01*
G37*
%TD.AperFunction*%
%TA.AperFunction,Conductor*%
G36*
X142627323Y-40821001D02*
G01*
X142649735Y-40839441D01*
X144550572Y-42819479D01*
X144767602Y-43045551D01*
X144799829Y-43107545D01*
X144802150Y-43131425D01*
X144802150Y-89905192D01*
X144782465Y-89972231D01*
X144765831Y-89992873D01*
X142716531Y-92042172D01*
X142716532Y-92042173D01*
X142640786Y-92117918D01*
X142606887Y-92176634D01*
X142556319Y-92224849D01*
X142487712Y-92238071D01*
X142422847Y-92212103D01*
X142382319Y-92155188D01*
X142375500Y-92114633D01*
X142375500Y-91275833D01*
X142395185Y-91208794D01*
X142411819Y-91188152D01*
X142858585Y-90741386D01*
X143430460Y-90169511D01*
X143470021Y-90100989D01*
X143490500Y-90024562D01*
X143490500Y-84370438D01*
X143478774Y-84326677D01*
X143470022Y-84294012D01*
X143430684Y-84225877D01*
X143419302Y-84199512D01*
X143155084Y-83318831D01*
X143154675Y-83248964D01*
X143156246Y-83243906D01*
X143486604Y-82256782D01*
X143516513Y-82208457D01*
X144230456Y-81494515D01*
X144230456Y-81494514D01*
X144230460Y-81494511D01*
X144242305Y-81473994D01*
X144270021Y-81425989D01*
X144290500Y-81349562D01*
X144290500Y-74760438D01*
X144290500Y-74245855D01*
X144281137Y-74210911D01*
X144270022Y-74169429D01*
X144230460Y-74100906D01*
X135962450Y-65832896D01*
X135932325Y-65783915D01*
X135433706Y-64266077D01*
X135432271Y-64261393D01*
X135426209Y-64240084D01*
X135332012Y-64050911D01*
X135204658Y-63882267D01*
X135204656Y-63882264D01*
X135048485Y-63739897D01*
X135048484Y-63739896D01*
X134868809Y-63628645D01*
X134868808Y-63628644D01*
X134703677Y-63564673D01*
X134671751Y-63552305D01*
X134491744Y-63518655D01*
X134429464Y-63486987D01*
X134394191Y-63426675D01*
X134397125Y-63356867D01*
X134437334Y-63299727D01*
X134475457Y-63279084D01*
X134654627Y-63219602D01*
X134670913Y-63215398D01*
X134671746Y-63215242D01*
X134671746Y-63215241D01*
X134671751Y-63215241D01*
X134692829Y-63207074D01*
X134698486Y-63205041D01*
X134770820Y-63181028D01*
X134777771Y-63178581D01*
X134777777Y-63178579D01*
X134778553Y-63178290D01*
X134778553Y-63178289D01*
X134778558Y-63178288D01*
X134785410Y-63173889D01*
X134807600Y-63162612D01*
X134868809Y-63138901D01*
X135048484Y-63027650D01*
X135204658Y-62885279D01*
X135332012Y-62716635D01*
X135426209Y-62527462D01*
X135426209Y-62527459D01*
X135426211Y-62527457D01*
X135484041Y-62324202D01*
X135484042Y-62324199D01*
X135484841Y-62315582D01*
X135503541Y-62113773D01*
X135498673Y-62061244D01*
X135484042Y-61903346D01*
X135484041Y-61903343D01*
X135426211Y-61700088D01*
X135426208Y-61700082D01*
X135398902Y-61645244D01*
X135332012Y-61510911D01*
X135204658Y-61342267D01*
X135204656Y-61342264D01*
X135048485Y-61199897D01*
X135048484Y-61199896D01*
X134868809Y-61088645D01*
X134868808Y-61088644D01*
X134724721Y-61032825D01*
X134671751Y-61012305D01*
X134464020Y-60973473D01*
X134252692Y-60973473D01*
X134044961Y-61012305D01*
X134044958Y-61012305D01*
X134044958Y-61012306D01*
X133847903Y-61088644D01*
X133847902Y-61088645D01*
X133668226Y-61199897D01*
X133512055Y-61342264D01*
X133384700Y-61510910D01*
X133290503Y-61700082D01*
X133290500Y-61700088D01*
X133232670Y-61903340D01*
X133231812Y-61912597D01*
X133227957Y-61933826D01*
X132903681Y-63120595D01*
X132882444Y-63163394D01*
X132878095Y-63169062D01*
X132838538Y-63237577D01*
X132838535Y-63237582D01*
X132827415Y-63279083D01*
X132821884Y-63299727D01*
X132818056Y-63314012D01*
X132818056Y-63439675D01*
X132817500Y-63451402D01*
X132817004Y-63456614D01*
X132817277Y-63464036D01*
X132818056Y-63473260D01*
X132818056Y-80458118D01*
X132828295Y-80496331D01*
X132838535Y-80534547D01*
X132838537Y-80534550D01*
X132856663Y-80565944D01*
X132856666Y-80565948D01*
X132878093Y-80603063D01*
X132878097Y-80603068D01*
X133642676Y-81367647D01*
X133676161Y-81428970D01*
X133671177Y-81498662D01*
X133638533Y-81546965D01*
X133512055Y-81662264D01*
X133384698Y-81830912D01*
X133290502Y-82020083D01*
X133290502Y-82020086D01*
X133284453Y-82041343D01*
X133282994Y-82046104D01*
X132784385Y-83563915D01*
X132754260Y-83612896D01*
X131612181Y-84754976D01*
X131550858Y-84788461D01*
X131481166Y-84783477D01*
X131425233Y-84741605D01*
X131400816Y-84676141D01*
X131400500Y-84667295D01*
X131400500Y-59573772D01*
X133213171Y-59573772D01*
X133213171Y-59573773D01*
X133232669Y-59784199D01*
X133232670Y-59784202D01*
X133290500Y-59987457D01*
X133290503Y-59987463D01*
X133384700Y-60176635D01*
X133512055Y-60345281D01*
X133572341Y-60400238D01*
X133668228Y-60487650D01*
X133847903Y-60598901D01*
X134044961Y-60675241D01*
X134252692Y-60714073D01*
X134252694Y-60714073D01*
X134464018Y-60714073D01*
X134464020Y-60714073D01*
X134671751Y-60675241D01*
X134731410Y-60652129D01*
X134791496Y-60628852D01*
X134803013Y-60625026D01*
X134821951Y-60619752D01*
X134839375Y-60610944D01*
X134850479Y-60606001D01*
X134868809Y-60598901D01*
X134889171Y-60586292D01*
X134898497Y-60581061D01*
X136072905Y-59987457D01*
X136270454Y-59887606D01*
X136326390Y-59874273D01*
X137637940Y-59874273D01*
X137704979Y-59893958D01*
X137725621Y-59910592D01*
X138023485Y-60208456D01*
X138053394Y-60256784D01*
X138193438Y-60675241D01*
X138411819Y-61327772D01*
X138515848Y-61638615D01*
X138515853Y-61638628D01*
X138518198Y-61645259D01*
X138520794Y-61652215D01*
X138520478Y-61652332D01*
X138523681Y-61660371D01*
X138524767Y-61663953D01*
X138524768Y-61663954D01*
X138622315Y-61846450D01*
X138622317Y-61846452D01*
X138753589Y-62006410D01*
X138820406Y-62061244D01*
X138913550Y-62137685D01*
X139096046Y-62235232D01*
X139162551Y-62255405D01*
X139220989Y-62293702D01*
X139249446Y-62357514D01*
X139238887Y-62426581D01*
X139192663Y-62478975D01*
X139158650Y-62493841D01*
X139036514Y-62526567D01*
X139036507Y-62526570D01*
X138822423Y-62626399D01*
X138822421Y-62626400D01*
X138738627Y-62685073D01*
X138738626Y-62685073D01*
X139370591Y-63317037D01*
X139307007Y-63334075D01*
X139192993Y-63399901D01*
X139099901Y-63492993D01*
X139034075Y-63607007D01*
X139017037Y-63670590D01*
X138385073Y-63038626D01*
X138385073Y-63038627D01*
X138326400Y-63122421D01*
X138326399Y-63122423D01*
X138226570Y-63336507D01*
X138226566Y-63336516D01*
X138165432Y-63564673D01*
X138165430Y-63564684D01*
X138144843Y-63799998D01*
X138144843Y-63800001D01*
X138165430Y-64035315D01*
X138165432Y-64035326D01*
X138226566Y-64263483D01*
X138226570Y-64263492D01*
X138326398Y-64477576D01*
X138385073Y-64561372D01*
X139017037Y-63929408D01*
X139034075Y-63992993D01*
X139099901Y-64107007D01*
X139192993Y-64200099D01*
X139307007Y-64265925D01*
X139370591Y-64282962D01*
X138738626Y-64914926D01*
X138822417Y-64973598D01*
X138822421Y-64973600D01*
X139036507Y-65073429D01*
X139036516Y-65073433D01*
X139264673Y-65134567D01*
X139264684Y-65134569D01*
X139499998Y-65155157D01*
X139500002Y-65155157D01*
X139735315Y-65134569D01*
X139735326Y-65134567D01*
X139963483Y-65073433D01*
X139963492Y-65073429D01*
X140177580Y-64973599D01*
X140261371Y-64914925D01*
X139629408Y-64282962D01*
X139692993Y-64265925D01*
X139807007Y-64200099D01*
X139900099Y-64107007D01*
X139965925Y-63992993D01*
X139982962Y-63929408D01*
X140553181Y-64499627D01*
X140586666Y-64560950D01*
X140589500Y-64587308D01*
X140589500Y-66479562D01*
X140607146Y-66545416D01*
X140609467Y-66554077D01*
X140612430Y-66603816D01*
X140604353Y-66659998D01*
X140604353Y-66659999D01*
X140624834Y-66802456D01*
X140659003Y-66877274D01*
X140684623Y-66933373D01*
X140778872Y-67042143D01*
X140899947Y-67119953D01*
X140899950Y-67119954D01*
X140899949Y-67119954D01*
X141038036Y-67160499D01*
X141038038Y-67160500D01*
X141038039Y-67160500D01*
X141181962Y-67160500D01*
X141181962Y-67160499D01*
X141320053Y-67119953D01*
X141441128Y-67042143D01*
X141535377Y-66933373D01*
X141595165Y-66802457D01*
X141615647Y-66660000D01*
X141595165Y-66517543D01*
X141535377Y-66386627D01*
X141441128Y-66277857D01*
X141320053Y-66200047D01*
X141320050Y-66200045D01*
X141279565Y-66188158D01*
X141220787Y-66150383D01*
X141191762Y-66086828D01*
X141190500Y-66069181D01*
X141190500Y-64723982D01*
X141210185Y-64656943D01*
X141262989Y-64611188D01*
X141332147Y-64601244D01*
X141393165Y-64628129D01*
X141453546Y-64677682D01*
X141453550Y-64677685D01*
X141636046Y-64775232D01*
X141834066Y-64835300D01*
X141834065Y-64835300D01*
X141852529Y-64837118D01*
X142040000Y-64855583D01*
X142245934Y-64835300D01*
X142443954Y-64775232D01*
X142626450Y-64677685D01*
X142786410Y-64546410D01*
X142917685Y-64386450D01*
X143015232Y-64203954D01*
X143075300Y-64005934D01*
X143095583Y-63800000D01*
X143075300Y-63594066D01*
X143015232Y-63396046D01*
X142917685Y-63213550D01*
X142856423Y-63138901D01*
X142786410Y-63053589D01*
X142626452Y-62922317D01*
X142626453Y-62922317D01*
X142626450Y-62922315D01*
X142443954Y-62824768D01*
X142245934Y-62764700D01*
X142245932Y-62764699D01*
X142245934Y-62764699D01*
X142040000Y-62744417D01*
X141834067Y-62764699D01*
X141636043Y-62824769D01*
X141453546Y-62922317D01*
X141393164Y-62971871D01*
X141328853Y-62999183D01*
X141259986Y-62987391D01*
X141208426Y-62940238D01*
X141190500Y-62876017D01*
X141190500Y-62183982D01*
X141210185Y-62116943D01*
X141262989Y-62071188D01*
X141332147Y-62061244D01*
X141393165Y-62088129D01*
X141453546Y-62137682D01*
X141453550Y-62137685D01*
X141636046Y-62235232D01*
X141834066Y-62295300D01*
X141834065Y-62295300D01*
X141852529Y-62297118D01*
X142040000Y-62315583D01*
X142245934Y-62295300D01*
X142443954Y-62235232D01*
X142626450Y-62137685D01*
X142786410Y-62006410D01*
X142917685Y-61846450D01*
X143015232Y-61663954D01*
X143075300Y-61465934D01*
X143095583Y-61260000D01*
X143075300Y-61054066D01*
X143015232Y-60856046D01*
X142917685Y-60673550D01*
X142843763Y-60583475D01*
X142786410Y-60513589D01*
X142626452Y-60382317D01*
X142626453Y-60382317D01*
X142626450Y-60382315D01*
X142443954Y-60284768D01*
X142245934Y-60224700D01*
X142245932Y-60224699D01*
X142245934Y-60224699D01*
X142040000Y-60204417D01*
X141834067Y-60224699D01*
X141665452Y-60275848D01*
X141636050Y-60284767D01*
X141636043Y-60284769D01*
X141453546Y-60382317D01*
X141393164Y-60431871D01*
X141328853Y-60459183D01*
X141259986Y-60447391D01*
X141208426Y-60400238D01*
X141190500Y-60336017D01*
X141190500Y-59643982D01*
X141210185Y-59576943D01*
X141262989Y-59531188D01*
X141332147Y-59521244D01*
X141393165Y-59548129D01*
X141453546Y-59597682D01*
X141453550Y-59597685D01*
X141636046Y-59695232D01*
X141834066Y-59755300D01*
X141834065Y-59755300D01*
X141852529Y-59757118D01*
X142040000Y-59775583D01*
X142245934Y-59755300D01*
X142443954Y-59695232D01*
X142626450Y-59597685D01*
X142786410Y-59466410D01*
X142917685Y-59306450D01*
X143015232Y-59123954D01*
X143075300Y-58925934D01*
X143095583Y-58720000D01*
X143075300Y-58514066D01*
X143015232Y-58316046D01*
X142917685Y-58133550D01*
X142843763Y-58043475D01*
X142786410Y-57973589D01*
X142626452Y-57842317D01*
X142626453Y-57842317D01*
X142626450Y-57842315D01*
X142443954Y-57744768D01*
X142245934Y-57684700D01*
X142245932Y-57684699D01*
X142245934Y-57684699D01*
X142040000Y-57664417D01*
X141834067Y-57684699D01*
X141636043Y-57744769D01*
X141453546Y-57842317D01*
X141393164Y-57891871D01*
X141328853Y-57919183D01*
X141259986Y-57907391D01*
X141208426Y-57860238D01*
X141190500Y-57796017D01*
X141190500Y-57651155D01*
X141210185Y-57584116D01*
X141262989Y-57538361D01*
X141276369Y-57533163D01*
X141291462Y-57528285D01*
X141291463Y-57528286D01*
X142416416Y-57164737D01*
X142419470Y-57163681D01*
X142424181Y-57162055D01*
X142431371Y-57159409D01*
X142431483Y-57159715D01*
X142438944Y-57156751D01*
X142443954Y-57155232D01*
X142626450Y-57057685D01*
X142786410Y-56926410D01*
X142917685Y-56766450D01*
X143015232Y-56583954D01*
X143075300Y-56385934D01*
X143095583Y-56180000D01*
X143075300Y-55974066D01*
X143015232Y-55776046D01*
X142917685Y-55593550D01*
X142843763Y-55503475D01*
X142786410Y-55433589D01*
X142626452Y-55302317D01*
X142626453Y-55302317D01*
X142626450Y-55302315D01*
X142443954Y-55204768D01*
X142245934Y-55144700D01*
X142245932Y-55144699D01*
X142245934Y-55144699D01*
X142040000Y-55124417D01*
X141834067Y-55144699D01*
X141665452Y-55195848D01*
X141636050Y-55204767D01*
X141636043Y-55204769D01*
X141525898Y-55263643D01*
X141453550Y-55302315D01*
X141453548Y-55302316D01*
X141453547Y-55302317D01*
X141293589Y-55433589D01*
X141198997Y-55548852D01*
X141162315Y-55593550D01*
X141140655Y-55634073D01*
X141064768Y-55776046D01*
X141059228Y-55794305D01*
X141055333Y-55805262D01*
X141054100Y-55808272D01*
X141017035Y-55932306D01*
X140961452Y-56118306D01*
X140922763Y-56247771D01*
X140639181Y-57196717D01*
X140627761Y-57223210D01*
X140609981Y-57254006D01*
X140609979Y-57254009D01*
X140589500Y-57330439D01*
X140589500Y-57373660D01*
X140588872Y-57386119D01*
X140588830Y-57386527D01*
X140589113Y-57394880D01*
X140588990Y-57394884D01*
X140589500Y-57400926D01*
X140589500Y-58045090D01*
X140569815Y-58112129D01*
X140517011Y-58157884D01*
X140447853Y-58167828D01*
X140384297Y-58138803D01*
X140369646Y-58123754D01*
X140246410Y-57973589D01*
X140086452Y-57842317D01*
X140086453Y-57842317D01*
X140086450Y-57842315D01*
X139903954Y-57744768D01*
X139705934Y-57684700D01*
X139705932Y-57684699D01*
X139705934Y-57684699D01*
X139500000Y-57664417D01*
X139294067Y-57684699D01*
X139096043Y-57744769D01*
X139000167Y-57796017D01*
X138913550Y-57842315D01*
X138913548Y-57842316D01*
X138913547Y-57842317D01*
X138753589Y-57973589D01*
X138630354Y-58123754D01*
X138622315Y-58133550D01*
X138609308Y-58157884D01*
X138524769Y-58316043D01*
X138464699Y-58514067D01*
X138444417Y-58720000D01*
X138464699Y-58925932D01*
X138464700Y-58925934D01*
X138524768Y-59123954D01*
X138622315Y-59306450D01*
X138622317Y-59306452D01*
X138753589Y-59466410D01*
X138820406Y-59521244D01*
X138913550Y-59597685D01*
X139096046Y-59695232D01*
X139294066Y-59755300D01*
X139294065Y-59755300D01*
X139312529Y-59757118D01*
X139500000Y-59775583D01*
X139705934Y-59755300D01*
X139903954Y-59695232D01*
X140086450Y-59597685D01*
X140246410Y-59466410D01*
X140369647Y-59316244D01*
X140427392Y-59276910D01*
X140497236Y-59275039D01*
X140557005Y-59311226D01*
X140587721Y-59373982D01*
X140589500Y-59394909D01*
X140589500Y-60585090D01*
X140569815Y-60652129D01*
X140517011Y-60697884D01*
X140447853Y-60707828D01*
X140384297Y-60678803D01*
X140369646Y-60663754D01*
X140246410Y-60513589D01*
X140086452Y-60382317D01*
X140086453Y-60382317D01*
X140086450Y-60382315D01*
X139964786Y-60317283D01*
X139903953Y-60284767D01*
X139894662Y-60281949D01*
X139879974Y-60276457D01*
X139878618Y-60275850D01*
X139878615Y-60275848D01*
X139385484Y-60110813D01*
X138496783Y-59813393D01*
X138448455Y-59783484D01*
X137998285Y-59333314D01*
X137998277Y-59333308D01*
X137929768Y-59293755D01*
X137929763Y-59293752D01*
X137904286Y-59286925D01*
X137853335Y-59273273D01*
X137853333Y-59273273D01*
X136326392Y-59273273D01*
X136270455Y-59259940D01*
X134898486Y-58566477D01*
X134889144Y-58561236D01*
X134868811Y-58548646D01*
X134868809Y-58548645D01*
X134861898Y-58545967D01*
X134850509Y-58541555D01*
X134839376Y-58536600D01*
X134821944Y-58527789D01*
X134814890Y-58524390D01*
X134814891Y-58524390D01*
X134814861Y-58524376D01*
X134814111Y-58524032D01*
X134814106Y-58524030D01*
X134803156Y-58521634D01*
X134784875Y-58516129D01*
X134755214Y-58504638D01*
X134671751Y-58472305D01*
X134464020Y-58433473D01*
X134252692Y-58433473D01*
X134044961Y-58472305D01*
X134044958Y-58472305D01*
X134044958Y-58472306D01*
X133847903Y-58548644D01*
X133847902Y-58548645D01*
X133668226Y-58659897D01*
X133512055Y-58802264D01*
X133384700Y-58970910D01*
X133290503Y-59160082D01*
X133290500Y-59160088D01*
X133232670Y-59363343D01*
X133232669Y-59363346D01*
X133213171Y-59573772D01*
X131400500Y-59573772D01*
X131400500Y-57033772D01*
X133213171Y-57033772D01*
X133213171Y-57033773D01*
X133232669Y-57244199D01*
X133232670Y-57244202D01*
X133290500Y-57447457D01*
X133290503Y-57447463D01*
X133384700Y-57636635D01*
X133512055Y-57805281D01*
X133572341Y-57860238D01*
X133668228Y-57947650D01*
X133847903Y-58058901D01*
X134044961Y-58135241D01*
X134252692Y-58174073D01*
X134252694Y-58174073D01*
X134464018Y-58174073D01*
X134464020Y-58174073D01*
X134671751Y-58135241D01*
X134731410Y-58112129D01*
X134791496Y-58088852D01*
X134803013Y-58085026D01*
X134821951Y-58079752D01*
X134839375Y-58070944D01*
X134850479Y-58066001D01*
X134868809Y-58058901D01*
X134889171Y-58046292D01*
X134898497Y-58041061D01*
X136072905Y-57447457D01*
X136270454Y-57347606D01*
X136326390Y-57334273D01*
X137853333Y-57334273D01*
X137853335Y-57334273D01*
X137929762Y-57313794D01*
X137998284Y-57274233D01*
X138054233Y-57218284D01*
X138093794Y-57149762D01*
X138114273Y-57073335D01*
X138114273Y-56994211D01*
X138093794Y-56917784D01*
X138093790Y-56917777D01*
X138054237Y-56849268D01*
X138054231Y-56849260D01*
X137998285Y-56793314D01*
X137998277Y-56793308D01*
X137929768Y-56753755D01*
X137929763Y-56753752D01*
X137904286Y-56746925D01*
X137853335Y-56733273D01*
X137853333Y-56733273D01*
X136326392Y-56733273D01*
X136270455Y-56719940D01*
X134898486Y-56026477D01*
X134889144Y-56021236D01*
X134868811Y-56008646D01*
X134868809Y-56008645D01*
X134861898Y-56005967D01*
X134850509Y-56001555D01*
X134839376Y-55996600D01*
X134821944Y-55987789D01*
X134814890Y-55984390D01*
X134814891Y-55984390D01*
X134814861Y-55984376D01*
X134814111Y-55984032D01*
X134814106Y-55984030D01*
X134803156Y-55981634D01*
X134784875Y-55976129D01*
X134755214Y-55964638D01*
X134671751Y-55932305D01*
X134464020Y-55893473D01*
X134252692Y-55893473D01*
X134044961Y-55932305D01*
X134044958Y-55932305D01*
X134044958Y-55932306D01*
X133847903Y-56008644D01*
X133847902Y-56008645D01*
X133668226Y-56119897D01*
X133512055Y-56262264D01*
X133384700Y-56430910D01*
X133290503Y-56620082D01*
X133290500Y-56620088D01*
X133232670Y-56823343D01*
X133232669Y-56823346D01*
X133213171Y-57033772D01*
X131400500Y-57033772D01*
X131400500Y-54493772D01*
X133213171Y-54493772D01*
X133213171Y-54493773D01*
X133232669Y-54704199D01*
X133232670Y-54704202D01*
X133290500Y-54907457D01*
X133290503Y-54907463D01*
X133384700Y-55096635D01*
X133512055Y-55265281D01*
X133646406Y-55387756D01*
X133668228Y-55407650D01*
X133847903Y-55518901D01*
X134044961Y-55595241D01*
X134252692Y-55634073D01*
X134252694Y-55634073D01*
X134464018Y-55634073D01*
X134464020Y-55634073D01*
X134671751Y-55595241D01*
X134724066Y-55574973D01*
X134791496Y-55548852D01*
X134803013Y-55545026D01*
X134821951Y-55539752D01*
X134839375Y-55530944D01*
X134850479Y-55526001D01*
X134868809Y-55518901D01*
X134889171Y-55506292D01*
X134898497Y-55501061D01*
X136103195Y-54892147D01*
X136270454Y-54807606D01*
X136326390Y-54794273D01*
X137637940Y-54794273D01*
X137704979Y-54813958D01*
X137725621Y-54830592D01*
X138023485Y-55128456D01*
X138053394Y-55176784D01*
X138281866Y-55859468D01*
X138411819Y-56247772D01*
X138515848Y-56558615D01*
X138515853Y-56558628D01*
X138518198Y-56565259D01*
X138520794Y-56572215D01*
X138520478Y-56572332D01*
X138523681Y-56580371D01*
X138524767Y-56583953D01*
X138524768Y-56583954D01*
X138622315Y-56766450D01*
X138622317Y-56766452D01*
X138753589Y-56926410D01*
X138836206Y-56994211D01*
X138913550Y-57057685D01*
X139096046Y-57155232D01*
X139294066Y-57215300D01*
X139294065Y-57215300D01*
X139312529Y-57217118D01*
X139500000Y-57235583D01*
X139705934Y-57215300D01*
X139903954Y-57155232D01*
X140086450Y-57057685D01*
X140246410Y-56926410D01*
X140377685Y-56766450D01*
X140475232Y-56583954D01*
X140535300Y-56385934D01*
X140555583Y-56180000D01*
X140535300Y-55974066D01*
X140475232Y-55776046D01*
X140377685Y-55593550D01*
X140303763Y-55503475D01*
X140246410Y-55433589D01*
X140086452Y-55302317D01*
X140086453Y-55302317D01*
X140086450Y-55302315D01*
X139964786Y-55237283D01*
X139903953Y-55204767D01*
X139894662Y-55201949D01*
X139879974Y-55196457D01*
X139878618Y-55195850D01*
X139878615Y-55195848D01*
X139090494Y-54932089D01*
X139033168Y-54892147D01*
X139006537Y-54827551D01*
X139019056Y-54758812D01*
X139066751Y-54707754D01*
X139129848Y-54690500D01*
X140154270Y-54690500D01*
X140184699Y-54687646D01*
X140184701Y-54687646D01*
X140248790Y-54665219D01*
X140312882Y-54642793D01*
X140422150Y-54562150D01*
X140502793Y-54452882D01*
X140526052Y-54386410D01*
X140547646Y-54324701D01*
X140547646Y-54324699D01*
X140550500Y-54294269D01*
X140550500Y-53640000D01*
X140984417Y-53640000D01*
X141004699Y-53845932D01*
X141004700Y-53845934D01*
X141064768Y-54043954D01*
X141162315Y-54226450D01*
X141162317Y-54226452D01*
X141293589Y-54386410D01*
X141374584Y-54452880D01*
X141453550Y-54517685D01*
X141636046Y-54615232D01*
X141834066Y-54675300D01*
X141834065Y-54675300D01*
X141852529Y-54677118D01*
X142040000Y-54695583D01*
X142245934Y-54675300D01*
X142443954Y-54615232D01*
X142626450Y-54517685D01*
X142786410Y-54386410D01*
X142917685Y-54226450D01*
X143015232Y-54043954D01*
X143075300Y-53845934D01*
X143095583Y-53640000D01*
X143075300Y-53434066D01*
X143015232Y-53236046D01*
X142917685Y-53053550D01*
X142837052Y-52955298D01*
X142786410Y-52893589D01*
X142626452Y-52762317D01*
X142626453Y-52762317D01*
X142626450Y-52762315D01*
X142443954Y-52664768D01*
X142245934Y-52604700D01*
X142245932Y-52604699D01*
X142245934Y-52604699D01*
X142040000Y-52584417D01*
X141834067Y-52604699D01*
X141636043Y-52664769D01*
X141587905Y-52690500D01*
X141453550Y-52762315D01*
X141453548Y-52762316D01*
X141453547Y-52762317D01*
X141293589Y-52893589D01*
X141162317Y-53053547D01*
X141162315Y-53053550D01*
X141140655Y-53094073D01*
X141064769Y-53236043D01*
X141004699Y-53434067D01*
X140984417Y-53640000D01*
X140550500Y-53640000D01*
X140550500Y-52985730D01*
X140547646Y-52955300D01*
X140547646Y-52955298D01*
X140514006Y-52859163D01*
X140502793Y-52827118D01*
X140422150Y-52717850D01*
X140312882Y-52637207D01*
X140312880Y-52637206D01*
X140184700Y-52592353D01*
X140154270Y-52589500D01*
X140154266Y-52589500D01*
X138845734Y-52589500D01*
X138845730Y-52589500D01*
X138815300Y-52592353D01*
X138815298Y-52592353D01*
X138687119Y-52637206D01*
X138687117Y-52637207D01*
X138577850Y-52717850D01*
X138497207Y-52827117D01*
X138497206Y-52827119D01*
X138452353Y-52955298D01*
X138452353Y-52955300D01*
X138449500Y-52985730D01*
X138449500Y-54294269D01*
X138452353Y-54324699D01*
X138452354Y-54324701D01*
X138478903Y-54400574D01*
X138482465Y-54470353D01*
X138447737Y-54530980D01*
X138385743Y-54563208D01*
X138316168Y-54556803D01*
X138274181Y-54529210D01*
X137998285Y-54253314D01*
X137998277Y-54253308D01*
X137929768Y-54213755D01*
X137929763Y-54213752D01*
X137904286Y-54206925D01*
X137853335Y-54193273D01*
X137853333Y-54193273D01*
X136326392Y-54193273D01*
X136270455Y-54179940D01*
X134898486Y-53486477D01*
X134889144Y-53481236D01*
X134868811Y-53468646D01*
X134868809Y-53468645D01*
X134861898Y-53465967D01*
X134850509Y-53461555D01*
X134839376Y-53456600D01*
X134821944Y-53447789D01*
X134814890Y-53444390D01*
X134814891Y-53444390D01*
X134814861Y-53444376D01*
X134814111Y-53444032D01*
X134814106Y-53444030D01*
X134803156Y-53441634D01*
X134784875Y-53436129D01*
X134755214Y-53424638D01*
X134671751Y-53392305D01*
X134464020Y-53353473D01*
X134252692Y-53353473D01*
X134044961Y-53392305D01*
X134044958Y-53392305D01*
X134044958Y-53392306D01*
X133847903Y-53468644D01*
X133847902Y-53468645D01*
X133668226Y-53579897D01*
X133512055Y-53722264D01*
X133384700Y-53890910D01*
X133290503Y-54080082D01*
X133290500Y-54080088D01*
X133232670Y-54283343D01*
X133232669Y-54283346D01*
X133213171Y-54493772D01*
X131400500Y-54493772D01*
X131400500Y-52845833D01*
X131420185Y-52778794D01*
X131436819Y-52758152D01*
X131468152Y-52726819D01*
X131529475Y-52693334D01*
X131555833Y-52690500D01*
X131651962Y-52690500D01*
X131651962Y-52690499D01*
X131790053Y-52649953D01*
X131911128Y-52572143D01*
X132005377Y-52463373D01*
X132065165Y-52332457D01*
X132085647Y-52190000D01*
X132065165Y-52047543D01*
X132022341Y-51953772D01*
X133213171Y-51953772D01*
X133213171Y-51953773D01*
X133232669Y-52164199D01*
X133232670Y-52164202D01*
X133290500Y-52367457D01*
X133290503Y-52367463D01*
X133384700Y-52556635D01*
X133512055Y-52725281D01*
X133570757Y-52778794D01*
X133668228Y-52867650D01*
X133847903Y-52978901D01*
X134044961Y-53055241D01*
X134252692Y-53094073D01*
X134252694Y-53094073D01*
X134464018Y-53094073D01*
X134464020Y-53094073D01*
X134671751Y-53055241D01*
X134868809Y-52978901D01*
X135048484Y-52867650D01*
X135204658Y-52725279D01*
X135332012Y-52556635D01*
X135426209Y-52367462D01*
X135426209Y-52367459D01*
X135426211Y-52367457D01*
X135484041Y-52164202D01*
X135484042Y-52164199D01*
X135503541Y-51953773D01*
X135503541Y-51953772D01*
X135484042Y-51743346D01*
X135484041Y-51743343D01*
X135480257Y-51730045D01*
X135475643Y-51713826D01*
X135426211Y-51540088D01*
X135426208Y-51540082D01*
X135332012Y-51350911D01*
X135204658Y-51182267D01*
X135204656Y-51182264D01*
X135048485Y-51039897D01*
X135048484Y-51039896D01*
X134868809Y-50928645D01*
X134868808Y-50928644D01*
X134724721Y-50872825D01*
X134671751Y-50852305D01*
X134464020Y-50813473D01*
X134252692Y-50813473D01*
X134044961Y-50852305D01*
X134044958Y-50852305D01*
X134044958Y-50852306D01*
X133847903Y-50928644D01*
X133847902Y-50928645D01*
X133668226Y-51039897D01*
X133512055Y-51182264D01*
X133384700Y-51350910D01*
X133290503Y-51540082D01*
X133290500Y-51540088D01*
X133232670Y-51743343D01*
X133232669Y-51743346D01*
X133213171Y-51953772D01*
X132022341Y-51953772D01*
X132005377Y-51916627D01*
X131911128Y-51807857D01*
X131790053Y-51730047D01*
X131790051Y-51730046D01*
X131790049Y-51730045D01*
X131790050Y-51730045D01*
X131651963Y-51689500D01*
X131651961Y-51689500D01*
X131508039Y-51689500D01*
X131508036Y-51689500D01*
X131369949Y-51730045D01*
X131248873Y-51807856D01*
X131154623Y-51916626D01*
X131154622Y-51916628D01*
X131094834Y-52047543D01*
X131074353Y-52190000D01*
X131075661Y-52199101D01*
X131065714Y-52268259D01*
X131040604Y-52304423D01*
X130915489Y-52429540D01*
X130859538Y-52485491D01*
X130859535Y-52485495D01*
X130819982Y-52554004D01*
X130819979Y-52554009D01*
X130809705Y-52592353D01*
X130799500Y-52630438D01*
X130799500Y-94099562D01*
X130804458Y-94118065D01*
X130819979Y-94175990D01*
X130839909Y-94210508D01*
X130839910Y-94210512D01*
X130859535Y-94244504D01*
X130859541Y-94244512D01*
X131735587Y-95120558D01*
X131769072Y-95181881D01*
X131764088Y-95251573D01*
X131722216Y-95307506D01*
X131656752Y-95331923D01*
X131656124Y-95331966D01*
X131488897Y-95342927D01*
X131488891Y-95342928D01*
X131488886Y-95342929D01*
X131191964Y-95401990D01*
X131191944Y-95401995D01*
X130905274Y-95499306D01*
X130905264Y-95499310D01*
X130633742Y-95633210D01*
X130633727Y-95633219D01*
X130381997Y-95801420D01*
X130235902Y-95929542D01*
X130172520Y-95958945D01*
X130103304Y-95949413D01*
X130050228Y-95903973D01*
X130030145Y-95837052D01*
X130030143Y-95836314D01*
X130030143Y-49413772D01*
X133213171Y-49413772D01*
X133213171Y-49413773D01*
X133232669Y-49624199D01*
X133232670Y-49624202D01*
X133290500Y-49827457D01*
X133290503Y-49827463D01*
X133384700Y-50016635D01*
X133512055Y-50185281D01*
X133646406Y-50307756D01*
X133668228Y-50327650D01*
X133847903Y-50438901D01*
X134044961Y-50515241D01*
X134252692Y-50554073D01*
X134252694Y-50554073D01*
X134464018Y-50554073D01*
X134464020Y-50554073D01*
X134671751Y-50515241D01*
X134868809Y-50438901D01*
X135048484Y-50327650D01*
X135204658Y-50185279D01*
X135332012Y-50016635D01*
X135426209Y-49827462D01*
X135426209Y-49827459D01*
X135426211Y-49827457D01*
X135484041Y-49624202D01*
X135484042Y-49624199D01*
X135503541Y-49413773D01*
X135503541Y-49413772D01*
X135484042Y-49203346D01*
X135484041Y-49203343D01*
X135426211Y-49000088D01*
X135426208Y-49000082D01*
X135332012Y-48810911D01*
X135204658Y-48642267D01*
X135204656Y-48642264D01*
X135048485Y-48499897D01*
X135048484Y-48499896D01*
X134868809Y-48388645D01*
X134868808Y-48388644D01*
X134724721Y-48332825D01*
X134671751Y-48312305D01*
X134464020Y-48273473D01*
X134252692Y-48273473D01*
X134044961Y-48312305D01*
X134044958Y-48312305D01*
X134044958Y-48312306D01*
X133847903Y-48388644D01*
X133847902Y-48388645D01*
X133668226Y-48499897D01*
X133512055Y-48642264D01*
X133384700Y-48810910D01*
X133290503Y-49000082D01*
X133290500Y-49000088D01*
X133232670Y-49203343D01*
X133232669Y-49203346D01*
X133213171Y-49413772D01*
X130030143Y-49413772D01*
X130030143Y-41543185D01*
X130049828Y-41476146D01*
X130066462Y-41455504D01*
X130673025Y-40848942D01*
X130734348Y-40815457D01*
X130760706Y-40812623D01*
X135927350Y-40812623D01*
X135927352Y-40812623D01*
X135953783Y-40805540D01*
X135985875Y-40801316D01*
X142560284Y-40801316D01*
X142627323Y-40821001D01*
G37*
%TD.AperFunction*%
%TA.AperFunction,Conductor*%
G36*
X133585058Y-83966815D02*
G01*
X133616089Y-84029415D01*
X133608349Y-84098855D01*
X133577513Y-84142593D01*
X133512053Y-84202267D01*
X133384700Y-84370910D01*
X133290503Y-84560082D01*
X133290500Y-84560088D01*
X133232670Y-84763340D01*
X133231812Y-84772597D01*
X133227957Y-84793826D01*
X132903681Y-85980595D01*
X132882444Y-86023394D01*
X132878095Y-86029062D01*
X132838538Y-86097577D01*
X132838535Y-86097582D01*
X132827415Y-86139083D01*
X132821884Y-86159727D01*
X132818056Y-86174012D01*
X132818056Y-86299675D01*
X132817500Y-86311402D01*
X132817004Y-86316614D01*
X132817277Y-86324036D01*
X132818056Y-86333260D01*
X132818056Y-88066877D01*
X132831708Y-88117828D01*
X132838535Y-88143305D01*
X132838536Y-88143306D01*
X132873728Y-88204260D01*
X132873728Y-88204261D01*
X132878093Y-88211822D01*
X132878097Y-88211827D01*
X133492124Y-88825854D01*
X133501909Y-88843774D01*
X134222413Y-89564277D01*
X134162275Y-89580392D01*
X134046436Y-89647271D01*
X133951854Y-89741853D01*
X133884975Y-89857692D01*
X133868860Y-89917830D01*
X133178413Y-89227382D01*
X133087748Y-89366155D01*
X132991901Y-89584668D01*
X132933325Y-89815976D01*
X132933323Y-89815984D01*
X132913621Y-90053766D01*
X132913621Y-90053779D01*
X132933323Y-90291561D01*
X132933325Y-90291569D01*
X132991901Y-90522877D01*
X133087747Y-90741387D01*
X133178413Y-90880162D01*
X133868860Y-90189714D01*
X133884975Y-90249854D01*
X133951854Y-90365693D01*
X134046436Y-90460275D01*
X134162275Y-90527154D01*
X134222413Y-90543267D01*
X133531195Y-91234484D01*
X133531196Y-91234485D01*
X133568158Y-91263254D01*
X133568164Y-91263259D01*
X133778006Y-91376819D01*
X133782704Y-91378880D01*
X133781887Y-91380741D01*
X133831811Y-91416108D01*
X133857937Y-91480909D01*
X133844882Y-91549548D01*
X133799806Y-91598424D01*
X133668232Y-91679892D01*
X133668227Y-91679896D01*
X133512055Y-91822264D01*
X133384700Y-91990910D01*
X133290503Y-92180082D01*
X133290500Y-92180088D01*
X133232670Y-92383343D01*
X133232670Y-92383346D01*
X133216374Y-92559202D01*
X133213586Y-92576250D01*
X133213528Y-92576492D01*
X133090559Y-93490282D01*
X133075055Y-93535743D01*
X133040201Y-93596112D01*
X133040201Y-93596113D01*
X133009500Y-93710691D01*
X133009500Y-94084341D01*
X133008392Y-94100878D01*
X133008120Y-94102897D01*
X133006747Y-94116507D01*
X133006641Y-94118083D01*
X133006502Y-94120341D01*
X133006502Y-94120352D01*
X133007748Y-94127681D01*
X133009500Y-94148451D01*
X133009500Y-94724626D01*
X132989815Y-94791665D01*
X132937011Y-94837420D01*
X132867853Y-94847364D01*
X132804297Y-94818339D01*
X132797819Y-94812307D01*
X132730053Y-94744541D01*
X132730045Y-94744535D01*
X132661536Y-94704982D01*
X132661531Y-94704979D01*
X132636054Y-94698152D01*
X132585103Y-94684500D01*
X132585101Y-94684500D01*
X132200833Y-94684500D01*
X132133794Y-94664815D01*
X132113152Y-94648181D01*
X131906158Y-94441187D01*
X131872673Y-94379864D01*
X131877657Y-94310172D01*
X131919529Y-94254239D01*
X131926792Y-94249195D01*
X132031128Y-94182143D01*
X132125377Y-94073373D01*
X132185165Y-93942457D01*
X132205647Y-93800000D01*
X132185165Y-93657543D01*
X132176334Y-93638207D01*
X132167914Y-93610099D01*
X132167882Y-93610108D01*
X132167670Y-93609285D01*
X132166593Y-93605692D01*
X132166364Y-93604209D01*
X132008022Y-93170561D01*
X132000500Y-93128030D01*
X132000500Y-85267961D01*
X132020185Y-85200922D01*
X132036814Y-85180284D01*
X133179234Y-84037864D01*
X133228211Y-84007742D01*
X133455276Y-83933149D01*
X133525108Y-83930928D01*
X133585058Y-83966815D01*
G37*
%TD.AperFunction*%
%TD*%
%TA.AperFunction,Conductor*%
%TO.N,/D33*%
G36*
X143312792Y-79588629D02*
G01*
X143171371Y-79447208D01*
X141714719Y-79934702D01*
X142039293Y-80720707D01*
X142825298Y-81045281D01*
X143312792Y-79588629D01*
G37*
%TD.AperFunction*%
%TD*%
%TA.AperFunction,Conductor*%
%TO.N,/D32*%
G36*
X138227208Y-86931371D02*
G01*
X138368629Y-87072792D01*
X139825281Y-86585298D01*
X139500707Y-85799293D01*
X138714702Y-85474719D01*
X138227208Y-86931371D01*
G37*
%TD.AperFunction*%
%TD*%
%TA.AperFunction,Conductor*%
%TO.N,/D37*%
G36*
X140748411Y-74606990D02*
G01*
X140606990Y-74748411D01*
X141254702Y-75965281D01*
X142040707Y-75640707D01*
X142040000Y-74790000D01*
X140748411Y-74606990D01*
G37*
%TD.AperFunction*%
%TD*%
%TA.AperFunction,Conductor*%
%TO.N,/D43*%
G36*
X136237956Y-79993773D02*
G01*
X136237956Y-79793773D01*
X134718002Y-79025511D01*
X134357356Y-79893773D01*
X134718002Y-80762035D01*
X136237956Y-79993773D01*
G37*
%TD.AperFunction*%
%TD*%
%TA.AperFunction,Conductor*%
%TO.N,/D27*%
G36*
X136237956Y-59673773D02*
G01*
X136237956Y-59473773D01*
X134718002Y-58705511D01*
X134357356Y-59573773D01*
X134718002Y-60442035D01*
X136237956Y-59673773D01*
G37*
%TD.AperFunction*%
%TD*%
%TA.AperFunction,Conductor*%
%TO.N,/A12*%
G36*
X123500000Y-111700000D02*
G01*
X123700000Y-111700000D01*
X123877164Y-111214805D01*
X123600000Y-111099000D01*
X123322836Y-111214805D01*
X123500000Y-111700000D01*
G37*
%TD.AperFunction*%
%TD*%
%TA.AperFunction,Conductor*%
%TO.N,/D42*%
G36*
X131085026Y-52543553D02*
G01*
X131226447Y-52684974D01*
X131694805Y-52467164D01*
X131580707Y-52189293D01*
X131302836Y-52075195D01*
X131085026Y-52543553D01*
G37*
%TD.AperFunction*%
%TD*%
%TA.AperFunction,Conductor*%
%TO.N,/D35*%
G36*
X143290000Y-76956345D02*
G01*
X143090000Y-76956345D01*
X141714719Y-77394702D01*
X142040000Y-78181000D01*
X142825298Y-78505281D01*
X143290000Y-76956345D01*
G37*
%TD.AperFunction*%
%TD*%
%TA.AperFunction,Conductor*%
%TO.N,/D39*%
G36*
X135410161Y-76351582D02*
G01*
X135551582Y-76210161D01*
X135298156Y-74813773D01*
X134357649Y-74813066D01*
X133998710Y-75682035D01*
X135410161Y-76351582D01*
G37*
%TD.AperFunction*%
%TD*%
%TA.AperFunction,Conductor*%
%TO.N,GND*%
G36*
X115169727Y-103867765D02*
G01*
X115311148Y-103726344D01*
X114823654Y-102269692D01*
X114037649Y-102594266D01*
X113713075Y-103380271D01*
X115169727Y-103867765D01*
G37*
%TD.AperFunction*%
%TD*%
%TA.AperFunction,Conductor*%
%TO.N,/D31*%
G36*
X135616723Y-66053561D02*
G01*
X135758144Y-65912140D01*
X135226618Y-64294127D01*
X134357649Y-64653066D01*
X133998710Y-65522035D01*
X135616723Y-66053561D01*
G37*
%TD.AperFunction*%
%TD*%
%TA.AperFunction,Conductor*%
%TO.N,VCC*%
G36*
X109983661Y-106513831D02*
G01*
X110337214Y-106160278D01*
X109743654Y-104809692D01*
X108957649Y-105134266D01*
X108633075Y-105920271D01*
X109983661Y-106513831D01*
G37*
%TD.AperFunction*%
%TD*%
%TA.AperFunction,Conductor*%
%TO.N,/D47*%
G36*
X135758144Y-83715406D02*
G01*
X135616723Y-83573985D01*
X133998710Y-84105511D01*
X134357649Y-84974480D01*
X135226618Y-85333419D01*
X135758144Y-83715406D01*
G37*
%TD.AperFunction*%
%TD*%
%TA.AperFunction,Conductor*%
%TO.N,GND*%
G36*
X117709727Y-103867765D02*
G01*
X117851148Y-103726344D01*
X117363654Y-102269692D01*
X116577649Y-102594266D01*
X116253075Y-103380271D01*
X117709727Y-103867765D01*
G37*
%TD.AperFunction*%
%TD*%
%TA.AperFunction,Conductor*%
%TO.N,VCC*%
G36*
X116900000Y-117100000D02*
G01*
X116900000Y-116900000D01*
X116414805Y-116722836D01*
X116299000Y-117000000D01*
X116414805Y-117277164D01*
X116900000Y-117100000D01*
G37*
%TD.AperFunction*%
%TD*%
%TA.AperFunction,Conductor*%
%TO.N,/D40*%
G36*
X140790000Y-57409745D02*
G01*
X140990000Y-57409745D01*
X142365281Y-56965298D01*
X142040000Y-56179000D01*
X141254702Y-55854719D01*
X140790000Y-57409745D01*
G37*
%TD.AperFunction*%
%TD*%
%TA.AperFunction,Conductor*%
%TO.N,/D33*%
G36*
X136037147Y-67578568D02*
G01*
X136178568Y-67437147D01*
X135022895Y-66529234D01*
X134357649Y-67193066D01*
X134718002Y-68062035D01*
X136037147Y-67578568D01*
G37*
%TD.AperFunction*%
%TD*%
%TA.AperFunction,Conductor*%
%TO.N,/MOSI*%
G36*
X133500000Y-111175736D02*
G01*
X133700000Y-111175736D01*
X134014805Y-110977164D01*
X133900000Y-110699000D01*
X133622836Y-110585195D01*
X133500000Y-111175736D01*
G37*
%TD.AperFunction*%
%TD*%
%TA.AperFunction,Conductor*%
%TO.N,/D53*%
G36*
X107900000Y-130300000D02*
G01*
X107900000Y-130100000D01*
X107050000Y-129350000D01*
X106199000Y-130200000D01*
X107050000Y-131050000D01*
X107900000Y-130300000D01*
G37*
%TD.AperFunction*%
%TD*%
%TA.AperFunction,Conductor*%
%TO.N,/D32*%
G36*
X136237956Y-87613773D02*
G01*
X136237956Y-87413773D01*
X134718002Y-86645511D01*
X134357356Y-87513773D01*
X134718002Y-88382035D01*
X136237956Y-87613773D01*
G37*
%TD.AperFunction*%
%TD*%
%TA.AperFunction,Conductor*%
%TO.N,VCC*%
G36*
X120200000Y-120900000D02*
G01*
X120000000Y-120900000D01*
X119822836Y-121385195D01*
X120100000Y-121501000D01*
X120377164Y-121385195D01*
X120200000Y-120900000D01*
G37*
%TD.AperFunction*%
%TD*%
%TA.AperFunction,Conductor*%
%TO.N,/MOSI*%
G36*
X107900000Y-135380000D02*
G01*
X107900000Y-135180000D01*
X106525281Y-134494702D01*
X106199000Y-135280000D01*
X106525281Y-136065298D01*
X107900000Y-135380000D01*
G37*
%TD.AperFunction*%
%TD*%
%TA.AperFunction,Conductor*%
%TO.N,/D47*%
G36*
X133018556Y-86339832D02*
G01*
X133218556Y-86339832D01*
X134718002Y-85842035D01*
X134358356Y-84972773D01*
X133490094Y-84614127D01*
X133018556Y-86339832D01*
G37*
%TD.AperFunction*%
%TD*%
%TA.AperFunction,Conductor*%
%TO.N,/D31*%
G36*
X143090000Y-84483655D02*
G01*
X143290000Y-84483655D01*
X142825298Y-82934719D01*
X142040000Y-83259000D01*
X141714719Y-84045298D01*
X143090000Y-84483655D01*
G37*
%TD.AperFunction*%
%TD*%
%TA.AperFunction,Conductor*%
%TO.N,/D45*%
G36*
X131800000Y-93200000D02*
G01*
X131600000Y-93200000D01*
X131422836Y-93685195D01*
X131700000Y-93801000D01*
X131977164Y-93685195D01*
X131800000Y-93200000D01*
G37*
%TD.AperFunction*%
%TD*%
%TA.AperFunction,Conductor*%
%TO.N,/D45*%
G36*
X132958568Y-83692140D02*
G01*
X133099989Y-83833561D01*
X134718002Y-83302035D01*
X134359063Y-82433066D01*
X133490094Y-82074127D01*
X132958568Y-83692140D01*
G37*
%TD.AperFunction*%
%TD*%
%TA.AperFunction,Conductor*%
%TO.N,/D47*%
G36*
X137800000Y-83160000D02*
G01*
X137800000Y-83360000D01*
X139174719Y-84045298D01*
X139501000Y-83260000D01*
X139174719Y-82474702D01*
X137800000Y-83160000D01*
G37*
%TD.AperFunction*%
%TD*%
%TA.AperFunction,Conductor*%
%TO.N,/D29*%
G36*
X133018556Y-63479832D02*
G01*
X133218556Y-63479832D01*
X134718002Y-62982035D01*
X134358356Y-62112773D01*
X133490094Y-61754127D01*
X133018556Y-63479832D01*
G37*
%TD.AperFunction*%
%TD*%
%TA.AperFunction,Conductor*%
%TO.N,/D44*%
G36*
X118505026Y-120053553D02*
G01*
X118646447Y-120194974D01*
X119114805Y-119977164D01*
X119000707Y-119699293D01*
X118722836Y-119585195D01*
X118505026Y-120053553D01*
G37*
%TD.AperFunction*%
%TD*%
%TA.AperFunction,Conductor*%
%TO.N,/D47*%
G36*
X138117678Y-100876257D02*
G01*
X137976257Y-101017678D01*
X138341333Y-102365827D01*
X139300707Y-102200707D01*
X139590827Y-101366333D01*
X138117678Y-100876257D01*
G37*
%TD.AperFunction*%
%TD*%
M02*
