%TF.GenerationSoftware,KiCad,Pcbnew,8.0.7*%
%TF.CreationDate,2025-04-05T19:32:49+03:00*%
%TF.ProjectId,Pool Extruder Redesign,506f6f6c-2045-4787-9472-756465722052,rev?*%
%TF.SameCoordinates,Original*%
%TF.FileFunction,Legend,Bot*%
%TF.FilePolarity,Positive*%
%FSLAX46Y46*%
G04 Gerber Fmt 4.6, Leading zero omitted, Abs format (unit mm)*
G04 Created by KiCad (PCBNEW 8.0.7) date 2025-04-05 19:32:49*
%MOMM*%
%LPD*%
G01*
G04 APERTURE LIST*
G04 Aperture macros list*
%AMRoundRect*
0 Rectangle with rounded corners*
0 $1 Rounding radius*
0 $2 $3 $4 $5 $6 $7 $8 $9 X,Y pos of 4 corners*
0 Add a 4 corners polygon primitive as box body*
4,1,4,$2,$3,$4,$5,$6,$7,$8,$9,$2,$3,0*
0 Add four circle primitives for the rounded corners*
1,1,$1+$1,$2,$3*
1,1,$1+$1,$4,$5*
1,1,$1+$1,$6,$7*
1,1,$1+$1,$8,$9*
0 Add four rect primitives between the rounded corners*
20,1,$1+$1,$2,$3,$4,$5,0*
20,1,$1+$1,$4,$5,$6,$7,0*
20,1,$1+$1,$6,$7,$8,$9,0*
20,1,$1+$1,$8,$9,$2,$3,0*%
G04 Aperture macros list end*
%ADD10C,0.150000*%
%ADD11C,0.120000*%
%ADD12RoundRect,0.250000X-0.725000X0.600000X-0.725000X-0.600000X0.725000X-0.600000X0.725000X0.600000X0*%
%ADD13O,1.950000X1.700000*%
%ADD14R,1.070000X1.800000*%
%ADD15O,1.070000X1.800000*%
%ADD16O,2.014000X3.824000*%
%ADD17RoundRect,0.250000X0.600000X0.600000X-0.600000X0.600000X-0.600000X-0.600000X0.600000X-0.600000X0*%
%ADD18C,1.700000*%
%ADD19C,1.879600*%
%ADD20RoundRect,0.250000X-0.600000X-0.600000X0.600000X-0.600000X0.600000X0.600000X-0.600000X0.600000X0*%
%ADD21R,1.700000X1.700000*%
%ADD22O,1.700000X1.700000*%
%ADD23RoundRect,0.250000X0.600000X0.750000X-0.600000X0.750000X-0.600000X-0.750000X0.600000X-0.750000X0*%
%ADD24O,1.700000X2.000000*%
%ADD25R,3.000000X3.000000*%
%ADD26C,3.000000*%
%ADD27C,2.200000*%
%ADD28RoundRect,0.250000X-0.600000X-0.750000X0.600000X-0.750000X0.600000X0.750000X-0.600000X0.750000X0*%
%ADD29R,2.000000X1.905000*%
%ADD30O,2.000000X1.905000*%
G04 APERTURE END LIST*
D10*
X161563333Y-95354819D02*
X161563333Y-96069104D01*
X161563333Y-96069104D02*
X161610952Y-96211961D01*
X161610952Y-96211961D02*
X161706190Y-96307200D01*
X161706190Y-96307200D02*
X161849047Y-96354819D01*
X161849047Y-96354819D02*
X161944285Y-96354819D01*
X160944285Y-95783390D02*
X161039523Y-95735771D01*
X161039523Y-95735771D02*
X161087142Y-95688152D01*
X161087142Y-95688152D02*
X161134761Y-95592914D01*
X161134761Y-95592914D02*
X161134761Y-95545295D01*
X161134761Y-95545295D02*
X161087142Y-95450057D01*
X161087142Y-95450057D02*
X161039523Y-95402438D01*
X161039523Y-95402438D02*
X160944285Y-95354819D01*
X160944285Y-95354819D02*
X160753809Y-95354819D01*
X160753809Y-95354819D02*
X160658571Y-95402438D01*
X160658571Y-95402438D02*
X160610952Y-95450057D01*
X160610952Y-95450057D02*
X160563333Y-95545295D01*
X160563333Y-95545295D02*
X160563333Y-95592914D01*
X160563333Y-95592914D02*
X160610952Y-95688152D01*
X160610952Y-95688152D02*
X160658571Y-95735771D01*
X160658571Y-95735771D02*
X160753809Y-95783390D01*
X160753809Y-95783390D02*
X160944285Y-95783390D01*
X160944285Y-95783390D02*
X161039523Y-95831009D01*
X161039523Y-95831009D02*
X161087142Y-95878628D01*
X161087142Y-95878628D02*
X161134761Y-95973866D01*
X161134761Y-95973866D02*
X161134761Y-96164342D01*
X161134761Y-96164342D02*
X161087142Y-96259580D01*
X161087142Y-96259580D02*
X161039523Y-96307200D01*
X161039523Y-96307200D02*
X160944285Y-96354819D01*
X160944285Y-96354819D02*
X160753809Y-96354819D01*
X160753809Y-96354819D02*
X160658571Y-96307200D01*
X160658571Y-96307200D02*
X160610952Y-96259580D01*
X160610952Y-96259580D02*
X160563333Y-96164342D01*
X160563333Y-96164342D02*
X160563333Y-95973866D01*
X160563333Y-95973866D02*
X160610952Y-95878628D01*
X160610952Y-95878628D02*
X160658571Y-95831009D01*
X160658571Y-95831009D02*
X160753809Y-95783390D01*
X161593333Y-73614819D02*
X161593333Y-74329104D01*
X161593333Y-74329104D02*
X161640952Y-74471961D01*
X161640952Y-74471961D02*
X161736190Y-74567200D01*
X161736190Y-74567200D02*
X161879047Y-74614819D01*
X161879047Y-74614819D02*
X161974285Y-74614819D01*
X161212380Y-73614819D02*
X160545714Y-73614819D01*
X160545714Y-73614819D02*
X160974285Y-74614819D01*
X106980268Y-123307883D02*
X107313601Y-122831692D01*
X107551696Y-123307883D02*
X107551696Y-122307883D01*
X107551696Y-122307883D02*
X107170744Y-122307883D01*
X107170744Y-122307883D02*
X107075506Y-122355502D01*
X107075506Y-122355502D02*
X107027887Y-122403121D01*
X107027887Y-122403121D02*
X106980268Y-122498359D01*
X106980268Y-122498359D02*
X106980268Y-122641216D01*
X106980268Y-122641216D02*
X107027887Y-122736454D01*
X107027887Y-122736454D02*
X107075506Y-122784073D01*
X107075506Y-122784073D02*
X107170744Y-122831692D01*
X107170744Y-122831692D02*
X107551696Y-122831692D01*
X106551696Y-122784073D02*
X106218363Y-122784073D01*
X106075506Y-123307883D02*
X106551696Y-123307883D01*
X106551696Y-123307883D02*
X106551696Y-122307883D01*
X106551696Y-122307883D02*
X106075506Y-122307883D01*
X105313601Y-122784073D02*
X105646934Y-122784073D01*
X105646934Y-123307883D02*
X105646934Y-122307883D01*
X105646934Y-122307883D02*
X105170744Y-122307883D01*
X104646934Y-122307883D02*
X104646934Y-122545978D01*
X104885029Y-122450740D02*
X104646934Y-122545978D01*
X104646934Y-122545978D02*
X104408839Y-122450740D01*
X104789791Y-122736454D02*
X104646934Y-122545978D01*
X104646934Y-122545978D02*
X104504077Y-122736454D01*
X103885029Y-122307883D02*
X103885029Y-122545978D01*
X104123124Y-122450740D02*
X103885029Y-122545978D01*
X103885029Y-122545978D02*
X103646934Y-122450740D01*
X104027886Y-122736454D02*
X103885029Y-122545978D01*
X103885029Y-122545978D02*
X103742172Y-122736454D01*
X106979572Y-144300826D02*
X107312905Y-143824635D01*
X107551000Y-144300826D02*
X107551000Y-143300826D01*
X107551000Y-143300826D02*
X107170048Y-143300826D01*
X107170048Y-143300826D02*
X107074810Y-143348445D01*
X107074810Y-143348445D02*
X107027191Y-143396064D01*
X107027191Y-143396064D02*
X106979572Y-143491302D01*
X106979572Y-143491302D02*
X106979572Y-143634159D01*
X106979572Y-143634159D02*
X107027191Y-143729397D01*
X107027191Y-143729397D02*
X107074810Y-143777016D01*
X107074810Y-143777016D02*
X107170048Y-143824635D01*
X107170048Y-143824635D02*
X107551000Y-143824635D01*
X106551000Y-143777016D02*
X106217667Y-143777016D01*
X106074810Y-144300826D02*
X106551000Y-144300826D01*
X106551000Y-144300826D02*
X106551000Y-143300826D01*
X106551000Y-143300826D02*
X106074810Y-143300826D01*
X105312905Y-143777016D02*
X105646238Y-143777016D01*
X105646238Y-144300826D02*
X105646238Y-143300826D01*
X105646238Y-143300826D02*
X105170048Y-143300826D01*
X104646238Y-143300826D02*
X104646238Y-143538921D01*
X104884333Y-143443683D02*
X104646238Y-143538921D01*
X104646238Y-143538921D02*
X104408143Y-143443683D01*
X104789095Y-143729397D02*
X104646238Y-143538921D01*
X104646238Y-143538921D02*
X104503381Y-143729397D01*
X103884333Y-143300826D02*
X103884333Y-143538921D01*
X104122428Y-143443683D02*
X103884333Y-143538921D01*
X103884333Y-143538921D02*
X103646238Y-143443683D01*
X104027190Y-143729397D02*
X103884333Y-143538921D01*
X103884333Y-143538921D02*
X103741476Y-143729397D01*
D11*
%TO.C,J8*%
X167180000Y-102500000D02*
X167180000Y-101500000D01*
X166180000Y-102000000D02*
X167180000Y-102500000D01*
X167180000Y-101500000D02*
X166180000Y-102000000D01*
X156670000Y-96790000D02*
X165790000Y-96790000D01*
X164480000Y-105030000D02*
X165790000Y-105030000D01*
X165790000Y-96790000D02*
X165790000Y-117370000D01*
X157980000Y-98090000D02*
X164480000Y-98090000D01*
X164480000Y-98090000D02*
X164480000Y-105030000D01*
X165790000Y-109130000D02*
X164480000Y-109130000D01*
X164480000Y-109130000D02*
X164480000Y-109130000D01*
X164480000Y-109130000D02*
X164480000Y-116070000D01*
X157980000Y-116070000D02*
X157980000Y-98090000D01*
X164480000Y-116070000D02*
X157980000Y-116070000D01*
X156670000Y-117370000D02*
X156670000Y-96790000D01*
X165790000Y-117370000D02*
X156670000Y-117370000D01*
%TO.C,J7*%
X167210000Y-80760000D02*
X167210000Y-79760000D01*
X166210000Y-80260000D02*
X167210000Y-80760000D01*
X167210000Y-79760000D02*
X166210000Y-80260000D01*
X156700000Y-75050000D02*
X165820000Y-75050000D01*
X164510000Y-83290000D02*
X165820000Y-83290000D01*
X165820000Y-75050000D02*
X165820000Y-95630000D01*
X158010000Y-76350000D02*
X164510000Y-76350000D01*
X164510000Y-76350000D02*
X164510000Y-83290000D01*
X165820000Y-87390000D02*
X164510000Y-87390000D01*
X164510000Y-87390000D02*
X164510000Y-87390000D01*
X164510000Y-87390000D02*
X164510000Y-94330000D01*
X158010000Y-94330000D02*
X158010000Y-76350000D01*
X164510000Y-94330000D02*
X158010000Y-94330000D01*
X156700000Y-95630000D02*
X156700000Y-75050000D01*
X165820000Y-95630000D02*
X156700000Y-95630000D01*
%TD*%
%LPC*%
D12*
%TO.C,J9*%
X139300000Y-94700000D03*
D13*
X139300000Y-97200000D03*
X139300000Y-99700000D03*
X139300000Y-102200000D03*
X139300000Y-104700000D03*
%TD*%
D14*
%TO.C,D12*%
X189220000Y-127220000D03*
D15*
X187950000Y-127220000D03*
X186680000Y-127220000D03*
X185410000Y-127220000D03*
%TD*%
D14*
%TO.C,D11*%
X189220000Y-111619821D03*
D15*
X187950000Y-111619821D03*
X186680000Y-111619821D03*
X185410000Y-111619821D03*
%TD*%
D14*
%TO.C,D10*%
X189220000Y-96019645D03*
D15*
X187950000Y-96019645D03*
X186680000Y-96019645D03*
X185410000Y-96019645D03*
%TD*%
D14*
%TO.C,D9*%
X189220000Y-80419469D03*
D15*
X187950000Y-80419469D03*
X186680000Y-80419469D03*
X185410000Y-80419469D03*
%TD*%
D14*
%TO.C,D8*%
X189220000Y-64819293D03*
D15*
X187950000Y-64819293D03*
X186680000Y-64819293D03*
X185410000Y-64819293D03*
%TD*%
D16*
%TO.C,S5*%
X170470000Y-127170000D03*
X175170000Y-127170000D03*
X179870000Y-127170000D03*
%TD*%
%TO.C,S4*%
X170340000Y-111602500D03*
X175040000Y-111602500D03*
X179740000Y-111602500D03*
%TD*%
%TO.C,S3*%
X170340000Y-96035000D03*
X175040000Y-96035000D03*
X179740000Y-96035000D03*
%TD*%
%TO.C,S2*%
X170340000Y-80467500D03*
X175040000Y-80467500D03*
X179740000Y-80467500D03*
%TD*%
%TO.C,S1*%
X170470000Y-64900000D03*
X175170000Y-64900000D03*
X179870000Y-64900000D03*
%TD*%
D17*
%TO.C,J8*%
X162500000Y-102000000D03*
D18*
X159960000Y-102000000D03*
X162500000Y-104540000D03*
X159960000Y-104540000D03*
X162500000Y-107080000D03*
X159960000Y-107080000D03*
X162500000Y-109620000D03*
X159960000Y-109620000D03*
X162500000Y-112160000D03*
X159960000Y-112160000D03*
%TD*%
D17*
%TO.C,J7*%
X162530000Y-80260000D03*
D18*
X159990000Y-80260000D03*
X162530000Y-82800000D03*
X159990000Y-82800000D03*
X162530000Y-85340000D03*
X159990000Y-85340000D03*
X162530000Y-87880000D03*
X159990000Y-87880000D03*
X162530000Y-90420000D03*
X159990000Y-90420000D03*
%TD*%
D19*
%TO.C,AUX4*%
X134358356Y-92593773D03*
X134358356Y-90053773D03*
X134358356Y-87513773D03*
X134358356Y-84973773D03*
X134358356Y-82433773D03*
X134358356Y-79893773D03*
X134358356Y-77353773D03*
X134358356Y-74813773D03*
X134358356Y-72273773D03*
X134358356Y-69733773D03*
X134358356Y-67193773D03*
X134358356Y-64653773D03*
X134358356Y-62113773D03*
X134358356Y-59573773D03*
X134358356Y-57033773D03*
X134358356Y-54493773D03*
X134358356Y-51953773D03*
X134358356Y-49413773D03*
%TD*%
D20*
%TO.C,J6*%
X139500000Y-75640000D03*
D18*
X142040000Y-75640000D03*
X139500000Y-78180000D03*
X142040000Y-78180000D03*
X139500000Y-80720000D03*
X142040000Y-80720000D03*
X139500000Y-83260000D03*
X142040000Y-83260000D03*
X139500000Y-85800000D03*
X142040000Y-85800000D03*
%TD*%
D21*
%TO.C,J5*%
X106200000Y-130200000D03*
D22*
X106200000Y-132740000D03*
X106200000Y-135280000D03*
X106200000Y-137820000D03*
X106200000Y-140360000D03*
X106200000Y-142900000D03*
%TD*%
D21*
%TO.C,REF\u002A\u002A*%
X137500000Y-125500000D03*
D22*
X134960000Y-125500000D03*
X132420000Y-125500000D03*
X129880000Y-125500000D03*
X127340000Y-125500000D03*
%TD*%
D23*
%TO.C,T4*%
X120400000Y-112500000D03*
D24*
X117900000Y-112500000D03*
%TD*%
D25*
%TO.C,J3*%
X86200000Y-143600000D03*
D26*
X86200000Y-148600000D03*
%TD*%
D18*
%TO.C,AUX2*%
X108958356Y-105134973D03*
X108958356Y-102594973D03*
X111498356Y-105134973D03*
X111498356Y-102594973D03*
X114038356Y-105134973D03*
X114038356Y-102594973D03*
X116578356Y-105134973D03*
X116578356Y-102594973D03*
X119118356Y-105134973D03*
X119118356Y-102594973D03*
%TD*%
D27*
%TO.C,REF\u002A\u002A*%
X142829944Y-125749720D03*
%TD*%
D28*
%TO.C,T1*%
X126837500Y-111490000D03*
D24*
X129337500Y-111490000D03*
%TD*%
D25*
%TO.C,J4*%
X86300000Y-132200000D03*
D26*
X86300000Y-137200000D03*
%TD*%
D23*
%TO.C,T3*%
X111450000Y-112500000D03*
D24*
X108950000Y-112500000D03*
%TD*%
D18*
%TO.C,AUX3*%
X134517056Y-102594973D03*
X134517056Y-105134973D03*
X131977056Y-102594973D03*
X131977056Y-105134973D03*
X129437056Y-102594973D03*
X129437056Y-105134973D03*
X126897056Y-102594973D03*
X126897056Y-105134973D03*
%TD*%
D29*
%TO.C,Q2*%
X101800000Y-148890000D03*
D30*
X101800000Y-146350000D03*
X101800000Y-143810000D03*
%TD*%
D27*
%TO.C,REF\u002A\u002A*%
X143646935Y-147053064D03*
%TD*%
D20*
%TO.C,J2*%
X139500000Y-53640000D03*
D18*
X142040000Y-53640000D03*
X139500000Y-56180000D03*
X142040000Y-56180000D03*
X139500000Y-58720000D03*
X142040000Y-58720000D03*
X139500000Y-61260000D03*
X142040000Y-61260000D03*
X139500000Y-63800000D03*
X142040000Y-63800000D03*
%TD*%
D21*
%TO.C,REF\u002A\u002A*%
X137550000Y-147475000D03*
D22*
X135010000Y-147475000D03*
X132470000Y-147475000D03*
X129930000Y-147475000D03*
X127390000Y-147475000D03*
%TD*%
D29*
%TO.C,Q1*%
X101775000Y-137540000D03*
D30*
X101775000Y-135000000D03*
X101775000Y-132460000D03*
%TD*%
D28*
%TO.C,T2*%
X126837500Y-119290000D03*
D24*
X129337500Y-119290000D03*
%TD*%
D25*
%TO.C,J1*%
X98785000Y-121400000D03*
D26*
X98785000Y-126400000D03*
%TD*%
D27*
%TO.C,REF\u002A\u002A*%
X105646935Y-126053064D03*
%TD*%
%TO.C,REF\u002A\u002A*%
X105646239Y-147046007D03*
%TD*%
%LPD*%
M02*
