%TF.GenerationSoftware,KiCad,Pcbnew,8.0.7*%
%TF.CreationDate,2025-04-05T19:32:49+03:00*%
%TF.ProjectId,Pool Extruder Redesign,506f6f6c-2045-4787-9472-756465722052,rev?*%
%TF.SameCoordinates,Original*%
%TF.FileFunction,Profile,NP*%
%FSLAX46Y46*%
G04 Gerber Fmt 4.6, Leading zero omitted, Abs format (unit mm)*
G04 Created by KiCad (PCBNEW 8.0.7) date 2025-04-05 19:32:49*
%MOMM*%
%LPD*%
G01*
G04 APERTURE LIST*
%TA.AperFunction,Profile*%
%ADD10C,0.250000*%
%TD*%
%TA.AperFunction,Profile*%
%ADD11C,0.200000*%
%TD*%
G04 APERTURE END LIST*
D10*
X166488427Y-143548427D02*
G75*
G02*
X166488427Y-140548427I0J1500000D01*
G01*
X181808427Y-60048427D02*
X181808424Y-60048427D01*
X166488427Y-51548427D02*
G75*
G02*
X166488427Y-48548427I0J1500000D01*
G01*
X181808424Y-130966181D02*
X191050766Y-130966181D01*
X162488427Y-50048427D02*
X162488427Y-71048427D01*
X173488427Y-140548427D02*
G75*
G02*
X173488427Y-143548433I3J-1500003D01*
G01*
X177488427Y-136048427D02*
X177808427Y-136048427D01*
X173488427Y-48548427D02*
X166488427Y-48548427D01*
X173488427Y-140548427D02*
X166488427Y-140548427D01*
X177808427Y-56048427D02*
G75*
G02*
X181808433Y-60048427I3J-4000003D01*
G01*
X177488427Y-142048427D02*
G75*
G02*
X173488427Y-146048427I-3999997J-3D01*
G01*
X166488427Y-51548427D02*
X173488427Y-51548427D01*
X181808424Y-61130673D02*
X181808424Y-60048427D01*
X191050766Y-130966181D02*
X191050766Y-61130673D01*
X154988427Y-75048427D02*
G75*
G02*
X158988427Y-71048427I4000000J0D01*
G01*
X166488427Y-143548427D02*
X173488427Y-143548427D01*
X162488427Y-121048427D02*
X162488427Y-142048427D01*
X154988427Y-75048427D02*
X154988427Y-117048427D01*
X173488427Y-48548427D02*
G75*
G02*
X173488427Y-51548433I3J-1500003D01*
G01*
X158988427Y-121048427D02*
G75*
G02*
X154988427Y-117048427I0J4000000D01*
G01*
X173488427Y-46048427D02*
G75*
G02*
X177488433Y-50048427I3J-4000003D01*
G01*
X173488427Y-46048427D02*
X166488427Y-46048427D01*
X181808424Y-132048427D02*
X181808424Y-130966181D01*
X181808424Y-132048427D02*
G75*
G02*
X177808427Y-136048424I-4000004J7D01*
G01*
X162488427Y-71048427D02*
X158988427Y-71048427D01*
X177808427Y-56048427D02*
X177488427Y-56048427D01*
X177488427Y-142048427D02*
X177488427Y-136048427D01*
X166488427Y-146048427D02*
X173488427Y-146048427D01*
X158988427Y-121048427D02*
X162488427Y-121048427D01*
X162488427Y-50048427D02*
G75*
G02*
X166488427Y-46048427I4000000J0D01*
G01*
X166488427Y-146048427D02*
G75*
G02*
X162488427Y-142048427I0J4000000D01*
G01*
X177488427Y-56048427D02*
X177488427Y-50048427D01*
X191050766Y-61130673D02*
X181808424Y-61130673D01*
D11*
X142826458Y-40300816D02*
X145302650Y-42880183D01*
X140295955Y-154256099D02*
X142799303Y-151519725D01*
X145302650Y-108593977D02*
X145302650Y-149016377D01*
X105446128Y-108593977D02*
X105446128Y-115838737D01*
X105446128Y-115838737D02*
X103184765Y-118310602D01*
X142826458Y-40300816D02*
X135861460Y-40300816D01*
X145302650Y-108593977D02*
X143041287Y-106332614D01*
X123113026Y-101753354D02*
X121982345Y-100622672D01*
X129529643Y-41284509D02*
X130502030Y-40312123D01*
X83887325Y-118310602D02*
X78880631Y-123783350D01*
X123113026Y-101753354D02*
X124243708Y-100622672D01*
X143041287Y-92425232D02*
X143041287Y-106332614D01*
X118957772Y-100622672D02*
X121982345Y-100622672D01*
X130502030Y-40312123D02*
X135861460Y-40312123D01*
X83887325Y-154256099D02*
X78880631Y-148783350D01*
X142799303Y-151519725D02*
X144599303Y-149719725D01*
X144599303Y-149719725D02*
X145302650Y-149016377D01*
X118957772Y-100622672D02*
X105446128Y-100622672D01*
X103184765Y-102884035D02*
X103184765Y-106332614D01*
X105446128Y-108593977D02*
X103184765Y-106332614D01*
X129529643Y-98361286D02*
G75*
G02*
X127263496Y-100622638I-2261343J-14D01*
G01*
X103184765Y-118310602D02*
X83887325Y-118310602D01*
X129529643Y-41284509D02*
X129529643Y-98361286D01*
X105446128Y-100622672D02*
X103184765Y-102884035D01*
X83887325Y-154256099D02*
X140295955Y-154256099D01*
X145302650Y-90163869D02*
X143041287Y-92425232D01*
X133600097Y-97637673D02*
G75*
G02*
X129981915Y-97637673I-1809091J0D01*
G01*
X129981915Y-97637673D02*
G75*
G02*
X133600097Y-97637673I1809091J0D01*
G01*
X135861460Y-40312123D02*
X135861460Y-40300816D01*
X127263496Y-100622672D02*
X124243708Y-100622672D01*
X78880631Y-123783350D02*
X78880631Y-148783350D01*
X145302650Y-42880183D02*
X145302650Y-90163869D01*
M02*
